<svg width="146" height="143" viewBox="0 0 146 143" fill="none" xmlns="http://www.w3.org/2000/svg">
<path d="M26.7523 -1.32134C18.5456 6.00814 12.8027 16.694 10.3198 27.5259C9.20066 32.5401 8.62749 37.5453 9.0552 42.534C9.4154 47.224 10.9585 51.8945 12.7227 56.0618C13.5671 58.0462 14.6013 59.9274 15.6434 61.7087C17.0103 63.9841 18.3772 66.2596 19.9417 68.332C22.9954 72.2781 27.4326 74.8026 31.9401 76.4266C36.7128 78.1462 41.8368 78.8609 46.9088 79.0768C52.5268 79.2837 58.4569 78.9859 64.1013 77.6937C69.9355 76.2984 75.6376 73.1068 79.3436 67.5502C82.5399 62.7015 83.3733 56.6929 81.1258 51.7342C79.1121 47.2714 75.0859 44.1406 70.7368 42.8137C65.9406 41.3942 60.7747 42.3788 56.1048 45.1536C46.2867 51.011 39.7739 63.4082 37.1687 74.6417C35.805 80.4593 35.3199 86.662 36.5117 92.3375C37.8543 98.4101 41.1106 103.252 45.7503 106.672C50.7383 110.287 56.6548 112.487 62.3061 114.592C68.3967 116.889 74.6018 118.885 80.9371 120.379C93.5087 123.468 106.554 125.151 119.709 125.433C122.976 125.479 126.161 125.427 129.445 125.273C132.364 125.124 132.755 120.122 129.836 120.27C105.221 121.277 81.0211 116.98 58.8424 107.755C54.0021 105.737 48.8136 103.525 45.2217 99.4874C42.0457 95.9429 40.5183 91.0723 40.3714 85.9791C40.2479 80.5857 41.3152 75.0728 43.1701 69.9464C44.9184 65.0217 47.3945 60.085 50.7102 56.0336C53.9271 52.0837 57.9081 48.8207 62.5516 47.545C66.3605 46.4829 70.4522 47.6143 73.548 49.8612C76.4617 52.1111 78.3717 55.5765 77.8768 59.5813C77.2126 64.588 73.1768 68.5514 69.0998 70.717C63.884 73.5008 57.7797 73.7016 52.3046 73.9919C47.8382 74.1656 43.3199 73.8406 38.9317 73.0139C34.6424 72.0857 30.3921 70.6571 26.7817 68.0191C23.3455 65.4781 21.1185 61.4184 18.8681 57.6588C16.7839 54.0963 15.3681 50.1231 14.3318 45.9438C13.2721 42.0646 13.2887 38.3675 13.7083 34.1641C14.7089 24.8555 18.5615 15.1001 24.509 7.60815C26.1214 5.58321 27.8013 3.8569 29.6631 2.12759C30.6435 1.21215 30.6855 -0.487094 29.937 -1.37396C29.1053 -2.35937 27.7326 -2.23677 26.7523 -1.32134Z" fill="white"/>
<path d="M100.243 96.3659C109.941 101.49 119.119 107.52 127.883 114.255C130.008 115.915 132.216 117.673 134.243 119.434C135.001 120.12 136.03 120.801 136.585 121.788C136.982 122.48 136.786 122.682 136.117 123.192C135.153 124.006 134.114 124.621 133.076 125.236C131.842 126.055 130.525 126.774 129.208 127.494C126.755 128.93 124.227 130.169 121.617 131.309C115.839 133.797 109.836 135.691 103.888 136.886C102.699 137.105 101.847 138.814 102.116 140.006C102.37 141.398 103.496 141.978 104.782 141.657C110.641 140.464 116.455 138.672 122.143 136.185C125.032 134.941 127.928 133.597 130.66 132.056C133.203 130.618 135.927 129.178 138.23 127.345C140.82 125.308 142.14 122.195 140.746 119.227C139.42 116.557 136.671 114.808 134.553 113.048C129.89 109.236 125.031 105.628 120.059 102.32C114.487 98.6231 108.808 95.1275 102.919 92.0343C101.882 91.4532 100.506 91.7751 99.7821 92.9835C98.976 94.0936 99.1988 95.8847 100.243 96.3659Z" fill="white"/>
</svg>
