<svg width="312" height="313" viewBox="0 0 312 313" fill="none" xmlns="http://www.w3.org/2000/svg">
<path d="M156.293 303.053C228.585 303.053 287.189 269.218 287.189 227.48C287.189 185.742 228.585 151.907 156.293 151.907C84.0008 151.907 25.3965 185.742 25.3965 227.48C25.3965 269.218 84.0008 303.053 156.293 303.053Z" fill="#F5F5F5"/>
<path d="M135.472 253.95C152.441 253.95 166.198 246.008 166.198 236.21C166.198 226.412 152.441 218.469 135.472 218.469C118.502 218.469 104.746 226.412 104.746 236.21C104.746 246.008 118.502 253.95 135.472 253.95Z" fill="#E0E0E0"/>
<path d="M187.562 270.424C208.109 270.424 224.765 260.808 224.765 248.946C224.765 237.084 208.109 227.468 187.562 227.468C167.016 227.468 150.359 237.084 150.359 248.946C150.359 260.808 167.016 270.424 187.562 270.424Z" fill="#E0E0E0"/>
<path d="M146.017 229.421C146.017 227.861 144.994 226.301 142.935 225.121C138.823 222.744 132.152 222.744 128.04 225.121C125.981 226.307 124.951 227.867 124.951 229.421V234.232C124.951 235.792 125.981 237.352 128.04 238.537C132.152 240.909 138.823 240.909 142.935 238.537C144.994 237.346 146.017 235.792 146.017 234.232V229.421Z" fill="#263238"/>
<path d="M142.96 229.932C147.072 232.31 147.072 236.172 142.96 238.537C138.848 240.902 132.177 240.908 128.065 238.537C123.953 236.166 123.947 232.297 128.065 229.932C132.183 227.567 138.848 227.561 142.96 229.932Z" fill="#37474F"/>
<path d="M146.043 229.421H124.977V234.232H146.043V229.421Z" fill="#37474F"/>
<path d="M142.96 225.14C147.072 227.511 147.072 231.38 142.96 233.739C138.848 236.097 132.177 236.116 128.065 233.739C123.953 231.361 123.947 227.499 128.065 225.14C132.183 222.781 138.848 222.744 142.96 225.14Z" fill="#455A64"/>
<path d="M139.015 226.213C140.956 227.33 140.956 229.146 139.015 230.263C137.928 230.814 136.727 231.101 135.508 231.101C134.29 231.101 133.088 230.814 132.002 230.263C130.067 229.146 130.067 227.33 132.002 226.213C133.088 225.662 134.29 225.375 135.508 225.375C136.727 225.375 137.928 225.662 139.015 226.213Z" fill="#263238"/>
<path d="M140.468 137.412H130.547V228.241H140.468V137.412Z" fill="#263238"/>
<path d="M176.026 95.4666V95.398C175.932 94.8801 175.82 94.3559 175.689 93.8318C175.706 93.8871 175.721 93.9433 175.732 94.0002C175.651 93.6445 175.558 93.2889 175.458 92.9332C175.495 93.0642 175.526 93.1953 175.558 93.3263C175.458 92.9332 175.345 92.5463 175.227 92.1532C175.283 92.3217 175.339 92.4964 175.383 92.6649C175.32 92.4402 175.252 92.2156 175.183 91.9909L175.071 91.6353V91.5854V91.6228C174.233 89.078 173.128 86.6288 171.776 84.3158C171.732 84.2346 171.689 84.1535 171.639 84.0724C168.238 78.2879 163.308 73.0026 157.805 69.7204L157.536 69.5581C155.958 68.6415 154.284 67.9008 152.544 67.3492C151.098 66.8918 149.593 66.65 148.077 66.6316H147.552H147.234C146.972 66.6316 146.716 66.6815 146.467 66.719H146.236L145.811 66.8001C145.63 66.8375 145.45 66.8812 145.275 66.9311L144.788 67.0746C144.788 67.0746 144.788 67.0746 144.757 67.0746L144.27 67.2494C144.108 67.318 143.946 67.3866 143.796 67.4615L142.723 68.0855L88.678 99.2855H88.6343C85.7078 100.927 83.9356 104.278 83.9356 109.039V138.435L63.5994 149.667C61.5847 150.778 59.9012 152.404 58.7212 154.379C57.5412 156.353 56.907 158.606 56.8835 160.907C56.86 163.207 57.4481 165.473 58.5875 167.471C59.727 169.47 61.377 171.13 63.3686 172.281C69.0316 175.548 75.4542 177.267 81.9919 177.267C88.5295 177.267 94.9521 175.548 100.615 172.281L121.681 160.425L176.425 128.794V99.3916C176.409 98.074 176.276 96.7604 176.026 95.4666Z" fill="#407BFF"/>
<path d="M87.7402 136.395V103.554L122.51 83.6731L125.642 114.037L87.7402 136.395Z" fill="#407BFF"/>
<path opacity="0.5" d="M87.7402 136.395V103.554L122.51 83.6731L125.642 114.037L87.7402 136.395Z" fill="black"/>
<path d="M87.7402 136.395L125.642 114.037V149.773L117.805 153.754L87.7402 136.395Z" fill="#407BFF"/>
<path opacity="0.3" d="M87.7402 136.395L125.642 114.037V149.773L117.805 153.754L87.7402 136.395Z" fill="black"/>
<path d="M176.029 95.4665L172.435 97.4446L150.557 109.419L146.601 111.572L119.258 126.548C117.523 123.615 113.018 109.931 110.615 107.454C108.301 105.019 105.659 102.919 102.765 101.214C99.3333 99.2292 96.1197 98.287 93.3429 98.287C91.7091 98.2534 90.0939 98.6379 88.6504 99.4039L142.701 68.2039L143.775 67.5799C143.924 67.505 144.087 67.4364 144.249 67.3678L144.736 67.193C144.736 67.193 144.736 67.193 144.767 67.193L145.253 67.0495C145.428 66.9996 145.609 66.9559 145.79 66.9185L146.214 66.8374H146.445C146.695 66.7999 146.951 66.7687 147.213 66.75H147.531H148.055C149.572 66.7684 151.077 67.0102 152.523 67.4676C154.263 68.0192 155.937 68.7599 157.515 69.6766L157.783 69.8388C166.825 75.1116 174.326 85.913 176.029 95.4665Z" fill="#407BFF"/>
<g opacity="0.3">
<path d="M176.031 95.4665L172.437 97.4446L150.559 109.419L146.603 111.572L119.26 126.548C117.525 123.615 113.02 109.931 110.617 107.454C108.303 105.019 105.661 102.919 102.767 101.214C99.3352 99.2292 96.1216 98.287 93.3448 98.287C91.711 98.2534 90.0958 98.6379 88.6523 99.4039L142.703 68.2039L143.776 67.5799C143.926 67.505 144.088 67.4364 144.251 67.3678L144.737 67.193C144.737 67.193 144.737 67.193 144.769 67.193L145.255 67.0495C145.43 66.9996 145.611 66.9559 145.792 66.9185L146.216 66.8374H146.447C146.697 66.7999 146.953 66.7687 147.215 66.75H147.533H148.057C149.574 66.7684 151.079 67.0102 152.525 67.4676C154.265 68.0192 155.939 68.7599 157.517 69.6766L157.785 69.8388C166.827 75.1116 174.328 85.913 176.031 95.4665Z" fill="black"/>
</g>
<path d="M171.6 84.116C171.65 84.191 171.7 84.2724 171.744 84.3537C171.718 84.2536 171.675 84.1723 171.6 84.116Z" fill="#407BFF"/>
<path d="M174.502 90.0442C175.179 91.8005 175.691 93.6158 176.031 95.4668L172.437 97.4448L150.56 109.419L146.603 111.572L119.26 126.548L121.681 160.425L176.424 128.795V99.3917C176.351 96.1856 175.7 93.0191 174.502 90.0442Z" fill="#407BFF"/>
<path d="M173.689 88.0847C173.458 87.5731 173.215 87.0551 172.959 86.5435C173.215 87.0551 173.471 87.5731 173.689 88.0847Z" fill="#407BFF"/>
<path d="M172.012 84.7402C172.274 85.2145 172.536 85.6887 172.779 86.1692C172.536 85.7137 172.28 85.2394 172.012 84.7402Z" fill="#407BFF"/>
<path d="M174.482 89.988C174.263 89.4264 174.032 88.871 173.789 88.3157C174.032 88.871 174.263 89.4264 174.482 89.988Z" fill="#407BFF"/>
<g opacity="0.5">
<path d="M171.6 84.116C171.65 84.191 171.7 84.2724 171.744 84.3537C171.718 84.2536 171.675 84.1723 171.6 84.116Z" fill="black"/>
<path d="M174.502 90.0439C175.179 91.8003 175.691 93.6156 176.031 95.4665L172.437 97.4446L150.56 109.419L146.603 111.572L119.26 126.548L121.681 160.425L176.424 128.794V99.3915C176.351 96.1854 175.7 93.0188 174.502 90.0439Z" fill="black"/>
<path d="M173.691 88.0845C173.46 87.5728 173.217 87.0549 172.961 86.5432C173.217 87.0549 173.473 87.5728 173.691 88.0845Z" fill="black"/>
<path d="M172.012 84.7397C172.274 85.214 172.536 85.6882 172.779 86.1687C172.536 85.7132 172.28 85.2389 172.012 84.7397Z" fill="black"/>
<path d="M174.484 89.9878C174.265 89.4262 174.034 88.8708 173.791 88.3154C174.034 88.8708 174.265 89.4262 174.484 89.9878Z" fill="black"/>
</g>
<path d="M93.3442 102.168C95.522 102.168 98.1178 102.998 100.832 104.577C110.024 109.881 117.793 121.993 117.793 131.028V153.754L87.7282 136.395V109.22C87.7282 103.391 90.7733 102.168 93.3442 102.168ZM93.3442 98.312C87.6908 98.312 83.8906 102.224 83.8906 109.22V138.616L121.655 160.456V131.028C121.655 120.595 113.2 107.26 102.773 101.239C99.3409 99.2605 96.1148 98.312 93.3442 98.312Z" fill="#407BFF"/>
<path d="M83.8907 138.616L63.5545 149.848C61.5398 150.959 59.8563 152.585 58.6763 154.56C57.4963 156.534 56.8621 158.787 56.8386 161.088C56.8151 163.388 57.4032 165.653 58.5426 167.652C59.6821 169.651 61.332 171.31 63.3236 172.462C68.9867 175.729 75.4093 177.448 81.9469 177.448C88.4846 177.448 94.9072 175.729 100.57 172.462L121.68 160.425L83.8907 138.616Z" fill="#407BFF"/>
<path opacity="0.2" d="M83.8907 138.616L63.5545 149.848C61.5398 150.959 59.8563 152.585 58.6763 154.56C57.4963 156.534 56.8621 158.787 56.8386 161.088C56.8151 163.388 57.4032 165.653 58.5426 167.652C59.6821 169.651 61.332 171.31 63.3236 172.462C68.9867 175.729 75.4093 177.448 81.9469 177.448C88.4846 177.448 94.9072 175.729 100.57 172.462L121.68 160.425L83.8907 138.616Z" fill="white"/>
<path d="M134.255 151.471L130.012 153.917V112.951L134.255 110.499V151.471Z" fill="#E0E0E0"/>
<path d="M142.267 114.062L130.012 121.132V112.951L142.267 105.875V114.062Z" fill="#E0E0E0"/>
<path d="M136.082 150.029C136.007 151.411 135.608 152.755 134.916 153.953C134.224 155.151 133.26 156.169 132.101 156.924C129.898 158.172 128.113 157.168 128.113 154.628C128.193 153.251 128.596 151.913 129.288 150.72C129.981 149.528 130.944 148.515 132.101 147.764C134.297 146.46 136.082 147.489 136.082 150.029Z" fill="#407BFF"/>
<path opacity="0.2" d="M136.082 150.029C136.007 151.411 135.608 152.755 134.916 153.953C134.224 155.151 133.26 156.169 132.101 156.924C129.898 158.172 128.113 157.168 128.113 154.628C128.193 153.251 128.596 151.913 129.288 150.72C129.981 149.528 130.944 148.515 132.101 147.764C134.297 146.46 136.082 147.489 136.082 150.029Z" fill="black"/>
<path d="M137.406 150.797C137.327 152.173 136.925 153.511 136.233 154.703C135.542 155.896 134.58 156.909 133.424 157.661C131.228 158.909 129.443 157.898 129.443 155.358C129.52 153.977 129.92 152.634 130.611 151.436C131.303 150.238 132.267 149.22 133.424 148.463C135.627 147.228 137.406 148.257 137.406 150.797Z" fill="#407BFF"/>
<path d="M226.338 218.276L233.377 222.357C233.377 222.357 229.82 211.006 231.792 199.594C232.534 195.288 234.107 193.148 234.656 191.993C235.205 190.839 239.461 183.725 235.717 180.443C231.973 177.161 223.206 183.688 223.599 201.272C223.792 207.033 224.712 212.746 226.338 218.276Z" fill="#407BFF"/>
<path opacity="0.3" d="M226.338 218.276L233.377 222.357C233.377 222.357 229.82 211.006 231.792 199.594C232.534 195.288 234.107 193.148 234.656 191.993C235.205 190.839 239.461 183.725 235.717 180.443C231.973 177.161 223.206 183.688 223.599 201.272C223.792 207.033 224.712 212.746 226.338 218.276Z" fill="black"/>
<path d="M229.632 220.485C229.568 220.483 229.506 220.463 229.454 220.426C229.402 220.39 229.362 220.339 229.338 220.279C229.338 220.204 226.649 212.791 226.786 200.935C226.924 189.079 233.201 182.64 233.263 182.577C233.322 182.518 233.402 182.485 233.485 182.485C233.568 182.485 233.648 182.518 233.706 182.577C233.765 182.636 233.798 182.716 233.798 182.799C233.798 182.882 233.765 182.961 233.706 183.02C233.644 183.083 227.554 189.26 227.417 200.941C227.279 212.623 229.913 219.98 229.913 220.055C229.941 220.132 229.937 220.218 229.902 220.293C229.867 220.368 229.803 220.426 229.725 220.454C229.697 220.471 229.665 220.481 229.632 220.485Z" fill="white"/>
<path d="M231.798 221.465L243.436 228.329C243.436 228.329 248.765 227.542 248.366 222.525C247.966 217.508 245.795 216.323 248.49 214.12C251.186 211.917 251.885 211.774 251.754 209.609C251.623 207.443 250.175 206.489 249.489 205.652C248.802 204.816 246.899 203 248.241 200.392C249.582 197.784 251.398 195.269 248.703 194.077C247.086 193.366 244.378 194.258 242.587 196.161C240.797 198.065 239.305 199.444 237.595 199.905C235.886 200.367 232.348 200.38 232.466 203.312C232.585 206.245 233.346 207.256 232.635 208.554C231.305 210.969 225.583 212.292 231.798 221.465Z" fill="#407BFF"/>
<path d="M236.541 224.566C236.462 224.566 236.385 224.536 236.327 224.481C236.269 224.427 236.234 224.352 236.229 224.273C236.229 224.098 234.944 206.751 246.999 195.357C247.028 195.321 247.063 195.292 247.104 195.272C247.144 195.251 247.188 195.24 247.234 195.238C247.279 195.236 247.324 195.244 247.366 195.26C247.408 195.277 247.446 195.303 247.477 195.336C247.509 195.368 247.533 195.407 247.548 195.45C247.563 195.493 247.569 195.538 247.565 195.583C247.561 195.628 247.547 195.672 247.525 195.711C247.503 195.751 247.473 195.785 247.436 195.812C235.58 206.994 236.828 224.054 236.828 224.223C236.835 224.306 236.809 224.389 236.755 224.453C236.701 224.518 236.625 224.558 236.541 224.566Z" fill="white"/>
<path d="M238.625 209.69C238.547 209.69 238.471 209.661 238.413 209.607C238.355 209.554 238.319 209.481 238.313 209.403C238.221 208.069 237.86 206.768 237.252 205.578C236.644 204.387 235.801 203.332 234.775 202.476C234.742 202.452 234.714 202.422 234.692 202.387C234.671 202.352 234.657 202.313 234.65 202.272C234.644 202.232 234.646 202.19 234.655 202.15C234.665 202.11 234.682 202.073 234.706 202.039C234.731 202.006 234.761 201.978 234.796 201.957C234.831 201.935 234.87 201.921 234.911 201.915C234.951 201.908 234.993 201.91 235.032 201.92C235.072 201.929 235.11 201.947 235.143 201.971C236.252 202.872 237.162 203.993 237.816 205.264C238.47 206.534 238.854 207.927 238.943 209.353C238.947 209.394 238.942 209.436 238.929 209.476C238.916 209.515 238.895 209.552 238.868 209.583C238.84 209.614 238.807 209.64 238.77 209.658C238.732 209.677 238.692 209.687 238.65 209.69H238.625Z" fill="white"/>
<path d="M237.746 212.66C237.667 212.662 237.591 212.633 237.534 212.579C237.504 212.55 237.481 212.516 237.465 212.477C237.45 212.439 237.441 212.399 237.441 212.358C237.441 212.316 237.45 212.276 237.465 212.238C237.481 212.2 237.504 212.165 237.534 212.136C237.658 211.992 240.691 208.716 247.705 209.677C247.788 209.69 247.863 209.734 247.914 209.8C247.965 209.866 247.988 209.95 247.979 210.033C247.967 210.115 247.923 210.19 247.856 210.24C247.79 210.29 247.706 210.312 247.624 210.301C240.934 209.384 238.033 212.523 238.002 212.554C237.97 212.59 237.93 212.618 237.886 212.636C237.842 212.655 237.794 212.663 237.746 212.66Z" fill="white"/>
<path d="M98.184 119.391C97.6286 119.391 97.067 119.391 96.5179 119.322C96.4421 119.317 96.3682 119.296 96.3005 119.262C96.2328 119.227 96.1727 119.179 96.1239 119.121C96.075 119.063 96.0383 118.995 96.0159 118.923C95.9936 118.85 95.986 118.774 95.9937 118.698C96.008 118.546 96.0815 118.406 96.1983 118.308C96.315 118.21 96.4657 118.162 96.6177 118.174C97.3582 118.243 98.1024 118.261 98.8454 118.23C98.9968 118.228 99.143 118.285 99.2535 118.389C99.364 118.492 99.4302 118.634 99.4382 118.786C99.4433 118.937 99.3885 119.084 99.2856 119.195C99.1828 119.306 99.0403 119.372 98.8891 119.378C98.6457 119.391 98.4149 119.391 98.184 119.391ZM101.142 119.154C100.996 119.156 100.855 119.103 100.747 119.005C100.639 118.907 100.572 118.772 100.56 118.627C100.548 118.481 100.592 118.337 100.682 118.223C100.773 118.109 100.904 118.033 101.048 118.012C101.78 117.892 102.504 117.723 103.213 117.506C103.357 117.47 103.508 117.491 103.637 117.564C103.765 117.637 103.861 117.756 103.903 117.898C103.946 118.039 103.932 118.191 103.865 118.323C103.799 118.455 103.683 118.556 103.544 118.605C102.788 118.838 102.016 119.019 101.235 119.148L101.142 119.154ZM94.2777 118.992H94.1654C93.3933 118.825 92.6309 118.617 91.8816 118.368C91.7373 118.318 91.6181 118.214 91.5493 118.077C91.4806 117.941 91.4677 117.783 91.5134 117.637C91.5632 117.493 91.6676 117.375 91.8043 117.307C91.9409 117.239 92.0987 117.228 92.2435 117.276C92.9494 117.508 93.6682 117.7 94.3963 117.85C94.4705 117.864 94.5409 117.894 94.6035 117.936C94.6661 117.979 94.7196 118.033 94.7609 118.097C94.8021 118.16 94.8303 118.231 94.8438 118.305C94.8573 118.38 94.8558 118.456 94.8394 118.53C94.8139 118.658 94.7456 118.773 94.6458 118.857C94.546 118.941 94.4206 118.988 94.2902 118.992H94.2777ZM105.51 117.8C105.379 117.8 105.253 117.756 105.151 117.675C105.049 117.594 104.977 117.481 104.948 117.354C104.919 117.226 104.934 117.093 104.991 116.976C105.048 116.858 105.143 116.764 105.26 116.708L105.66 116.514C105.727 116.476 105.802 116.452 105.879 116.443C105.956 116.435 106.034 116.442 106.108 116.465C106.183 116.487 106.251 116.524 106.311 116.574C106.37 116.624 106.419 116.686 106.454 116.755C106.489 116.824 106.51 116.9 106.515 116.977C106.52 117.055 106.509 117.132 106.483 117.205C106.457 117.279 106.417 117.346 106.364 117.403C106.312 117.46 106.248 117.506 106.177 117.538L105.753 117.75C105.681 117.787 105.603 117.808 105.522 117.812L105.51 117.8ZM89.9097 117.556C89.8255 117.556 89.7424 117.537 89.6664 117.5C88.9539 117.168 88.2603 116.797 87.5885 116.389C87.5241 116.348 87.4685 116.295 87.4248 116.233C87.381 116.17 87.35 116.1 87.3335 116.025C87.317 115.951 87.3153 115.874 87.3285 115.799C87.3418 115.724 87.3697 115.652 87.4106 115.588C87.4516 115.523 87.5048 115.468 87.5673 115.424C87.6298 115.38 87.7003 115.349 87.7747 115.333C87.8492 115.316 87.9262 115.314 88.0013 115.328C88.0764 115.341 88.1481 115.369 88.2125 115.41C88.8503 115.795 89.5085 116.145 90.1843 116.458C90.2995 116.516 90.3921 116.611 90.4474 116.728C90.5027 116.844 90.5176 116.976 90.4897 117.102C90.4617 117.228 90.3926 117.341 90.2933 117.423C90.1939 117.505 90.0699 117.552 89.9409 117.556H89.9097ZM85.9785 115.185C85.8556 115.182 85.7362 115.143 85.6354 115.073C85.0114 114.611 84.3873 114.106 83.8257 113.569C83.77 113.518 83.7249 113.457 83.6928 113.389C83.6608 113.32 83.6425 113.246 83.639 113.171C83.6355 113.096 83.6469 113.021 83.6726 112.95C83.6982 112.879 83.7375 112.813 83.7883 112.758C83.8391 112.702 83.9004 112.657 83.9687 112.625C84.0369 112.593 84.1108 112.575 84.1862 112.571C84.2615 112.568 84.3368 112.579 84.4077 112.605C84.4786 112.63 84.5438 112.67 84.5995 112.72C85.1611 113.232 85.7414 113.712 86.328 114.156C86.4232 114.229 86.4931 114.33 86.5279 114.444C86.5628 114.559 86.5608 114.682 86.5222 114.796C86.4837 114.909 86.4105 115.008 86.313 115.078C86.2155 115.148 86.0985 115.185 85.9785 115.185ZM82.5902 112.096C82.5103 112.097 82.4312 112.08 82.3581 112.048C82.285 112.016 82.2195 111.968 82.1659 111.909C81.648 111.341 81.1363 110.736 80.6621 110.112C80.6162 110.052 80.5825 109.984 80.563 109.911C80.5435 109.838 80.5385 109.762 80.5484 109.688C80.5683 109.537 80.6473 109.4 80.7681 109.307C80.889 109.214 81.0416 109.173 81.1926 109.193C81.3436 109.213 81.4804 109.292 81.5731 109.413C82.0286 110.037 82.5153 110.586 83.0145 111.135C83.0654 111.191 83.1047 111.256 83.1303 111.327C83.156 111.398 83.1674 111.473 83.1639 111.549C83.1604 111.624 83.1421 111.698 83.1101 111.766C83.078 111.834 83.0328 111.896 82.9771 111.947C82.8791 112.036 82.7536 112.088 82.6214 112.096H82.5902ZM79.8259 108.452C79.7295 108.452 79.6347 108.428 79.5506 108.381C79.4664 108.334 79.3958 108.266 79.3454 108.184C79.0958 107.797 78.8525 107.398 78.6216 106.998C78.4656 106.724 78.3096 106.443 78.1598 106.162C78.1026 106.03 78.0973 105.88 78.145 105.744C78.1928 105.608 78.2901 105.495 78.4176 105.427C78.5451 105.36 78.6933 105.342 78.8329 105.379C78.9725 105.416 79.0931 105.504 79.1707 105.625C79.3142 105.894 79.464 106.162 79.6137 106.424C79.8384 106.811 80.0693 107.192 80.3126 107.566C80.3668 107.653 80.3968 107.754 80.3995 107.857C80.4022 107.959 80.3776 108.061 80.328 108.151C80.2785 108.241 80.2059 108.317 80.1177 108.37C80.0295 108.423 79.9288 108.451 79.8259 108.452ZM77.6793 104.396C77.5664 104.397 77.4558 104.364 77.3614 104.301C77.2671 104.239 77.1932 104.151 77.1489 104.047C76.8432 103.323 76.5686 102.58 76.3315 101.844C76.3081 101.772 76.2991 101.697 76.305 101.621C76.3108 101.546 76.3314 101.473 76.3656 101.406C76.3998 101.339 76.4469 101.279 76.5042 101.23C76.5615 101.181 76.628 101.143 76.6997 101.12C76.8453 101.075 77.0029 101.089 77.1384 101.159C77.2738 101.229 77.3763 101.35 77.4235 101.495C77.6481 102.2 77.9102 102.905 78.2035 103.597C78.2422 103.684 78.2584 103.78 78.2507 103.874C78.243 103.969 78.2116 104.06 78.1595 104.14C78.1073 104.219 78.036 104.285 77.9521 104.329C77.8682 104.374 77.7744 104.397 77.6793 104.396ZM76.2816 100.028C76.1502 100.027 76.0232 99.9813 75.9212 99.8986C75.8192 99.8158 75.7482 99.7009 75.72 99.5726C75.5532 98.8041 75.4282 98.0272 75.3456 97.2451C75.3316 97.0947 75.3775 96.9448 75.4733 96.828C75.5691 96.7112 75.707 96.6369 75.8573 96.6211C75.9373 96.6025 76.0206 96.6025 76.1006 96.6211C76.1425 96.5435 76.2023 96.477 76.275 96.4271C76.3477 96.3772 76.4312 96.3453 76.5187 96.3341C77.2458 96.2336 77.9636 96.075 78.6653 95.8598C78.8109 95.8143 78.9687 95.8285 79.1038 95.8993C79.239 95.9701 79.3405 96.0917 79.386 96.2374C79.4315 96.383 79.4173 96.5407 79.3465 96.6759C79.2757 96.8111 79.1541 96.9126 79.0085 96.9581C78.2451 97.1909 77.4649 97.3641 76.6747 97.476C76.6271 97.4823 76.5788 97.4823 76.5312 97.476C76.6061 98.1 76.7121 98.724 76.8432 99.3106C76.8596 99.3844 76.8611 99.4607 76.8476 99.5351C76.8342 99.6095 76.806 99.6805 76.7647 99.7438C76.7234 99.8072 76.6699 99.8616 76.6073 99.904C76.5447 99.9464 76.4743 99.9759 76.4001 99.9907C76.3632 100.012 76.3232 100.026 76.2816 100.034V100.028ZM74.3035 97.6445C73.5118 97.6323 72.7217 97.5676 71.9385 97.451C71.7891 97.4274 71.655 97.3457 71.5654 97.2238C71.4759 97.1018 71.4381 96.9494 71.4603 96.7997C71.4825 96.6501 71.5629 96.5152 71.684 96.4245C71.8051 96.3338 71.9571 96.2946 72.107 96.3154C72.8382 96.4275 73.5763 96.488 74.316 96.4963C74.4682 96.4963 74.6143 96.5568 74.7219 96.6645C74.8296 96.7721 74.8901 96.9181 74.8901 97.0704C74.8901 97.2226 74.8296 97.3687 74.7219 97.4763C74.6143 97.584 74.4682 97.6445 74.316 97.6445H74.3035ZM69.7733 96.9706C69.7217 96.9795 69.6689 96.9795 69.6173 96.9706C68.858 96.7486 68.1138 96.4776 67.3896 96.1594C67.2497 96.0989 67.1396 95.9855 67.0835 95.8439C67.0273 95.7023 67.0297 95.5442 67.0901 95.4043C67.1505 95.2645 67.264 95.1543 67.4056 95.0982C67.5472 95.042 67.7053 95.0444 67.8451 95.1048C68.5267 95.3985 69.2272 95.6466 69.9417 95.8474C70.0874 95.8908 70.2101 95.9897 70.2836 96.1227C70.3571 96.2557 70.3755 96.4123 70.3349 96.5587C70.2986 96.6795 70.2244 96.7854 70.1233 96.8607C70.0221 96.936 69.8994 96.9767 69.7733 96.9768V96.9706ZM80.9616 96.1406C80.8346 96.1384 80.712 96.0942 80.6128 96.0148C80.5137 95.9355 80.4436 95.8255 80.4137 95.7021C80.3837 95.5787 80.3955 95.4488 80.4472 95.3328C80.499 95.2169 80.5877 95.1213 80.6995 95.0611C81.3422 94.7315 81.9452 94.3295 82.4966 93.863C82.6122 93.7642 82.762 93.7148 82.9137 93.7253C83.0654 93.7358 83.2069 93.8054 83.3078 93.9192C83.3571 93.9765 83.3947 94.0429 83.4182 94.1148C83.4418 94.1866 83.4509 94.2624 83.4451 94.3378C83.4393 94.4131 83.4187 94.4866 83.3844 94.554C83.3502 94.6214 83.3029 94.6813 83.2454 94.7304C82.6305 95.2594 81.9537 95.712 81.2299 96.0782C81.1472 96.1222 81.0552 96.1457 80.9616 96.1469V96.1406ZM75.8136 95.4667C75.6608 95.4634 75.5154 95.4 75.4091 95.2902C75.3028 95.1803 75.2441 95.033 75.2457 94.8802C75.2583 94.091 75.3187 93.3033 75.4267 92.5214C75.4345 92.4445 75.4578 92.3699 75.4952 92.3022C75.5325 92.2344 75.5832 92.1749 75.6441 92.1273C75.7051 92.0796 75.775 92.0448 75.8497 92.0248C75.9245 92.0048 76.0025 92.0002 76.079 92.0111C76.1556 92.0221 76.2292 92.0484 76.2953 92.0885C76.3615 92.1286 76.4189 92.1816 76.464 92.2444C76.5092 92.3072 76.5412 92.3785 76.5581 92.454C76.575 92.5295 76.5764 92.6076 76.5624 92.6837C76.4617 93.418 76.4054 94.1578 76.3939 94.8989C76.3923 95.0517 76.3304 95.1977 76.2217 95.3052C76.1131 95.4127 75.9664 95.473 75.8136 95.473V95.4667ZM65.555 95.1734C65.4547 95.1719 65.3563 95.1462 65.268 95.0986C64.5854 94.7011 63.927 94.2635 63.2961 93.7882C63.2354 93.7438 63.1841 93.6877 63.1454 93.6232C63.1067 93.5587 63.0814 93.4871 63.0709 93.4126C63.0604 93.3381 63.065 93.2622 63.0844 93.1895C63.1038 93.1168 63.1376 93.0488 63.1838 92.9894C63.2288 92.9287 63.2853 92.8774 63.3502 92.8385C63.415 92.7996 63.4869 92.7739 63.5617 92.7629C63.6365 92.7519 63.7127 92.7558 63.786 92.7743C63.8593 92.7928 63.9282 92.8256 63.9888 92.8709C64.5856 93.3262 65.2109 93.7431 65.8608 94.1189C65.9713 94.1816 66.0578 94.2792 66.1069 94.3964C66.1559 94.5135 66.1647 94.6437 66.1319 94.7664C66.0991 94.8891 66.0265 94.9975 65.9255 95.0745C65.8245 95.1516 65.7008 95.1929 65.5737 95.1922L65.555 95.1734ZM84.3499 93.1267C84.2494 93.127 84.1504 93.1012 84.0629 93.0518C83.9977 93.0138 83.9406 92.9633 83.8949 92.9031C83.8493 92.843 83.8159 92.7745 83.7968 92.7014C83.7777 92.6284 83.7732 92.5523 83.7835 92.4775C83.7938 92.4027 83.8188 92.3307 83.8569 92.2656C84.0209 91.9812 84.1587 91.6825 84.2688 91.3733C84.387 91.0438 84.4584 90.6993 84.4809 90.3499C84.4856 90.2736 84.5056 90.199 84.5398 90.1305C84.574 90.0621 84.6217 90.0013 84.68 89.9518C84.7383 89.9023 84.8059 89.865 84.879 89.8423C84.952 89.8196 85.0289 89.8118 85.1049 89.8195C85.181 89.825 85.2552 89.8456 85.3232 89.8801C85.3912 89.9145 85.4516 89.9622 85.501 90.0203C85.5504 90.0784 85.5877 90.1457 85.6107 90.2184C85.6338 90.291 85.6422 90.3676 85.6354 90.4435C85.6024 90.8946 85.5101 91.3394 85.3608 91.7664C85.2275 92.1426 85.0604 92.5061 84.8616 92.8522C84.8087 92.94 84.7335 93.0122 84.6436 93.0616C84.5537 93.1109 84.4524 93.1355 84.3499 93.133V93.1267ZM61.8859 92.4154C61.7369 92.4146 61.5939 92.3565 61.4865 92.2531L61.1059 91.8662C60.6878 91.4357 60.2822 90.9802 59.8953 90.5059C59.7994 90.3876 59.7543 90.236 59.7701 90.0844C59.7859 89.9329 59.8613 89.7938 59.9796 89.6978C60.0979 89.6019 60.2495 89.5568 60.4011 89.5726C60.5526 89.5884 60.6917 89.6637 60.7877 89.7821C61.1496 90.2314 61.5365 90.6619 61.9296 91.0675L62.2853 91.4294C62.3392 91.4823 62.3821 91.5454 62.4114 91.6151C62.4406 91.6847 62.4557 91.7595 62.4557 91.835C62.4557 91.9106 62.4406 91.9854 62.4114 92.055C62.3821 92.1247 62.3392 92.1878 62.2853 92.2406C62.1836 92.3474 62.0455 92.412 61.8984 92.4216L61.8859 92.4154ZM76.4625 90.9302C76.4068 90.9393 76.3499 90.9393 76.2941 90.9302C76.2219 90.9081 76.1549 90.872 76.0967 90.824C76.0385 90.776 75.9904 90.717 75.955 90.6503C75.9197 90.5837 75.8978 90.5107 75.8907 90.4356C75.8835 90.3605 75.8913 90.2847 75.9134 90.2126C76.1444 89.4295 76.478 88.6805 76.9056 87.985C76.9883 87.8559 77.119 87.7649 77.2688 87.7322C77.4185 87.6994 77.5752 87.7275 77.7043 87.8102C77.8334 87.893 77.9243 88.0236 77.9571 88.1734C77.9899 88.3232 77.9618 88.4799 77.879 88.609C77.5045 89.2186 77.2128 89.8754 77.0117 90.5621C76.9718 90.6722 76.8988 90.7673 76.8027 90.8343C76.7066 90.9014 76.5922 90.937 76.475 90.9365L76.4625 90.9302ZM58.9905 88.8586C58.8949 88.8589 58.8006 88.835 58.7166 88.7892C58.6326 88.7434 58.5616 88.6771 58.5101 88.5965C58.0826 87.9389 57.689 87.2599 57.3307 86.5622C57.2612 86.4265 57.2484 86.2688 57.2953 86.1237C57.3421 85.9786 57.4446 85.858 57.5803 85.7885C57.716 85.719 57.8738 85.7062 58.0189 85.753C58.164 85.7998 58.2846 85.9024 58.3541 86.0381C58.6929 86.7016 59.0657 87.3473 59.471 87.9725C59.5271 88.059 59.5588 88.1591 59.5628 88.2622C59.5668 88.3652 59.543 88.4675 59.4938 88.5581C59.4446 88.6488 59.3719 88.7245 59.2834 88.7774C59.1948 88.8303 59.0937 88.8583 58.9905 88.8586ZM84.6806 88.715C84.5669 88.7149 84.4558 88.6811 84.3614 88.6178C84.267 88.5544 84.1935 88.4645 84.1502 88.3594C83.9114 87.7473 83.4967 87.2197 82.9584 86.843C82.8501 86.7529 82.7788 86.6262 82.7579 86.4869C82.737 86.3477 82.768 86.2056 82.8451 86.0877C82.9221 85.9698 83.0398 85.8843 83.1758 85.8476C83.3117 85.8108 83.4564 85.8253 83.5824 85.8883C84.3084 86.3922 84.8687 87.1002 85.1923 87.9226C85.222 87.9917 85.2376 88.0661 85.2382 88.1414C85.2389 88.2166 85.2245 88.2913 85.1961 88.3609C85.1676 88.4306 85.1256 88.4939 85.0725 88.5472C85.0193 88.6005 84.9561 88.6427 84.8865 88.6714C84.8255 88.6992 84.76 88.7161 84.6931 88.7213L84.6806 88.715ZM78.9585 87.18C78.8653 87.1796 78.7734 87.1567 78.6909 87.1132C78.6083 87.0698 78.5375 87.007 78.4843 86.9304C78.4416 86.8681 78.4116 86.7981 78.3961 86.7242C78.3805 86.6504 78.3796 86.5742 78.3935 86.5C78.4075 86.4258 78.4359 86.3551 78.4771 86.2919C78.5184 86.2287 78.5717 86.1742 78.6341 86.1317C79.3486 85.6375 80.1779 85.3346 81.0427 85.2518C81.1201 85.2406 81.1989 85.2452 81.2744 85.2655C81.3498 85.2858 81.4204 85.3213 81.4817 85.3698C81.5429 85.4183 81.5937 85.4788 81.6308 85.5476C81.6678 85.6164 81.6905 85.6921 81.6973 85.7699C81.7041 85.8478 81.6949 85.9262 81.6703 86.0004C81.6458 86.0746 81.6063 86.143 81.5544 86.2014C81.5024 86.2598 81.4391 86.307 81.3683 86.3401C81.2975 86.3732 81.2207 86.3914 81.1425 86.3938C80.4691 86.4586 79.824 86.6973 79.2705 87.0864C79.1809 87.1448 79.0778 87.1792 78.971 87.1862L78.9585 87.18ZM56.8877 84.7838C56.7733 84.7832 56.6616 84.7485 56.5671 84.684C56.4726 84.6195 56.3995 84.5282 56.3573 84.4219C56.0702 83.7043 55.8081 82.9618 55.5835 82.2067C55.5578 82.1335 55.5471 82.0558 55.5522 81.9784C55.5573 81.901 55.5781 81.8254 55.6132 81.7562C55.6484 81.687 55.6972 81.6257 55.7567 81.5759C55.8162 81.5261 55.8852 81.4889 55.9595 81.4665C56.0338 81.4441 56.1119 81.437 56.189 81.4457C56.2661 81.4543 56.3407 81.4785 56.4082 81.5168C56.4757 81.5551 56.5348 81.6066 56.5818 81.6684C56.6288 81.7301 56.6628 81.8007 56.6817 81.876C56.9001 82.5936 57.1497 83.3112 57.4243 83.9976C57.4778 84.1392 57.4738 84.2962 57.4131 84.4349C57.3525 84.5736 57.2401 84.6832 57.0998 84.7402C57.0375 84.7705 56.9695 84.7875 56.9001 84.7901L56.8877 84.7838ZM55.5585 80.4158C55.4269 80.4158 55.2993 80.3705 55.197 80.2876C55.0948 80.2047 55.0241 80.0891 54.9969 79.9603C54.8347 79.2053 54.7037 78.4315 54.5976 77.6515C54.5884 77.5063 54.6347 77.363 54.7271 77.2506C54.8196 77.1382 54.9512 77.0651 55.0955 77.0461C55.2397 77.0271 55.3858 77.0636 55.5042 77.1481C55.6226 77.2327 55.7045 77.3591 55.7333 77.5018C55.8331 78.2506 55.9641 78.9931 56.1201 79.7232C56.1516 79.8721 56.1225 80.0275 56.0395 80.155C55.9564 80.2826 55.826 80.3719 55.6771 80.4034L55.5585 80.4158ZM54.9345 75.8669C54.788 75.8656 54.6473 75.8089 54.5408 75.7082C54.4344 75.6075 54.3699 75.4703 54.3605 75.324C54.3605 74.7 54.3105 74.076 54.3105 73.452V72.9715C54.317 72.8203 54.3816 72.6775 54.4909 72.5728C54.6002 72.4681 54.7458 72.4098 54.8971 72.4099C54.9725 72.4099 55.047 72.425 55.1164 72.4544C55.1858 72.4838 55.2486 72.5268 55.301 72.581C55.3534 72.6351 55.3944 72.6993 55.4215 72.7696C55.4485 72.8399 55.4612 72.9149 55.4587 72.9902V73.452C55.4587 74.076 55.4587 74.6501 55.5086 75.2429C55.5146 75.3191 55.5054 75.3958 55.4816 75.4685C55.4578 75.5412 55.4199 75.6085 55.3701 75.6665C55.3202 75.7245 55.2593 75.772 55.191 75.8064C55.1227 75.8408 55.0483 75.8613 54.972 75.8669H54.9345Z" fill="#263238"/>
<path d="M60.6887 54.9753L57.2567 69.8889L19.7793 61.8456L60.6887 54.9753Z" fill="#407BFF"/>
<path opacity="0.3" d="M60.6887 54.9753L57.2567 69.8889L19.7793 61.8456L60.6887 54.9753Z" fill="black"/>
<path d="M19.7793 61.8454L66.442 60.5974L77.4057 77.4953L19.7793 61.8454Z" fill="#407BFF"/>
<path d="M19.7793 61.8455L60.6887 54.9753L51.0479 43.7932L19.7793 61.8455Z" fill="#407BFF"/>
<path d="M182.312 217.247L172.438 216.996L171.928 236.988L181.803 237.24L182.312 217.247Z" fill="#945959"/>
<path d="M169.339 136.969C169.339 136.969 168.646 170.989 168.883 184.468C169.064 194.62 170.649 225.028 170.649 225.028C170.649 225.028 177.052 229.209 183.797 225.714C183.797 225.714 187.691 195.001 186.742 185.747C186.621 184.625 186.621 183.493 186.742 182.371L192.695 130.866L169.339 136.969Z" fill="#37474F"/>
<path d="M175.341 234.219C175.341 234.219 180.813 233.595 181.918 231.811V230.65C181.918 230.65 182.866 231.156 182.685 233.078C182.523 234.862 183.234 237.901 183.34 241.608C183.347 241.91 183.283 242.21 183.153 242.483C183.023 242.756 182.831 242.995 182.592 243.18C181.531 243.998 179.291 245.252 175.341 245.42C173.955 245.483 168.414 249.033 163.803 249.033C159.192 249.033 156.178 246.749 156.178 243.554C156.178 240.36 165.581 237.47 165.581 237.47L170.099 233.102C170.099 233.102 169.219 228.341 172.096 229.483C174.973 230.625 175.341 231.811 175.341 234.219Z" fill="#37474F"/>
<path d="M174.343 236.996C174.282 236.997 174.223 236.977 174.173 236.941C174.124 236.906 174.087 236.855 174.069 236.797C173.108 233.92 170.106 233.39 170.075 233.383C170.038 233.377 170.002 233.364 169.97 233.344C169.938 233.324 169.91 233.298 169.888 233.267C169.866 233.237 169.85 233.202 169.841 233.165C169.833 233.128 169.832 233.09 169.838 233.053C169.852 232.978 169.894 232.912 169.955 232.867C170.017 232.823 170.094 232.805 170.169 232.816C171.174 233.012 172.112 233.465 172.891 234.131C173.669 234.796 174.262 235.653 174.612 236.616C174.635 236.688 174.63 236.766 174.596 236.834C174.562 236.902 174.502 236.953 174.431 236.978L174.343 236.996Z" fill="#FAFAFA"/>
<path d="M172.541 238.781C172.481 238.779 172.422 238.759 172.373 238.724C172.324 238.688 172.287 238.638 172.267 238.581C171.312 235.717 168.304 235.174 168.273 235.168C168.236 235.162 168.2 235.149 168.169 235.129C168.137 235.109 168.109 235.082 168.088 235.052C168.066 235.021 168.051 234.986 168.043 234.949C168.035 234.912 168.035 234.874 168.042 234.837C168.048 234.8 168.062 234.764 168.082 234.732C168.102 234.7 168.128 234.672 168.158 234.65C168.189 234.628 168.224 234.612 168.261 234.604C168.298 234.595 168.336 234.594 168.373 234.6C169.379 234.796 170.316 235.249 171.095 235.915C171.873 236.581 172.466 237.437 172.816 238.4C172.827 238.436 172.832 238.474 172.829 238.512C172.826 238.55 172.815 238.587 172.798 238.62C172.78 238.654 172.756 238.684 172.727 238.708C172.698 238.732 172.665 238.751 172.629 238.762C172.601 238.775 172.571 238.781 172.541 238.781Z" fill="#FAFAFA"/>
<path d="M170.974 240.328C170.915 240.329 170.857 240.31 170.808 240.275C170.76 240.241 170.724 240.192 170.706 240.135C169.751 237.265 166.743 236.722 166.712 236.715C166.671 236.714 166.631 236.704 166.595 236.686C166.558 236.668 166.526 236.642 166.5 236.61C166.474 236.579 166.456 236.542 166.445 236.502C166.435 236.463 166.433 236.422 166.439 236.381C166.446 236.341 166.461 236.303 166.484 236.269C166.507 236.235 166.536 236.206 166.571 236.185C166.606 236.163 166.645 236.149 166.685 236.144C166.725 236.139 166.767 236.142 166.806 236.154C167.812 236.348 168.751 236.801 169.529 237.467C170.308 238.133 170.901 238.99 171.249 239.954C171.272 240.026 171.267 240.105 171.233 240.172C171.199 240.24 171.139 240.292 171.068 240.316L170.974 240.328Z" fill="#FAFAFA"/>
<path d="M156.203 243.554C156.203 246.712 159.155 248.977 163.691 249.027L170.15 246.437C170.15 239.742 165.619 237.47 165.619 237.47C165.619 237.47 156.203 240.366 156.203 243.554Z" fill="#EBEBEB"/>
<path d="M183.205 241.882C182.101 242.737 179.754 244.054 175.624 244.235C174.17 244.297 168.379 247.979 163.555 247.979C160.248 247.979 157.727 246.855 156.467 245.065C157.284 247.429 160.005 249.002 163.83 249.002C168.441 249.002 173.982 245.451 175.368 245.389C179.318 245.221 181.558 243.966 182.619 243.149C182.838 242.978 183.018 242.76 183.145 242.512C183.272 242.265 183.344 241.992 183.355 241.714C183.309 241.773 183.259 241.83 183.205 241.882Z" fill="#263238"/>
<path d="M175.062 141.73C175.062 141.73 175.967 149.43 181.87 153.499L187.081 179.625L190.425 146.959L175.062 141.73Z" fill="#263238"/>
<path d="M208.975 222.728L199.127 223.498L200.686 243.436L210.533 242.666L208.975 222.728Z" fill="#945959"/>
<path d="M205.187 137.78C205.187 137.78 206.379 142.292 206.953 160.906C207.415 175.657 207.758 184.143 207.883 187.026C207.913 187.744 207.99 188.459 208.114 189.167C209.327 196.606 210.139 204.104 210.547 211.631C211.39 225.983 211.458 232.778 211.458 232.778C211.458 232.778 205.368 237.539 198.017 233.801L190.904 191.032L183.416 151.34C183.416 151.34 173.151 147.427 172.246 136.988L205.187 137.78Z" fill="#37474F"/>
<path d="M210.181 238.094L210.337 240.041C210.337 240.041 209.164 241.689 207.778 242.169C207.778 242.169 206.718 238.294 204.839 238.094C202.961 237.895 199.061 237.72 199.585 239.879C199.878 241.005 200.059 242.156 200.128 243.317L196.509 250.063C196.509 250.063 189.165 256.39 192.235 260.421C195.305 264.452 205.607 262.293 206.624 255.966C206.787 255.013 207.145 254.103 207.675 253.295C208.206 252.486 208.897 251.796 209.707 251.267C210.371 250.848 210.893 250.239 211.206 249.519C211.519 248.799 211.607 248.001 211.46 247.23C211.273 245.782 210.836 242.999 210.967 241.745C211.098 240.491 211.448 238.113 210.181 238.094Z" fill="#37474F"/>
<path d="M192.235 260.421C194.787 263.772 202.312 262.855 205.382 258.824C205.517 258.169 205.584 257.502 205.582 256.833C205.582 249.626 196.509 250.063 196.509 250.063C196.509 250.063 189.165 256.39 192.235 260.421Z" fill="#EBEBEB"/>
<path d="M211.46 247.23C211.46 247.124 211.429 246.999 211.411 246.874C211.34 247.451 211.14 248.004 210.825 248.492C210.511 248.98 210.09 249.391 209.595 249.695C208.758 250.242 208.044 250.957 207.496 251.793C206.949 252.629 206.58 253.57 206.412 254.555C205.376 261.033 194.956 263.291 191.648 259.292C191.776 259.7 191.974 260.082 192.235 260.421C195.305 264.458 205.607 262.293 206.624 255.966C206.787 255.013 207.145 254.103 207.676 253.295C208.206 252.486 208.898 251.796 209.707 251.267C210.371 250.848 210.894 250.239 211.206 249.519C211.519 248.799 211.608 248.001 211.46 247.23Z" fill="#263238"/>
<path d="M205.463 244.821C205.389 244.822 205.318 244.796 205.263 244.746C203.067 242.668 200.159 243.611 200.128 243.623C200.091 243.639 200.052 243.646 200.012 243.646C199.973 243.646 199.934 243.637 199.898 243.621C199.861 243.604 199.829 243.581 199.803 243.551C199.776 243.522 199.756 243.487 199.743 243.45C199.731 243.412 199.726 243.372 199.73 243.333C199.733 243.293 199.745 243.255 199.764 243.22C199.783 243.186 199.809 243.155 199.841 243.131C199.872 243.107 199.908 243.09 199.947 243.08C200.925 242.775 201.966 242.73 202.967 242.949C203.968 243.168 204.895 243.643 205.656 244.328C205.684 244.355 205.706 244.386 205.72 244.421C205.735 244.456 205.743 244.493 205.743 244.531C205.743 244.569 205.735 244.607 205.72 244.641C205.706 244.676 205.684 244.708 205.656 244.734C205.605 244.786 205.536 244.817 205.463 244.821Z" fill="#FAFAFA"/>
<path d="M204.203 247.323C204.131 247.323 204.062 247.296 204.009 247.249C201.813 245.171 198.905 246.113 198.874 246.125C198.801 246.149 198.722 246.143 198.653 246.109C198.585 246.074 198.533 246.014 198.509 245.941C198.485 245.868 198.491 245.789 198.525 245.721C198.56 245.652 198.62 245.6 198.693 245.576C199.671 245.275 200.711 245.231 201.712 245.45C202.712 245.668 203.639 246.142 204.402 246.824C204.455 246.879 204.484 246.951 204.484 247.027C204.484 247.103 204.455 247.175 204.402 247.23C204.35 247.285 204.279 247.319 204.203 247.323Z" fill="#FAFAFA"/>
<path d="M202.947 249.826C202.875 249.825 202.807 249.799 202.753 249.751C200.557 247.673 197.649 248.615 197.618 248.628C197.545 248.652 197.466 248.646 197.397 248.611C197.329 248.577 197.277 248.516 197.253 248.444C197.229 248.371 197.235 248.291 197.269 248.223C197.304 248.154 197.364 248.103 197.437 248.079C198.415 247.775 199.456 247.73 200.456 247.949C201.457 248.168 202.384 248.642 203.146 249.327C203.199 249.381 203.228 249.454 203.228 249.529C203.228 249.605 203.199 249.678 203.146 249.732C203.094 249.787 203.023 249.82 202.947 249.826Z" fill="#FAFAFA"/>
<path d="M139.812 57.0346C139.218 54.5167 138.801 51.9604 138.564 49.3844C138.414 46.3705 137.54 45.3159 135.699 46.826C133.859 48.3361 129.665 52.7166 129.915 56.1298C130.119 59.9121 131.323 63.5725 133.403 66.7378L138.77 68.3602L140.916 63.9548L139.812 57.0346Z" fill="#945959"/>
<path d="M163.076 84.316L152.324 81.9385C152.324 81.9385 147.744 74.5192 145.092 70.6067C142.44 66.6942 140.936 63.986 140.936 63.986L135.944 62.4697L133.398 66.7691C133.398 66.7691 141.766 87.567 145.648 91.1051C147.601 92.8648 160.218 96.771 160.218 96.771C160.218 96.771 165.516 91.18 163.076 84.316Z" fill="#945959"/>
<path d="M176.626 87.2362L163.073 84.3159C162.889 88.5966 161.929 92.8083 160.24 96.746L173.856 100.964L176.626 87.2362Z" fill="#407BFF"/>
<path opacity="0.3" d="M176.626 87.2362L163.073 84.3159C162.889 88.5966 161.929 92.8083 160.24 96.746L173.856 100.964L176.626 87.2362Z" fill="white"/>
<path d="M195.429 88.865L201.732 90.8493L205.189 109.494L203.142 118.536C202.862 119.764 202.809 121.033 202.986 122.28L205.189 137.78C205.189 137.78 198.949 141.761 187.473 141.761C175.998 141.761 169.34 137 169.34 137L170.207 101.819C170.531 96.3458 172.809 91.1707 176.628 87.2363L184.447 88.1411L195.429 88.865Z" fill="#407BFF"/>
<path d="M175.56 59.2686C175.56 59.2686 169.539 64.5538 174.774 76.335L180.895 60.4042L175.56 59.2686Z" fill="#263238"/>
<path d="M195.428 88.865L187.84 91.3048L184.445 88.1411V73.9202H195.428V88.865Z" fill="#945959"/>
<path d="M184.445 87.2362C188.152 87.2362 193.805 83.9353 193.805 81.6202L195.053 73.9014H184.445V87.2362Z" fill="#703838"/>
<path d="M187.368 56.0361C183.674 56.0361 175.818 58.0953 174.888 67.7611C173.958 77.4269 175.4 85.6574 179.849 85.6574C188.585 85.6574 196.984 84.5467 197.052 70.2446C197.127 57.5961 190.975 56.0361 187.368 56.0361Z" fill="#945959"/>
<path d="M195.428 78.6875L194.005 74.3195C193.898 74.4094 193.768 74.4671 193.63 74.4859C193.492 74.5047 193.351 74.4837 193.224 74.4255C193.097 74.3673 192.989 74.2742 192.913 74.1571C192.837 74.04 192.796 73.9037 192.795 73.7641V65.9641C192.795 65.9641 189.163 64.9345 189.55 61.8769C189.55 61.8769 187.678 63.543 180.558 63.543C173.438 63.543 171.697 57.4965 172.409 54.1643C172.409 54.1643 173.731 55.5309 177.5 55.5309C181.269 55.5309 196.963 50.7947 197.369 60.2733C197.369 60.2733 198.691 58.3326 200.832 60.2733L198.08 61.9081C198.08 61.9081 201.343 61.8083 200.832 66.5944C200.501 69.7144 199.347 75.2617 198.598 78.6625C198.18 80.5627 197.044 82.228 195.428 83.3113V78.6875Z" fill="#263238"/>
<path d="M181.962 70.6377V76.8465L178.324 75.7295L181.962 70.6377Z" fill="#703838"/>
<path d="M187.743 71.6364C187.742 71.8656 187.673 72.0894 187.545 72.2795C187.416 72.4695 187.235 72.6173 187.022 72.7042C186.81 72.7911 186.577 72.8132 186.352 72.7677C186.128 72.7222 185.921 72.6112 185.76 72.4486C185.598 72.2861 185.488 72.0792 185.444 71.8543C185.399 71.6293 185.423 71.3963 185.511 71.1845C185.599 70.9728 185.748 70.7919 185.938 70.6647C186.129 70.5374 186.353 70.4695 186.583 70.4695C186.735 70.4695 186.887 70.4997 187.028 70.5584C187.169 70.6171 187.298 70.7032 187.405 70.8116C187.513 70.9201 187.599 71.0488 187.657 71.1903C187.715 71.3318 187.744 71.4834 187.743 71.6364Z" fill="#263238"/>
<path d="M179.048 70.8125C179.048 71.042 178.98 71.2664 178.852 71.4573C178.725 71.6482 178.543 71.7969 178.331 71.8848C178.119 71.9726 177.886 71.9956 177.661 71.9508C177.436 71.906 177.229 71.7955 177.067 71.6332C176.904 71.4709 176.794 71.2641 176.749 71.0389C176.704 70.8138 176.727 70.5804 176.815 70.3683C176.903 70.1563 177.052 69.975 177.242 69.8475C177.433 69.7199 177.658 69.6519 177.887 69.6519C178.195 69.6519 178.49 69.7741 178.708 69.9918C178.926 70.2095 179.048 70.5047 179.048 70.8125Z" fill="#263238"/>
<path d="M176.473 68.3915L178.744 67.0437C178.744 67.0437 177.87 66.1389 177.003 66.6818C176.136 67.2246 176.473 68.3915 176.473 68.3915Z" fill="#263238"/>
<path d="M188.946 69.2337L186.668 67.8921C186.668 67.8921 187.542 66.9873 188.409 67.5302C189.276 68.073 188.946 69.2337 188.946 69.2337Z" fill="#263238"/>
<path d="M182.256 79.8295C182.256 79.8295 183.941 78.75 185.563 77.5332C185.563 77.5332 186.505 79.3678 185.02 80.3162C183.535 81.2647 182.256 79.8295 182.256 79.8295Z" fill="#703838"/>
<path d="M193.906 74.382L197.925 70.0265L195.036 68.2917L193.906 74.382Z" fill="#253239"/>
<path d="M194.568 72.6844C193.251 74.9682 193.594 77.7388 195.429 78.6873C196.608 79.3113 200.09 77.9821 201.407 75.6983C202.723 73.4145 201.987 71.4613 200.196 70.4317C198.405 69.4021 195.884 70.3881 194.568 72.6844Z" fill="#945959"/>
<path d="M184.448 88.1412L182.951 90.5186C182.662 90.976 182.472 91.4892 182.395 92.0247C182.318 92.5602 182.354 93.106 182.502 93.6264C182.65 94.1469 182.905 94.6304 183.253 95.0454C183.6 95.4603 184.031 95.7975 184.517 96.0348C185.4 96.4647 186.364 96.7051 187.346 96.7407C188.328 96.7762 189.307 96.6061 190.219 96.2412C191.132 95.8764 191.958 95.3248 192.645 94.6219C193.332 93.9191 193.864 93.0804 194.208 92.1597L195.456 88.865L189.964 86.8994L184.448 88.1412Z" fill="#945959"/>
<path d="M140.935 63.9858C140.935 63.9858 142.77 61.1903 142.738 58.5383C142.707 55.8863 143.038 54.657 143.493 54.0205C143.949 53.384 143.437 52.4543 142.214 52.7725C141.178 53.0533 139.899 54.6445 139.618 56.1109C139.577 56.3442 139.485 56.5655 139.348 56.7586C139.211 56.9518 139.033 57.1121 138.826 57.2279C137.534 57.9205 135.126 59.9048 136.268 64.7159L140.935 63.9858Z" fill="#945959"/>
<path d="M136.031 61.4401C135.974 61.4309 135.923 61.3995 135.889 61.3527C135.855 61.3059 135.841 61.2476 135.85 61.1905C135.97 60.3223 136.293 59.4946 136.793 58.7747C137.293 58.0548 137.955 57.4629 138.727 57.0472C138.907 56.9503 139.063 56.8133 139.182 56.6467C139.301 56.48 139.38 56.2883 139.413 56.0862C139.425 56.0302 139.459 55.9811 139.507 55.9496C139.555 55.9181 139.613 55.9066 139.669 55.9177C139.697 55.9229 139.723 55.9336 139.746 55.949C139.77 55.9644 139.79 55.9842 139.805 56.0074C139.821 56.0306 139.832 56.0567 139.838 56.0841C139.843 56.1116 139.843 56.1399 139.838 56.1673C139.79 56.4299 139.684 56.6784 139.528 56.8944C139.371 57.1105 139.168 57.2885 138.933 57.4153C138.219 57.7993 137.606 58.3465 137.144 59.0123C136.682 59.6781 136.384 60.4437 136.275 61.2467C136.272 61.2758 136.264 61.3041 136.25 61.3298C136.237 61.3556 136.218 61.3783 136.195 61.3964C136.172 61.4146 136.146 61.4278 136.118 61.4354C136.09 61.4429 136.06 61.4445 136.031 61.4401Z" fill="#703838"/>
<path d="M202.656 113.838L205.427 119.678L219.648 125.307L213.913 107.928L202.656 113.838Z" fill="#945959"/>
<path d="M200.888 90.5872C200.888 90.5872 196.146 95.4606 198.199 102.331C199.354 106.286 200.845 110.136 202.654 113.837C202.654 113.837 210.648 114.075 213.886 107.928L209.812 97.6446C209.169 96.0278 208.157 94.5837 206.857 93.4277C205.557 92.2716 204.004 91.4356 202.324 90.9865L200.888 90.5872Z" fill="#407BFF"/>
<path opacity="0.3" d="M200.888 90.5872C200.888 90.5872 196.146 95.4606 198.199 102.331C199.354 106.286 200.845 110.136 202.654 113.837C202.654 113.837 210.648 114.075 213.886 107.928L209.812 97.6446C209.169 96.0278 208.157 94.5837 206.857 93.4277C205.557 92.2716 204.004 91.4356 202.324 90.9865L200.888 90.5872Z" fill="white"/>
<path d="M204.627 118.592C208.221 119.647 218.817 122.786 218.817 122.786C218.817 122.786 218.898 123.017 219.647 125.282C220.795 128.807 217.151 137.337 204.246 131.147C191.342 124.957 186.631 121.644 186.631 121.644L188.035 113.812C188.035 113.812 200.527 117.388 204.627 118.592Z" fill="#945959"/>
<path d="M205.008 118.773L211.691 120.701L204.209 117.088L205.008 118.773Z" fill="#703838"/>
<path d="M186.038 125.182L177.652 124.289C177.351 124.259 177.067 124.137 176.838 123.941C176.608 123.745 176.444 123.483 176.366 123.191L171.786 105.956C171.755 105.839 171.751 105.715 171.777 105.595C171.802 105.476 171.855 105.364 171.932 105.27C172.008 105.175 172.106 105.099 172.218 105.049C172.329 105 172.451 104.977 172.572 104.983L180.684 105.364C180.986 105.376 181.276 105.484 181.512 105.673C181.747 105.861 181.917 106.12 181.995 106.412L186.875 124.215C186.905 124.336 186.906 124.464 186.877 124.586C186.848 124.708 186.791 124.821 186.708 124.916C186.626 125.011 186.523 125.085 186.406 125.131C186.289 125.177 186.163 125.195 186.038 125.182Z" fill="#37474F"/>
<path d="M175.063 107.51C175.063 107.653 175.02 107.794 174.94 107.913C174.861 108.032 174.747 108.125 174.615 108.179C174.482 108.234 174.336 108.248 174.196 108.219C174.055 108.191 173.926 108.121 173.825 108.02C173.724 107.918 173.656 107.788 173.628 107.647C173.601 107.507 173.616 107.361 173.672 107.229C173.728 107.096 173.822 106.984 173.941 106.905C174.061 106.826 174.202 106.785 174.345 106.786C174.536 106.788 174.719 106.865 174.853 107C174.988 107.136 175.063 107.319 175.063 107.51Z" fill="#263238"/>
<path d="M188.034 113.837C188.034 113.837 185.607 109.619 182.593 108.596L183.797 113.232C183.797 113.232 181.507 113.413 178.918 113.413C176.328 113.413 173.495 111.666 172.678 111.217C171.86 110.767 171.099 113.9 174.356 119.803C177.613 125.706 186.655 121.675 186.655 121.675L188.034 113.837Z" fill="#945959"/>
<path d="M224.678 28.9732L229.196 31.5441V29.9466C229.196 29.8343 229.196 29.7158 229.196 29.6097C229.196 29.5036 229.196 29.3913 229.196 29.2852V29.2478C229.358 27.1262 230.962 26.315 232.94 27.4444C233.826 27.9911 234.586 28.7208 235.167 29.5847C235.61 26.7081 237.957 25.666 240.783 27.3071C243.928 29.123 246.48 33.5721 246.48 37.1913V40.617C246.483 40.8884 246.555 41.1546 246.691 41.3897C246.826 41.6248 247.02 41.8208 247.254 41.9586L249.906 43.5124C250.479 43.8537 250.952 44.3381 251.28 44.918C251.609 45.4979 251.78 46.1533 251.778 46.8196C251.777 47.0964 251.702 47.3679 251.563 47.6071C251.424 47.8464 251.225 48.045 250.985 48.1832C250.745 48.3214 250.473 48.3944 250.196 48.3949C249.919 48.3955 249.647 48.3235 249.407 48.1862L224.747 33.9215C224.09 33.5418 223.546 32.9958 223.168 32.3385C222.79 31.6811 222.592 30.9358 222.594 30.1775C222.596 29.9345 222.662 29.6963 222.784 29.4864C222.907 29.2765 223.082 29.1021 223.292 28.9805C223.503 28.859 223.741 28.7943 223.984 28.793C224.227 28.7917 224.466 28.8538 224.678 28.9732Z" fill="#E6E6E6"/>
<path d="M244.259 57.7084L247.597 59.5804V58.426C247.597 58.3386 247.597 58.2575 247.597 58.1764C247.597 58.0953 247.597 58.0142 247.597 57.933C247.716 56.3668 248.901 55.7678 250.349 56.6039C251.006 57.0052 251.568 57.5438 251.997 58.1826C252.321 56.0548 254.056 55.2873 256.159 56.4978C257.385 57.3012 258.406 58.3816 259.139 59.6519C259.872 60.9222 260.296 62.3469 260.377 63.8111V66.3446C260.377 66.545 260.43 66.7419 260.529 66.9159C260.629 67.0898 260.772 67.2349 260.945 67.3367L262.91 68.4849C263.336 68.7357 263.689 69.0933 263.934 69.5223C264.179 69.9513 264.308 70.4369 264.308 70.931C264.308 71.1354 264.254 71.3361 264.152 71.5131C264.049 71.6901 263.902 71.8371 263.726 71.9395C263.549 72.0419 263.348 72.096 263.143 72.0964C262.939 72.0968 262.738 72.0435 262.561 71.9418L244.309 61.365C243.828 61.0832 243.43 60.6801 243.154 60.1961C242.878 59.7121 242.734 59.1641 242.736 58.607C242.737 58.4288 242.784 58.2539 242.873 58.0995C242.962 57.945 243.089 57.8162 243.243 57.7256C243.396 57.6351 243.57 57.5859 243.749 57.5829C243.927 57.5798 244.103 57.6231 244.259 57.7084Z" fill="#E6E6E6"/>
</svg>
