<svg width="520" height="524" viewBox="0 0 520 524" fill="none" xmlns="http://www.w3.org/2000/svg">
<path d="M698 0H0V524H698V0Z" fill="#FDFDFD"/>
<mask id="mask0_1642_2963" style="mask-type:alpha" maskUnits="userSpaceOnUse" x="0" y="0" width="698" height="524">
<path d="M698 0H0V524H698V0Z" fill="#EAE8E4"/>
</mask>
<g mask="url(#mask0_1642_2963)">
<path fill-rule="evenodd" clip-rule="evenodd" d="M698 0V524H440.585L155.305 172.951L377.465 0L698 0Z" fill="#FDFDFD"/>
</g>
<mask id="mask1_1642_2963" style="mask-type:alpha" maskUnits="userSpaceOnUse" x="0" y="0" width="698" height="524">
<path d="M698 0H0V524H698V0Z" fill="#BFCBBA"/>
</mask>
<g mask="url(#mask1_1642_2963)">
<path d="M196.313 289.51C256.305 289.51 304.939 240.83 304.939 180.78C304.939 120.73 256.305 72.0498 196.313 72.0498C136.32 72.0498 87.6863 120.73 87.6863 180.78C87.6863 240.83 136.32 289.51 196.313 289.51Z" fill="#E0E0E0"/>
</g>
<mask id="mask2_1642_2963" style="mask-type:alpha" maskUnits="userSpaceOnUse" x="0" y="0" width="698" height="524">
<path d="M698 0H0V524H698V0Z" fill="#DC4618"/>
</mask>
<g mask="url(#mask2_1642_2963)">
<path d="M637.526 52.2975L415.482 181.061L433.011 211.346L655.055 82.5829L637.526 52.2975Z" fill="#D51A00"/>
</g>
<mask id="mask3_1642_2963" style="mask-type:alpha" maskUnits="userSpaceOnUse" x="0" y="0" width="698" height="524">
<path d="M698 0H0V524H698V0Z" fill="#DC4618"/>
</mask>
<g mask="url(#mask3_1642_2963)">
<path fill-rule="evenodd" clip-rule="evenodd" d="M380.942 391.398L291.115 280.714L269.466 295.106L359.347 408.626L380.942 391.398Z" fill="#D51A00"/>
</g>
<mask id="mask4_1642_2963" style="mask-type:alpha" maskUnits="userSpaceOnUse" x="0" y="0" width="698" height="524">
<path d="M698 0H0V524H698V0Z" fill="#EAE8E4"/>
</mask>
<g mask="url(#mask4_1642_2963)">
<path fill-rule="evenodd" clip-rule="evenodd" d="M74.6963 429.371L180.788 351.788L171.043 337.751L63.5051 407.365L74.6963 429.371Z" fill="#FDFDFD"/>
</g>
<mask id="mask5_1642_2963" style="mask-type:alpha" maskUnits="userSpaceOnUse" x="0" y="0" width="698" height="524">
<path d="M698 0H0V524H698V0Z" fill="#60BEBF"/>
</mask>
<g mask="url(#mask5_1642_2963)">
<path d="M306.544 420.966L266.952 361.997L257.824 368.138L297.416 427.107L306.544 420.966Z" fill="#60BEBF"/>
</g>
<mask id="mask6_1642_2963" style="mask-type:alpha" maskUnits="userSpaceOnUse" x="0" y="0" width="698" height="524">
<path d="M698 0H0V524H698V0Z" fill="#3A8EAA"/>
</mask>
<g mask="url(#mask6_1642_2963)">
<path fill-rule="evenodd" clip-rule="evenodd" d="M360.606 302.173L319.34 251.875L301.769 262L341.981 316.977L360.606 302.173Z" fill="#009FD5"/>
</g>
<mask id="mask7_1642_2963" style="mask-type:alpha" maskUnits="userSpaceOnUse" x="0" y="0" width="698" height="524">
<path d="M698 0H0V524H698V0Z" fill="#2A3E4C"/>
</mask>
<g mask="url(#mask7_1642_2963)">
<path fill-rule="evenodd" clip-rule="evenodd" d="M651.122 -75.2439L223.146 224.406L244.245 252.004L687.95 -29.4616L651.122 -75.2439Z" fill="#333333"/>
</g>
<mask id="mask8_1642_2963" style="mask-type:alpha" maskUnits="userSpaceOnUse" x="0" y="0" width="698" height="524">
<path d="M698 0H0V524H698V0Z" fill="#E5AB17"/>
</mask>
<g mask="url(#mask8_1642_2963)">
<path fill-rule="evenodd" clip-rule="evenodd" d="M250.135 257.364L398.231 176.298L408.897 195.526L262.568 275.796L250.135 257.364Z" fill="#E5AB17"/>
</g>
<mask id="mask9_1642_2963" style="mask-type:alpha" maskUnits="userSpaceOnUse" x="0" y="0" width="698" height="524">
<path d="M698 0H0V524H698V0Z" fill="#EAE8E4"/>
</mask>
<g mask="url(#mask9_1642_2963)">
<path d="M176.752 376.844L49.7325 483.685L63.8682 500.522L190.887 393.681L176.752 376.844Z" fill="#FDFDFD"/>
</g>
<mask id="mask10_1642_2963" style="mask-type:alpha" maskUnits="userSpaceOnUse" x="0" y="0" width="698" height="524">
<path d="M698 0H0V524H698V0Z" fill="#E5AB17"/>
</mask>
<g mask="url(#mask10_1642_2963)">
<path fill-rule="evenodd" clip-rule="evenodd" d="M137.789 397.145L190.744 354.813L200.809 365.901L147.854 408.232L137.789 397.145Z" fill="#E5AB17"/>
</g>
<mask id="mask11_1642_2963" style="mask-type:alpha" maskUnits="userSpaceOnUse" x="0" y="0" width="698" height="524">
<path d="M698 0H0V524H698V0Z" fill="#28203D"/>
</mask>
<g mask="url(#mask11_1642_2963)">
<path d="M487.001 197.642L633.888 116.923L639.535 127.975L492.648 208.694L487.001 197.642Z" fill="#080808"/>
</g>
<mask id="mask12_1642_2963" style="mask-type:alpha" maskUnits="userSpaceOnUse" x="0" y="0" width="698" height="524">
<path d="M698 0H0V524H698V0Z" fill="#BFCBBA"/>
</mask>
<g mask="url(#mask12_1642_2963)">
<path fill-rule="evenodd" clip-rule="evenodd" d="M499.518 105.275L641.421 19.6408L647.824 30.2713L505.921 115.906L499.518 105.275Z" fill="#E0E0E0"/>
</g>
<mask id="mask13_1642_2963" style="mask-type:alpha" maskUnits="userSpaceOnUse" x="0" y="0" width="698" height="524">
<path d="M698 0H0V524H698V0Z" fill="#849C9B"/>
</mask>
<g mask="url(#mask13_1642_2963)">
<path d="M611.354 156.355L463.797 231.89L465.224 234.683L612.781 159.149L611.354 156.355Z" fill="#B2BEBE"/>
</g>
<mask id="mask14_1642_2963" style="mask-type:alpha" maskUnits="userSpaceOnUse" x="0" y="0" width="698" height="524">
<path d="M698 0H0V524H698V0Z" fill="#28203D"/>
</mask>
<g mask="url(#mask14_1642_2963)">
<path d="M361.409 421.091L104.207 96.9404L96.9014 102.749L354.103 426.899L361.409 421.091Z" fill="#080808"/>
</g>
<mask id="mask15_1642_2963" style="mask-type:alpha" maskUnits="userSpaceOnUse" x="0" y="0" width="698" height="524">
<path d="M698 0H0V524H698V0Z" fill="#849C9B"/>
</mask>
<g mask="url(#mask15_1642_2963)">
<path fill-rule="evenodd" clip-rule="evenodd" d="M272.506 337.578L99.5819 127.667L72.5079 145.308L242.674 359.994L272.506 337.578Z" fill="#B2BEBE"/>
</g>
<mask id="mask16_1642_2963" style="mask-type:alpha" maskUnits="userSpaceOnUse" x="0" y="0" width="698" height="524">
<path d="M698 0H0V524H698V0Z" fill="#849C9B"/>
</mask>
<g mask="url(#mask16_1642_2963)">
<path d="M436.857 331.909C446.055 329.701 451.732 320.487 449.538 311.33C447.343 302.173 438.108 296.54 428.91 298.749C419.712 300.957 414.035 310.17 416.229 319.327C418.424 328.484 427.659 334.117 436.857 331.909Z" fill="#B2BEBE"/>
</g>
<mask id="mask17_1642_2963" style="mask-type:alpha" maskUnits="userSpaceOnUse" x="0" y="0" width="698" height="524">
<path d="M698 0H0V524H698V0Z" fill="#EAE8E4"/>
</mask>
<g mask="url(#mask17_1642_2963)">
<path d="M81.82 328.918C98.3841 324.941 108.608 308.349 104.657 291.858C100.705 275.368 84.0735 265.224 67.5094 269.2C50.9454 273.177 40.721 289.77 44.6728 306.26C48.6246 322.751 65.2559 332.895 81.82 328.918Z" fill="#FDFDFD"/>
</g>
<mask id="mask18_1642_2963" style="mask-type:alpha" maskUnits="userSpaceOnUse" x="0" y="0" width="698" height="524">
<path d="M698 0H0V524H698V0Z" fill="#DC4618"/>
</mask>
<g mask="url(#mask18_1642_2963)">
<path d="M215.1 197.667C222.306 195.937 226.754 188.719 225.035 181.544C223.316 174.37 216.08 169.956 208.874 171.687C201.668 173.417 197.219 180.635 198.939 187.81C200.658 194.984 207.894 199.398 215.1 197.667Z" fill="#D51A00"/>
</g>
<mask id="mask19_1642_2963" style="mask-type:alpha" maskUnits="userSpaceOnUse" x="0" y="0" width="698" height="524">
<path d="M698 0H0V524H698V0Z" fill="#BFCBBA"/>
</mask>
<g mask="url(#mask19_1642_2963)">
<path d="M142.218 328.311C149.39 326.589 153.816 319.406 152.106 312.266C150.395 305.127 143.194 300.735 136.023 302.457C128.851 304.178 124.425 311.362 126.136 318.502C127.847 325.641 135.047 330.033 142.218 328.311Z" fill="#E0E0E0"/>
</g>
<mask id="mask20_1642_2963" style="mask-type:alpha" maskUnits="userSpaceOnUse" x="0" y="0" width="698" height="524">
<path d="M698 0H0V524H698V0Z" fill="#28203D"/>
</mask>
<g mask="url(#mask20_1642_2963)">
<path d="M221.671 211.854L343.736 127.489L342.702 125.989L220.636 210.354L221.671 211.854Z" fill="#080808"/>
</g>
<mask id="mask21_1642_2963" style="mask-type:alpha" maskUnits="userSpaceOnUse" x="0" y="0" width="698" height="524">
<path d="M698 0H0V524H698V0Z" fill="#28203D"/>
</mask>
<g mask="url(#mask21_1642_2963)">
<path d="M469.116 398.055L532.248 472.142L534.571 470.159L471.439 396.071L469.116 398.055Z" fill="#080808"/>
</g>
<mask id="mask22_1642_2963" style="mask-type:alpha" maskUnits="userSpaceOnUse" x="0" y="0" width="698" height="524">
<path d="M698 0H0V524H698V0Z" fill="#28203D"/>
</mask>
<g mask="url(#mask22_1642_2963)">
<path d="M71.7068 30.8348L134.873 109.789L136.295 108.649L73.1283 29.6954L71.7068 30.8348Z" fill="#080808"/>
</g>
<mask id="mask23_1642_2963" style="mask-type:alpha" maskUnits="userSpaceOnUse" x="0" y="0" width="698" height="524">
<path d="M698 0H0V524H698V0Z" fill="#28203D"/>
</mask>
<g mask="url(#mask23_1642_2963)">
<path d="M114.348 413.001L34.1022 477.948L35.2472 479.366L115.493 414.418L114.348 413.001Z" fill="#080808"/>
</g>
<mask id="mask24_1642_2963" style="mask-type:alpha" maskUnits="userSpaceOnUse" x="0" y="0" width="698" height="524">
<path d="M698 0H0V524H698V0Z" fill="#DC4618"/>
</mask>
<g mask="url(#mask24_1642_2963)">
<path fill-rule="evenodd" clip-rule="evenodd" d="M525.504 333.879L508.579 314.391L510.093 313.074L527.017 332.562L546.487 315.621L547.803 317.136L528.333 334.077L545.258 353.566L543.744 354.883L526.82 335.394L507.35 352.335L506.034 350.82L525.504 333.879Z" fill="#D51A00"/>
</g>
<mask id="mask25_1642_2963" style="mask-type:alpha" maskUnits="userSpaceOnUse" x="0" y="0" width="698" height="524">
<path d="M698 0H0V524H698V0Z" fill="#DC4618"/>
</mask>
<g mask="url(#mask25_1642_2963)">
<path fill-rule="evenodd" clip-rule="evenodd" d="M74.1455 297.158L65.4299 287.122L66.2093 286.444L74.925 296.479L84.9511 287.755L85.6287 288.536L75.6025 297.259L84.3181 307.295L83.5387 307.973L74.8231 297.938L64.7969 306.662L64.1194 305.881L74.1455 297.158Z" fill="#D51A00"/>
</g>
</svg>
