<svg width="312" height="208" viewBox="0 0 312 208" fill="none" xmlns="http://www.w3.org/2000/svg">
<path d="M271.823 28.4961H119.65V130.416H271.823V28.4961Z" fill="#FAFAFA"/>
<path d="M271.823 28.4961H119.65V38.6756H271.823V28.4961Z" fill="#EBEBEB"/>
<path d="M126.244 33.5878C126.265 33.8381 126.21 34.0888 126.086 34.3072C125.962 34.5256 125.775 34.7017 125.55 34.8122C125.324 34.9228 125.071 34.9629 124.822 34.9271C124.574 34.8914 124.342 34.7815 124.157 34.6118C123.972 34.4422 123.842 34.2206 123.785 33.9761C123.728 33.7316 123.745 33.4756 123.836 33.2414C123.927 33.0073 124.086 32.8059 124.293 32.6636C124.5 32.5213 124.745 32.4447 124.996 32.4438C125.153 32.436 125.31 32.4595 125.458 32.513C125.606 32.5664 125.743 32.6487 125.859 32.7551C125.975 32.8615 126.069 32.9899 126.135 33.1329C126.201 33.2758 126.238 33.4305 126.244 33.5878V33.5878Z" fill="#FAFAFA"/>
<path d="M130.208 33.5878C130.229 33.8381 130.174 34.0888 130.051 34.3072C129.927 34.5256 129.74 34.7017 129.515 34.8122C129.289 34.9228 129.036 34.9629 128.787 34.9271C128.539 34.8914 128.307 34.7815 128.121 34.6118C127.936 34.4422 127.807 34.2206 127.75 33.9761C127.692 33.7316 127.71 33.4756 127.801 33.2414C127.892 33.0073 128.051 32.8059 128.258 32.6636C128.464 32.5213 128.709 32.4447 128.96 32.4438C129.118 32.436 129.275 32.4595 129.423 32.513C129.571 32.5664 129.707 32.6487 129.823 32.7551C129.94 32.8615 130.033 32.9899 130.099 33.1329C130.166 33.2758 130.203 33.4305 130.208 33.5878V33.5878Z" fill="#FAFAFA"/>
<path d="M134.181 33.5878C134.202 33.8381 134.147 34.0888 134.023 34.3072C133.899 34.5256 133.713 34.7017 133.487 34.8122C133.262 34.9228 133.008 34.9629 132.76 34.9271C132.511 34.8914 132.279 34.7815 132.094 34.6118C131.909 34.4422 131.779 34.2206 131.722 33.9761C131.665 33.7316 131.683 33.4756 131.774 33.2414C131.864 33.0073 132.023 32.8059 132.23 32.6636C132.437 32.5213 132.682 32.4447 132.933 32.4438C133.09 32.436 133.248 32.4595 133.396 32.513C133.544 32.5664 133.68 32.6487 133.796 32.7551C133.912 32.8615 134.006 32.9899 134.072 33.1329C134.138 33.2758 134.175 33.4305 134.181 33.5878V33.5878Z" fill="#FAFAFA"/>
<path d="M258.556 143.707C250.602 138.154 248.801 127.841 249.113 118.573C249.167 117.025 248.997 115.394 249.733 114.034C250.469 112.674 252.187 111.75 253.573 112.403C254.721 112.944 255.237 114.279 255.865 115.386C256.724 116.86 257.981 118.061 259.492 118.851C260.478 119.363 261.697 119.683 262.671 119.138C264.006 118.402 264.164 116.559 264.152 115.02C264.135 112.15 264.117 109.281 264.097 106.413C264.097 104.874 264.097 103.305 264.563 101.837C265.029 100.368 266.098 99.0206 267.563 98.6129C269.027 98.2052 270.837 99.0289 271.149 100.551C271.206 101.189 271.22 101.83 271.19 102.469C271.236 103.106 271.531 103.813 272.139 103.992C272.746 104.171 273.387 103.734 273.828 103.285C275.417 101.733 276.494 99.7278 277.501 97.7393C278.508 95.7508 279.485 93.7083 280.929 92.0152C282.372 90.322 284.365 88.9784 286.566 88.8536C288.766 88.7288 291.121 90.1016 291.678 92.2523C292.236 94.403 290.971 96.6244 289.598 98.38C287.553 100.984 285.143 103.28 282.443 105.198C281.961 105.539 281.432 105.914 281.249 106.484C280.912 107.511 281.886 108.53 282.913 108.867C284.061 109.246 285.305 109.129 286.507 109.283C287.71 109.437 289.003 109.953 289.461 111.089C290.089 112.661 288.775 114.309 287.481 115.39C284.887 117.553 281.94 119.253 278.77 120.415C277.638 120.831 276.449 121.193 275.533 121.988C274.618 122.783 274.073 124.168 274.622 125.254C275.171 126.339 276.59 126.685 277.776 126.464C278.961 126.244 280.022 125.599 281.153 125.175C283.267 124.376 286 124.521 287.356 126.348C288.246 127.55 288.321 129.222 287.872 130.657C287.356 132.068 286.562 133.361 285.538 134.46C282.152 138.437 277.809 141.64 272.904 143.337C268 145.034 263.453 145.5 258.577 143.716" fill="#4087EA"/>
<path d="M258.436 150.592C258.859 146.294 259.694 142.046 260.932 137.908C262.47 132.858 264.298 127.901 266.406 123.061L268.041 119.242C268.582 117.994 269.114 116.746 269.705 115.565C270.859 113.298 272.136 111.097 273.532 108.971C274.851 106.933 276.174 105.044 277.426 103.289C278.678 101.533 279.885 99.9274 281.045 98.5047C282.873 96.2457 284.878 94.1355 287.04 92.1939C287.801 91.5117 288.408 90.9959 288.824 90.6547L289.299 90.2679L289.465 90.1431C289.421 90.1984 289.371 90.2486 289.315 90.2928L288.858 90.7088C288.442 91.0624 287.863 91.5907 287.115 92.2855C284.994 94.2478 283.022 96.3656 281.216 98.6211C280.072 100.048 278.882 101.666 277.634 103.422C276.386 105.177 275.076 107.07 273.765 109.109C272.386 111.23 271.123 113.426 269.984 115.685C269.393 116.863 268.865 118.09 268.32 119.346L266.685 123.165C264.582 127.995 262.752 132.94 261.202 137.975C259.954 142.091 259.093 146.315 258.631 150.592" fill="#263238"/>
<path d="M269.809 115.548C269.738 115.335 269.688 115.114 269.659 114.891C269.58 114.475 269.484 113.847 269.376 113.082C269.156 111.546 268.927 109.421 268.686 107.074C268.444 104.728 268.186 102.611 267.945 101.088C267.829 100.327 267.725 99.7071 267.65 99.2828C267.598 99.0646 267.568 98.8415 267.562 98.6172C267.652 98.824 267.718 99.0403 267.758 99.262C267.866 99.678 267.999 100.294 268.141 101.055C268.432 102.573 268.723 104.695 268.973 107.045C269.222 109.396 269.418 111.455 269.576 113.052C269.655 113.776 269.722 114.388 269.771 114.874C269.81 115.097 269.823 115.323 269.809 115.548V115.548Z" fill="#263238"/>
<path d="M289.597 111.85C289.337 111.902 289.073 111.933 288.807 111.942C288.3 111.987 287.559 112.05 286.661 112.154C284.847 112.349 282.355 112.707 279.618 113.223C276.88 113.739 274.43 114.321 272.666 114.787C271.784 115.016 271.073 115.203 270.586 115.357C270.335 115.444 270.076 115.508 269.812 115.548C270.049 115.425 270.297 115.324 270.553 115.249C271.036 115.082 271.739 114.833 272.633 114.591C274.384 114.071 276.843 113.464 279.584 112.927C281.923 112.479 284.284 112.15 286.656 111.942C287.567 111.863 288.32 111.829 288.82 111.821C289.079 111.806 289.34 111.815 289.597 111.85V111.85Z" fill="#263238"/>
<path d="M261.194 137.534C261.194 137.534 261.135 137.455 261.056 137.293C260.977 137.13 260.853 136.877 260.719 136.577C260.428 135.953 260.029 135.042 259.55 133.906C258.598 131.643 257.379 128.469 256.077 124.95C254.775 121.431 253.581 118.248 252.682 115.969L251.605 113.265L251.314 112.528C251.275 112.443 251.247 112.354 251.23 112.262C251.285 112.336 251.33 112.417 251.364 112.503C251.455 112.699 251.567 112.919 251.705 113.219C251.996 113.843 252.391 114.754 252.87 115.889C253.822 118.157 255.045 121.327 256.343 124.85C257.641 128.374 258.839 131.548 259.738 133.832L260.819 136.531L261.106 137.268C261.147 137.352 261.177 137.442 261.194 137.534Z" fill="#263238"/>
<path d="M287.485 129.06C287.402 129.107 287.314 129.143 287.222 129.168L286.461 129.422L283.645 130.337C281.265 131.107 277.996 132.209 274.385 133.432C270.774 134.655 267.487 135.729 265.091 136.448C263.893 136.81 262.924 137.093 262.246 137.28L261.468 137.484C261.379 137.514 261.287 137.532 261.193 137.538C261.275 137.492 261.361 137.455 261.451 137.43L262.217 137.176L265.033 136.261C267.408 135.491 270.678 134.389 274.293 133.166C277.908 131.943 281.19 130.87 283.587 130.146C284.781 129.784 285.754 129.501 286.428 129.314L287.206 129.11C287.296 129.081 287.39 129.064 287.485 129.06V129.06Z" fill="#263238"/>
<path d="M84.1763 76.6937C84.1763 76.7853 83.5148 76.856 82.6995 76.856C81.8841 76.856 81.2227 76.7853 81.2227 76.6937C81.2227 76.6022 81.8841 76.5315 82.6995 76.5315C83.5148 76.5315 84.1763 76.6064 84.1763 76.6937Z" fill="#263238"/>
<path d="M85.7404 72.6794C85.8319 72.6794 85.9068 73.3492 85.9068 74.177C85.9068 75.0049 85.8319 75.6746 85.7404 75.6746C85.6488 75.6746 85.5781 75.0049 85.5781 74.177C85.5781 73.3492 85.653 72.6794 85.7404 72.6794Z" fill="#263238"/>
<path d="M87.4141 76.5983C87.4141 76.5068 88.0713 76.436 88.8867 76.436C89.7021 76.436 90.3635 76.5068 90.3635 76.5983C90.3635 76.6898 89.7021 76.7605 88.8867 76.7605C88.0713 76.7605 87.4141 76.6898 87.4141 76.5983Z" fill="#263238"/>
<path d="M85.8458 80.6126C85.7543 80.6126 85.6836 79.9429 85.6836 79.115C85.6836 78.2872 85.7543 77.6174 85.8458 77.6174C85.9374 77.6174 86.0081 78.2872 86.0081 79.115C86.0081 79.9429 85.9374 80.6126 85.8458 80.6126Z" fill="#263238"/>
<path d="M88.2289 78.8904C88.1623 78.9486 87.8711 78.7156 87.5799 78.3662C87.2887 78.0168 87.1098 77.6923 87.1639 77.634C87.218 77.5758 87.5258 77.8129 87.8129 78.1582C88.0999 78.5035 88.2996 78.8321 88.2289 78.8904Z" fill="#263238"/>
<path d="M88.0924 74.3392C88.159 74.4016 87.9635 74.7012 87.6764 75.0048C87.3894 75.3085 87.0816 75.4999 87.015 75.4208C86.9484 75.3418 87.144 75.0589 87.431 74.7552C87.718 74.4516 88.03 74.2768 88.0924 74.3392Z" fill="#263238"/>
<path d="M84.7096 75.4998C84.6514 75.5664 84.3727 75.4291 84.0856 75.192C83.7986 74.9549 83.6155 74.7053 83.6696 74.6345C83.7237 74.5638 84.0066 74.7011 84.2895 74.9424C84.5723 75.1837 84.7679 75.4291 84.7096 75.4998Z" fill="#263238"/>
<path d="M84.5768 77.5051C84.6433 77.5675 84.4769 77.8587 84.2024 78.1582C83.9278 78.4577 83.6532 78.6491 83.5867 78.5742C83.5201 78.4993 83.6907 78.2206 83.9611 77.9211C84.2315 77.6215 84.5102 77.4427 84.5768 77.5051Z" fill="#263238"/>
<path d="M25.3339 120.994C25.0671 121.087 24.7829 121.12 24.5019 121.089C24.2209 121.12 23.9366 121.087 23.6699 120.994C23.9377 120.905 24.2212 120.874 24.5019 120.902C24.7826 120.874 25.0661 120.905 25.3339 120.994V120.994Z" fill="#263238"/>
<path d="M26.207 118.718C26.329 119.277 26.329 119.856 26.207 120.416C26.0794 119.857 26.0794 119.277 26.207 118.718V118.718Z" fill="#263238"/>
<path d="M27.168 120.94C27.4359 120.852 27.7193 120.82 28 120.848C28.2807 120.82 28.5642 120.851 28.832 120.94C28.5653 121.033 28.281 121.066 28 121.035C27.719 121.065 27.4348 121.033 27.168 120.94Z" fill="#263238"/>
<path d="M26.283 123.219C26.1909 122.952 26.1582 122.668 26.1873 122.387C26.156 122.099 26.1886 121.808 26.283 121.534C26.3724 121.809 26.4036 122.1 26.3745 122.387C26.4014 122.668 26.3703 122.951 26.283 123.219V123.219Z" fill="#263238"/>
<path d="M27.6336 122.242C27.5962 122.275 27.4298 122.142 27.2634 121.946C27.097 121.751 26.9971 121.564 27.0387 121.53C27.0803 121.497 27.2426 121.63 27.409 121.826C27.5754 122.021 27.671 122.208 27.6336 122.242Z" fill="#263238"/>
<path d="M27.5555 119.658C27.5929 119.692 27.4847 119.862 27.3142 120.037C27.1436 120.212 26.9731 120.316 26.9398 120.282C26.9065 120.249 27.0105 120.078 27.1811 119.904C27.3516 119.729 27.518 119.621 27.5555 119.658Z" fill="#263238"/>
<path d="M25.6378 120.316C25.6045 120.357 25.4464 120.278 25.2842 120.141C25.1219 120.004 25.0138 119.866 25.047 119.825C25.0803 119.783 25.2384 119.866 25.4006 119.999C25.5629 120.133 25.6669 120.278 25.6378 120.316Z" fill="#263238"/>
<path d="M25.558 121.472C25.5996 121.505 25.5039 121.672 25.3458 121.842C25.1877 122.013 25.038 122.121 25.0005 122.088C24.9631 122.054 25.0546 121.888 25.2127 121.717C25.3708 121.547 25.5205 121.422 25.558 121.472Z" fill="#263238"/>
<path d="M88.0831 113.568L88.1788 113.801C88.2622 114.001 88.3846 114.182 88.5389 114.335C88.6931 114.487 88.8762 114.607 89.0773 114.687L89.3269 114.791L89.0857 114.887C88.8832 114.97 88.6992 115.093 88.5443 115.248C88.3894 115.403 88.2666 115.587 88.1829 115.79L88.1164 115.96L88.0124 115.748C87.8305 115.361 87.503 115.062 87.1013 114.916L86.8809 114.837L87.1679 114.695C87.5248 114.522 87.8081 114.227 87.9666 113.863L88.0831 113.568Z" fill="#263238"/>
<path d="M43.3214 83.9031L43.4171 84.136C43.5004 84.3354 43.6223 84.5163 43.7758 84.6684C43.9293 84.8204 44.1113 84.9407 44.3115 85.0221L44.5611 85.122L44.3239 85.2218C44.1205 85.3038 43.9357 85.426 43.7806 85.5811C43.6255 85.7363 43.5032 85.9211 43.4212 86.1245L43.3505 86.2951L43.2507 86.0829C43.1603 85.8909 43.033 85.7185 42.8759 85.5758C42.7189 85.433 42.5352 85.3226 42.3355 85.2509L42.1191 85.1719L42.402 85.0304C42.7603 84.859 43.0441 84.5634 43.2007 84.1984L43.3214 83.9031Z" fill="#263238"/>
<path d="M253.869 48.2185H98.7428C95.3953 48.2185 92.6816 50.9322 92.6816 54.2796V152.755C92.6816 156.103 95.3953 158.816 98.7428 158.816H253.869C257.217 158.816 259.93 156.103 259.93 152.755V54.2796C259.93 50.9322 257.217 48.2185 253.869 48.2185Z" fill="#263238"/>
<path d="M85.6966 150.638H266.885V152.913C266.885 154.877 266.105 156.761 264.717 158.149C263.328 159.538 261.444 160.318 259.481 160.318H93.0806C91.1167 160.318 89.2333 159.538 87.8446 158.149C86.4559 156.761 85.6758 154.877 85.6758 152.913V150.638H85.6966Z" fill="#263238"/>
<path d="M254.971 52.6157H97.1699V146.016H254.971V52.6157Z" fill="#455A64"/>
<path d="M159.814 150.638L162.065 154.215H193.702L195.79 150.638H159.814Z" fill="#455A64"/>
<path d="M250.681 55.7773H101.778C101.027 55.7773 100.418 56.3864 100.418 57.1377V144.356C100.418 145.108 101.027 145.717 101.778 145.717H250.681C251.433 145.717 252.042 145.108 252.042 144.356V57.1377C252.042 56.3864 251.433 55.7773 250.681 55.7773Z" fill="#EBEBEB"/>
<path d="M252.042 62.3667H100.418V145.716H252.042V62.3667Z" fill="#FAFAFA"/>
<path d="M112.857 59.2509C112.857 59.4911 112.786 59.726 112.652 59.9257C112.519 60.1255 112.329 60.2812 112.107 60.3731C111.885 60.4651 111.641 60.4891 111.405 60.4422C111.17 60.3954 110.953 60.2797 110.784 60.1098C110.614 59.9399 110.498 59.7235 110.451 59.4878C110.404 59.2522 110.428 59.008 110.52 58.786C110.612 58.564 110.768 58.3743 110.968 58.2409C111.167 58.1074 111.402 58.0361 111.642 58.0361C111.965 58.0361 112.274 58.1641 112.501 58.3919C112.729 58.6197 112.857 58.9287 112.857 59.2509Z" fill="#263238"/>
<path d="M105.515 59.2509C105.514 59.4901 105.442 59.7237 105.309 59.9223C105.175 60.1208 104.986 60.2753 104.765 60.3663C104.543 60.4573 104.3 60.4807 104.066 60.4335C103.831 60.3863 103.616 60.2707 103.447 60.1012C103.278 59.9318 103.163 59.716 103.117 59.4813C103.07 59.2466 103.095 59.0034 103.186 58.7825C103.278 58.5615 103.433 58.3727 103.632 58.2399C103.831 58.107 104.065 58.0361 104.304 58.0361C104.464 58.0361 104.621 58.0676 104.769 58.1287C104.916 58.1898 105.049 58.2793 105.162 58.3922C105.274 58.505 105.363 58.639 105.424 58.7863C105.485 58.9337 105.515 59.0915 105.515 59.2509V59.2509Z" fill="#263238"/>
<path d="M109.038 59.2509C109.037 59.4901 108.966 59.7237 108.832 59.9223C108.699 60.1208 108.509 60.2753 108.288 60.3663C108.067 60.4573 107.824 60.4807 107.589 60.4335C107.354 60.3863 107.139 60.2707 106.97 60.1012C106.801 59.9318 106.687 59.716 106.64 59.4813C106.594 59.2466 106.618 59.0034 106.71 58.7825C106.801 58.5615 106.957 58.3727 107.156 58.2399C107.355 58.107 107.588 58.0361 107.828 58.0361C107.987 58.0361 108.145 58.0676 108.292 58.1287C108.439 58.1898 108.573 58.2793 108.685 58.3922C108.798 58.505 108.887 58.639 108.947 58.7863C109.008 58.9337 109.039 59.0915 109.038 59.2509V59.2509Z" fill="#263238"/>
<path d="M258.491 150.638C258.491 150.7 221.371 150.746 175.59 150.746C129.81 150.746 92.6816 150.7 92.6816 150.638C92.6816 150.575 129.793 150.53 175.59 150.53C221.388 150.53 258.491 150.592 258.491 150.638Z" fill="#455A64"/>
<path d="M145.526 104.354H110.928V106.666H145.526V104.354Z" fill="#E0E0E0"/>
<path d="M190.216 72.2175H155.617V74.5305H190.216V72.2175Z" fill="#E0E0E0"/>
<path d="M241.697 80.8372C241.697 80.8954 222.428 80.9453 198.67 80.9453C174.912 80.9453 155.635 80.8954 155.635 80.8372C155.635 80.7789 174.9 80.729 198.67 80.729C222.44 80.729 241.697 80.7789 241.697 80.8372Z" fill="#E0E0E0"/>
<path d="M241.697 85.8914C241.697 85.9496 222.428 85.9995 198.67 85.9995C174.912 85.9995 155.635 85.9496 155.635 85.8914C155.635 85.8331 174.9 85.7832 198.67 85.7832C222.44 85.7832 241.697 85.8331 241.697 85.8914Z" fill="#E0E0E0"/>
<path d="M241.697 90.9458C241.697 91.004 222.428 91.054 198.67 91.054C174.912 91.054 155.635 91.004 155.635 90.9458C155.635 90.8876 174.9 90.8376 198.67 90.8376C222.44 90.8376 241.697 90.8834 241.697 90.9458Z" fill="#E0E0E0"/>
<path d="M241.697 96.0003C241.697 96.0585 222.428 96.1084 198.67 96.1084C174.912 96.1084 155.635 96.0585 155.635 96.0003C155.635 95.942 174.9 95.8921 198.67 95.8921C222.44 95.8921 241.697 95.9379 241.697 96.0003Z" fill="#E0E0E0"/>
<path d="M241.697 101.055C241.697 101.113 222.428 101.163 198.67 101.163C174.912 101.163 155.635 101.113 155.635 101.055C155.635 100.996 174.9 100.947 198.67 100.947C222.44 100.947 241.697 100.992 241.697 101.055Z" fill="#E0E0E0"/>
<path d="M189.213 106.109C189.213 106.167 181.692 106.217 172.415 106.217C163.138 106.217 155.617 106.167 155.617 106.109C155.617 106.051 163.138 106.001 172.415 106.001C181.692 106.001 189.213 106.047 189.213 106.109Z" fill="#E0E0E0"/>
<path d="M241.053 115.918C241.053 115.977 228.385 116.027 212.765 116.027C197.144 116.027 184.477 115.977 184.477 115.918C184.477 115.86 197.14 115.81 212.765 115.81C228.39 115.81 241.053 115.856 241.053 115.918Z" fill="#E0E0E0"/>
<path d="M241.053 121.281C241.053 121.343 228.385 121.389 212.765 121.389C197.144 121.389 184.477 121.343 184.477 121.281C184.477 121.218 197.14 121.172 212.765 121.172C228.39 121.172 241.053 121.222 241.053 121.281Z" fill="#E0E0E0"/>
<path d="M241.053 126.647C241.053 126.705 228.385 126.755 212.765 126.755C197.144 126.755 184.477 126.705 184.477 126.647C184.477 126.589 197.14 126.539 212.765 126.539C228.39 126.539 241.053 126.589 241.053 126.647Z" fill="#E0E0E0"/>
<path d="M241.053 132.013C241.053 132.072 228.385 132.122 212.765 132.122C197.144 132.122 184.477 132.072 184.477 132.013C184.477 131.955 197.14 131.905 212.765 131.905C228.39 131.905 241.053 131.951 241.053 132.013Z" fill="#E0E0E0"/>
<path d="M145.6 115.403C145.6 115.465 138.049 115.511 128.739 115.511C119.429 115.511 111.879 115.465 111.879 115.403C111.879 115.34 119.425 115.294 128.739 115.294C138.054 115.294 145.6 115.344 145.6 115.403Z" fill="#E0E0E0"/>
<path d="M145.6 119.616C145.6 119.675 138.049 119.725 128.739 119.725C119.429 119.725 111.879 119.675 111.879 119.616C111.879 119.558 119.425 119.508 128.739 119.508C138.054 119.508 145.6 119.558 145.6 119.616Z" fill="#E0E0E0"/>
<path d="M145.6 123.831C145.6 123.889 138.049 123.939 128.739 123.939C119.429 123.939 111.879 123.889 111.879 123.831C111.879 123.772 119.425 123.722 128.739 123.722C138.054 123.722 145.6 123.768 145.6 123.831Z" fill="#E0E0E0"/>
<path d="M145.6 128.045C145.6 128.103 138.05 128.153 128.74 128.153C119.43 128.153 111.904 128.103 111.904 128.045C111.904 127.986 119.451 127.937 128.765 127.937C138.079 127.937 145.6 127.982 145.6 128.045Z" fill="#E0E0E0"/>
<path d="M145.6 132.255C145.6 132.317 138.049 132.367 128.739 132.367C119.429 132.367 111.879 132.317 111.879 132.255C111.879 132.192 119.425 132.146 128.739 132.146C138.054 132.146 145.6 132.196 145.6 132.255Z" fill="#E0E0E0"/>
<path d="M180.146 113.356H155.598V137.105H180.146V113.356Z" fill="#F5F5F5"/>
<path d="M157.502 135.075L164.291 122.853L169.845 130.666L173.223 126.518L178.244 135.075H157.502Z" fill="#EBEBEB"/>
<path d="M172.225 120.478C172.225 120.827 172.122 121.169 171.927 121.46C171.733 121.751 171.457 121.977 171.134 122.111C170.811 122.245 170.455 122.28 170.113 122.212C169.77 122.144 169.455 121.975 169.207 121.728C168.96 121.481 168.792 121.166 168.723 120.823C168.655 120.48 168.69 120.124 168.824 119.801C168.958 119.478 169.184 119.202 169.475 119.008C169.766 118.813 170.108 118.71 170.457 118.71C170.69 118.709 170.92 118.755 171.135 118.843C171.349 118.932 171.545 119.062 171.709 119.226C171.873 119.391 172.003 119.586 172.092 119.8C172.181 120.015 172.226 120.245 172.225 120.478Z" fill="#EBEBEB"/>
<path d="M178.244 135.142C178.241 135.109 178.241 135.075 178.244 135.042C178.244 134.971 178.244 134.88 178.244 134.767C178.244 134.514 178.244 134.156 178.244 133.698C178.244 132.754 178.244 131.394 178.219 129.663C178.219 126.194 178.19 121.256 178.169 115.324L178.269 115.423H157.527C157.498 115.448 157.747 115.203 157.643 115.311V117.994C157.643 118.885 157.643 119.766 157.643 120.64V125.757C157.643 129.085 157.643 132.226 157.643 135.121L157.543 135.017L172.54 135.071L176.771 135.096H177.89H178.181H178.285H178.194H177.915H176.813L172.603 135.125L157.543 135.175H157.439V135.075C157.439 132.163 157.439 129.035 157.439 125.711C157.439 124.047 157.439 122.337 157.439 120.594V115.332C157.331 115.432 157.581 115.186 157.556 115.211H178.298H178.398V115.311C178.398 121.268 178.356 126.231 178.348 129.717C178.348 131.435 178.348 132.791 178.318 133.727C178.318 134.177 178.318 134.526 178.318 134.776C178.318 134.888 178.318 134.975 178.318 135.042C178.297 135.077 178.272 135.111 178.244 135.142V135.142Z" fill="#EBEBEB"/>
<path d="M144.877 68.2656H111.58V100.477H144.877V68.2656Z" fill="#F5F5F5"/>
<path d="M114.164 97.7226L123.374 81.145L130.908 91.7405L135.484 86.1121L142.294 97.7226H114.164Z" fill="#E0E0E0"/>
<path d="M134.115 77.9208C134.115 78.3947 133.974 78.858 133.711 79.2521C133.447 79.6461 133.073 79.9532 132.635 80.1346C132.198 80.3159 131.716 80.3634 131.251 80.2709C130.786 80.1785 130.359 79.9503 130.024 79.6152C129.689 79.28 129.461 78.8531 129.368 78.3883C129.276 77.9235 129.323 77.4417 129.505 77.0038C129.686 76.566 129.993 76.1918 130.387 75.9285C130.781 75.6652 131.245 75.5247 131.718 75.5247C132.354 75.5247 132.963 75.7771 133.413 76.2265C133.862 76.6758 134.115 77.2853 134.115 77.9208Z" fill="#E0E0E0"/>
<path d="M142.292 97.8098C142.292 97.8098 142.292 97.764 142.292 97.6808C142.292 97.5976 142.292 97.4603 142.292 97.3022C142.292 96.9611 142.292 96.4702 142.292 95.8546C142.292 94.5774 142.272 92.7304 142.255 90.3842C142.255 85.6792 142.213 78.9774 142.184 70.932L142.322 71.0693H114.192L114.35 70.9154V74.5637C114.35 75.7701 114.35 76.964 114.35 78.1496C114.35 80.5166 114.35 82.8338 114.35 85.0885C114.35 89.6021 114.35 93.8661 114.35 97.789L114.212 97.6517L134.551 97.7224L140.287 97.7598H141.81H142.226H142.363C142.323 97.7669 142.282 97.7669 142.243 97.7598H141.86H140.366L134.659 97.7973L114.233 97.868H114.092V97.7266C114.092 93.8037 114.092 89.5397 114.092 85.0261C114.092 82.7714 114.092 80.4501 114.092 78.0872V70.9362L114.254 70.7739L142.384 70.7947H142.521V70.9278C142.492 79.0107 142.467 85.7374 142.451 90.4798C142.451 92.8094 142.426 94.6398 142.417 95.917C142.417 96.5285 142.417 97.0069 142.417 97.3397C142.417 97.4936 142.417 97.6101 142.417 97.7016C142.381 97.7437 142.339 97.7802 142.292 97.8098Z" fill="#E0E0E0"/>
<path d="M192.949 92.273L189.621 92.2272L189.746 83.1668C189.744 81.5754 189.429 79.9999 188.818 78.5303C188.208 77.0607 187.314 75.7257 186.187 74.6016C185.061 73.4775 183.724 72.5863 182.253 71.9788C180.783 71.3713 179.206 71.0595 177.615 71.0612C176.024 71.0628 174.448 71.3779 172.979 71.9884C171.509 72.5989 170.174 73.4929 169.05 74.6193C166.78 76.8942 165.506 79.9778 165.509 83.1917L165.385 92.273L162.057 92.2272L162.181 83.1668C162.185 79.0702 163.815 75.1427 166.714 72.2484C169.613 69.354 173.543 67.7298 177.64 67.7332C181.737 67.7365 185.664 69.367 188.558 72.266C191.453 75.1651 193.077 79.0952 193.074 83.1917L192.949 92.273Z" fill="#263238"/>
<path d="M193.257 87.8591H162.357C158.155 87.8591 154.748 91.2656 154.748 95.4678V125.307C154.748 129.51 158.155 132.916 162.357 132.916H193.257C197.459 132.916 200.866 129.51 200.866 125.307V95.4678C200.866 91.2656 197.459 87.8591 193.257 87.8591Z" fill="#4087EA"/>
<g opacity="0.3">
<path d="M182.399 108.01C182.401 107.209 182.195 106.42 181.799 105.723C181.402 105.026 180.831 104.445 180.141 104.037C179.45 103.629 178.666 103.408 177.864 103.398C177.062 103.387 176.272 103.586 175.571 103.975C174.87 104.364 174.283 104.93 173.868 105.616C173.453 106.302 173.225 107.085 173.206 107.886C173.188 108.688 173.379 109.48 173.761 110.185C174.143 110.89 174.703 111.483 175.385 111.904L174.208 117.35H181.746C181.746 117.35 180.914 113.926 180.364 111.817C180.989 111.397 181.501 110.83 181.856 110.167C182.21 109.503 182.397 108.763 182.399 108.01Z" fill="black"/>
</g>
<g opacity="0.2">
<path d="M157.698 119.255C157.398 119.255 157.282 113.992 157.402 107.515C157.523 101.038 157.889 95.7881 158.189 95.7964C158.488 95.8047 158.605 101.059 158.484 107.536C158.363 114.013 157.997 119.259 157.698 119.255Z" fill="white"/>
</g>
<g opacity="0.2">
<path d="M157.731 124.467C157.432 124.467 157.186 123.96 157.178 123.323C157.17 122.687 157.403 122.171 157.702 122.167C158.002 122.163 158.251 122.674 158.26 123.311C158.268 123.947 158.031 124.463 157.731 124.467Z" fill="white"/>
</g>
<g opacity="0.2">
<path d="M172.2 118.098C171.963 118.019 172.525 115.623 173.502 112.437L173.627 112.961C173.182 112.52 172.72 112.058 172.238 111.546C171.491 110.695 171.052 109.619 170.99 108.489C170.939 107.581 171.153 106.678 171.605 105.889C171.892 105.368 172.291 104.917 172.774 104.57C173.115 104.333 173.344 104.27 173.382 104.329C173.49 104.458 172.787 105.015 172.292 106.226C171.982 106.983 171.887 107.811 172.018 108.619C172.15 109.426 172.502 110.182 173.036 110.802L174.376 112.216L174.596 112.453L174.497 112.744C173.402 115.91 172.437 118.173 172.2 118.098Z" fill="white"/>
</g>
<g opacity="0.2">
<path d="M191.236 90.9876C191.236 91.1374 189.393 91.2622 186.418 91.337C183.444 91.4119 179.346 91.441 174.77 91.4078C172.499 91.4078 170.336 91.3578 168.368 91.3162C166.4 91.2746 164.624 91.154 163.206 91.3162C162.08 91.3978 160.993 91.7642 160.048 92.3812C159.387 92.8346 159.116 93.2132 159.041 93.1633C158.966 93.1134 159.145 92.6599 159.782 92.0567C160.72 91.2411 161.877 90.7201 163.11 90.5591C163.936 90.4309 164.77 90.3655 165.606 90.3636L168.401 90.3345C170.369 90.3345 172.532 90.3345 174.804 90.3345C179.346 90.3678 183.456 90.4634 186.431 90.5841C189.405 90.7047 191.236 90.8378 191.236 90.9876Z" fill="white"/>
</g>
<path d="M35.6045 187.267L35.3091 188.373C35.3091 188.373 31.3031 194.892 31.7773 195.52C32.1011 195.925 32.5405 196.221 33.0369 196.37C33.5334 196.518 34.0633 196.512 34.5562 196.352C35.9498 196.003 41.832 190.416 41.832 190.416L42.169 189.521L35.6045 187.267Z" fill="#4087EA"/>
<g opacity="0.3">
<path d="M32.1784 194.022C32.1784 194.022 33.9131 193.257 34.9157 195.499C34.9157 195.499 35.6645 195.216 37.7445 193.477C39.8245 191.739 41.8337 190.033 41.8337 190.033C41.8337 190.033 42.0501 189.858 41.9877 190.033C41.9253 190.208 41.8337 190.503 41.8337 190.503L37.8193 194.043C37.8193 194.043 35.4149 196.123 34.8117 196.273C34.2085 196.423 33.5969 196.639 32.8315 196.298C32.3414 196.118 31.9343 195.764 31.6875 195.304C31.6875 195.204 32.1784 194.022 32.1784 194.022Z" fill="black"/>
</g>
<path d="M35.148 196.231C35.123 196.231 35.0814 196.011 34.9358 195.678C34.7477 195.245 34.4621 194.861 34.1013 194.557C33.7405 194.252 33.3143 194.035 32.8558 193.922C32.5022 193.839 32.2734 193.835 32.2734 193.814C32.471 193.785 32.6726 193.799 32.8642 193.856C33.3498 193.945 33.8041 194.159 34.1829 194.476C34.5556 194.795 34.8418 195.202 35.0149 195.661C35.0953 195.841 35.1405 196.035 35.148 196.231V196.231Z" fill="#263238"/>
<path d="M42.17 189.746C42.1432 189.781 42.1125 189.813 42.0785 189.842L41.7956 190.091L40.7681 190.998L37.2862 193.943C36.6622 194.507 35.9914 195.016 35.2811 195.466C34.6832 195.837 33.9805 196.002 33.2801 195.936C32.8026 195.885 32.3595 195.663 32.0321 195.312C31.9151 195.193 31.8231 195.051 31.7617 194.896C31.8509 195.044 31.954 195.183 32.0696 195.312C32.4014 195.622 32.8278 195.811 33.2801 195.849C33.9562 195.894 34.6292 195.724 35.202 195.362C35.9034 194.915 36.567 194.411 37.1864 193.856C38.5384 192.733 39.7572 191.714 40.6932 190.944L41.7624 190.07L42.0619 189.837C42.0935 189.802 42.1299 189.771 42.17 189.746V189.746Z" fill="#263238"/>
<path d="M35.8215 192.487C35.5604 192.359 35.3124 192.206 35.081 192.03C34.8267 191.887 34.5858 191.721 34.3613 191.535C34.6477 191.608 34.9165 191.738 35.1517 191.917C35.4105 192.061 35.6382 192.255 35.8215 192.487V192.487Z" fill="#263238"/>
<path d="M36.6821 191.551C36.3682 191.451 36.0634 191.325 35.7711 191.173C35.4616 191.063 35.1635 190.924 34.8809 190.757C35.2108 190.801 35.5304 190.902 35.8252 191.056C36.1366 191.172 36.4263 191.339 36.6821 191.551V191.551Z" fill="#263238"/>
<path d="M37.4816 190.749C37.4524 190.778 37.0905 190.457 36.5664 190.204C36.0422 189.95 35.568 189.846 35.5763 189.788C35.9428 189.787 36.303 189.883 36.6204 190.066C36.9612 190.216 37.2577 190.451 37.4816 190.749V190.749Z" fill="#263238"/>
<path d="M37.9435 189.792C37.9435 189.821 37.5857 189.575 37.1115 189.376C36.6373 189.176 36.2379 189.08 36.2462 189.043C36.5661 189.036 36.8825 189.11 37.1656 189.259C37.4677 189.364 37.7363 189.548 37.9435 189.792V189.792Z" fill="#263238"/>
<path d="M37.7443 188.885C37.5586 188.806 37.3893 188.693 37.2451 188.552C37.0821 188.411 36.9318 188.257 36.7958 188.09C36.7129 187.991 36.6365 187.887 36.567 187.778C36.5225 187.72 36.4874 187.656 36.463 187.587C36.4462 187.545 36.4413 187.499 36.4486 187.454C36.4559 187.41 36.4753 187.368 36.5046 187.333C36.5667 187.281 36.6427 187.248 36.7232 187.238C36.8038 187.229 36.8854 187.243 36.958 187.279C37.0838 187.331 37.1972 187.409 37.2908 187.508C37.4429 187.673 37.5478 187.875 37.5945 188.094C37.6276 188.238 37.6416 188.384 37.6361 188.531C37.6361 188.635 37.6361 188.693 37.6112 188.693C37.5862 188.693 37.6112 188.46 37.5072 188.119C37.4511 187.921 37.3468 187.739 37.2035 187.591C37.1203 187.507 37.0213 187.441 36.9123 187.395C36.8656 187.368 36.8125 187.354 36.7584 187.354C36.7042 187.354 36.6511 187.368 36.6044 187.395C36.5379 187.462 36.6044 187.583 36.671 187.687C36.7376 187.791 36.8166 187.899 36.8873 187.995C37.0149 188.161 37.1539 188.318 37.3033 188.465C37.5696 188.739 37.7526 188.864 37.7443 188.885Z" fill="#263238"/>
<path d="M37.6567 188.773C37.6567 188.773 37.6567 188.71 37.6983 188.61C37.7597 188.473 37.841 188.345 37.9396 188.232C38.1723 187.954 38.4869 187.758 38.8382 187.67C38.9149 187.654 38.9944 187.654 39.0711 187.67C39.1171 187.681 39.1593 187.704 39.193 187.737C39.2267 187.77 39.2508 187.812 39.2625 187.857C39.2662 187.935 39.2524 188.013 39.2222 188.085C39.192 188.157 39.146 188.221 39.0878 188.273C39.0005 188.375 38.8997 188.465 38.7883 188.54C38.6002 188.665 38.3874 188.749 38.1643 188.785C38.0141 188.81 37.8609 188.81 37.7108 188.785C37.6068 188.785 37.5527 188.743 37.5527 188.735C37.7505 188.74 37.9483 188.726 38.1435 188.694C38.3499 188.646 38.5449 188.558 38.7175 188.436C38.8206 188.366 38.9131 188.282 38.9921 188.186C39.0365 188.147 39.072 188.099 39.0964 188.045C39.1208 187.991 39.1335 187.933 39.1335 187.874C39.1335 187.778 38.9838 187.758 38.8631 187.783C38.7435 187.81 38.6276 187.852 38.5179 187.907C38.3269 188 38.1537 188.125 38.0062 188.278C37.877 188.433 37.7602 188.599 37.6567 188.773V188.773Z" fill="#263238"/>
<path d="M41.0293 189.226C40.842 189.179 40.6449 189.189 40.4635 189.255C40.0337 189.441 39.678 189.764 39.4526 190.174C39.2261 190.585 39.133 191.056 39.1864 191.522C39.228 191.88 39.3237 192.088 39.3029 192.096C39.189 191.929 39.1176 191.736 39.0949 191.535C39.0124 191.046 39.0989 190.545 39.3403 190.112C39.5768 189.674 39.9662 189.338 40.4344 189.168C40.5301 189.125 40.6352 189.108 40.7395 189.119C40.8437 189.129 40.9435 189.166 41.0293 189.226V189.226Z" fill="#263238"/>
<path d="M38.6542 191.851C38.4612 192.103 38.2328 192.326 37.9761 192.512C37.7497 192.735 37.4935 192.925 37.2148 193.078C37.4078 192.826 37.6362 192.603 37.8929 192.417C38.1203 192.195 38.3763 192.005 38.6542 191.851V191.851Z" fill="#263238"/>
<path d="M39.4497 191.427C39.4871 191.427 39.5329 191.51 39.5578 191.618C39.5828 191.726 39.5578 191.822 39.5578 191.834C39.5578 191.847 39.4746 191.763 39.4497 191.643C39.4247 191.522 39.4164 191.431 39.4497 191.427Z" fill="#263238"/>
<path d="M39.5526 190.607C39.5859 190.607 39.5942 190.719 39.5526 190.823C39.511 190.927 39.4736 191.015 39.4403 191.01C39.407 191.006 39.3987 190.911 39.4403 190.794C39.4819 190.678 39.5193 190.594 39.5526 190.607Z" fill="#263238"/>
<path d="M39.9897 189.908C40.0189 189.937 39.9897 190.016 39.9065 190.108C39.8233 190.199 39.7609 190.249 39.7318 190.233C39.7027 190.216 39.7318 190.12 39.8067 190.025C39.8816 189.929 39.9689 189.883 39.9897 189.908Z" fill="#263238"/>
<path d="M40.6965 189.476C40.6965 189.509 40.6341 189.575 40.5343 189.625C40.4344 189.675 40.3387 189.684 40.3179 189.654C40.2971 189.625 40.372 189.559 40.4802 189.505C40.5883 189.451 40.684 189.442 40.6965 189.476Z" fill="#263238"/>
<path d="M41.5177 189.38C41.5177 189.417 41.4179 189.446 41.3097 189.446C41.2015 189.446 41.1059 189.417 41.1017 189.384C41.0975 189.351 41.1891 189.317 41.3097 189.317C41.4303 189.317 41.5219 189.342 41.5177 189.38Z" fill="#263238"/>
<path d="M90.8671 84.032C90.6092 84.344 90.2431 87.647 90.2431 87.647C90.2431 87.647 84.1487 98.047 83.3 98.1926C82.4514 98.3382 78.7532 90.975 78.7532 90.975L74.9551 94.4736C74.9551 94.4736 76.9352 103.767 83.1253 105.36C86.0373 106.113 91.1458 96.8448 94.5487 89.1363C94.6069 89.0115 96.3666 84.8182 96.3666 84.8182L90.8671 84.032Z" fill="#A56959"/>
<path d="M96.3003 85.1803C96.3003 85.1803 96.3003 85.226 96.2795 85.2843C96.1214 85.7835 95.1771 87.8385 94.8859 87.8177C94.5947 87.7969 93.9208 87.3185 93.9915 87.0232C94.0622 86.7278 95.2603 84.4689 95.2603 84.4689C95.2603 84.4689 95.4683 84.1236 96.1256 84.3067C96.5333 84.4232 96.3003 85.1803 96.3003 85.1803Z" fill="#A56959"/>
<path d="M95.3853 83.8863C95.3853 83.8863 95.3853 83.9321 95.3853 83.9945C95.2272 84.4895 94.2829 86.5487 93.9917 86.5238C93.7005 86.4988 93.0266 86.0246 93.1015 85.7292C93.1763 85.4338 94.3495 83.1791 94.3495 83.1791C94.3495 83.1791 94.5616 82.8338 95.2147 83.0169C95.6183 83.1292 95.3853 83.8863 95.3853 83.8863Z" fill="#A56959"/>
<path d="M94.332 82.9795C94.332 82.9795 94.332 83.0252 94.332 83.0835C94.1739 83.5827 93.2296 85.6419 92.9384 85.6169C92.6472 85.5919 91.9774 85.1177 92.0482 84.8223C92.1189 84.527 93.2962 82.2723 93.2962 82.2723C93.2962 82.2723 93.5083 81.927 94.1656 82.1059C94.565 82.2223 94.332 82.9795 94.332 82.9795Z" fill="#A56959"/>
<path d="M93.2795 82.0975C93.2854 82.1319 93.2854 82.1671 93.2795 82.2015C93.1173 82.7007 92.1771 84.7599 91.8859 84.735C91.5947 84.71 90.9208 84.2358 90.9915 83.9404C91.0622 83.645 92.2395 81.3862 92.2395 81.3862C92.2395 81.3862 92.4517 81.0409 93.1089 81.2239C93.5083 81.3404 93.2795 82.0975 93.2795 82.0975Z" fill="#A56959"/>
<path d="M94.248 86.4115C94.4715 86.116 94.6535 85.7913 94.7888 85.4464C94.9712 85.1291 95.111 84.7893 95.2048 84.4355C94.9872 84.7348 94.8057 85.0588 94.664 85.4007C94.4846 85.7194 94.3449 86.0589 94.248 86.4115V86.4115Z" fill="#7C4435"/>
<path d="M93.0254 85.8832C93.3167 85.4453 93.5673 84.9816 93.7742 84.498C94.0236 84.0363 94.231 83.5532 94.394 83.0544C94.1027 83.4924 93.8521 83.9561 93.6452 84.4397C93.3959 84.9014 93.1884 85.3845 93.0254 85.8832Z" fill="#7C4435"/>
<g opacity="0.78">
<path d="M91.832 85.2343C92.121 84.7956 92.3702 84.332 92.5767 83.849C92.8281 83.3884 93.0357 82.9051 93.1965 82.4055C92.9076 82.8435 92.6571 83.3056 92.4477 83.7866C92.1989 84.2495 91.9928 84.734 91.832 85.2343V85.2343Z" fill="#7C4435"/>
</g>
<path d="M90.875 88.1212L90.459 86.2991C90.2763 85.5012 90.4089 84.6636 90.8292 83.9612L91.1537 83.4246L95.1348 85.438C95.1348 85.438 94.1406 86.7318 93.138 85.9705L93.8702 87.543L90.875 88.1212Z" fill="#A56959"/>
<path d="M93.5163 87.6845C93.4914 87.6845 93.5163 87.4723 93.4789 87.1187C93.4026 86.6287 93.1477 86.1842 92.7634 85.8707L92.3806 85.5629L92.8466 85.7126L93.8824 86.0496H93.8574C94.0829 86.0888 94.3149 86.0631 94.5263 85.9755C94.7377 85.8878 94.9198 85.7418 95.0514 85.5546C95.0718 85.5263 95.0885 85.4955 95.1013 85.4631L95.1554 85.5962C94.0072 85.0762 92.9755 84.5895 92.2434 84.1943C91.8402 83.9999 91.4582 83.7643 91.1035 83.4912C91.5164 83.6544 91.9192 83.8419 92.3099 84.0528C93.0462 84.4106 94.0821 84.8848 95.2219 85.3923L95.3134 85.4339L95.2802 85.5296C95.2613 85.5743 95.2391 85.6174 95.2136 85.6586C95.066 85.901 94.8377 86.0837 94.5688 86.1744C94.325 86.2548 94.0662 86.279 93.8117 86.2451L92.7883 85.8874L92.8715 85.7335C93.2795 86.0813 93.5336 86.5762 93.5787 87.1104C93.6091 87.3039 93.5876 87.502 93.5163 87.6845V87.6845Z" fill="#7C4435"/>
<path d="M94.5645 85.9206C94.6061 85.9206 94.5312 86.1452 94.5645 86.4406C94.5764 86.5175 94.6114 86.5889 94.6649 86.6454C94.7184 86.7019 94.7879 86.7407 94.864 86.7567C94.9648 86.7537 95.0629 86.7239 95.1484 86.6706C95.2339 86.6173 95.3037 86.5422 95.3507 86.4531C95.617 86.0371 95.8832 85.6502 96.0455 85.3673C96.2077 85.0844 96.2951 84.9014 96.3242 84.9097C96.3533 84.918 96.3242 85.126 96.1827 85.438C95.9911 85.831 95.7728 86.2104 95.5296 86.5737C95.4606 86.6919 95.3605 86.7888 95.2402 86.8541C95.1199 86.9194 94.9841 86.9505 94.8474 86.9439C94.7349 86.9169 94.634 86.8547 94.5592 86.7664C94.4844 86.6782 94.4396 86.5684 94.4314 86.4531C94.4185 86.3114 94.4399 86.1687 94.4938 86.0371C94.5229 85.9622 94.552 85.9164 94.5645 85.9206Z" fill="#7C4435"/>
<path d="M77.2843 112.516C77.2843 112.516 73.8939 104.166 73.9105 104.008L74.7883 100.901L75.1419 99.1037L76.2901 100.439L81.8936 94.5818C81.9976 94.7232 79.356 90.8877 76.6811 87.1354C74.8174 84.5229 72.7998 83.9489 71.6225 83.8657C71.1328 83.7157 70.63 83.6126 70.1208 83.5578L60.4779 83.4746C58.3733 83.4947 56.34 84.2396 54.7204 85.5837C54.2753 85.9498 50.5813 90.8628 48.0645 95.7216L55.8187 101.317L57.0958 99.0704V99.1162C57.204 99.8775 57.6657 102.099 57.8155 102.86C58.2856 105.202 58.4353 108.023 57.2913 109.957C56.4221 112.124 55.6804 114.339 55.0699 116.592H78.8651C78.8651 116.592 78.0997 114.525 77.2843 112.516Z" fill="#455A64"/>
<path d="M58.1407 109.025L57.3087 108.368V108.293L57.2754 108.335L51.8965 104L54.2053 100.194L48.6309 96.1211C48.6559 96.3915 43.46 104.096 44.1631 105.61C45.1573 107.748 51.909 112.025 54.6712 113.71C53.9191 113.807 53.1742 113.955 52.4415 114.151C51.7384 114.379 54.0306 114.983 54.588 115.103C54.8044 115.145 55.2495 114.799 55.7237 114.342L55.8527 114.417L56.0024 114.067C56.5102 113.545 56.9827 112.989 57.4168 112.403C57.5333 112.224 57.5292 111.413 57.4834 110.556L58.1407 109.025Z" fill="#A56959"/>
<path d="M87.9631 189.53L87.9298 188.743L79.9551 188.972L80.0258 191.568H80.5167C82.7132 191.622 91.6821 191.701 93.134 191.248C94.7522 190.761 87.9631 189.53 87.9631 189.53Z" fill="#4087EA"/>
<g opacity="0.3">
<path d="M82.8996 191.435C82.7579 190.802 82.378 190.248 81.8388 189.887C81.2912 189.511 80.6286 189.338 79.9668 189.401L80.0292 191.481L82.8996 191.435Z" fill="black"/>
</g>
<g opacity="0.3">
<path d="M91.2823 190.241C91.2823 190.241 93.666 190.811 93.3623 191.181C93.0587 191.551 84.0315 191.776 80.0254 191.568V191.406L90.6001 191.21C90.6001 191.21 90.8206 190.27 91.2823 190.241Z" fill="black"/>
</g>
<path d="M79.9102 191.402H80.0433H80.4593H81.9028C83.1258 191.402 84.8148 191.402 86.6702 191.356C88.5255 191.31 90.2186 191.231 91.4334 191.16L92.8769 191.065L93.2679 191.036H93.4052H93.2679H92.8519L91.4084 191.102C90.1937 191.156 88.4964 191.223 86.6494 191.273C84.8023 191.323 83.1009 191.335 81.882 191.343H80.4385H80.0474L79.9102 191.402Z" fill="#263238"/>
<path d="M90.6122 191.327C90.6678 191.101 90.7517 190.883 90.8618 190.678C90.9997 190.485 91.1587 190.307 91.336 190.149C91.0994 190.24 90.9021 190.411 90.7786 190.632C90.7057 190.731 90.6534 190.843 90.6248 190.962C90.5962 191.082 90.5919 191.206 90.6122 191.327Z" fill="#263238"/>
<path d="M88.2339 190.283C88.2589 190.283 88.3671 190.166 88.4752 189.991C88.5834 189.817 88.6583 189.667 88.6375 189.654C88.6167 189.642 88.5043 189.775 88.3962 189.946C88.288 190.116 88.2131 190.27 88.2339 190.283Z" fill="#263238"/>
<path d="M87.5802 189.983C87.601 189.983 87.7216 189.921 87.8547 189.8C87.9878 189.679 88.0835 189.575 88.0627 189.554C88.0419 189.534 87.9254 189.617 87.7882 189.738C87.6509 189.858 87.5635 189.966 87.5802 189.983Z" fill="#263238"/>
<path d="M87.1562 189.28C87.2906 189.322 87.4325 189.335 87.5723 189.317C87.7129 189.33 87.8546 189.313 87.9883 189.267C87.8538 189.226 87.712 189.213 87.5723 189.23C87.4316 189.214 87.2892 189.231 87.1562 189.28Z" fill="#263238"/>
<path d="M86.998 188.81C87.2952 188.947 87.6343 188.962 87.9424 188.851C87.7868 188.828 87.6293 188.821 87.4723 188.831C87.3151 188.811 87.1564 188.804 86.998 188.81V188.81Z" fill="#263238"/>
<path d="M88.4824 189.63C88.6516 189.66 88.8249 189.66 88.9941 189.63C89.1779 189.605 89.359 189.563 89.5349 189.505C89.6422 189.474 89.7455 189.431 89.8427 189.376C89.8722 189.361 89.8981 189.339 89.9189 189.314C89.9397 189.288 89.9548 189.258 89.9634 189.226C89.9692 189.19 89.9644 189.153 89.9497 189.12C89.9349 189.087 89.9107 189.059 89.8802 189.039C89.6839 188.954 89.465 188.936 89.2575 188.988C89.0499 189.04 88.8653 189.158 88.732 189.326C88.6535 189.418 88.5992 189.528 88.5739 189.646C88.5739 189.725 88.5739 189.775 88.5739 189.775C88.6204 189.624 88.6952 189.483 88.7944 189.359C88.9052 189.231 89.0491 189.136 89.2104 189.085C89.4099 189.016 89.6275 189.024 89.8219 189.105C89.9051 189.159 89.876 189.251 89.7887 189.301C89.6979 189.352 89.6016 189.393 89.5016 189.422C89.3326 189.483 89.1586 189.531 88.9816 189.563C88.6779 189.609 88.4824 189.617 88.4824 189.63Z" fill="#263238"/>
<path d="M88.6086 189.65C88.6391 189.602 88.6592 189.548 88.6678 189.491C88.6764 189.435 88.6733 189.377 88.6585 189.322C88.6378 189.196 88.5864 189.077 88.5088 188.976C88.4633 188.907 88.4017 188.85 88.3292 188.81C88.2567 188.77 88.1755 188.749 88.0928 188.748C88.0684 188.752 88.0451 188.761 88.0244 188.775C88.0036 188.788 87.9857 188.806 87.9718 188.826C87.9579 188.847 87.9481 188.87 87.9432 188.894C87.9383 188.919 87.9382 188.944 87.943 188.968C87.9581 189.044 87.9893 189.117 88.0345 189.18C88.106 189.283 88.1898 189.377 88.2841 189.459C88.3668 189.544 88.4699 189.607 88.5837 189.642C88.5837 189.642 88.4797 189.563 88.3341 189.413C88.2504 189.328 88.1752 189.234 88.1094 189.134C88.0387 189.039 87.9846 188.86 88.1094 188.835C88.2342 188.81 88.3715 188.935 88.4505 189.026C88.5236 189.115 88.5762 189.219 88.6045 189.33C88.6178 189.436 88.6192 189.544 88.6086 189.65V189.65Z" fill="#263238"/>
<path d="M80.0098 189.38C80.0098 189.38 80.2344 189.355 80.5963 189.38C81.0603 189.416 81.5065 189.574 81.8901 189.838C82.2592 190.094 82.5478 190.451 82.7221 190.865C82.851 191.177 82.8718 191.389 82.8885 191.389C82.9051 191.389 82.8885 191.335 82.8885 191.239C82.8729 191.097 82.8393 190.957 82.7886 190.823C82.628 190.387 82.3377 190.009 81.9566 189.742C81.5589 189.468 81.0913 189.314 80.6088 189.297C80.4636 189.282 80.3172 189.282 80.172 189.297C80.1134 189.315 80.0584 189.343 80.0098 189.38Z" fill="#263238"/>
<path d="M83.8789 190.69C84.6497 190.804 85.434 190.79 86.2002 190.649C86.2002 190.624 85.6802 190.649 85.0395 190.674C84.3989 190.699 83.8831 190.661 83.8789 190.69Z" fill="#263238"/>
<path d="M82.3223 190.728C82.3223 190.728 82.368 190.827 82.4263 190.936C82.4845 191.044 82.5136 191.144 82.5386 191.144C82.5635 191.144 82.576 191.023 82.5095 190.898C82.4429 190.773 82.3389 190.707 82.3223 190.728Z" fill="#263238"/>
<path d="M81.7148 190.062C81.7148 190.083 81.7523 190.158 81.8355 190.233C81.9187 190.307 82.0019 190.353 82.0227 190.337C82.0435 190.32 81.9852 190.245 81.902 190.166C81.8188 190.087 81.7356 190.045 81.7148 190.062Z" fill="#263238"/>
<path d="M80.8656 189.775C80.8656 189.8 80.978 189.796 81.0944 189.833C81.2109 189.871 81.2983 189.925 81.3191 189.904C81.3399 189.883 81.2692 189.788 81.1236 189.746C80.978 189.704 80.8573 189.754 80.8656 189.775Z" fill="#263238"/>
<path d="M80.2871 189.646C80.2871 189.667 80.3245 189.704 80.3911 189.729C80.4577 189.754 80.5159 189.75 80.5284 189.729C80.5409 189.709 80.4868 189.671 80.4202 189.646C80.3537 189.621 80.2871 189.621 80.2871 189.646Z" fill="#263238"/>
<path d="M64.5973 63.8811C64.1309 63.4877 63.5527 63.2508 62.9444 63.2037C62.336 63.1567 61.7283 63.302 61.2069 63.619C60.6952 63.9476 60.2917 64.451 59.7384 64.6923C58.8191 65.1083 57.7375 64.7838 56.7432 64.9419C56.009 65.0832 55.3484 65.4798 54.8786 66.0616C54.4088 66.6433 54.1601 67.3725 54.1765 68.1201C54.2181 68.9188 54.5592 69.7841 54.1765 70.4788C53.8354 71.0945 53.0658 71.3108 52.5125 71.7518C52.06 72.147 51.7744 72.6992 51.7134 73.2969C51.6524 73.8946 51.8206 74.4931 52.1839 74.9716C52.515 75.286 52.8275 75.6193 53.1199 75.97C53.5109 76.5815 53.4568 77.3636 53.5567 78.0791C53.6565 78.7947 54.0684 79.61 54.8047 79.6558C55.3912 79.6932 55.9112 79.2065 56.4936 79.2398C57.3256 79.3063 57.646 80.2881 58.1202 80.9579C58.4257 81.3777 58.8378 81.7082 59.314 81.9152C59.7901 82.1222 60.313 82.1982 60.8284 82.1351C61.573 82.0353 62.3093 81.6443 63.0332 81.8273C63.9484 82.0603 64.4975 83.1294 65.4293 83.2625C66.124 83.3623 66.7688 82.9006 67.2847 82.4305C67.8005 81.9604 68.3247 81.4113 69.0152 81.2865C69.8472 81.1367 70.646 81.6401 71.4821 81.7566C72.0253 81.8201 72.5751 81.7231 73.0638 81.4777C73.5524 81.2322 73.9585 80.8491 74.2319 80.3755C74.6895 79.5435 74.6895 78.5201 75.118 77.6715C75.456 77.1306 75.8269 76.611 76.2287 76.1156C76.4316 75.8682 76.5746 75.5774 76.6468 75.2657C76.719 74.954 76.7182 74.6299 76.6447 74.3185C76.4949 73.9025 76.1288 73.5572 75.95 73.1371C75.6837 72.5047 75.8792 71.7892 75.95 71.107C76.0207 70.4247 75.8792 69.5969 75.2552 69.314C74.9815 69.2447 74.7132 69.1558 74.4524 69.0478C73.9656 68.7483 73.9906 68.0535 73.949 67.4836C73.9349 67.0644 73.8202 66.6547 73.6146 66.2891C73.409 65.9235 73.1185 65.6127 72.7676 65.3828C72.0396 64.9668 70.9621 65.1748 70.596 65.9236" fill="#263238"/>
<path d="M59.9408 71.552C59.5654 70.8669 59.3428 70.1086 59.2885 69.3293C59.2342 68.5499 59.3493 67.768 59.626 67.0375C59.9028 66.3069 60.3345 65.6449 60.8916 65.0972C61.4486 64.5494 62.1177 64.1288 62.8528 63.8644C63.9067 63.5285 65.0156 63.3999 66.1184 63.4858C67.064 63.4803 68.0004 63.6715 68.8682 64.0474C69.2995 64.2399 69.6788 64.5323 69.9747 64.9006C70.2706 65.2688 70.4745 65.7022 70.5696 66.1648" fill="#4087EA"/>
<path d="M65.1323 88.3917C65.6451 88.4313 66.1605 88.3669 66.6478 88.2024C67.135 88.0379 67.584 87.7767 67.9678 87.4345C68.3516 87.0922 68.6624 86.676 68.8814 86.2107C69.1004 85.7454 69.2232 85.2407 69.2424 84.7268C69.3215 82.6468 69.3922 80.5418 69.3922 80.5418C69.3922 80.5418 72.5455 80.2506 72.7743 77.1306C73.0031 74.0106 72.8991 66.8055 72.8991 66.8055C71.1705 65.9351 69.241 65.5417 67.3097 65.666C65.3783 65.7903 63.5152 66.4278 61.9125 67.5127L61.4258 67.8414L61.6047 84.6228C61.6153 85.5782 61.9834 86.495 62.6363 87.1926C63.2892 87.8902 64.1797 88.318 65.1323 88.3917V88.3917Z" fill="#A56959"/>
<path d="M71.4144 72.2966C71.3509 72.2332 71.3076 72.1524 71.29 72.0644C71.2725 71.9765 71.2814 71.8852 71.3157 71.8023C71.35 71.7194 71.4081 71.6486 71.4827 71.5987C71.5573 71.5488 71.645 71.5222 71.7347 71.5222C71.8244 71.5222 71.9121 71.5488 71.9867 71.5987C72.0613 71.6486 72.1194 71.7194 72.1537 71.8023C72.188 71.8852 72.1969 71.9765 72.1794 72.0644C72.1618 72.1524 72.1185 72.2332 72.055 72.2966C71.97 72.3814 71.8548 72.4291 71.7347 72.4291C71.6146 72.4291 71.4994 72.3814 71.4144 72.2966V72.2966Z" fill="#263238"/>
<path d="M72.6284 71.7684C72.5785 71.8225 72.2832 71.5687 71.8547 71.5396C71.4262 71.5105 71.1017 71.7143 71.056 71.6561C71.0102 71.5978 71.0892 71.5354 71.2307 71.4398C71.4213 71.3201 71.6452 71.2644 71.8697 71.2809C72.0942 71.2974 72.3075 71.3851 72.4787 71.5313C72.616 71.6478 72.6534 71.7476 72.6284 71.7684Z" fill="#263238"/>
<path d="M67.338 71.7101C67.3911 71.7423 67.4371 71.7851 67.473 71.8358C67.5089 71.8864 67.534 71.944 67.5467 72.0048C67.5595 72.0655 67.5596 72.1283 67.5471 72.1892C67.5346 72.25 67.5097 72.3076 67.474 72.3585C67.4384 72.4093 67.3926 72.4522 67.3396 72.4847C67.2866 72.5171 67.2275 72.5383 67.166 72.5469C67.1045 72.5555 67.0419 72.5515 66.982 72.5349C66.9221 72.5183 66.8663 72.4896 66.818 72.4506C66.7649 72.4184 66.7189 72.3756 66.683 72.3249C66.6471 72.2742 66.622 72.2167 66.6093 72.1559C66.5965 72.0951 66.5964 72.0324 66.6089 71.9715C66.6214 71.9107 66.6463 71.8531 66.682 71.8022C66.7177 71.7514 66.7634 71.7084 66.8164 71.676C66.8694 71.6436 66.9285 71.6224 66.99 71.6138C67.0515 71.6051 67.1141 71.6092 67.174 71.6258C67.2339 71.6424 67.2897 71.6711 67.338 71.7101V71.7101Z" fill="#263238"/>
<path d="M67.9412 71.8682C67.8393 71.7718 67.7162 71.7008 67.5817 71.6611C67.4472 71.6213 67.3053 71.6139 67.1674 71.6394C66.7514 71.6019 66.4103 71.8141 66.3645 71.7558C66.3188 71.6976 66.3978 71.6352 66.5434 71.5395C66.7339 71.4178 66.9586 71.3609 67.1841 71.3773C67.4111 71.3942 67.6268 71.4831 67.7997 71.631C67.9245 71.7475 67.9661 71.8474 67.9412 71.8682Z" fill="#263238"/>
<path d="M69.4722 75.2087C69.6991 75.135 69.9368 75.0998 70.1753 75.1047C70.2917 75.1047 70.3791 75.0797 70.3916 75.0173C70.4018 74.9054 70.3802 74.7929 70.3292 74.6928C70.2377 74.4016 70.142 74.1063 70.0421 73.7984C69.7678 73.0391 69.5686 72.2546 69.4473 71.4564C69.5138 71.4356 69.8633 72.4506 70.2793 73.7236L70.5455 74.6263C70.61 74.7746 70.6218 74.9405 70.5788 75.0964C70.5605 75.1383 70.5325 75.1754 70.4971 75.2043C70.4616 75.2332 70.4197 75.2533 70.3749 75.2628C70.3101 75.2723 70.2443 75.2723 70.1794 75.2628C69.9423 75.2854 69.7031 75.2671 69.4722 75.2087Z" fill="#263238"/>
<path d="M69.4021 80.5001C67.9596 80.4379 66.5681 79.9485 65.4043 79.094C65.4043 79.094 66.2363 81.3986 69.3605 81.3071L69.4021 80.5001Z" fill="#7C4435"/>
<path d="M64.2766 65.728C64.3513 66.3717 64.6365 66.9726 65.0879 67.4375C65.5392 67.9023 66.1315 68.2052 66.7726 68.2989C67.538 68.3904 68.37 68.1783 69.0606 68.5236C69.5261 68.8311 69.9228 69.232 70.2254 69.7008C70.3782 69.9345 70.5817 70.1306 70.8208 70.2747C71.06 70.4188 71.3285 70.507 71.6065 70.5328C71.8732 70.501 72.1355 70.4396 72.3886 70.3498C72.5157 70.3057 72.651 70.2902 72.7848 70.3046C72.9186 70.319 73.0475 70.3628 73.1623 70.433C73.5578 69.5164 73.7166 68.515 73.6241 67.521C73.5722 67.0266 73.3835 66.5565 73.0793 66.1634C72.7751 65.7703 72.3674 65.4697 71.9019 65.2954C71.282 65.1082 70.6123 65.2288 69.9758 65.1165C69.4559 64.9959 68.9528 64.8115 68.4782 64.5674C67.6913 64.1425 66.7991 63.9519 65.9073 64.0183C65.0254 64.1514 64.1767 64.8752 64.2017 65.7655" fill="#263238"/>
<path d="M61.647 74.2643C62.7785 75.1754 64.143 72.8208 64.7462 71.3523C65.2981 69.8379 65.5948 68.2423 65.624 66.6307C65.7086 66.1081 65.6117 65.5722 65.3494 65.1123C65.0249 64.6714 64.8793 65.2122 64.5174 64.8003C63.8227 63.9933 62.5414 64.4301 61.9091 64.7046C60.8566 65.1581 60.1993 66.3354 59.9913 67.5293C59.8472 68.7351 59.8907 69.956 60.1203 71.1485C60.1993 71.6976 60.2784 72.2467 60.3532 72.8125C60.3797 73.2024 60.4919 73.5817 60.6819 73.9232C60.7718 74.087 60.9168 74.2136 61.0912 74.2806C61.2656 74.3476 61.4581 74.3507 61.6345 74.2893" fill="#263238"/>
<path d="M61.6063 71.6976C61.6054 71.5761 61.5578 71.4596 61.4734 71.3721C61.3891 71.2846 61.2743 71.2329 61.1529 71.2275C60.5705 71.2275 59.6179 71.4439 59.5305 73.0496C59.4057 75.3459 61.6105 74.7719 61.6105 74.7136C61.6105 74.6554 61.6105 72.592 61.6063 71.6976Z" fill="#A56959"/>
<path d="M61.1153 73.8068C61.1153 73.8068 61.0737 73.8318 61.0029 73.8567C60.9066 73.8939 60.7998 73.8939 60.7034 73.8567C60.559 73.7549 60.4443 73.6164 60.3712 73.4556C60.2981 73.2947 60.2692 73.1173 60.2874 72.9415C60.2913 72.7447 60.3397 72.5513 60.4289 72.3758C60.455 72.3051 60.4978 72.2418 60.5535 72.1911C60.6093 72.1404 60.6764 72.1039 60.7492 72.0846C60.7959 72.0754 60.8443 72.0828 60.8861 72.1056C60.9279 72.1284 60.9604 72.1651 60.978 72.2094C61.0029 72.2759 60.978 72.3175 60.9988 72.3259C61.0196 72.3342 61.0529 72.2884 61.0362 72.1927C61.0288 72.1349 61.0008 72.0817 60.9572 72.043C60.8957 71.9912 60.817 71.9645 60.7367 71.9681C60.6416 71.9819 60.5516 72.0197 60.4752 72.0779C60.3988 72.1362 60.3385 72.2129 60.2999 72.3009C60.1929 72.4951 60.1331 72.7117 60.1252 72.9332C60.1032 73.1368 60.1416 73.3424 60.2355 73.5243C60.3294 73.7063 60.4748 73.8566 60.6535 73.9566C60.7139 73.9795 60.7788 73.9881 60.843 73.9816C60.9073 73.9751 60.9692 73.9537 61.0237 73.9191C61.1069 73.8609 61.1236 73.811 61.1153 73.8068Z" fill="#7C4435"/>
<path d="M68.3697 75.762C68.2901 75.8992 68.2669 76.0619 68.305 76.2159C68.3431 76.3698 68.4396 76.503 68.574 76.5872C68.7084 76.6714 68.8702 76.7001 69.0254 76.6672C69.1805 76.6343 69.3169 76.5424 69.4056 76.411C69.4531 76.3462 69.4874 76.2728 69.5065 76.1948C69.5257 76.1168 69.5293 76.0358 69.5171 75.9564C69.5049 75.877 69.4772 75.8008 69.4356 75.7321C69.394 75.6634 69.3393 75.6036 69.2745 75.5561C69.2098 75.5086 69.1363 75.4742 69.0583 75.4551C68.9803 75.436 68.8993 75.4324 68.8199 75.4446C68.7406 75.4567 68.6644 75.4844 68.5957 75.526C68.527 75.5677 68.4672 75.6224 68.4196 75.6871" fill="#7C4435"/>
<path d="M69.7999 76.207C69.6447 76.2708 69.4778 76.3012 69.3101 76.2962C69.1424 76.2911 68.9776 76.2508 68.8265 76.1778C68.2982 75.9906 67.9945 75.6204 68.0569 75.583C68.1193 75.5455 68.423 75.8076 68.8889 75.9698C69.3548 76.1321 69.7958 76.1279 69.7999 76.207Z" fill="#263238"/>
<path d="M63.9468 63.9309C63.094 63.8144 62.4908 62.9824 62.3452 62.1379C62.2644 61.2818 62.3665 60.4182 62.6447 59.6045C63.3456 60.0919 63.8524 60.8107 64.076 61.6346C64.2997 62.4585 64.2259 63.3348 63.8677 64.1098" fill="#4087EA"/>
<path d="M63.9384 63.802C63.8553 63.4855 63.8796 63.1503 64.0076 62.8491C64.1356 62.548 64.36 62.2978 64.6456 62.138C65.2182 61.8304 65.8741 61.7138 66.5176 61.8052C66.5746 61.807 66.6303 61.8227 66.6799 61.851C66.7083 61.8753 66.7315 61.9052 66.7479 61.9388C66.7644 61.9725 66.7738 62.0091 66.7756 62.0465C66.7983 62.3643 66.7252 62.6816 66.5658 62.9575C66.4064 63.2333 66.1679 63.4551 65.8812 63.594C65.3019 63.8575 64.6746 63.9991 64.0383 64.01C63.9407 64.027 63.8404 64.0184 63.7471 63.9851C63.724 63.9759 63.703 63.9623 63.6853 63.9449C63.6675 63.9276 63.6534 63.9069 63.6437 63.8841C63.6341 63.8613 63.629 63.8367 63.6289 63.8119C63.6288 63.7871 63.6336 63.7625 63.6431 63.7396" fill="#4087EA"/>
<path d="M75.2965 67.9244C75.2965 67.9244 75.2965 67.8786 75.2424 67.8162C75.2083 67.7723 75.1656 67.7357 75.117 67.7085C75.0684 67.6813 75.0149 67.6642 74.9596 67.6581C74.8747 67.6356 74.7844 67.6464 74.7071 67.6881C74.6298 67.7298 74.5713 67.7994 74.5436 67.8828C74.5185 67.9906 74.5304 68.1036 74.5771 68.2039C74.6239 68.3042 74.7029 68.3859 74.8015 68.4361C74.928 68.4824 75.0664 68.485 75.1945 68.4435C75.3227 68.4021 75.4333 68.3189 75.5087 68.2073C75.5942 68.0719 75.6447 67.9173 75.6556 67.7575C75.6665 67.5978 75.6374 67.4378 75.5711 67.2921C75.4178 66.9444 75.1471 66.6618 74.8063 66.4937C74.4656 66.3256 74.0766 66.2828 73.7074 66.3727L73.5826 66.4101L73.0044 66.5932L73.4786 66.2229C73.6163 66.102 73.7156 65.9435 73.7644 65.7668C73.8132 65.5902 73.8093 65.4031 73.7532 65.2287C73.6958 65.0633 73.6022 64.9128 73.4791 64.7882C73.356 64.6637 73.2066 64.5683 73.0418 64.509C72.7491 64.4138 72.4384 64.3875 72.1338 64.4323C71.8293 64.477 71.5392 64.5916 71.2863 64.7669C71.0617 64.9042 70.8703 65.0665 70.6748 65.1829C70.5099 65.2865 70.3203 65.3439 70.1257 65.3493C69.7929 65.3493 69.6681 65.1746 69.6805 65.1746C69.8148 65.2491 69.9686 65.2811 70.1215 65.2661C70.2986 65.2475 70.4678 65.183 70.6124 65.0789C70.7871 64.9666 70.9701 64.7961 71.2073 64.6421C71.461 64.4714 71.7425 64.3461 72.0393 64.2719C72.3918 64.1818 72.7636 64.2021 73.1042 64.3301C73.2968 64.3969 73.4717 64.5064 73.6158 64.6506C73.7599 64.7947 73.8695 64.9696 73.9362 65.1621C74.012 65.3803 74.0199 65.6162 73.959 65.839C73.8981 66.0617 73.7713 66.2608 73.5951 66.4101L73.4911 66.2229L73.6367 66.1772C74.0559 66.074 74.4982 66.1237 74.884 66.3173C75.2699 66.511 75.574 66.836 75.7417 67.2338C75.8181 67.4111 75.8483 67.6048 75.8293 67.7969C75.8104 67.989 75.743 68.1731 75.6335 68.3321C75.532 68.4726 75.3853 68.5741 75.218 68.6196C75.0506 68.665 74.8728 68.6516 74.7141 68.5817C74.5874 68.5138 74.488 68.4044 74.4327 68.2717C74.3773 68.1391 74.3695 67.9914 74.4104 67.8537C74.4313 67.7975 74.464 67.7465 74.5064 67.7041C74.5487 67.6618 74.5997 67.629 74.6559 67.6082C74.7464 67.575 74.8444 67.5678 74.9388 67.5874C75.0031 67.5978 75.0641 67.6232 75.1169 67.6615C75.1696 67.6998 75.2126 67.7499 75.2424 67.8079C75.3256 67.8786 75.2965 67.9244 75.2965 67.9244Z" fill="#263238"/>
<path d="M52.458 71.631C52.533 71.6118 52.6117 71.6118 52.6868 71.631C52.8676 71.6869 53.0273 71.7964 53.1446 71.9449C53.2619 72.0935 53.3315 72.2741 53.3441 72.463C53.3493 72.5613 53.3351 72.6596 53.3022 72.7524C53.2694 72.8452 53.2186 72.9306 53.1527 73.0038C52.9981 73.1704 52.7911 73.2791 52.5662 73.3116C52.4395 73.3327 52.3099 73.3257 52.1862 73.2912C52.0626 73.2567 51.948 73.1955 51.8506 73.1119C51.6671 72.9015 51.5452 72.6446 51.4982 72.3694C51.4512 72.0941 51.4811 71.8113 51.5844 71.5519C51.6877 71.2447 51.8565 70.9635 52.0792 70.7279C52.3019 70.4923 52.573 70.3079 52.874 70.1875C53.1943 70.0627 53.5313 70.0127 53.8474 69.9171C54.0044 69.8792 54.152 69.8099 54.2815 69.7134C54.4109 69.6169 54.5194 69.4951 54.6004 69.3555C54.7403 69.0438 54.781 68.6967 54.7169 68.3612C54.6538 68.0005 54.5563 67.6467 54.4257 67.3046C54.2924 66.9428 54.2166 66.5624 54.201 66.1772C54.2061 65.7848 54.354 65.4077 54.617 65.1164C54.8656 64.8413 55.1851 64.6398 55.5405 64.534C55.8772 64.4394 56.2296 64.4139 56.5764 64.4591C57.2586 64.5298 57.8244 64.8751 58.3652 64.9542C58.6248 65.0056 58.8942 64.969 59.1306 64.8502C59.3477 64.7261 59.5419 64.5657 59.7047 64.3759C59.9782 64.0136 60.3238 63.7119 60.7198 63.4898C61.0343 63.3449 61.382 63.2874 61.7265 63.3235C61.9425 63.3438 62.1527 63.4045 62.3463 63.5023C62.3963 63.5275 62.4449 63.5553 62.4919 63.5855L62.5335 63.623C62.2774 63.5051 62.0031 63.432 61.7223 63.4067C61.3948 63.3856 61.0676 63.4516 60.7738 63.598C60.3983 63.8239 60.0727 64.124 59.817 64.4799C59.6447 64.6857 59.4395 64.8614 59.2097 64.9999C58.9421 65.1379 58.6368 65.1846 58.3402 65.1331C57.7329 65.0415 57.1879 64.717 56.5556 64.6588C56.2331 64.6053 55.9024 64.6319 55.5926 64.7364C55.2828 64.8409 55.0035 65.0199 54.7793 65.2578C54.5555 65.5133 54.4327 65.8417 54.434 66.1814C54.4468 66.5428 54.5185 66.8997 54.6462 67.238C54.7818 67.5919 54.8821 67.9584 54.9457 68.3321C55.0159 68.7121 54.9664 69.1045 54.8042 69.4553C54.7106 69.619 54.5843 69.7617 54.4334 69.8748C54.2824 69.9878 54.1099 70.0687 53.9265 70.1126C53.5854 70.2166 53.2525 70.2623 52.9613 70.3705C52.6853 70.4813 52.4363 70.6501 52.2311 70.8654C52.0258 71.0807 51.8691 71.3375 51.7716 71.6185C51.6662 71.8502 51.6271 72.1067 51.6587 72.3593C51.6903 72.6119 51.7913 72.8509 51.9505 73.0495C52.1126 73.1759 52.3159 73.2378 52.521 73.2232C52.7261 73.2086 52.9185 73.1186 53.0612 72.9705C53.1659 72.8527 53.2288 72.7036 53.2401 72.5464C53.2514 72.3892 53.2104 72.2326 53.1236 72.1011C53.0288 71.9113 52.8674 71.7631 52.6702 71.6851C52.537 71.6393 52.458 71.6393 52.458 71.631Z" fill="#263238"/>
<path d="M65.6954 73.8358C65.6835 73.8422 65.6703 73.846 65.6568 73.8472C65.6434 73.8483 65.6298 73.8467 65.6169 73.8424C65.6041 73.8381 65.5923 73.8313 65.5822 73.8223C65.5721 73.8133 65.5639 73.8023 65.5581 73.7901C65.5514 73.7647 65.5546 73.7377 65.5669 73.7146C65.5793 73.6915 65.5999 73.6738 65.6247 73.6653C65.6492 73.6546 65.6768 73.6534 65.7021 73.6618C65.7275 73.6702 65.7488 73.6878 65.762 73.711C65.7687 73.7364 65.7655 73.7633 65.7532 73.7865C65.7408 73.8096 65.7202 73.8272 65.6954 73.8358Z" fill="#263238"/>
<path d="M66.5138 73.7694C66.4987 73.7711 66.4835 73.7697 66.4689 73.7654C66.4544 73.761 66.4408 73.7538 66.4292 73.744C66.4175 73.7343 66.4079 73.7223 66.401 73.7088C66.3941 73.6953 66.39 73.6805 66.389 73.6654C66.386 73.6503 66.386 73.6349 66.3889 73.6198C66.3919 73.6048 66.3978 73.5905 66.4063 73.5777C66.4148 73.565 66.4257 73.554 66.4385 73.5455C66.4512 73.537 66.4655 73.5311 66.4805 73.5281C66.5088 73.5304 66.5354 73.5424 66.556 73.5619C66.5766 73.5814 66.5899 73.6073 66.5938 73.6354C66.5977 73.6635 66.5918 73.6921 66.5773 73.7164C66.5628 73.7408 66.5404 73.7594 66.5138 73.7694V73.7694Z" fill="#263238"/>
<path d="M67.2581 73.94C67.2268 73.9312 67.2 73.9108 67.183 73.883C67.166 73.8553 67.1602 73.8221 67.1666 73.7902C67.1666 73.7112 67.2332 73.6571 67.2914 73.6654C67.3228 73.6742 67.3496 73.6945 67.3666 73.7223C67.3836 73.7501 67.3894 73.7832 67.3829 73.8152C67.381 73.8476 67.3672 73.8782 67.3442 73.9012C67.3212 73.9242 67.2906 73.938 67.2581 73.94V73.94Z" fill="#263238"/>
<path d="M66.3777 74.4517C66.4374 74.4517 66.4859 74.4051 66.4859 74.3477C66.4859 74.2902 66.4374 74.2437 66.3777 74.2437C66.318 74.2437 66.2695 74.2902 66.2695 74.3477C66.2695 74.4051 66.318 74.4517 66.3777 74.4517Z" fill="#263238"/>
<path d="M71.5524 74.0479C71.5289 74.0534 71.5042 74.0517 71.4816 74.043C71.459 74.0344 71.4396 74.0191 71.4258 73.9992C71.412 73.9793 71.4045 73.9558 71.4043 73.9316C71.4041 73.9074 71.4111 73.8837 71.4246 73.8635C71.438 73.8434 71.4571 73.8278 71.4796 73.8187C71.502 73.8096 71.5266 73.8074 71.5503 73.8125C71.5739 73.8176 71.5955 73.8297 71.6122 73.8472C71.6289 73.8647 71.64 73.8868 71.6439 73.9106C71.649 73.9409 71.6423 73.9719 71.6253 73.9974C71.6083 74.0229 71.5823 74.0409 71.5524 74.0479V74.0479Z" fill="#263238"/>
<path d="M72.106 74.0731C72.0477 74.0731 72.0269 73.9691 72.056 73.8859C72.0852 73.8027 72.1517 73.7486 72.21 73.7652C72.2682 73.7819 72.289 73.8692 72.2599 73.9566C72.2308 74.0439 72.1642 74.0939 72.106 74.0731Z" fill="#263238"/>
<path d="M71.8309 74.826C71.816 74.8231 71.8018 74.8171 71.7892 74.8086C71.7767 74.8 71.766 74.7889 71.7578 74.7761C71.7496 74.7633 71.7441 74.7489 71.7417 74.7339C71.7392 74.7189 71.7399 74.7035 71.7435 74.6887C71.7451 74.674 71.7496 74.6596 71.7567 74.6466C71.7638 74.6335 71.7735 74.622 71.7851 74.6127C71.7967 74.6035 71.81 74.5966 71.8243 74.5925C71.8386 74.5884 71.8536 74.5872 71.8683 74.5889C71.8831 74.5913 71.8972 74.5968 71.9098 74.6049C71.9223 74.6131 71.933 74.6238 71.9412 74.6363C71.9494 74.6488 71.955 74.6629 71.9575 74.6776C71.96 74.6924 71.9594 74.7075 71.9557 74.722C71.9525 74.7522 71.9377 74.7799 71.9144 74.7994C71.8911 74.8188 71.8612 74.8283 71.8309 74.826Z" fill="#263238"/>
<path d="M88.516 188.976L79.131 120.977L78.8689 116.588L55.3857 115.473L54.404 119.172C51.1093 130.786 34.4609 186.951 34.4609 186.951L42.5937 189.517L66.8049 125.162L78.0744 188.864L88.516 188.976Z" fill="#263238"/>
<path d="M77.6705 115.931C77.6081 115.931 77.5499 115.802 77.5332 115.631C77.5166 115.461 77.5332 115.315 77.6081 115.311C77.683 115.307 77.7288 115.44 77.7454 115.611C77.762 115.781 77.7288 115.927 77.6705 115.931Z" fill="#455A64"/>
<path d="M77.9165 118.406C77.8582 118.406 77.7792 118.14 77.7459 117.799C77.7126 117.458 77.7459 117.175 77.7917 117.17C77.8374 117.166 77.929 117.437 77.9622 117.778C77.9955 118.119 77.9747 118.402 77.9165 118.406Z" fill="#455A64"/>
<path d="M78.1745 120.881C78.1121 120.881 78.0372 120.615 77.9998 120.274C77.9623 119.933 77.9998 119.65 78.0414 119.642C78.083 119.633 78.1787 119.908 78.2161 120.249C78.2535 120.59 78.2327 120.873 78.1745 120.881Z" fill="#455A64"/>
<path d="M78.4402 123.352C78.3778 123.352 78.3029 123.086 78.2655 122.745C78.2281 122.404 78.2655 122.121 78.3029 122.117C78.3404 122.113 78.4444 122.383 78.4777 122.724C78.5109 123.065 78.4985 123.344 78.4402 123.352Z" fill="#455A64"/>
<path d="M78.7153 125.823C78.6571 125.823 78.578 125.557 78.5406 125.216C78.5032 124.875 78.5156 124.596 78.578 124.588C78.6404 124.58 78.7153 124.854 78.7527 125.195C78.7902 125.536 78.7736 125.815 78.7153 125.823Z" fill="#455A64"/>
<path d="M79.0017 128.294C78.9393 128.294 78.8603 128.028 78.8187 127.687C78.7771 127.346 78.7979 127.067 78.8561 127.059C78.9144 127.05 78.9976 127.321 79.035 127.662C79.0725 128.003 79.06 128.286 79.0017 128.294Z" fill="#455A64"/>
<path d="M79.294 130.765C79.2358 130.765 79.1526 130.499 79.111 130.158C79.0694 129.817 79.086 129.534 79.1443 129.53C79.2025 129.526 79.2857 129.792 79.3273 130.133C79.3689 130.474 79.3523 130.757 79.294 130.765Z" fill="#455A64"/>
<path d="M79.594 133.232C79.5358 133.232 79.4526 132.97 79.411 132.629C79.3694 132.288 79.3818 132.005 79.4442 131.997C79.5066 131.988 79.5857 132.259 79.6273 132.6C79.6689 132.941 79.6522 133.224 79.594 133.232Z" fill="#455A64"/>
<path d="M79.9009 135.699C79.8385 135.699 79.7553 135.437 79.7137 135.096C79.6721 134.755 79.6846 134.472 79.747 134.468C79.8094 134.464 79.8884 134.73 79.93 135.071C79.9716 135.412 79.9591 135.691 79.9009 135.699Z" fill="#455A64"/>
<path d="M80.2137 138.166C80.1513 138.166 80.068 137.904 80.0264 137.563C79.9848 137.222 79.9973 136.943 80.0556 136.935C80.1138 136.926 80.197 137.197 80.2428 137.538C80.2885 137.879 80.2885 138.158 80.2137 138.166Z" fill="#455A64"/>
<path d="M80.5291 140.633C80.4709 140.633 80.3877 140.371 80.3419 140.03C80.2962 139.689 80.3087 139.41 80.3711 139.402C80.4335 139.393 80.5125 139.664 80.5583 140.005C80.604 140.346 80.5874 140.608 80.5291 140.633Z" fill="#455A64"/>
<path d="M80.8495 143.104C80.7912 143.104 80.708 142.842 80.6623 142.501C80.6165 142.16 80.629 141.877 80.6914 141.873C80.7538 141.868 80.8328 142.131 80.8786 142.472C80.9243 142.813 80.9119 143.104 80.8495 143.104Z" fill="#455A64"/>
<path d="M81.1781 145.567C81.1157 145.567 81.0325 145.305 80.9868 144.964C80.941 144.622 80.9535 144.34 81.0117 144.331C81.07 144.323 81.1573 144.593 81.2031 144.934C81.2488 145.276 81.2364 145.558 81.1781 145.567Z" fill="#455A64"/>
<path d="M81.5062 148.029C81.4438 148.029 81.3606 147.767 81.3149 147.426C81.2691 147.085 81.2816 146.806 81.3398 146.798C81.3981 146.79 81.4854 147.06 81.5312 147.401C81.577 147.742 81.5645 148.021 81.5062 148.029Z" fill="#455A64"/>
<path d="M81.8362 150.496C81.7779 150.496 81.6947 150.234 81.6448 149.893C81.5949 149.552 81.6115 149.269 81.6698 149.261C81.728 149.252 81.8154 149.523 81.8611 149.864C81.9069 150.205 81.8944 150.488 81.8362 150.496Z" fill="#455A64"/>
<path d="M82.1684 152.959C82.1101 152.959 82.0228 152.697 81.977 152.356C81.9312 152.015 81.9437 151.736 82.002 151.728C82.0602 151.719 82.1476 151.99 82.1933 152.327C82.2391 152.664 82.2308 152.951 82.1684 152.959Z" fill="#455A64"/>
<path d="M82.5058 155.422C82.4434 155.422 82.3602 155.164 82.3145 154.823C82.2687 154.482 82.277 154.199 82.3145 154.19C82.3519 154.182 82.4601 154.452 82.5058 154.794C82.5516 155.135 82.5641 155.418 82.5058 155.422Z" fill="#455A64"/>
<path d="M82.8471 157.884C82.7889 157.884 82.7015 157.622 82.6516 157.285C82.6017 156.948 82.61 156.661 82.6516 156.653C82.6932 156.645 82.7972 156.915 82.8429 157.252C82.8887 157.589 82.9053 157.876 82.8471 157.884Z" fill="#455A64"/>
<path d="M83.2002 160.343C83.1419 160.343 83.0546 160.081 83.0046 159.744C82.9547 159.407 82.9589 159.124 83.0046 159.112C83.0504 159.099 83.1544 159.374 83.2043 159.711C83.2542 160.048 83.2667 160.335 83.2002 160.343Z" fill="#455A64"/>
<path d="M83.5793 162.797C83.5211 162.797 83.4296 162.54 83.3796 162.198C83.3297 161.857 83.3339 161.579 83.3796 161.57C83.4254 161.562 83.5253 161.828 83.5793 162.169C83.6334 162.51 83.6376 162.789 83.5793 162.797Z" fill="#455A64"/>
<path d="M83.9481 165.256C83.8899 165.256 83.8025 164.998 83.7484 164.657C83.6944 164.316 83.7027 164.037 83.7484 164.029C83.7942 164.02 83.894 164.287 83.9481 164.628C84.0022 164.969 84.0313 165.248 83.9481 165.256Z" fill="#455A64"/>
<path d="M84.3235 167.71C84.2652 167.71 84.1737 167.452 84.1238 167.115C84.0739 166.778 84.078 166.491 84.1238 166.483C84.1695 166.475 84.2735 166.741 84.3235 167.082C84.3734 167.423 84.3817 167.702 84.3235 167.71Z" fill="#455A64"/>
<path d="M84.6969 170.169C84.6345 170.169 84.5471 169.907 84.4931 169.57C84.439 169.233 84.4515 168.95 84.4931 168.938C84.5347 168.925 84.6428 169.2 84.6927 169.537C84.7427 169.874 84.7551 170.144 84.6969 170.169Z" fill="#455A64"/>
<path d="M85.0714 172.64C85.009 172.64 84.9217 172.382 84.8676 172.041C84.8135 171.7 84.8218 171.421 84.8676 171.413C84.9133 171.404 85.0132 171.671 85.0673 172.012C85.1213 172.353 85.1297 172.615 85.0714 172.64Z" fill="#455A64"/>
<path d="M85.4423 175.086C85.384 175.086 85.2967 174.824 85.2426 174.487C85.1885 174.15 85.1968 173.863 85.2426 173.855C85.2883 173.846 85.3923 174.113 85.4464 174.454C85.5005 174.795 85.5047 175.074 85.4423 175.086Z" fill="#455A64"/>
<path d="M85.8173 177.545C85.759 177.545 85.6717 177.282 85.6176 176.946C85.5635 176.609 85.5718 176.321 85.6176 176.313C85.6633 176.305 85.7673 176.571 85.8214 176.912C85.8755 177.253 85.8797 177.532 85.8173 177.545Z" fill="#455A64"/>
<path d="M86.1907 180.003C86.1324 180.003 86.0409 179.741 85.991 179.404C85.9411 179.067 85.9452 178.78 85.991 178.772C86.0367 178.764 86.1407 179.03 86.1907 179.371C86.2406 179.712 86.2489 179.995 86.1907 180.003Z" fill="#455A64"/>
<path d="M86.566 182.462C86.5036 182.462 86.4163 182.204 86.3622 181.863C86.3081 181.522 86.3206 181.239 86.3622 181.23C86.4038 181.222 86.512 181.492 86.5619 181.829C86.6118 182.166 86.6243 182.453 86.566 182.462Z" fill="#455A64"/>
<path d="M86.9446 184.92C86.8822 184.92 86.7948 184.662 86.7449 184.321C86.695 183.98 86.6991 183.701 86.7449 183.693C86.7906 183.685 86.8946 183.951 86.9446 184.292C86.9945 184.633 86.9945 184.912 86.9446 184.92Z" fill="#455A64"/>
<path d="M87.3024 187.383C87.2442 187.383 87.1527 187.125 87.1027 186.784C87.0528 186.443 87.0611 186.16 87.1027 186.152C87.1443 186.143 87.2483 186.41 87.3024 186.751C87.3565 187.092 87.3607 187.375 87.3024 187.383Z" fill="#455A64"/>
<path d="M87.5675 189.247C87.5093 189.247 87.4427 189.122 87.4178 188.951C87.3928 188.781 87.4178 188.635 87.4802 188.627C87.5426 188.619 87.6091 188.752 87.6341 188.922C87.6591 189.093 87.6258 189.238 87.5675 189.247Z" fill="#455A64"/>
<path d="M42.0162 187.741C42.0744 187.741 42.0786 187.907 42.0162 188.069C41.9538 188.232 41.8789 188.352 41.8206 188.336C41.7624 188.319 41.7582 188.169 41.8206 188.007C41.883 187.845 41.9621 187.724 42.0162 187.741Z" fill="#455A64"/>
<path d="M42.7891 185.332C42.8432 185.353 42.7891 185.636 42.6976 185.969C42.6061 186.301 42.4605 186.555 42.4023 186.538C42.344 186.522 42.4023 186.235 42.4938 185.902C42.5853 185.569 42.7309 185.315 42.7891 185.332Z" fill="#455A64"/>
<path d="M43.5686 182.932C43.6268 182.932 43.5686 183.231 43.4771 183.564C43.3856 183.897 43.2358 184.151 43.1776 184.13C43.1193 184.109 43.1776 183.83 43.2732 183.498C43.3689 183.165 43.5145 182.911 43.5686 182.932Z" fill="#455A64"/>
<path d="M44.362 180.544C44.4202 180.544 44.362 180.844 44.2663 181.176C44.1706 181.509 44.0209 181.759 43.9668 181.742C43.9127 181.725 43.9668 181.438 44.0625 181.11C44.1581 180.781 44.3079 180.511 44.362 180.544Z" fill="#455A64"/>
<path d="M45.169 178.135C45.2273 178.135 45.169 178.435 45.0692 178.768C44.9694 179.101 44.8196 179.35 44.7655 179.329C44.7114 179.309 44.7655 179.03 44.8654 178.697C44.9652 178.364 45.1108 178.115 45.169 178.135Z" fill="#455A64"/>
<path d="M45.9837 175.739C46.042 175.76 45.9837 176.043 45.8839 176.376C45.7841 176.709 45.6301 176.958 45.5761 176.937C45.522 176.917 45.5761 176.634 45.6759 176.305C45.7757 175.976 45.9297 175.723 45.9837 175.739Z" fill="#455A64"/>
<path d="M46.8121 173.351C46.8703 173.372 46.8121 173.655 46.7081 173.984C46.6041 174.312 46.4543 174.566 46.3961 174.545C46.3378 174.524 46.3961 174.242 46.5042 173.913C46.6124 173.584 46.758 173.33 46.8121 173.351Z" fill="#455A64"/>
<path d="M47.6523 170.976C47.7064 170.976 47.6523 171.28 47.5442 171.608C47.436 171.937 47.2862 172.191 47.2322 172.17C47.1781 172.149 47.2322 171.866 47.3403 171.538C47.4485 171.209 47.5941 170.947 47.6523 170.976Z" fill="#455A64"/>
<path d="M48.498 168.58C48.5563 168.601 48.498 168.884 48.3899 169.212C48.2817 169.541 48.1319 169.795 48.0737 169.774C48.0155 169.753 48.0737 169.47 48.186 169.141C48.2984 168.813 48.444 168.563 48.498 168.58Z" fill="#455A64"/>
<path d="M49.3538 166.2C49.412 166.221 49.3538 166.504 49.2414 166.833C49.1291 167.161 48.9835 167.411 48.9253 167.39C48.867 167.369 48.9253 167.087 49.0376 166.758C49.1499 166.429 49.2997 166.18 49.3538 166.2Z" fill="#455A64"/>
<path d="M50.2194 163.825C50.2776 163.846 50.2194 164.124 50.1029 164.453C49.9864 164.782 49.8408 165.031 49.7868 165.011C49.7327 164.99 49.7868 164.707 49.8991 164.382C50.0114 164.058 50.1653 163.804 50.2194 163.825Z" fill="#455A64"/>
<path d="M51.0926 161.45C51.1467 161.45 51.0926 161.753 50.9761 162.078C50.8597 162.402 50.7099 162.656 50.6558 162.635C50.6017 162.615 50.6558 162.332 50.7723 162.003C50.8888 161.674 51.0344 161.429 51.0926 161.45Z" fill="#455A64"/>
<path d="M51.9715 159.074C52.0298 159.095 51.9715 159.378 51.8551 159.707C51.7386 160.035 51.5888 160.281 51.5306 160.26C51.4723 160.239 51.5306 159.96 51.6512 159.632C51.7719 159.303 51.9175 159.053 51.9715 159.074Z" fill="#455A64"/>
<path d="M52.8565 156.707C52.9147 156.728 52.8565 157.007 52.7358 157.335C52.6152 157.664 52.4696 157.91 52.4155 157.889C52.3614 157.868 52.4155 157.585 52.5362 157.261C52.6568 156.936 52.8024 156.686 52.8565 156.707Z" fill="#455A64"/>
<path d="M53.7513 154.336C53.8053 154.357 53.7513 154.64 53.6306 154.968C53.51 155.297 53.3602 155.542 53.302 155.522C53.2437 155.501 53.302 155.218 53.4268 154.889C53.5516 154.561 53.693 154.336 53.7513 154.336Z" fill="#455A64"/>
<path d="M54.6499 151.973C54.704 151.994 54.65 152.273 54.5252 152.601C54.4004 152.93 54.2547 153.175 54.2007 153.155C54.1466 153.134 54.2007 152.851 54.3213 152.522C54.442 152.194 54.5917 151.948 54.6499 151.973Z" fill="#455A64"/>
<path d="M55.5523 149.606C55.6064 149.627 55.5523 149.91 55.4275 150.239C55.3027 150.567 55.1571 150.808 55.0989 150.788C55.0406 150.767 55.0989 150.484 55.2237 150.159C55.3485 149.835 55.4941 149.585 55.5523 149.606Z" fill="#455A64"/>
<path d="M56.4587 147.264C56.5128 147.285 56.4587 147.568 56.3339 147.896C56.2091 148.225 56.0594 148.466 56.0053 148.445C55.9512 148.425 56.0053 148.142 56.1301 147.817C56.2549 147.493 56.4046 147.222 56.4587 147.264Z" fill="#455A64"/>
<path d="M57.3708 144.885C57.4249 144.905 57.3708 145.188 57.246 145.513C57.1212 145.837 56.9715 146.087 56.9132 146.062C56.855 146.037 56.9132 145.762 57.0422 145.434C57.1712 145.105 57.3168 144.864 57.3708 144.885Z" fill="#455A64"/>
<path d="M58.2851 142.522C58.3392 142.547 58.2851 142.825 58.1561 143.154C58.0272 143.483 57.8816 143.724 57.8275 143.703C57.7734 143.682 57.8275 143.399 57.9564 143.075C58.0854 142.751 58.2393 142.501 58.2851 142.522Z" fill="#455A64"/>
<path d="M59.2011 140.167C59.2593 140.188 59.2011 140.467 59.0721 140.795C58.9432 141.124 58.7976 141.365 58.7435 141.344C58.6894 141.323 58.7435 141.041 58.8724 140.716C59.0014 140.392 59.147 140.142 59.2011 140.167Z" fill="#455A64"/>
<path d="M60.121 137.808C60.1793 137.829 60.121 138.112 59.9921 138.437C59.8631 138.761 59.7175 139.006 59.6634 138.986C59.6093 138.965 59.6634 138.682 59.7924 138.357C59.9213 138.033 60.0669 137.788 60.121 137.808Z" fill="#455A64"/>
<path d="M61.0431 135.45C61.0972 135.475 61.0431 135.753 60.9142 136.082C60.7852 136.411 60.6355 136.652 60.5814 136.631C60.5273 136.61 60.5814 136.327 60.7103 136.003C60.8393 135.678 60.9849 135.429 61.0431 135.45Z" fill="#455A64"/>
<path d="M61.9843 133.095C62.0425 133.12 61.9843 133.399 61.8553 133.723C61.7264 134.048 61.5808 134.297 61.5225 134.272C61.4643 134.247 61.5225 133.969 61.6557 133.644C61.7888 133.32 61.9094 133.074 61.9843 133.095Z" fill="#455A64"/>
<path d="M62.9274 130.757C62.9815 130.782 62.9274 131.061 62.7818 131.381C62.6362 131.701 62.4906 131.947 62.4366 131.922C62.3825 131.897 62.4366 131.622 62.5822 131.298C62.7278 130.973 62.8734 130.736 62.9274 130.757Z" fill="#455A64"/>
<path d="M64.0141 128.473C64.0682 128.502 63.985 128.777 63.8311 129.089C63.6771 129.401 63.5066 129.63 63.4525 129.605C63.3984 129.58 63.4775 129.305 63.6355 128.993C63.7936 128.681 63.96 128.444 64.0141 128.473Z" fill="#455A64"/>
<path d="M65.3586 126.335C65.4044 126.372 65.2837 126.63 65.0882 126.917C64.8927 127.204 64.6722 127.404 64.6389 127.375C64.6057 127.346 64.7097 127.084 64.9093 126.793C65.109 126.501 65.3129 126.298 65.3586 126.335Z" fill="#455A64"/>
<path d="M66.8058 125.162C66.8058 125.22 66.7101 125.303 66.5686 125.378C66.4272 125.453 66.2899 125.495 66.2525 125.449C66.215 125.403 66.3066 125.274 66.4688 125.187C66.631 125.1 66.7891 125.104 66.8058 125.162Z" fill="#455A64"/>
<path d="M63.0032 89.5232L48.1228 89.1072H32.9513C31.9774 89.1268 31.0511 89.5321 30.3757 90.2341C29.7003 90.936 29.3309 91.8772 29.3488 92.8512V103.168C29.2978 110.297 30.9977 117.329 34.2992 123.648C37.103 128.91 41.4419 134.326 48.1228 137.767C54.2672 135.462 58.8515 129.309 61.6553 124.039C64.9568 117.72 66.6567 110.688 66.6057 103.559V93.263C66.6235 92.2895 66.2541 91.3487 65.5786 90.6474C64.903 89.9461 63.9767 89.5418 63.0032 89.5232V89.5232Z" fill="#4087EA"/>
<path d="M47.6114 113.606L42.1035 109.05L43.9589 106.804L47.2786 109.55L52.7074 103.322L54.9038 105.231L47.6114 113.606Z" fill="white"/>
<g opacity="0.3">
<path d="M63.0032 89.5232L48.1228 89.1072H32.9513C31.9774 89.1268 31.0511 89.5321 30.3757 90.2341C29.7003 90.936 29.3309 91.8772 29.3488 92.8512V103.168C29.2978 110.297 30.9977 117.329 34.2992 123.648C37.103 128.91 41.4419 134.326 48.1228 137.767C54.2672 135.462 58.8515 129.309 61.6553 124.039C64.9568 117.72 66.6567 110.688 66.6057 103.559V93.263C66.6235 92.2895 66.2541 91.3487 65.5786 90.6474C64.903 89.9461 63.9767 89.5418 63.0032 89.5232V89.5232ZM62.5123 104.316C62.5524 109.955 61.2068 115.518 58.5936 120.515C56.3763 124.675 53.1148 128.964 47.8275 131.689C42.5443 128.964 39.4035 124.679 37.1862 120.515C34.5791 115.516 33.2378 109.954 33.28 104.316V96.175C33.2666 95.4055 33.5584 94.662 34.0916 94.107C34.6247 93.5519 35.356 93.2306 36.1254 93.2131H59.671C60.4412 93.2295 61.1735 93.5504 61.7075 94.1055C62.2416 94.6607 62.534 95.4048 62.5206 96.175L62.5123 104.316Z" fill="black"/>
</g>
</svg>
