<svg width="700" height="700" viewBox="0 0 700 700" fill="none" xmlns="http://www.w3.org/2000/svg">
<g clip-path="url(#clip0_2439_3857)">
<g opacity="0.2">
<path d="M23.5625 26.731L11.4356 24.2688" stroke="#4D80B3" stroke-linecap="round"/>
<path d="M23.541 59.1655L11.4579 61.8343" stroke="#4D80B3" stroke-linecap="round"/>
<path d="M22.3145 91.613L12.687 99.3871" stroke="#4D80B3" stroke-linecap="round"/>
<path d="M20.252 124.959L14.7476 136.041" stroke="#4D80B3" stroke-linecap="round"/>
<path d="M18.2773 159.362L16.7218 171.638" stroke="#4D80B3" stroke-linecap="round"/>
<path d="M17.0586 194.329L17.943 206.671" stroke="#4D80B3" stroke-linecap="round"/>
<path d="M16.7656 229.356L18.2333 241.643" stroke="#4D80B3" stroke-linecap="round"/>
<path d="M17.25 264.318L17.7482 276.682" stroke="#4D80B3" stroke-linecap="round"/>
<path d="M18.1602 299.348L16.838 311.652" stroke="#4D80B3" stroke-linecap="round"/>
<path d="M19.0664 334.514L15.9332 346.486" stroke="#4D80B3" stroke-linecap="round"/>
<path d="M19.6113 369.684L15.3899 381.316" stroke="#4D80B3" stroke-linecap="round"/>
<path d="M19.6992 404.717L15.3013 416.283" stroke="#4D80B3" stroke-linecap="round"/>
<path d="M19.5645 439.667L15.4358 451.333" stroke="#4D80B3" stroke-linecap="round"/>
<path d="M19.707 474.72L15.2914 486.28" stroke="#4D80B3" stroke-linecap="round"/>
<path d="M20.5547 510.12L14.445 520.881" stroke="#4D80B3" stroke-linecap="round"/>
<path d="M21.9258 546.177L13.0727 554.823" stroke="#4D80B3" stroke-linecap="round"/>
<path d="M23.1973 583.086L11.8037 587.914" stroke="#4D80B3" stroke-linecap="round"/>
<path d="M23.6855 620.595L11.3126 620.405" stroke="#4D80B3" stroke-linecap="round"/>
<path d="M23.1406 658.044L11.8606 652.956" stroke="#4D80B3" stroke-linecap="round"/>
<path d="M21.8906 694.859L13.1097 686.141" stroke="#4D80B3" stroke-linecap="round"/>
<path d="M58.4473 27.2031L46.551 23.7968" stroke="#4D80B3" stroke-linecap="round"/>
<path d="M58.6855 60.6492L46.3148 60.3507" stroke="#4D80B3" stroke-linecap="round"/>
<path d="M58.4473 93.7922L46.5536 97.2076" stroke="#4D80B3" stroke-linecap="round"/>
<path d="M57.6523 127.073L47.3492 133.927" stroke="#4D80B3" stroke-linecap="round"/>
<path d="M56.5645 160.835L48.4363 170.165" stroke="#4D80B3" stroke-linecap="round"/>
<path d="M55.6133 195.153L49.3867 205.847" stroke="#4D80B3" stroke-linecap="round"/>
<path d="M55.1172 229.893L49.8847 241.107" stroke="#4D80B3" stroke-linecap="round"/>
<path d="M55.1074 264.889L49.8944 276.111" stroke="#4D80B3" stroke-linecap="round"/>
<path d="M55.3418 300.004L49.6573 310.996" stroke="#4D80B3" stroke-linecap="round"/>
<path d="M55.4824 335.079L49.5167 345.921" stroke="#4D80B3" stroke-linecap="round"/>
<path d="M55.3398 370.003L49.6599 380.997" stroke="#4D80B3" stroke-linecap="round"/>
<path d="M54.9297 404.81L50.0693 416.19" stroke="#4D80B3" stroke-linecap="round"/>
<path d="M54.5273 439.655L50.471 451.345" stroke="#4D80B3" stroke-linecap="round"/>
<path d="M54.6016 474.681L50.3978 486.319" stroke="#4D80B3" stroke-linecap="round"/>
<path d="M55.3867 510.027L49.6141 520.973" stroke="#4D80B3" stroke-linecap="round"/>
<path d="M56.6562 545.916L48.3449 555.084" stroke="#4D80B3" stroke-linecap="round"/>
<path d="M57.9121 582.5L47.0892 588.5" stroke="#4D80B3" stroke-linecap="round"/>
<path d="M58.6211 619.592L46.3807 621.408" stroke="#4D80B3" stroke-linecap="round"/>
<path d="M58.5703 656.693L46.4284 654.306" stroke="#4D80B3" stroke-linecap="round"/>
<path d="M57.9902 693.353L47.0095 687.647" stroke="#4D80B3" stroke-linecap="round"/>
<path d="M92.9141 28.4951L82.0862 22.505" stroke="#4D80B3" stroke-linecap="round"/>
<path d="M93.082 63.1702L81.9194 57.8296" stroke="#4D80B3" stroke-linecap="round"/>
<path d="M93.3809 97.4202L81.6176 93.5796" stroke="#4D80B3" stroke-linecap="round"/>
<path d="M93.6348 131.302L81.3647 129.698" stroke="#4D80B3" stroke-linecap="round"/>
<path d="M93.666 164.991L81.3335 166.009" stroke="#4D80B3" stroke-linecap="round"/>
<path d="M93.4395 198.768L81.5598 202.232" stroke="#4D80B3" stroke-linecap="round"/>
<path d="M93.0957 232.859L81.9049 238.14" stroke="#4D80B3" stroke-linecap="round"/>
<path d="M92.8008 267.31L82.1985 273.691" stroke="#4D80B3" stroke-linecap="round"/>
<path d="M92.584 301.974L82.4151 309.025" stroke="#4D80B3" stroke-linecap="round"/>
<path d="M92.3145 336.613L82.6867 344.387" stroke="#4D80B3" stroke-linecap="round"/>
<path d="M91.8477 371.098L83.1521 379.902" stroke="#4D80B3" stroke-linecap="round"/>
<path d="M91.25 405.578L83.751 415.422" stroke="#4D80B3" stroke-linecap="round"/>
<path d="M90.8184 440.278L84.1806 450.722" stroke="#4D80B3" stroke-linecap="round"/>
<path d="M90.8809 475.318L84.1184 485.681" stroke="#4D80B3" stroke-linecap="round"/>
<path d="M91.4648 510.751L83.534 520.249" stroke="#4D80B3" stroke-linecap="round"/>
<path d="M92.3574 546.667L82.643 554.333" stroke="#4D80B3" stroke-linecap="round"/>
<path d="M93.1855 583.06L81.8137 587.94" stroke="#4D80B3" stroke-linecap="round"/>
<path d="M93.6328 619.686L81.366 621.314" stroke="#4D80B3" stroke-linecap="round"/>
<path d="M93.6504 656.165L81.3477 654.835" stroke="#4D80B3" stroke-linecap="round"/>
<path d="M93.4473 692.209L81.5542 688.791" stroke="#4D80B3" stroke-linecap="round"/>
<path d="M126.861 29.8884L118.138 21.1117" stroke="#4D80B3" stroke-linecap="round"/>
<path d="M126.174 65.4778L118.825 55.522" stroke="#4D80B3" stroke-linecap="round"/>
<path d="M125.963 100.627L119.037 90.3725" stroke="#4D80B3" stroke-linecap="round"/>
<path d="M126.316 135.371L118.685 125.63" stroke="#4D80B3" stroke-linecap="round"/>
<path d="M127.066 169.675L117.934 161.325" stroke="#4D80B3" stroke-linecap="round"/>
<path d="M127.869 203.574L117.13 197.426" stroke="#4D80B3" stroke-linecap="round"/>
<path d="M128.424 237.287L116.577 233.713" stroke="#4D80B3" stroke-linecap="round"/>
<path d="M128.658 271.103L116.343 269.897" stroke="#4D80B3" stroke-linecap="round"/>
<path d="M128.678 305.159L116.322 305.841" stroke="#4D80B3" stroke-linecap="round"/>
<path d="M128.582 339.367L116.417 341.633" stroke="#4D80B3" stroke-linecap="round"/>
<path d="M128.381 373.575L116.621 377.425" stroke="#4D80B3" stroke-linecap="round"/>
<path d="M128.105 407.879L116.896 413.121" stroke="#4D80B3" stroke-linecap="round"/>
<path d="M127.922 442.519L117.079 448.481" stroke="#4D80B3" stroke-linecap="round"/>
<path d="M127.947 477.568L117.051 483.432" stroke="#4D80B3" stroke-linecap="round"/>
<path d="M128.172 513.026L116.83 517.974" stroke="#4D80B3" stroke-linecap="round"/>
<path d="M128.467 548.862L116.534 552.138" stroke="#4D80B3" stroke-linecap="round"/>
<path d="M128.66 584.922L116.34 586.079" stroke="#4D80B3" stroke-linecap="round"/>
<path d="M128.672 620.925L116.327 620.075" stroke="#4D80B3" stroke-linecap="round"/>
<path d="M128.588 656.604L116.412 654.395" stroke="#4D80B3" stroke-linecap="round"/>
<path d="M128.549 691.798L116.45 689.202" stroke="#4D80B3" stroke-linecap="round"/>
<path d="M160.617 30.8447L154.384 20.1551" stroke="#4D80B3" stroke-linecap="round"/>
<path d="M158.67 66.5757L156.331 54.4243" stroke="#4D80B3" stroke-linecap="round"/>
<path d="M157.451 101.687L157.55 89.313" stroke="#4D80B3" stroke-linecap="round"/>
<path d="M157.258 136.682L157.742 124.317" stroke="#4D80B3" stroke-linecap="round"/>
<path d="M158.029 171.665L156.97 159.336" stroke="#4D80B3" stroke-linecap="round"/>
<path d="M159.453 206.371L155.547 194.629" stroke="#4D80B3" stroke-linecap="round"/>
<path d="M161.002 240.601L153.999 230.399" stroke="#4D80B3" stroke-linecap="round"/>
<path d="M162.197 274.526L152.802 266.473" stroke="#4D80B3" stroke-linecap="round"/>
<path d="M162.898 308.522L152.101 302.478" stroke="#4D80B3" stroke-linecap="round"/>
<path d="M163.242 342.803L151.757 338.197" stroke="#4D80B3" stroke-linecap="round"/>
<path d="M163.414 377.321L151.588 373.679" stroke="#4D80B3" stroke-linecap="round"/>
<path d="M163.508 411.978L151.492 409.022" stroke="#4D80B3" stroke-linecap="round"/>
<path d="M163.549 446.805L151.453 444.195" stroke="#4D80B3" stroke-linecap="round"/>
<path d="M163.543 481.829L151.458 479.171" stroke="#4D80B3" stroke-linecap="round"/>
<path d="M163.49 517.046L151.508 513.954" stroke="#4D80B3" stroke-linecap="round"/>
<path d="M163.383 552.417L151.617 548.583" stroke="#4D80B3" stroke-linecap="round"/>
<path d="M163.24 587.81L151.76 583.19" stroke="#4D80B3" stroke-linecap="round"/>
<path d="M163.152 623.017L151.848 617.983" stroke="#4D80B3" stroke-linecap="round"/>
<path d="M163.227 657.845L151.775 653.155" stroke="#4D80B3" stroke-linecap="round"/>
<path d="M163.461 692.155L151.538 688.845" stroke="#4D80B3" stroke-linecap="round"/>
<path d="M194.631 31.3083L190.368 19.6915" stroke="#4D80B3" stroke-linecap="round"/>
<path d="M191.613 66.6233L193.385 54.3765" stroke="#4D80B3" stroke-linecap="round"/>
<path d="M189.707 101.021L195.292 89.979" stroke="#4D80B3" stroke-linecap="round"/>
<path d="M189.102 135.67L195.898 125.33" stroke="#4D80B3" stroke-linecap="round"/>
<path d="M189.574 170.952L195.426 160.048" stroke="#4D80B3" stroke-linecap="round"/>
<path d="M190.938 206.487L194.061 194.513" stroke="#4D80B3" stroke-linecap="round"/>
<path d="M192.795 241.68L192.205 229.32" stroke="#4D80B3" stroke-linecap="round"/>
<path d="M194.49 276.359L190.512 264.641" stroke="#4D80B3" stroke-linecap="round"/>
<path d="M195.551 310.883L189.451 300.117" stroke="#4D80B3" stroke-linecap="round"/>
<path d="M195.936 345.645L189.063 335.355" stroke="#4D80B3" stroke-linecap="round"/>
<path d="M195.896 380.671L189.102 370.329" stroke="#4D80B3" stroke-linecap="round"/>
<path d="M195.775 415.749L189.225 405.251" stroke="#4D80B3" stroke-linecap="round"/>
<path d="M195.713 450.788L189.288 440.212" stroke="#4D80B3" stroke-linecap="round"/>
<path d="M195.721 485.783L189.278 475.217" stroke="#4D80B3" stroke-linecap="round"/>
<path d="M195.801 520.734L189.201 510.266" stroke="#4D80B3" stroke-linecap="round"/>
<path d="M195.939 555.644L189.062 545.357" stroke="#4D80B3" stroke-linecap="round"/>
<path d="M196.178 590.476L188.822 580.524" stroke="#4D80B3" stroke-linecap="round"/>
<path d="M196.666 625.075L188.335 615.925" stroke="#4D80B3" stroke-linecap="round"/>
<path d="M197.445 659.219L187.556 651.781" stroke="#4D80B3" stroke-linecap="round"/>
<path d="M198.271 692.729L186.729 688.27" stroke="#4D80B3" stroke-linecap="round"/>
<path d="M229.037 31.4934L225.964 19.5068" stroke="#4D80B3" stroke-linecap="round"/>
<path d="M225.336 66.2964L229.663 54.7034" stroke="#4D80B3" stroke-linecap="round"/>
<path d="M223.188 99.937L231.812 91.0631" stroke="#4D80B3" stroke-linecap="round"/>
<path d="M222.492 134.134L232.507 126.866" stroke="#4D80B3" stroke-linecap="round"/>
<path d="M222.711 169.418L232.287 161.582" stroke="#4D80B3" stroke-linecap="round"/>
<path d="M223.703 205.385L231.298 195.615" stroke="#4D80B3" stroke-linecap="round"/>
<path d="M225.27 241.271L229.729 229.729" stroke="#4D80B3" stroke-linecap="round"/>
<path d="M226.795 276.647L228.205 264.353" stroke="#4D80B3" stroke-linecap="round"/>
<path d="M227.643 311.686L227.359 299.314" stroke="#4D80B3" stroke-linecap="round"/>
<path d="M227.627 346.686L227.375 334.314" stroke="#4D80B3" stroke-linecap="round"/>
<path d="M227.037 381.67L227.962 369.33" stroke="#4D80B3" stroke-linecap="round"/>
<path d="M226.424 416.593L228.575 404.407" stroke="#4D80B3" stroke-linecap="round"/>
<path d="M226.115 451.53L228.885 439.47" stroke="#4D80B3" stroke-linecap="round"/>
<path d="M226.158 486.54L228.843 474.46" stroke="#4D80B3" stroke-linecap="round"/>
<path d="M226.547 521.613L228.452 509.387" stroke="#4D80B3" stroke-linecap="round"/>
<path d="M227.279 556.683L227.722 544.317" stroke="#4D80B3" stroke-linecap="round"/>
<path d="M228.422 591.618L226.578 579.382" stroke="#4D80B3" stroke-linecap="round"/>
<path d="M230.027 626.147L224.971 614.853" stroke="#4D80B3" stroke-linecap="round"/>
<path d="M231.859 659.89L223.14 651.11" stroke="#4D80B3" stroke-linecap="round"/>
<path d="M233.285 692.693L221.714 688.307" stroke="#4D80B3" stroke-linecap="round"/>
<path d="M263.686 31.5725L261.313 19.4277" stroke="#4D80B3" stroke-linecap="round"/>
<path d="M259.617 65.9744L265.384 55.0256" stroke="#4D80B3" stroke-linecap="round"/>
<path d="M257.459 99.0884L267.54 91.9117" stroke="#4D80B3" stroke-linecap="round"/>
<path d="M256.83 132.977L268.17 128.023" stroke="#4D80B3" stroke-linecap="round"/>
<path d="M256.924 168.179L268.078 162.821" stroke="#4D80B3" stroke-linecap="round"/>
<path d="M257.588 204.261L267.414 196.739" stroke="#4D80B3" stroke-linecap="round"/>
<path d="M258.754 240.425L266.244 230.575" stroke="#4D80B3" stroke-linecap="round"/>
<path d="M259.904 276.116L265.098 264.884" stroke="#4D80B3" stroke-linecap="round"/>
<path d="M260.391 311.317L264.609 299.683" stroke="#4D80B3" stroke-linecap="round"/>
<path d="M260.004 346.162L264.995 334.838" stroke="#4D80B3" stroke-linecap="round"/>
<path d="M259.102 380.67L265.899 370.33" stroke="#4D80B3" stroke-linecap="round"/>
<path d="M258.311 415.053L266.69 405.947" stroke="#4D80B3" stroke-linecap="round"/>
<path d="M257.943 449.687L267.055 441.314" stroke="#4D80B3" stroke-linecap="round"/>
<path d="M257.992 484.738L267.008 476.262" stroke="#4D80B3" stroke-linecap="round"/>
<path d="M258.492 520.214L266.507 510.786" stroke="#4D80B3" stroke-linecap="round"/>
<path d="M259.682 556.008L265.318 544.992" stroke="#4D80B3" stroke-linecap="round"/>
<path d="M261.793 591.647L263.207 579.353" stroke="#4D80B3" stroke-linecap="round"/>
<path d="M264.613 626.315L260.385 614.685" stroke="#4D80B3" stroke-linecap="round"/>
<path d="M267.264 659.448L257.736 651.552" stroke="#4D80B3" stroke-linecap="round"/>
<path d="M268.617 691.425L256.382 689.575" stroke="#4D80B3" stroke-linecap="round"/>
<path d="M298.529 31.6008L296.47 19.3991" stroke="#4D80B3" stroke-linecap="round"/>
<path d="M294.314 65.804L300.686 55.196" stroke="#4D80B3" stroke-linecap="round"/>
<path d="M292.193 98.6826L302.805 92.3172" stroke="#4D80B3" stroke-linecap="round"/>
<path d="M291.631 132.46L303.368 128.54" stroke="#4D80B3" stroke-linecap="round"/>
<path d="M291.693 167.636L303.307 163.364" stroke="#4D80B3" stroke-linecap="round"/>
<path d="M292.221 203.726L302.78 197.274" stroke="#4D80B3" stroke-linecap="round"/>
<path d="M293.18 239.93L301.819 231.07" stroke="#4D80B3" stroke-linecap="round"/>
<path d="M294.096 275.667L300.904 265.333" stroke="#4D80B3" stroke-linecap="round"/>
<path d="M294.361 310.832L300.64 300.169" stroke="#4D80B3" stroke-linecap="round"/>
<path d="M293.801 345.46L301.198 335.54" stroke="#4D80B3" stroke-linecap="round"/>
<path d="M292.848 379.578L302.153 371.421" stroke="#4D80B3" stroke-linecap="round"/>
<path d="M292.125 413.563L302.876 407.437" stroke="#4D80B3" stroke-linecap="round"/>
<path d="M291.828 447.97L303.174 443.03" stroke="#4D80B3" stroke-linecap="round"/>
<path d="M291.863 483.049L303.138 477.951" stroke="#4D80B3" stroke-linecap="round"/>
<path d="M292.385 518.98L302.617 512.02" stroke="#4D80B3" stroke-linecap="round"/>
<path d="M293.969 555.581L301.03 545.419" stroke="#4D80B3" stroke-linecap="round"/>
<path d="M297.104 591.674L297.898 579.326" stroke="#4D80B3" stroke-linecap="round"/>
<path d="M300.92 625.656L294.079 615.344" stroke="#4D80B3" stroke-linecap="round"/>
<path d="M303.379 657.428L291.62 653.572" stroke="#4D80B3" stroke-linecap="round"/>
<path d="M303.438 688.758L291.564 692.242" stroke="#4D80B3" stroke-linecap="round"/>
<path d="M333.588 31.5908L331.411 19.4094" stroke="#4D80B3" stroke-linecap="round"/>
<path d="M329.426 65.8696L335.573 55.1302" stroke="#4D80B3" stroke-linecap="round"/>
<path d="M327.293 98.8416L337.708 92.1586" stroke="#4D80B3" stroke-linecap="round"/>
<path d="M326.707 132.675L338.292 128.325" stroke="#4D80B3" stroke-linecap="round"/>
<path d="M326.777 167.853L338.222 163.147" stroke="#4D80B3" stroke-linecap="round"/>
<path d="M327.33 203.899L337.67 197.101" stroke="#4D80B3" stroke-linecap="round"/>
<path d="M328.297 240.041L336.702 230.959" stroke="#4D80B3" stroke-linecap="round"/>
<path d="M329.197 275.732L335.802 265.268" stroke="#4D80B3" stroke-linecap="round"/>
<path d="M329.441 310.878L335.561 300.122" stroke="#4D80B3" stroke-linecap="round"/>
<path d="M328.861 345.505L336.138 335.495" stroke="#4D80B3" stroke-linecap="round"/>
<path d="M327.887 379.623L337.114 371.377" stroke="#4D80B3" stroke-linecap="round"/>
<path d="M327.141 413.592L337.859 407.408" stroke="#4D80B3" stroke-linecap="round"/>
<path d="M326.822 447.959L338.177 443.041" stroke="#4D80B3" stroke-linecap="round"/>
<path d="M326.889 483.105L338.113 477.895" stroke="#4D80B3" stroke-linecap="round"/>
<path d="M327.666 519.363L337.333 511.637" stroke="#4D80B3" stroke-linecap="round"/>
<path d="M330.055 556.184L334.945 544.817" stroke="#4D80B3" stroke-linecap="round"/>
<path d="M334.283 591.425L330.716 579.575" stroke="#4D80B3" stroke-linecap="round"/>
<path d="M337.979 623.376L327.022 617.624" stroke="#4D80B3" stroke-linecap="round"/>
<path d="M338.463 653.848L326.538 657.152" stroke="#4D80B3" stroke-linecap="round"/>
<path d="M336.49 685.772L328.509 695.228" stroke="#4D80B3" stroke-linecap="round"/>
<path d="M368.854 31.5374L366.147 19.4626" stroke="#4D80B3" stroke-linecap="round"/>
<path d="M364.945 66.1355L370.053 54.8645" stroke="#4D80B3" stroke-linecap="round"/>
<path d="M362.742 99.4548L372.258 91.545" stroke="#4D80B3" stroke-linecap="round"/>
<path d="M362.029 133.389L372.971 127.611" stroke="#4D80B3" stroke-linecap="round"/>
<path d="M362.1 168.521L372.899 162.48" stroke="#4D80B3" stroke-linecap="round"/>
<path d="M362.754 204.469L372.247 196.531" stroke="#4D80B3" stroke-linecap="round"/>
<path d="M363.871 240.511L371.13 230.489" stroke="#4D80B3" stroke-linecap="round"/>
<path d="M364.957 276.141L370.043 264.86" stroke="#4D80B3" stroke-linecap="round"/>
<path d="M365.418 311.326L369.583 299.674" stroke="#4D80B3" stroke-linecap="round"/>
<path d="M365.043 346.178L369.959 334.822" stroke="#4D80B3" stroke-linecap="round"/>
<path d="M364.154 380.704L370.847 370.296" stroke="#4D80B3" stroke-linecap="round"/>
<path d="M363.344 415.084L371.655 405.916" stroke="#4D80B3" stroke-linecap="round"/>
<path d="M362.936 449.677L372.064 441.323" stroke="#4D80B3" stroke-linecap="round"/>
<path d="M363.172 484.922L371.827 476.078" stroke="#4D80B3" stroke-linecap="round"/>
<path d="M364.646 520.99L370.354 510.01" stroke="#4D80B3" stroke-linecap="round"/>
<path d="M368.037 556.664L366.964 544.336" stroke="#4D80B3" stroke-linecap="round"/>
<path d="M372.213 589.509L362.787 581.491" stroke="#4D80B3" stroke-linecap="round"/>
<path d="M373.615 619.558L361.385 621.442" stroke="#4D80B3" stroke-linecap="round"/>
<path d="M371.246 650.576L363.753 660.424" stroke="#4D80B3" stroke-linecap="round"/>
<path d="M368.201 684.353L366.8 696.647" stroke="#4D80B3" stroke-linecap="round"/>
<path d="M404.277 31.4263L400.722 19.5735" stroke="#4D80B3" stroke-linecap="round"/>
<path d="M400.781 66.4436L404.22 54.5566" stroke="#4D80B3" stroke-linecap="round"/>
<path d="M398.492 100.214L406.508 90.7864" stroke="#4D80B3" stroke-linecap="round"/>
<path d="M397.564 134.231L407.436 126.769" stroke="#4D80B3" stroke-linecap="round"/>
<path d="M397.564 169.231L407.436 161.769" stroke="#4D80B3" stroke-linecap="round"/>
<path d="M398.281 205.026L406.718 195.974" stroke="#4D80B3" stroke-linecap="round"/>
<path d="M399.586 240.958L405.416 230.043" stroke="#4D80B3" stroke-linecap="round"/>
<path d="M401.004 276.503L403.997 264.496" stroke="#4D80B3" stroke-linecap="round"/>
<path d="M401.939 311.662L403.06 299.338" stroke="#4D80B3" stroke-linecap="round"/>
<path d="M402.133 346.676L402.866 334.324" stroke="#4D80B3" stroke-linecap="round"/>
<path d="M401.779 381.645L403.222 369.355" stroke="#4D80B3" stroke-linecap="round"/>
<path d="M401.314 416.573L403.684 404.427" stroke="#4D80B3" stroke-linecap="round"/>
<path d="M401.096 451.526L403.905 439.474" stroke="#4D80B3" stroke-linecap="round"/>
<path d="M401.686 486.633L403.314 474.367" stroke="#4D80B3" stroke-linecap="round"/>
<path d="M403.68 521.574L401.321 509.426" stroke="#4D80B3" stroke-linecap="round"/>
<path d="M406.787 554.961L398.212 546.04" stroke="#4D80B3" stroke-linecap="round"/>
<path d="M408.682 585.776L396.32 585.224" stroke="#4D80B3" stroke-linecap="round"/>
<path d="M406.955 616.207L398.045 624.793" stroke="#4D80B3" stroke-linecap="round"/>
<path d="M403.197 649.352L401.803 661.648" stroke="#4D80B3" stroke-linecap="round"/>
<path d="M400.639 684.599L404.36 696.401" stroke="#4D80B3" stroke-linecap="round"/>
<path d="M439.629 31.3091L435.369 19.6909" stroke="#4D80B3" stroke-linecap="round"/>
<path d="M436.68 66.6326L438.319 54.3672" stroke="#4D80B3" stroke-linecap="round"/>
<path d="M434.365 100.834L440.635 90.1659" stroke="#4D80B3" stroke-linecap="round"/>
<path d="M433.166 134.916L441.833 126.084" stroke="#4D80B3" stroke-linecap="round"/>
<path d="M432.969 169.713L442.031 161.287" stroke="#4D80B3" stroke-linecap="round"/>
<path d="M433.617 205.317L441.383 195.683" stroke="#4D80B3" stroke-linecap="round"/>
<path d="M435.027 241.171L439.974 229.829" stroke="#4D80B3" stroke-linecap="round"/>
<path d="M436.82 276.65L438.18 264.35" stroke="#4D80B3" stroke-linecap="round"/>
<path d="M438.395 311.622L436.605 299.378" stroke="#4D80B3" stroke-linecap="round"/>
<path d="M439.416 346.383L435.585 334.617" stroke="#4D80B3" stroke-linecap="round"/>
<path d="M439.969 381.174L435.033 369.826" stroke="#4D80B3" stroke-linecap="round"/>
<path d="M440.271 416.031L434.728 404.968" stroke="#4D80B3" stroke-linecap="round"/>
<path d="M440.545 450.886L434.454 440.114" stroke="#4D80B3" stroke-linecap="round"/>
<path d="M441.273 485.404L433.728 475.596" stroke="#4D80B3" stroke-linecap="round"/>
<path d="M442.613 518.984L432.387 512.016" stroke="#4D80B3" stroke-linecap="round"/>
<path d="M443.664 551.038L431.337 549.962" stroke="#4D80B3" stroke-linecap="round"/>
<path d="M442.744 582.215L432.258 588.785" stroke="#4D80B3" stroke-linecap="round"/>
<path d="M439.613 614.685L435.386 626.315" stroke="#4D80B3" stroke-linecap="round"/>
<path d="M436.402 649.411L438.596 661.589" stroke="#4D80B3" stroke-linecap="round"/>
<path d="M434.93 684.872L440.069 696.128" stroke="#4D80B3" stroke-linecap="round"/>
<path d="M474.492 31.3577L470.508 19.6422" stroke="#4D80B3" stroke-linecap="round"/>
<path d="M472.207 66.6802L472.794 54.3197" stroke="#4D80B3" stroke-linecap="round"/>
<path d="M470.047 101.18L474.952 89.8196" stroke="#4D80B3" stroke-linecap="round"/>
<path d="M468.625 135.323L476.376 125.677" stroke="#4D80B3" stroke-linecap="round"/>
<path d="M468.141 169.89L476.861 161.11" stroke="#4D80B3" stroke-linecap="round"/>
<path d="M468.561 205.271L476.44 195.729" stroke="#4D80B3" stroke-linecap="round"/>
<path d="M469.908 241.118L475.091 229.882" stroke="#4D80B3" stroke-linecap="round"/>
<path d="M472.002 276.667L472.999 264.333" stroke="#4D80B3" stroke-linecap="round"/>
<path d="M474.25 311.435L470.749 299.566" stroke="#4D80B3" stroke-linecap="round"/>
<path d="M476.088 345.541L468.913 335.459" stroke="#4D80B3" stroke-linecap="round"/>
<path d="M477.33 379.366L467.669 371.634" stroke="#4D80B3" stroke-linecap="round"/>
<path d="M478.023 413.288L466.977 407.712" stroke="#4D80B3" stroke-linecap="round"/>
<path d="M478.379 447.43L466.622 443.57" stroke="#4D80B3" stroke-linecap="round"/>
<path d="M478.625 481.368L466.373 479.632" stroke="#4D80B3" stroke-linecap="round"/>
<path d="M478.631 514.67L466.368 516.33" stroke="#4D80B3" stroke-linecap="round"/>
<path d="M477.852 547.396L467.147 553.604" stroke="#4D80B3" stroke-linecap="round"/>
<path d="M475.904 580.334L469.094 590.666" stroke="#4D80B3" stroke-linecap="round"/>
<path d="M473.365 614.374L471.633 626.626" stroke="#4D80B3" stroke-linecap="round"/>
<path d="M471.482 649.397L473.519 661.603" stroke="#4D80B3" stroke-linecap="round"/>
<path d="M471.141 684.464L473.861 696.536" stroke="#4D80B3" stroke-linecap="round"/>
<path d="M508.621 31.5847L506.379 19.4152" stroke="#4D80B3" stroke-linecap="round"/>
<path d="M507.035 66.6697L507.965 54.3303" stroke="#4D80B3" stroke-linecap="round"/>
<path d="M505.205 101.246L509.794 89.754" stroke="#4D80B3" stroke-linecap="round"/>
<path d="M503.732 135.407L511.268 125.592" stroke="#4D80B3" stroke-linecap="round"/>
<path d="M503.018 169.765L511.982 161.235" stroke="#4D80B3" stroke-linecap="round"/>
<path d="M503.152 204.902L511.849 196.098" stroke="#4D80B3" stroke-linecap="round"/>
<path d="M504.268 240.776L510.732 230.224" stroke="#4D80B3" stroke-linecap="round"/>
<path d="M506.484 276.603L508.516 264.397" stroke="#4D80B3" stroke-linecap="round"/>
<path d="M509.367 311.399L505.635 299.601" stroke="#4D80B3" stroke-linecap="round"/>
<path d="M511.939 344.809L503.06 336.191" stroke="#4D80B3" stroke-linecap="round"/>
<path d="M513.391 377.392L501.609 373.608" stroke="#4D80B3" stroke-linecap="round"/>
<path d="M513.68 410.202L501.32 410.798" stroke="#4D80B3" stroke-linecap="round"/>
<path d="M513.422 443.707L501.579 447.293" stroke="#4D80B3" stroke-linecap="round"/>
<path d="M512.959 477.587L502.042 483.413" stroke="#4D80B3" stroke-linecap="round"/>
<path d="M512.244 511.528L502.757 519.472" stroke="#4D80B3" stroke-linecap="round"/>
<path d="M511.176 545.523L503.825 555.477" stroke="#4D80B3" stroke-linecap="round"/>
<path d="M509.861 579.781L505.14 591.219" stroke="#4D80B3" stroke-linecap="round"/>
<path d="M508.705 614.431L506.294 626.569" stroke="#4D80B3" stroke-linecap="round"/>
<path d="M508.271 649.361L506.727 661.639" stroke="#4D80B3" stroke-linecap="round"/>
<path d="M509.074 684.516L505.926 696.484" stroke="#4D80B3" stroke-linecap="round"/>
<path d="M542.127 31.676L542.873 19.3242" stroke="#4D80B3" stroke-linecap="round"/>
<path d="M541.209 66.5508L543.793 54.4491" stroke="#4D80B3" stroke-linecap="round"/>
<path d="M539.779 101.057L545.22 89.9428" stroke="#4D80B3" stroke-linecap="round"/>
<path d="M538.424 135.156L546.574 125.844" stroke="#4D80B3" stroke-linecap="round"/>
<path d="M537.641 169.33L547.359 161.67" stroke="#4D80B3" stroke-linecap="round"/>
<path d="M537.578 204.25L547.421 196.751" stroke="#4D80B3" stroke-linecap="round"/>
<path d="M538.42 240.151L546.581 230.849" stroke="#4D80B3" stroke-linecap="round"/>
<path d="M540.574 276.38L544.424 264.62" stroke="#4D80B3" stroke-linecap="round"/>
<path d="M543.967 311.511L541.035 299.489" stroke="#4D80B3" stroke-linecap="round"/>
<path d="M547.236 344.481L537.764 336.519" stroke="#4D80B3" stroke-linecap="round"/>
<path d="M548.664 376.043L536.338 374.957" stroke="#4D80B3" stroke-linecap="round"/>
<path d="M548.203 408.103L536.795 412.897" stroke="#4D80B3" stroke-linecap="round"/>
<path d="M547.152 441.422L537.846 449.578" stroke="#4D80B3" stroke-linecap="round"/>
<path d="M546.26 475.586L538.741 485.414" stroke="#4D80B3" stroke-linecap="round"/>
<path d="M545.619 510.157L539.38 520.843" stroke="#4D80B3" stroke-linecap="round"/>
<path d="M545.195 544.93L539.806 556.069" stroke="#4D80B3" stroke-linecap="round"/>
<path d="M545.021 579.85L539.979 591.15" stroke="#4D80B3" stroke-linecap="round"/>
<path d="M545.227 614.946L539.775 626.054" stroke="#4D80B3" stroke-linecap="round"/>
<path d="M545.977 650.382L539.023 660.618" stroke="#4D80B3" stroke-linecap="round"/>
<path d="M547.314 686.613L537.686 694.387" stroke="#4D80B3" stroke-linecap="round"/>
<path d="M575.531 31.3655L579.469 19.6344" stroke="#4D80B3" stroke-linecap="round"/>
<path d="M575.119 66.2109L579.88 54.7891" stroke="#4D80B3" stroke-linecap="round"/>
<path d="M574.047 100.634L580.953 90.3662" stroke="#4D80B3" stroke-linecap="round"/>
<path d="M572.889 134.626L582.11 126.374" stroke="#4D80B3" stroke-linecap="round"/>
<path d="M572.174 168.647L582.828 162.353" stroke="#4D80B3" stroke-linecap="round"/>
<path d="M572.045 203.42L582.954 197.58" stroke="#4D80B3" stroke-linecap="round"/>
<path d="M572.672 239.37L582.326 231.63" stroke="#4D80B3" stroke-linecap="round"/>
<path d="M574.713 276.024L580.288 264.976" stroke="#4D80B3" stroke-linecap="round"/>
<path d="M578.475 311.61L576.524 299.39" stroke="#4D80B3" stroke-linecap="round"/>
<path d="M582.311 344.392L572.691 336.608" stroke="#4D80B3" stroke-linecap="round"/>
<path d="M583.684 375.292L571.316 375.708" stroke="#4D80B3" stroke-linecap="round"/>
<path d="M582.58 406.969L572.419 414.032" stroke="#4D80B3" stroke-linecap="round"/>
<path d="M580.961 440.371L574.04 450.629" stroke="#4D80B3" stroke-linecap="round"/>
<path d="M579.963 474.824L575.037 486.176" stroke="#4D80B3" stroke-linecap="round"/>
<path d="M579.727 509.728L575.272 521.272" stroke="#4D80B3" stroke-linecap="round"/>
<path d="M580.107 544.889L574.892 556.111" stroke="#4D80B3" stroke-linecap="round"/>
<path d="M580.932 580.352L574.067 590.648" stroke="#4D80B3" stroke-linecap="round"/>
<path d="M582.018 616.273L572.981 624.727" stroke="#4D80B3" stroke-linecap="round"/>
<path d="M583.107 652.883L571.894 658.117" stroke="#4D80B3" stroke-linecap="round"/>
<path d="M583.688 690.432L571.314 690.568" stroke="#4D80B3" stroke-linecap="round"/>
<path d="M609.469 30.8936L615.532 20.1066" stroke="#4D80B3" stroke-linecap="round"/>
<path d="M609.299 65.7944L615.702 55.2055" stroke="#4D80B3" stroke-linecap="round"/>
<path d="M608.432 100.161L616.57 90.8391" stroke="#4D80B3" stroke-linecap="round"/>
<path d="M607.434 134.053L617.564 126.947" stroke="#4D80B3" stroke-linecap="round"/>
<path d="M606.828 167.97L618.174 163.03" stroke="#4D80B3" stroke-linecap="round"/>
<path d="M606.711 202.682L618.29 198.318" stroke="#4D80B3" stroke-linecap="round"/>
<path d="M607.211 238.711L617.788 232.288" stroke="#4D80B3" stroke-linecap="round"/>
<path d="M609.154 275.705L615.844 265.295" stroke="#4D80B3" stroke-linecap="round"/>
<path d="M613.156 311.652L611.842 299.348" stroke="#4D80B3" stroke-linecap="round"/>
<path d="M617.344 344.35L607.657 336.65" stroke="#4D80B3" stroke-linecap="round"/>
<path d="M618.654 374.871L606.344 376.129" stroke="#4D80B3" stroke-linecap="round"/>
<path d="M617.129 406.395L607.871 414.605" stroke="#4D80B3" stroke-linecap="round"/>
<path d="M615.213 439.939L609.788 451.061" stroke="#4D80B3" stroke-linecap="round"/>
<path d="M614.301 474.581L610.7 486.419" stroke="#4D80B3" stroke-linecap="round"/>
<path d="M614.518 509.651L610.482 521.349" stroke="#4D80B3" stroke-linecap="round"/>
<path d="M615.584 545.136L609.417 555.864" stroke="#4D80B3" stroke-linecap="round"/>
<path d="M617.039 581.296L607.959 589.704" stroke="#4D80B3" stroke-linecap="round"/>
<path d="M618.277 618.287L606.721 622.712" stroke="#4D80B3" stroke-linecap="round"/>
<path d="M618.67 655.968L606.331 655.032" stroke="#4D80B3" stroke-linecap="round"/>
<path d="M617.67 693.9L607.331 687.1" stroke="#4D80B3" stroke-linecap="round"/>
<path d="M644.307 30.7996L650.693 20.2004" stroke="#4D80B3" stroke-linecap="round"/>
<path d="M644.133 65.6909L650.866 55.309" stroke="#4D80B3" stroke-linecap="round"/>
<path d="M643.266 100.012L651.732 90.9879" stroke="#4D80B3" stroke-linecap="round"/>
<path d="M642.291 133.838L652.71 127.162" stroke="#4D80B3" stroke-linecap="round"/>
<path d="M641.719 167.704L653.281 163.296" stroke="#4D80B3" stroke-linecap="round"/>
<path d="M641.615 202.411L653.385 198.589" stroke="#4D80B3" stroke-linecap="round"/>
<path d="M642.088 238.499L652.912 232.501" stroke="#4D80B3" stroke-linecap="round"/>
<path d="M644.008 275.607L650.993 265.393" stroke="#4D80B3" stroke-linecap="round"/>
<path d="M648.07 311.661L646.929 299.339" stroke="#4D80B3" stroke-linecap="round"/>
<path d="M652.352 344.339L642.647 336.661" stroke="#4D80B3" stroke-linecap="round"/>
<path d="M653.643 374.758L641.357 376.242" stroke="#4D80B3" stroke-linecap="round"/>
<path d="M651.996 406.249L643.005 414.751" stroke="#4D80B3" stroke-linecap="round"/>
<path d="M650.039 439.857L644.963 451.143" stroke="#4D80B3" stroke-linecap="round"/>
<path d="M649.314 474.585L645.686 486.415" stroke="#4D80B3" stroke-linecap="round"/>
<path d="M649.943 509.816L645.055 521.184" stroke="#4D80B3" stroke-linecap="round"/>
<path d="M651.459 545.745L643.541 555.255" stroke="#4D80B3" stroke-linecap="round"/>
<path d="M653.018 582.7L641.982 588.3" stroke="#4D80B3" stroke-linecap="round"/>
<path d="M653.688 620.501L641.313 620.499" stroke="#4D80B3" stroke-linecap="round"/>
<path d="M652.941 658.444L642.058 652.556" stroke="#4D80B3" stroke-linecap="round"/>
<path d="M650.779 695.746L644.219 685.254" stroke="#4D80B3" stroke-linecap="round"/>
<path d="M680.256 31.2661L684.743 19.7338" stroke="#4D80B3" stroke-linecap="round"/>
<path d="M679.877 66.104L685.122 54.8962" stroke="#4D80B3" stroke-linecap="round"/>
<path d="M678.795 100.455L686.206 90.5451" stroke="#4D80B3" stroke-linecap="round"/>
<path d="M677.625 134.31L687.374 126.69" stroke="#4D80B3" stroke-linecap="round"/>
<path d="M676.924 168.181L688.076 162.819" stroke="#4D80B3" stroke-linecap="round"/>
<path d="M676.785 202.871L688.215 198.129" stroke="#4D80B3" stroke-linecap="round"/>
<path d="M677.314 238.874L687.687 232.126" stroke="#4D80B3" stroke-linecap="round"/>
<path d="M679.279 275.783L685.721 265.217" stroke="#4D80B3" stroke-linecap="round"/>
<path d="M683.229 311.644L681.772 299.356" stroke="#4D80B3" stroke-linecap="round"/>
<path d="M687.336 344.359L677.664 336.641" stroke="#4D80B3" stroke-linecap="round"/>
<path d="M688.664 374.965L676.336 376.035" stroke="#4D80B3" stroke-linecap="round"/>
<path d="M687.238 406.521L677.762 414.479" stroke="#4D80B3" stroke-linecap="round"/>
<path d="M685.518 440.098L679.483 450.902" stroke="#4D80B3" stroke-linecap="round"/>
<path d="M685.096 474.883L679.905 486.117" stroke="#4D80B3" stroke-linecap="round"/>
<path d="M686.033 510.421L678.967 520.579" stroke="#4D80B3" stroke-linecap="round"/>
<path d="M687.576 546.964L677.422 554.036" stroke="#4D80B3" stroke-linecap="round"/>
<path d="M688.613 584.541L676.388 586.459" stroke="#4D80B3" stroke-linecap="round"/>
<path d="M688.365 622.471L676.636 618.529" stroke="#4D80B3" stroke-linecap="round"/>
<path d="M686.863 659.887L678.138 651.113" stroke="#4D80B3" stroke-linecap="round"/>
<path d="M684.549 696.338L680.452 684.662" stroke="#4D80B3" stroke-linecap="round"/>
</g>
<path d="M128.044 614.6C252.308 678.132 453.768 678.146 578.032 614.6C702.296 551.054 702.296 448 578.032 384.524C453.768 321.048 252.308 320.992 128.044 384.524C3.7797 448.056 3.7797 551.11 128.044 614.6Z" fill="#F5F5F5"/>
<path d="M207.942 544.418L140.854 505.946L229.25 456.232L208.348 545.118" fill="#E0E0E0"/>
<path d="M580.509 520.87C617.221 520.87 646.981 504.692 646.981 484.736C646.981 464.78 617.221 448.602 580.509 448.602C543.798 448.602 514.037 464.78 514.037 484.736C514.037 504.692 543.798 520.87 580.509 520.87Z" fill="#E0E0E0"/>
<path d="M332.668 509.95L392.406 544.446C394.632 545.572 397.092 546.158 399.588 546.158C402.083 546.158 404.543 545.572 406.77 544.446L527.17 474.95C531.132 472.654 531.132 468.944 527.17 466.662L467.432 432.166C465.205 431.04 462.745 430.454 460.25 430.454C457.754 430.454 455.294 431.04 453.068 432.166L332.668 501.662C328.692 504 328.692 507.668 332.668 509.95Z" fill="#E0E0E0"/>
<path d="M109.928 483.574C109.046 472.696 104.062 454.818 91.4064 437.794C77.8684 419.594 61.3484 408.198 49.0844 413.518C37.6604 418.488 41.9864 434.252 61.6844 449.82C75.4744 460.726 89.7824 474.936 97.4824 492.086L109.956 513.912L109.928 483.574Z" fill="#4087EA"/>
<g opacity="0.1">
<path d="M109.928 483.574C109.046 472.696 104.062 454.818 91.4064 437.794C77.8684 419.594 61.3484 408.198 49.0844 413.518C37.6604 418.488 41.9864 434.252 61.6844 449.82C75.4744 460.726 89.7824 474.936 97.4824 492.086L109.956 513.912L109.928 483.574Z" fill="black"/>
</g>
<path d="M108.821 491.876C108.661 491.876 108.505 491.826 108.374 491.733C108.244 491.641 108.145 491.509 108.093 491.358C97.1311 461.188 74.3111 430.654 55.0051 420.336C54.9131 420.288 54.8315 420.223 54.7649 420.143C54.6983 420.064 54.6479 419.972 54.6167 419.874C54.5855 419.775 54.5741 419.671 54.583 419.568C54.592 419.464 54.6213 419.364 54.6691 419.272C54.7169 419.18 54.7823 419.098 54.8616 419.032C54.941 418.965 55.0327 418.915 55.1315 418.884C55.2303 418.852 55.3343 418.841 55.4375 418.85C55.5407 418.859 55.6411 418.888 55.7331 418.936C75.3331 429.422 98.4751 460.306 109.549 490.812C109.617 491.003 109.606 491.214 109.52 491.397C109.433 491.581 109.278 491.722 109.087 491.792C109.006 491.839 108.915 491.868 108.821 491.876Z" fill="white"/>
<path d="M108.822 520.8C102.488 525.78 94.956 529.005 86.9815 530.152C73.2195 532.308 67.1995 525.728 67.1995 525.728C67.1995 525.728 72.6175 512.82 80.4435 509.194C71.9857 511.088 63.91 514.401 56.5595 518.994C56.5595 518.994 48.1595 519.12 44.8135 506.296C44.8135 506.296 49.7835 498.582 66.4855 494.41C66.4855 494.41 56.3355 491.848 41.6915 495.586C40.5855 496.02 35.9095 479.444 34.4955 471.786C33.0815 464.128 36.1475 464.212 42.1115 462.616C48.0755 461.02 68.3755 460.026 72.1135 463.316C75.8515 466.606 77.7135 477.806 77.7135 477.806C77.7135 477.806 81.2835 471.464 80.4295 465.794C84.5907 464.606 89.0149 464.714 93.1135 466.102C99.8195 468.426 99.3855 471.702 99.3855 476.574C99.4144 481.484 98.7402 486.373 97.3835 491.092C97.3835 491.092 102.018 487.088 102.172 472.332C102.172 472.332 111.23 480.074 114.87 486.738C118.51 493.402 117.6 510.832 108.822 520.8Z" fill="#4087EA"/>
<path d="M108.822 521.542C108.676 521.543 108.533 521.503 108.409 521.427C108.285 521.35 108.185 521.239 108.122 521.108C97.0198 498.036 55.7338 471.24 40.9218 468.356C40.7204 468.315 40.5429 468.197 40.4277 468.027C40.3125 467.857 40.2688 467.648 40.3058 467.446C40.3259 467.347 40.3653 467.252 40.422 467.168C40.4786 467.084 40.5513 467.012 40.6358 466.956C40.7204 466.9 40.8151 466.861 40.9147 466.842C41.0142 466.823 41.1166 466.824 41.2158 466.844C56.2798 469.77 98.2378 497 109.522 520.436C109.609 520.622 109.62 520.835 109.552 521.028C109.483 521.222 109.342 521.381 109.158 521.472C109.053 521.522 108.938 521.546 108.822 521.542Z" fill="white"/>
<path d="M105.967 276.08V527.408L340.509 391.986V165.158L180.293 257.586L174.273 236.558L105.967 276.08Z" fill="#263A60"/>
<path d="M105.967 527.408L117.993 306.712L352.535 171.304L340.509 391.986L105.967 527.408Z" fill="#F0F0F0"/>
<path d="M105.967 527.408L127.205 312.858L361.747 177.45L340.509 391.986L105.967 527.408Z" fill="#2C487D"/>
<path d="M207.494 545.398C206.836 545.398 206.738 544.642 206.738 544.194V221.298C206.788 220.458 207.033 219.641 207.453 218.912C207.874 218.183 208.458 217.562 209.16 217.098L435.764 86.3659C436.02 86.1998 436.314 86.1033 436.618 86.0859C437.262 86.0859 437.36 86.8419 437.36 87.2899V410.2C437.31 411.04 437.066 411.857 436.645 412.586C436.225 413.315 435.64 413.936 434.938 414.4L208.348 545.118C208.091 545.281 207.798 545.377 207.494 545.398Z" fill="#FAFAFA"/>
<path d="M436.507 86.9259C436.527 87.0464 436.527 87.1694 436.507 87.2899V410.2C436.449 410.894 436.238 411.566 435.89 412.169C435.541 412.772 435.064 413.29 434.491 413.686L207.943 544.418C207.835 544.483 207.717 544.53 207.593 544.558C207.582 544.437 207.582 544.315 207.593 544.194V221.298C207.647 220.605 207.854 219.932 208.2 219.329C208.547 218.726 209.023 218.208 209.595 217.812L436.171 87.0659C436.276 87.0039 436.389 86.9568 436.507 86.9259ZM436.619 85.2739C436.173 85.2848 435.738 85.4153 435.359 85.6519L208.755 216.398C207.936 216.938 207.256 217.662 206.77 218.514C206.283 219.365 206.004 220.319 205.955 221.298V544.194C205.955 545.468 206.585 546.21 207.523 546.21C207.968 546.193 208.402 546.063 208.783 545.832L435.401 415.086C436.217 414.543 436.894 413.818 437.38 412.967C437.866 412.116 438.147 411.164 438.201 410.186V87.2899C438.201 86.0019 437.557 85.2739 436.633 85.2739H436.619Z" fill="#E6E6E6"/>
<path d="M225.834 229.53L292.194 191.212V267.834L225.834 306.152V229.53Z" fill="#4087EA"/>
<path d="M282.242 210.364V233.352L280.156 234.514V227.514C280.156 223.622 276.992 222.306 273.086 224.56L245.002 240.8C241.096 243.054 237.918 248.038 237.918 251.916V258.916L235.846 260.162V237.188L282.242 210.364Z" fill="#FAFAFA"/>
<path d="M269.445 268.954C266.029 270.928 263.271 268.856 263.271 264.348V227.472L254.801 232.12V269.276C254.801 273.784 252.001 279.076 248.627 280.994L242.467 284.55V287L275.647 267.834V265.398L269.445 268.954Z" fill="#FAFAFA"/>
<path d="M305.467 187.39C305.467 189.504 307.371 190.19 309.667 188.79L413.995 128.59C415.131 127.936 416.101 127.028 416.83 125.938C417.558 124.848 418.025 123.604 418.195 122.304C418.195 120.19 416.291 119.574 413.995 120.904L309.667 181.104C308.528 181.756 307.557 182.663 306.828 183.753C306.099 184.844 305.633 186.089 305.467 187.39Z" fill="#E0E0E0"/>
<path d="M305.467 210.364C305.467 212.492 307.371 213.164 309.667 211.764L413.995 151.564C415.131 150.91 416.101 150.002 416.83 148.912C417.558 147.822 418.025 146.578 418.195 145.278C418.195 143.164 416.291 142.478 413.995 143.878L309.667 204.078C308.528 204.73 307.557 205.637 306.828 206.727C306.099 207.818 305.633 209.063 305.467 210.364Z" fill="#E0E0E0"/>
<path d="M305.467 233.352C305.467 235.48 307.371 236.152 309.667 234.752L413.995 174.552C415.131 173.898 416.101 172.99 416.83 171.9C417.558 170.81 418.025 169.566 418.195 168.266C418.195 166.152 416.291 165.466 413.995 166.866L309.667 227.066C308.528 227.718 307.557 228.625 306.828 229.715C306.099 230.806 305.633 232.051 305.467 233.352Z" fill="#E0E0E0"/>
<path d="M305.467 256.34C305.467 258.454 307.371 259.14 309.667 257.74L413.995 197.54C415.131 196.886 416.101 195.978 416.83 194.888C417.558 193.798 418.025 192.554 418.195 191.254C418.195 189.14 416.291 188.524 413.995 189.854L309.667 250.054C308.528 250.706 307.557 251.612 306.828 252.703C306.099 253.794 305.633 255.039 305.467 256.34Z" fill="#E0E0E0"/>
<path d="M225.834 325.318C225.834 327.432 227.738 328.048 230.034 326.718L413.994 220.598C415.13 219.944 416.1 219.036 416.829 217.946C417.557 216.856 418.024 215.612 418.194 214.312C418.194 212.198 416.29 211.582 413.994 212.912L230.034 319.046C228.899 319.699 227.93 320.604 227.202 321.692C226.474 322.779 226.006 324.02 225.834 325.318Z" fill="#E0E0E0"/>
<path d="M225.834 348.306C225.834 350.42 227.738 351.106 230.034 349.706L414.036 243.6C415.172 242.946 416.142 242.038 416.871 240.948C417.599 239.858 418.066 238.614 418.236 237.314C418.236 235.2 416.332 234.584 414.036 235.914L230.076 342.02C228.932 342.669 227.954 343.575 227.218 344.665C226.482 345.756 226.008 347.002 225.834 348.306Z" fill="#E0E0E0"/>
<path d="M225.834 371.294C225.834 373.408 227.738 374.094 230.034 372.694L413.994 266.574C415.13 265.92 416.1 265.012 416.829 263.922C417.557 262.832 418.024 261.588 418.194 260.288C418.194 258.174 416.29 257.488 413.994 258.888L230.034 365.022C228.899 365.675 227.93 366.58 227.202 367.668C226.474 368.756 226.006 369.996 225.834 371.294Z" fill="#E0E0E0"/>
<path d="M225.834 394.268C225.834 396.382 227.738 397.068 230.034 395.668L413.994 289.534C415.131 288.884 416.101 287.979 416.83 286.891C417.559 285.803 418.025 284.561 418.194 283.262C418.194 281.134 416.29 280.462 413.994 281.862L230.034 387.996C228.897 388.646 227.927 389.551 227.198 390.639C226.469 391.727 226.003 392.969 225.834 394.268Z" fill="#E0E0E0"/>
<path d="M225.834 417.2C225.834 419.314 227.738 419.93 230.034 418.6L413.994 312.466C415.13 311.812 416.1 310.904 416.829 309.814C417.557 308.724 418.024 307.48 418.194 306.18C418.194 304.066 416.29 303.45 413.994 304.78L230.034 410.9C228.896 411.556 227.925 412.465 227.196 413.558C226.468 414.651 226.002 415.897 225.834 417.2Z" fill="#E0E0E0"/>
<path d="M225.834 440.244C225.834 442.358 227.738 443.044 230.034 441.644L413.994 335.524C415.13 334.87 416.1 333.962 416.829 332.872C417.557 331.782 418.024 330.538 418.194 329.238C418.194 327.124 416.29 326.438 413.994 327.838L230.076 434C228.937 434.645 227.962 435.544 227.226 436.627C226.491 437.71 226.014 438.947 225.834 440.244Z" fill="#E0E0E0"/>
<path d="M225.834 463.218C225.834 465.332 227.738 466.018 230.034 464.618L413.994 358.484C415.131 357.833 416.101 356.929 416.83 355.841C417.559 354.753 418.025 353.511 418.194 352.212C418.194 350.084 416.29 349.412 413.994 350.812L230.034 456.946C228.897 457.596 227.927 458.501 227.198 459.589C226.469 460.677 226.003 461.919 225.834 463.218Z" fill="#E0E0E0"/>
<path d="M225.834 486.206C225.834 488.32 227.738 488.936 230.034 487.606L413.994 381.472C415.13 380.818 416.1 379.91 416.829 378.82C417.557 377.73 418.024 376.486 418.194 375.186C418.194 373.072 416.29 372.386 413.994 373.786L230.034 479.906C228.896 480.562 227.925 481.471 227.196 482.564C226.468 483.657 226.002 484.903 225.834 486.206Z" fill="#E0E0E0"/>
<path d="M225.834 509.194C225.834 511.308 227.738 511.994 230.034 510.594L413.994 404.474C415.13 403.82 416.1 402.912 416.829 401.822C417.557 400.732 418.024 399.488 418.194 398.188C418.194 396.074 416.29 395.458 413.994 396.788L230.034 502.922C228.899 503.575 227.93 504.48 227.202 505.568C226.474 506.655 226.006 507.896 225.834 509.194Z" fill="#E0E0E0"/>
<path d="M509.139 343.644C509.192 335.487 511.519 327.507 515.859 320.6V307.594C515.917 306.931 515.814 306.263 515.558 305.649C515.302 305.035 514.901 304.491 514.389 304.066C514.261 303.978 514.125 303.903 513.983 303.842L471.801 279.44C471.163 279.162 470.463 279.055 469.771 279.128C469.079 279.202 468.418 279.454 467.853 279.86L434.603 299.054C433 300.16 431.67 301.618 430.717 303.317C429.763 305.015 429.211 306.909 429.101 308.854C428.723 318.374 425.615 336 408.801 345.702C391.987 355.404 388.837 341.194 388.487 332.122C388.347 328.51 386.121 327.054 382.999 328.86L349.735 348.054C348.098 349.134 346.739 350.584 345.766 352.286C344.793 353.988 344.234 355.896 344.135 357.854V370.86C344.135 370.86 350.855 372.736 350.855 386.148C350.855 399.56 340.467 423.878 340.467 457.632C340.467 474.53 345.829 488.642 357.085 495.124L399.351 519.512C410.551 526.12 427.715 525.112 451.333 511.42C498.345 484.274 519.709 436.926 519.709 403.186C519.709 369.446 509.139 357 509.139 343.644Z" fill="#4087EA"/>
<path d="M467.713 279.818L434.463 299.012C432.859 300.117 431.529 301.574 430.575 303.273C429.621 304.972 429.069 306.867 428.961 308.812C428.611 317.59 425.951 333.242 412.371 343.224L386.793 328.454L386.653 328.384C386.04 328.11 385.365 328.006 384.697 328.082C384.03 328.158 383.395 328.413 382.859 328.818L349.595 348.012C349.132 348.282 348.696 348.596 348.293 348.95C347.211 349.878 346.297 350.987 345.591 352.226C344.579 353.924 344.011 355.85 343.939 357.826V370.832L345.773 371.896C347.789 373.52 350.659 377.356 350.659 386.106C350.659 399.518 340.271 423.906 340.271 457.59C340.271 474.488 345.633 488.628 356.889 495.11L399.001 519.4C387.955 512.834 382.705 498.834 382.705 482.09C382.705 448.336 393.079 424.004 393.079 410.592C393.079 397.18 386.359 395.318 386.359 395.318V382.312C386.467 380.355 387.029 378.451 388.001 376.75C388.973 375.049 390.328 373.597 391.959 372.512L425.223 353.318C425.743 352.931 426.351 352.682 426.993 352.594C427.634 352.506 428.287 352.582 428.891 352.814H429.031C429.599 353.236 430.051 353.795 430.344 354.439C430.638 355.083 430.764 355.79 430.711 356.496C431.047 365.582 434.099 379.862 451.025 370.09C467.951 360.318 470.947 342.762 471.339 333.242C471.444 331.297 471.992 329.403 472.944 327.704C473.895 326.005 475.224 324.547 476.827 323.442L510.077 304.248C510.621 303.861 511.251 303.613 511.913 303.528C512.575 303.443 513.247 303.522 513.871 303.758L471.801 279.44C471.149 279.131 470.425 279.003 469.706 279.07C468.987 279.136 468.299 279.395 467.713 279.818Z" fill="#4087EA"/>
<path opacity="0.1" d="M345.801 371.882L386.401 395.304V382.298C386.465 380.319 387.038 378.39 388.067 376.698L345.591 352.24C344.577 353.937 344.009 355.864 343.939 357.84V370.846L345.801 371.882Z" fill="black"/>
<path opacity="0.4" d="M412.372 343.224L386.794 328.454L386.654 328.384C386.04 328.11 385.365 328.006 384.697 328.082C384.03 328.159 383.395 328.413 382.86 328.818L349.596 348.012C349.132 348.282 348.696 348.596 348.294 348.95C347.211 349.878 346.297 350.987 345.592 352.226L388.082 376.754C389.032 375.037 390.406 373.591 392.072 372.554L425.336 353.36C425.855 352.973 426.464 352.724 427.105 352.636C427.746 352.548 428.4 352.624 429.004 352.856L412.372 343.224Z" fill="white"/>
<path opacity="0.4" d="M513.982 303.8L471.8 279.44C471.155 279.142 470.442 279.02 469.733 279.086C469.025 279.152 468.347 279.405 467.768 279.818L434.518 299.012C432.88 300.044 431.547 301.494 430.654 303.212L473.13 327.726C474.023 326.008 475.356 324.558 476.994 323.526L510.244 304.332C510.778 303.947 511.397 303.698 512.048 303.605C512.699 303.512 513.363 303.579 513.982 303.8Z" fill="white"/>
<path opacity="0.1" d="M473.075 327.74C472.122 329.463 471.562 331.375 471.437 333.34C471.059 342.86 467.937 360.486 451.137 370.188C434.337 379.89 431.159 365.68 430.823 356.594C430.876 355.888 430.75 355.181 430.456 354.537C430.162 353.893 429.711 353.334 429.143 352.912H429.003L412.371 343.308C425.951 333.326 428.611 317.674 428.961 308.896C429.082 306.93 429.641 305.017 430.599 303.296L473.075 327.74Z" fill="black"/>
<path opacity="0.2" d="M399.001 519.4L356.833 495.082C345.633 488.6 340.215 474.46 340.215 457.562C340.215 423.822 350.603 399.49 350.603 386.078C350.603 377.398 347.803 373.562 345.773 371.896L386.373 395.318C386.373 395.318 393.093 397.194 393.093 410.592C393.093 423.99 382.719 448.392 382.719 482.09C382.761 498.848 388.011 512.848 399.001 519.4Z" fill="black"/>
<path d="M460.783 461.636L442.583 472.136L445.383 439.222C443.199 438.074 441.812 435.246 441.812 431.186C441.812 423.934 446.222 415.52 451.613 412.37C457.002 409.22 461.413 412.566 461.413 419.818C461.3 424.113 460.075 428.305 457.857 431.984L460.783 461.636Z" fill="#2C487D"/>
<path d="M460.782 461.636L444.304 452.116L442.582 472.136L460.782 461.636Z" fill="#263A60"/>
<path d="M451.683 412.37C448.127 414.428 445.019 418.74 443.283 423.57L457.955 432.04C460.173 428.361 461.399 424.169 461.511 419.874C461.525 412.566 457.115 409.234 451.683 412.37Z" fill="#263A60"/>
<path d="M472.249 221.018C463.247 215.824 451.949 216.412 441.211 222.6L401.549 245.504C384.357 255.43 371.393 277.886 371.393 297.724V351.274C371.393 353.486 372.877 355.712 375.803 357.406C379.093 359.076 382.731 359.946 386.422 359.946C390.112 359.946 393.75 359.076 397.041 357.406C399.967 355.712 401.451 353.486 401.451 351.274V297.724C401.451 288.596 408.661 276.108 416.571 271.544L456.233 248.64H456.331V302.288C456.331 304.514 457.815 306.726 460.741 308.42C464.031 310.09 467.669 310.96 471.36 310.96C475.05 310.96 478.688 310.09 481.979 308.42C484.905 306.726 486.389 304.514 486.389 302.288V248.696C486.389 236.292 481.237 226.212 472.249 221.018Z" fill="#263A60"/>
<path d="M456.4 248.696V302.232C456.4 304.458 457.884 306.67 460.81 308.364C462.201 309.143 463.689 309.736 465.234 310.128V243.488L456.4 248.584V248.696Z" fill="#182846"/>
<path d="M635.909 304.822C633.585 304.15 631.709 302.834 628.363 302.162C626.033 301.873 623.809 301.022 621.881 299.684C619.361 297.99 614.419 290.71 610.513 283.458C606.428 275.212 603.777 266.33 602.673 257.194C601.763 246.176 599.215 231.434 598.557 224.994C597.493 214.83 594.469 209.594 582.723 210.308C582.723 210.308 585.873 213.892 584.963 223.076C584.053 232.26 586.699 248.276 588.687 260.708C589.653 266.728 592.803 274.988 598.697 286.02C602.799 293.72 606.523 300.216 612.249 306.796C613.803 308.588 614.517 310.31 617.093 314.09C618.059 315.715 619.268 317.183 620.677 318.444C622.495 319.919 624.518 321.121 626.683 322.014C629.419 323.158 632.413 323.54 635.349 323.12C636.943 322.913 638.467 322.338 639.801 321.44C641.146 320.5 642.109 319.109 642.517 317.52C642.6 317.203 642.6 316.87 642.517 316.554C642.349 315.98 641.775 315.644 641.257 315.35C638.167 313.929 635.153 312.35 632.227 310.618C629.931 309.036 628.531 307.608 629.063 307.468C629.595 307.328 630.897 308.35 633.263 308.658C635.629 308.966 638.009 307.86 638.065 306.558C638.121 305.256 638.233 305.494 635.909 304.822Z" fill="#9A4A4D"/>
<path d="M581.924 209.678C586.124 209.398 595.168 208.278 597.884 216.804C600.6 225.33 603.736 257.194 604.576 261.24C605.966 267.37 607.838 273.381 610.176 279.216C612.64 285.264 619.794 297.598 619.794 297.598L610.876 305.2C610.876 305.2 598.388 290.71 591.976 275.324C585.564 259.938 583.576 240.072 583.254 228.242C583.165 222.034 582.721 215.835 581.924 209.678Z" fill="#4087EA"/>
<path opacity="0.1" d="M581.924 209.678C586.124 209.398 595.168 208.278 597.884 216.804C600.6 225.33 603.736 257.194 604.576 261.24C605.966 267.37 607.838 273.381 610.176 279.216C612.64 285.264 619.794 297.598 619.794 297.598L610.876 305.2C610.876 305.2 598.388 290.71 591.976 275.324C585.564 259.938 583.576 240.072 583.254 228.242C583.165 222.034 582.721 215.835 581.924 209.678Z" fill="black"/>
<path d="M589.891 469.21L602.351 469.644L602.981 447.034L590.507 446.6L589.891 469.21Z" fill="#9A4A4D"/>
<path d="M543.227 484.722H555.701V463.358H543.227V484.722Z" fill="#9A4A4D"/>
<path d="M555.701 478.576V476.784C556.891 477.302 559.663 487.886 564.619 492.408C568.553 495.992 573.915 500.136 575.287 504.14C576.659 508.144 567.811 510.608 564.087 509.95C559.817 509.194 552.411 506.184 550.549 503.398C548.687 500.612 547.819 496.496 546.349 494.452C544.879 492.408 541.365 490.126 540.539 487.76C540.091 486.458 540.623 483.56 541.253 481.208C541.883 478.856 542.471 476.574 543.213 476.784V478.184C544.991 479.582 547.195 480.329 549.457 480.298C551.277 480.326 555.715 479.962 555.701 478.576Z" fill="#182846"/>
<path d="M602.489 465.794C603.133 465.794 603.665 466.732 605.093 468.272C607.223 470.433 609.703 472.218 612.429 473.55C617.105 475.902 626.191 479.5 630.293 481.348C632.869 482.496 632.743 485.548 630.097 487.368C627.451 489.188 621.025 490.406 613.297 488.684C609.097 487.746 603.651 483.882 600.193 484.092C596.735 484.302 590.281 484.246 587.733 482.482C585.185 480.718 586.193 476.98 586.921 473.746C587.705 470.232 588.825 464.842 590.001 465.08V466.186C591.499 468.468 599.143 469.392 602.433 467.712L602.489 465.794Z" fill="#182846"/>
<path d="M548.549 286.398C538.749 306.474 548.423 382.186 548.423 382.186C548.073 385.462 544.153 391.86 542.417 406.322C540.373 423.402 542.137 467.306 542.137 467.306C542.137 467.306 550.285 470.918 556.921 467.922C556.921 467.922 568.639 402.766 571.187 385.798C573.399 370.986 577.753 338.394 577.753 338.394L586.881 386.078C585.27 390.829 584.071 395.71 583.297 400.666C582.093 410.648 589.261 457.24 589.261 457.24C593.694 459.1 598.62 459.43 603.261 458.178C603.261 458.178 607.461 396.34 608.693 384.3C610.681 364.084 604.815 300.846 602.743 287.616L548.549 286.398Z" fill="#182846"/>
<path d="M561.596 210.126C558.446 210.49 551.166 211.764 551.166 211.764C546.336 213.528 546.854 216.496 545.566 221.13C543.914 226.87 544.992 237.118 546.966 242.76L556.318 269.794C552.818 278.194 549.458 280.686 547.778 287.112C563.052 298.438 595.882 297.766 602.938 288.218C603.232 286.188 600.544 262.934 599.424 252.588C604.184 243.95 606.004 237.762 603.512 231.14C599.242 219.814 587.538 209.23 581.98 209.678L561.596 210.126Z" fill="#4087EA"/>
<path d="M571.087 200.396H566.481C560.039 200.396 553.861 197.837 549.306 193.282C544.751 188.726 542.191 182.548 542.191 176.106C542.191 169.63 544.764 163.42 549.343 158.841C553.922 154.262 560.132 151.69 566.607 151.69H570.961C577.437 151.69 583.647 154.262 588.226 158.841C592.805 163.42 595.377 169.63 595.377 176.106C595.377 182.548 592.818 188.726 588.263 193.282C583.708 197.837 577.53 200.396 571.087 200.396Z" fill="#182846"/>
<path d="M529.746 211.568C531.713 211.57 533.66 211.184 535.478 210.433C537.295 209.682 538.946 208.579 540.338 207.19C541.729 205.8 542.833 204.149 543.586 202.333C544.339 200.516 544.726 198.569 544.726 196.602V164.528C540.753 164.528 536.943 166.106 534.134 168.916C531.324 171.725 529.746 175.535 529.746 179.508V211.568Z" fill="#182846"/>
<path d="M587.427 160.552C590.353 162.288 593.979 169.666 593.615 185.122C593.321 198.212 589.065 201.446 586.937 202.384C584.809 203.322 580.693 202.748 576.689 202.076V210L575.891 219.226L560.239 212.072V193.018C560.239 193.018 557.537 196.616 553.127 193.69C548.717 190.764 548.549 183.498 551.111 180.894C553.673 178.29 559.217 179.116 560.239 182.714C560.239 182.714 562.031 178.948 571.187 175.812C580.833 172.508 584.039 166.712 587.427 160.552Z" fill="#B16668"/>
<path d="M577.529 181.832C577.531 182.156 577.438 182.473 577.262 182.744C577.085 183.015 576.833 183.229 576.536 183.358C576.24 183.488 575.911 183.527 575.593 183.471C575.274 183.416 574.978 183.267 574.743 183.045C574.507 182.823 574.343 182.537 574.268 182.222C574.194 181.907 574.214 181.577 574.326 181.273C574.438 180.969 574.637 180.705 574.897 180.513C575.158 180.321 575.469 180.21 575.793 180.194C576.24 180.183 576.673 180.348 576.998 180.655C577.323 180.962 577.514 181.385 577.529 181.832Z" fill="#182846"/>
<path d="M579.433 192.934L583.255 194.152C583.191 194.411 583.074 194.653 582.913 194.865C582.752 195.077 582.549 195.254 582.317 195.385C582.085 195.516 581.829 195.599 581.564 195.627C581.299 195.656 581.032 195.63 580.777 195.552C580.255 195.379 579.821 195.008 579.57 194.518C579.318 194.028 579.269 193.46 579.433 192.934Z" fill="#9A4A4D"/>
<path d="M591.023 176.764L587.691 174.454C587.831 174.225 588.017 174.028 588.237 173.875C588.457 173.721 588.706 173.615 588.969 173.562C589.232 173.51 589.503 173.512 589.765 173.569C590.027 173.626 590.274 173.737 590.491 173.894C590.935 174.21 591.238 174.686 591.338 175.221C591.437 175.757 591.324 176.31 591.023 176.764Z" fill="#182846"/>
<path d="M590.268 180.6C590.297 180.826 590.279 181.055 590.215 181.273C590.151 181.492 590.043 181.695 589.897 181.87C589.751 182.044 589.571 182.187 589.367 182.288C589.163 182.39 588.941 182.449 588.713 182.46C588.486 182.472 588.259 182.436 588.046 182.356C587.833 182.276 587.639 182.152 587.476 181.993C587.313 181.834 587.185 181.643 587.099 181.433C587.013 181.222 586.972 180.995 586.978 180.768C586.961 180.548 586.987 180.327 587.056 180.117C587.125 179.907 587.235 179.714 587.38 179.547C587.525 179.38 587.701 179.244 587.899 179.146C588.096 179.048 588.311 178.99 588.532 178.976C588.976 178.964 589.408 179.128 589.732 179.432C590.057 179.736 590.249 180.156 590.268 180.6Z" fill="#182846"/>
<path d="M582.219 179.69L582.485 189.602L587.693 187.992L582.219 179.69Z" fill="#9A4A4D"/>
<path d="M576.689 202.076C572.489 201.53 563.823 199.038 562.465 195.608C563.005 197.345 564.066 198.875 565.503 199.99C568.093 202.202 576.703 204.708 576.703 204.708L576.689 202.076Z" fill="#9A4A4D"/>
<path d="M577.752 338.394L582.512 315.28C582.512 315.28 592.452 313.614 597.73 309.848C594.732 313.48 590.852 316.281 586.46 317.982L581 339.794L582.4 362.474L577.752 338.394Z" fill="black"/>
<path d="M559.916 167.608C559.916 167.608 578.732 180.418 591.808 174.02C604.884 167.622 587.944 158.62 587.944 158.62L559.916 167.608Z" fill="#263A60"/>
<path d="M587.804 140.756C576.604 137.62 564.466 135.604 550.354 140.756C536.242 145.908 533.162 154.616 533.162 154.616C533.162 154.616 547.526 160.3 559.216 158.382C570.906 156.464 587.804 140.756 587.804 140.756Z" fill="#4087EA"/>
<path opacity="0.4" d="M587.804 140.756C576.604 137.62 564.466 135.604 550.354 140.756C536.242 145.908 533.162 154.616 533.162 154.616C533.162 154.616 547.526 160.3 559.216 158.382C570.906 156.464 587.804 140.756 587.804 140.756Z" fill="white"/>
<path d="M541.016 159.894C541.016 159.894 533.834 156.478 533.162 154.588C538.749 155.224 544.405 154.859 549.864 153.51C559.202 151.256 568.918 142.184 579.432 140.588C589.946 138.992 594.426 144.354 594.426 144.354C594.426 144.354 592.102 151.83 588.462 156.366C588.462 156.366 585.214 163.464 572.838 165.102C560.462 166.74 541.016 159.894 541.016 159.894Z" fill="#4087EA"/>
<path d="M541.016 159.894L541.604 161.938C541.827 162.63 542.191 163.268 542.673 163.812C543.155 164.357 543.744 164.796 544.404 165.102C553.536 168.738 563.512 169.709 573.174 167.902C581.868 166.292 585.774 164.066 587.356 162.386C587.921 161.889 588.348 161.253 588.593 160.541C588.838 159.829 588.895 159.066 588.756 158.326L588.462 156.338C588.462 156.338 585.774 160.09 571.564 162.876C557.354 165.662 541.016 159.894 541.016 159.894Z" fill="#2C487D"/>
<path d="M580.523 144.774C580.411 146.972 578.101 151.004 575.035 149.1V154.7C575.035 158.13 577.051 159.32 580.313 158.634C581.936 158.327 583.398 157.456 584.441 156.175C585.484 154.894 586.04 153.285 586.011 151.634C586.011 150.584 586.011 146.874 586.011 146.874C583.603 150.122 580.481 145.6 580.523 144.774Z" fill="#FAFAFA"/>
<path d="M560.238 186.102V178.668H563.136V183.204C563.136 183.973 562.831 184.71 562.287 185.253C561.744 185.797 561.007 186.102 560.238 186.102Z" fill="#182846"/>
<path d="M575.89 219.17L560.238 207.76V204.96C560.238 204.96 556.948 205.52 556.15 211.792C558.599 217.203 562.788 221.638 568.05 224.392L571.284 218.666L575.89 219.17Z" fill="#4087EA"/>
<path opacity="0.1" d="M575.89 219.17L560.238 207.76V204.96C560.238 204.96 556.948 205.52 556.15 211.792C558.599 217.203 562.788 221.638 568.05 224.392L571.284 218.666L575.89 219.17Z" fill="black"/>
<path d="M576.689 205.604C578.722 205.932 580.552 207.03 581.799 208.67C583.339 211.204 582.989 220.864 582.989 220.864L578.887 216.188L575.891 219.17C576.227 215.95 576.689 209.944 576.689 209.944V205.604Z" fill="#4087EA"/>
<path opacity="0.1" d="M576.689 205.604C578.722 205.932 580.552 207.03 581.799 208.67C583.339 211.204 582.989 220.864 582.989 220.864L578.887 216.188L575.891 219.17C576.227 215.95 576.689 209.944 576.689 209.944V205.604Z" fill="black"/>
<path d="M563.808 320.32C561.862 318.92 560.588 316.988 557.676 315.182C555.59 314.101 553.802 312.524 552.468 310.59C550.704 308.112 548.618 299.572 547.498 291.41C546.168 281.778 547.638 268.702 548.324 263.298C549.841 252.921 551.945 242.637 554.624 232.498C554.736 232.036 552.216 217.952 549.444 215.698C549.444 215.698 546.266 215.25 542.192 223.538C538.118 231.826 536.116 250.138 534.996 262.444C534.072 271.55 534.241 280.734 535.5 289.8C536.648 298.452 537.866 305.83 540.932 314.006C541.758 316.232 541.828 318.094 542.92 322.532C543.264 324.389 543.877 326.186 544.74 327.866C545.934 329.88 547.41 331.714 549.122 333.312C551.29 335.34 553.964 336.748 556.864 337.386C558.447 337.764 560.097 337.764 561.68 337.386C563.275 336.949 564.663 335.962 565.6 334.6C565.801 334.335 565.927 334.02 565.964 333.69C565.926 333.093 565.654 332.535 565.208 332.136C562.816 329.725 560.55 327.192 558.418 324.548C556.808 322.252 555.996 320.418 556.556 320.488C557.116 320.558 557.956 321.958 560.112 323.092C562.268 324.226 564.844 324.002 565.362 322.798C565.88 321.594 565.754 321.748 563.808 320.32Z" fill="#9A4A4D"/>
<path d="M550.943 211.792C550.943 211.792 557.943 225.918 554.821 238.392C551.951 249.788 550.327 264.376 549.711 268.464C548.849 274.688 548.475 280.97 548.591 287.252C548.787 293.776 551.181 307.832 551.181 307.832L540.219 311.892C540.219 311.892 533.583 293.944 532.953 277.284C532.323 260.624 533.933 240.884 536.635 229.32C537.825 224.336 539.225 213.794 550.943 211.792Z" fill="#4087EA"/>
<path opacity="0.1" d="M550.943 211.792C550.943 211.792 557.943 225.918 554.821 238.392C551.951 249.788 550.327 264.376 549.711 268.464C548.849 274.688 548.475 280.97 548.591 287.252C548.787 293.776 551.181 307.832 551.181 307.832L540.219 311.892C540.219 311.892 533.583 293.944 532.953 277.284C532.323 260.624 533.933 240.884 536.635 229.32C537.825 224.336 539.225 213.794 550.943 211.792Z" fill="black"/>
<path d="M562.213 235.83C562.213 235.83 572.657 235.396 576.955 233.73V231.644C572.601 233.31 562.213 233.8 562.213 233.8V235.83Z" fill="#263A60"/>
<path d="M539.393 228.2C539.393 228.2 542.683 227.052 547.219 229.6L547.331 229.138C547.381 228.898 547.351 228.649 547.244 228.429C547.138 228.208 546.962 228.029 546.743 227.92C544.792 226.894 542.574 226.489 540.387 226.758C540.18 226.794 539.989 226.89 539.837 227.035C539.685 227.179 539.579 227.365 539.533 227.57L539.393 228.2Z" fill="#263A60"/>
<path d="M545.198 234.593C545.743 232.148 544.698 229.834 542.864 229.426C541.03 229.017 539.102 230.668 538.557 233.113C538.012 235.559 539.057 237.872 540.891 238.281C542.725 238.689 544.653 237.038 545.198 234.593Z" fill="#263A60"/>
</g>
<defs>
<clipPath id="clip0_2439_3857">
<rect width="700" height="700" fill="white"/>
</clipPath>
</defs>
</svg>
