<svg width="193" height="38" viewBox="0 0 193 38" fill="none" xmlns="http://www.w3.org/2000/svg">
<path d="M47.0986 16.6467H38.9762C38.8052 16.6479 38.6414 16.7241 38.5205 16.8588C38.3995 16.9936 38.3311 17.176 38.3301 17.3665V20.6343C38.3301 20.8252 38.3982 21.0082 38.5193 21.1432C38.6405 21.2782 38.8049 21.354 38.9762 21.354H47.0986C47.2699 21.354 47.4343 21.2782 47.5555 21.1432C47.6766 21.0082 47.7447 20.8252 47.7447 20.6343V17.3665C47.7437 17.176 47.6753 16.9936 47.5543 16.8588C47.4334 16.7241 47.2696 16.6479 47.0986 16.6467Z" fill="#4087EA"/>
<path d="M64.7072 16.9154L61.9786 15.7476C59.9429 14.8624 59.1731 14.3014 59.1731 13.0588C59.1731 11.6126 60.4561 10.798 62.1668 10.798C63.8775 10.798 65.2246 11.5253 66.3965 12.9965C66.498 13.1173 66.6435 13.1955 66.8027 13.2149C66.962 13.2342 67.1228 13.1932 67.2518 13.1004L69.6425 11.3009C69.7646 11.2106 69.8485 11.0801 69.8784 10.9339C69.9084 10.7877 69.8823 10.6359 69.805 10.5071C68.2611 8.09259 65.6096 6.55908 62.1497 6.55908C57.6035 6.55908 54.1864 9.16895 54.1864 13.1669C54.1864 16.2796 56.3247 18.291 60.007 19.8827L62.5731 21.0172C64.8697 22.0396 65.6309 22.5383 65.6309 23.9263C65.6309 25.518 64.3479 26.5029 62.2095 26.5029C59.7975 26.5029 58.1595 25.4016 56.6925 23.5939C56.591 23.4673 56.4428 23.3839 56.2792 23.3615C56.1157 23.339 55.9495 23.3791 55.8158 23.4733L53.3909 25.2479C53.2578 25.3386 53.1663 25.4762 53.136 25.6314C53.1056 25.7866 53.1388 25.9472 53.2284 26.079C54.1897 27.5399 55.5195 28.7375 57.0915 29.558C58.6635 30.3785 60.4254 30.7947 62.2095 30.7668C67.0081 30.7668 70.6091 28.0406 70.6091 23.7642C70.6347 20.5933 68.7401 18.6484 64.7072 16.9154Z" fill="#4087EA"/>
<path d="M83.1759 12.6128C81.9632 12.5973 80.7597 12.8215 79.6362 13.2721C78.5128 13.7228 77.4921 14.3908 76.6346 15.2367C75.777 16.0827 75.0998 17.0895 74.643 18.1978C74.1862 19.306 73.9589 20.4933 73.9747 21.6896C73.8659 26.7107 78.157 30.886 83.5941 30.7663C85.9962 30.77 88.3291 29.9733 90.2148 28.5054C90.3346 28.413 90.4158 28.2804 90.4428 28.1327C90.4698 27.9851 90.4407 27.8329 90.3612 27.705L89.0019 25.5059C88.9596 25.4355 88.9032 25.3742 88.8362 25.3258C88.7691 25.2774 88.6929 25.2429 88.6119 25.2244C88.531 25.2059 88.4472 25.2038 88.3654 25.2181C88.2836 25.2325 88.2056 25.263 88.1362 25.3079C86.8461 26.1966 85.3139 26.6798 83.7405 26.6942C81.5406 26.6942 79.8885 25.7865 79.1106 24.1362C79.0646 24.0434 79.0433 23.9406 79.0485 23.8375C79.0537 23.7343 79.0854 23.6341 79.1406 23.5463C79.1957 23.4585 79.2725 23.386 79.3639 23.3355C79.4552 23.2849 79.558 23.2581 79.6627 23.2574H90.6414C90.7814 23.2571 90.9172 23.2101 91.0265 23.1239C91.1359 23.0377 91.2125 22.9175 91.2437 22.7829C91.3855 22.0833 91.4569 21.3716 91.457 20.6581C91.457 16.161 88.0525 12.6128 83.1759 12.6128ZM86.1035 19.9485H79.6543C79.5541 19.9494 79.4553 19.926 79.3664 19.8803C79.2776 19.8346 79.2015 19.7681 79.1449 19.6866C79.0883 19.605 79.0529 19.511 79.0418 19.4128C79.0307 19.3146 79.0443 19.2152 79.0813 19.1233C79.3827 18.3376 79.9187 17.6606 80.6184 17.1818C81.3181 16.7029 82.1486 16.4448 83.0002 16.4416C84.8572 16.4416 86.3838 17.5143 86.7309 19.243C86.7471 19.3304 86.7433 19.4202 86.7199 19.506C86.6965 19.5918 86.654 19.6713 86.5955 19.7389C86.5371 19.8064 86.4641 19.8603 86.3819 19.8965C86.2997 19.9328 86.2103 19.9505 86.1203 19.9485H86.1035Z" fill="#4087EA"/>
<path d="M109.651 24.2823C109.526 24.1898 109.369 24.1485 109.214 24.1669C109.059 24.1853 108.917 24.2621 108.818 24.3812C107.773 25.6706 106.578 26.4038 104.963 26.4038C102.274 26.4038 100.363 24.4059 100.363 21.6377C100.363 18.9395 102.274 16.9045 104.963 16.9045C106.603 16.9045 107.802 17.6624 108.818 18.9642C108.916 19.0848 109.058 19.163 109.213 19.1822C109.369 19.2014 109.525 19.1602 109.651 19.0672L112.057 17.2217C112.177 17.1306 112.259 16.9984 112.287 16.8507C112.315 16.703 112.286 16.5504 112.206 16.4225C110.645 14.0415 108.106 12.6121 104.88 12.6121C99.6725 12.6121 95.493 16.5749 95.493 21.6541C95.4223 26.6675 99.7391 30.8693 104.88 30.7663C106.335 30.802 107.775 30.465 109.061 29.788C110.346 29.1111 111.432 28.117 112.215 26.9023C112.293 26.7748 112.321 26.6231 112.294 26.4764C112.266 26.3296 112.185 26.1982 112.065 26.1072L109.651 24.2823Z" fill="#4087EA"/>
<path d="M131.849 13.2839H128.313C128.233 13.2834 128.153 13.2984 128.078 13.3281C128.004 13.3578 127.936 13.4016 127.878 13.4571C127.821 13.5125 127.776 13.5783 127.745 13.6509C127.714 13.7235 127.698 13.8013 127.698 13.88V23.2059C127.698 24.0565 127.351 24.8723 126.734 25.4738C126.117 26.0753 125.28 26.4132 124.408 26.4132C123.535 26.4132 122.698 26.0753 122.081 25.4738C121.464 24.8723 121.117 24.0565 121.117 23.2059V13.88C121.117 13.8013 121.101 13.7235 121.07 13.6509C121.039 13.5783 120.994 13.5125 120.937 13.4571C120.88 13.4016 120.812 13.3578 120.737 13.3281C120.662 13.2984 120.582 13.2834 120.502 13.2839H116.949C116.787 13.2839 116.632 13.3467 116.517 13.4585C116.402 13.5703 116.338 13.7219 116.338 13.88V22.8329C116.338 27.5931 119.77 30.768 124.445 30.768C129.021 30.768 132.477 27.5931 132.477 22.8329V13.88C132.477 13.8003 132.461 13.7214 132.429 13.648C132.397 13.5747 132.351 13.5082 132.292 13.4526C132.234 13.3971 132.164 13.3535 132.088 13.3245C132.012 13.2956 131.931 13.2817 131.849 13.2839Z" fill="#4087EA"/>
<path d="M147.45 12.7021C147.095 12.6373 146.735 12.6073 146.374 12.6127C144.985 12.5987 143.633 13.0756 142.546 13.9631C142.456 14.0344 142.348 14.0781 142.234 14.0893C142.121 14.1004 142.006 14.0784 141.904 14.0259C141.802 13.9735 141.717 13.8925 141.658 13.7925C141.599 13.6925 141.568 13.5774 141.57 13.4604C141.57 13.2943 141.506 13.135 141.391 13.0176C141.276 12.9002 141.121 12.8342 140.959 12.8342H137.796C137.716 12.8342 137.637 12.8504 137.563 12.8819C137.489 12.9133 137.421 12.9595 137.364 13.0176C137.308 13.0758 137.263 13.1448 137.232 13.2208C137.201 13.2967 137.186 13.3782 137.186 13.4604V30.1426C137.187 30.3084 137.251 30.467 137.366 30.5842C137.48 30.7014 137.635 30.7677 137.796 30.7689H141.362C141.442 30.7689 141.522 30.7527 141.596 30.7212C141.67 30.6897 141.737 30.6436 141.794 30.5854C141.851 30.5273 141.896 30.4583 141.926 30.3823C141.957 30.3063 141.973 30.2249 141.973 30.1426V21.81C141.973 18.7343 143.81 17.124 146.673 17.124H147.334C147.496 17.124 147.651 17.058 147.766 16.9406C147.88 16.8232 147.945 16.6639 147.945 16.4978V13.3326C147.949 13.1843 147.902 13.0393 147.811 12.9237C147.721 12.8081 147.593 12.7295 147.45 12.7021Z" fill="#4087EA"/>
<path d="M161.842 12.6128C160.632 12.5978 159.43 12.8224 158.308 13.2732C157.187 13.7241 156.168 14.3921 155.312 15.238C154.455 16.0838 153.779 17.0904 153.323 18.1984C152.866 19.3064 152.639 20.4934 152.654 21.6896C152.55 26.7107 156.831 30.886 162.285 30.7663C164.681 30.7685 167.007 29.9719 168.888 28.5054C169.008 28.4136 169.09 28.2809 169.117 28.133C169.144 27.9851 169.114 27.8326 169.034 27.705L167.677 25.5059C167.635 25.4357 167.579 25.3745 167.512 25.3261C167.446 25.2777 167.37 25.243 167.29 25.2241C167.21 25.2053 167.126 25.2026 167.045 25.2163C166.964 25.23 166.886 25.2597 166.816 25.3038C165.528 26.1966 163.996 26.6815 162.423 26.6942C160.226 26.6942 158.585 25.7865 157.8 24.1362C157.755 24.0426 157.734 23.9394 157.74 23.836C157.746 23.7326 157.779 23.6324 157.835 23.5448C157.891 23.4571 157.968 23.3848 158.06 23.3345C158.151 23.2843 158.254 23.2578 158.359 23.2574H169.314C169.457 23.2576 169.595 23.2094 169.706 23.1207C169.817 23.0321 169.894 22.9084 169.924 22.7705C170.061 22.0745 170.132 21.3673 170.137 20.6581C170.12 16.161 166.704 12.6128 161.842 12.6128ZM164.766 19.9485H158.322C158.222 19.9491 158.123 19.9255 158.034 19.8798C157.945 19.8342 157.869 19.7678 157.813 19.6864C157.756 19.6051 157.72 19.5113 157.708 19.4131C157.696 19.315 157.709 19.2155 157.745 19.1233C158.047 18.3372 158.583 17.6601 159.282 17.1813C159.982 16.7025 160.812 16.4445 161.663 16.4415C163.513 16.4415 165.033 17.5101 165.388 19.2388C165.403 19.326 165.399 19.4153 165.376 19.5007C165.352 19.586 165.31 19.6653 165.253 19.7329C165.195 19.8005 165.123 19.8548 165.042 19.8921C164.96 19.9293 164.872 19.9485 164.783 19.9485H164.766Z" fill="#4087EA"/>
<path d="M189.364 6.55908C189.042 6.56018 188.734 6.68662 188.508 6.9107C188.281 7.13479 188.153 7.43825 188.153 7.7546V13.1698C188.153 13.2835 188.121 13.3949 188.06 13.4915C188 13.5881 187.912 13.666 187.809 13.7163C187.705 13.7666 187.59 13.7873 187.475 13.7762C187.36 13.765 187.25 13.7223 187.159 13.653C185.875 12.8088 184.355 12.3832 182.812 12.4367C177.848 12.4367 174.17 16.3357 174.17 21.6009C174.17 26.8662 177.848 30.7652 182.812 30.7652C184.513 30.8131 186.178 30.2787 187.523 29.2531C187.632 29.1637 187.77 29.115 187.912 29.1156C187.994 29.1151 188.075 29.1305 188.151 29.1611C188.227 29.1917 188.295 29.2367 188.353 29.2937C188.411 29.3507 188.457 29.4184 188.488 29.493C188.519 29.5675 188.535 29.6474 188.534 29.7279C188.535 29.89 188.601 30.0451 188.718 30.1597C188.834 30.2743 188.992 30.3392 189.156 30.3403H192.377C192.542 30.3403 192.7 30.2758 192.817 30.1609C192.934 30.0461 192.999 29.8904 192.999 29.7279V7.7546C192.999 7.43825 192.872 7.13479 192.645 6.9107C192.418 6.68662 192.11 6.56018 191.789 6.55908H189.364ZM183.722 26.4372C181.098 26.4372 179.117 24.5252 179.117 21.5801C179.117 18.7059 181.132 16.7605 183.722 16.7605C186.173 16.7605 188.225 18.4934 188.225 21.6134C188.225 24.7334 186.173 26.4372 183.722 26.4372Z" fill="#4087EA"/>
<path d="M0.577748 5.21438C0.517502 5.21493 0.457626 5.20456 0.400809 5.18376C0.25601 5.13552 0.135401 5.02991 0.065193 4.88988C-0.00501523 4.74984 -0.0191486 4.5867 0.0258646 4.4359C0.33845 3.30379 0.997541 2.30808 1.90352 1.59927C2.80951 0.890461 3.91313 0.50708 5.04759 0.50708C6.18205 0.50708 7.28567 0.890461 8.19165 1.59927C9.09764 2.30808 9.75673 3.30379 10.0693 4.4359C10.1057 4.58434 10.0859 4.74158 10.014 4.87534C9.94216 5.0091 9.82369 5.10921 9.68294 5.15512C9.54219 5.20102 9.38985 5.18923 9.25722 5.12216C9.12458 5.0551 9.02172 4.93786 8.96976 4.79452C8.73232 3.90392 8.22016 3.11871 7.51174 2.55918C6.80333 1.99965 5.93773 1.69669 5.04759 1.69669C4.15745 1.69669 3.29186 1.99965 2.58344 2.55918C1.87502 3.11871 1.36286 3.90392 1.12542 4.79452C1.08823 4.91538 1.01529 5.02101 0.916977 5.09638C0.818659 5.17175 0.699961 5.21304 0.577748 5.21438Z" fill="#4087EA"/>
<path d="M10.0871 13.2837H0V12.5551C0.00330478 11.5008 0.463163 10.4906 1.2791 9.74508C2.09505 8.99958 3.20075 8.57944 4.35466 8.57642H5.73245C6.88636 8.57944 7.99207 8.99958 8.80801 9.74508C9.62395 10.4906 10.0838 11.5008 10.0871 12.5551V13.2837Z" fill="#4087EA"/>
<path d="M31.5814 5.49677V22.9025C31.5814 31.8257 25.189 37.4931 15.7928 37.4931C6.39656 37.4931 0 31.8257 0 22.9025V16.1331H9.92997V22.574C9.92997 26.6738 12.2346 29.3184 15.8052 29.3184C19.3759 29.3184 21.6763 26.6281 21.6763 22.574V5.49677C21.6763 4.17342 22.1994 2.90427 23.1305 1.96852C24.0616 1.03277 25.3245 0.50708 26.6413 0.50708C27.9581 0.50708 29.2209 1.03277 30.1521 1.96852C31.0832 2.90427 31.6063 4.17342 31.6063 5.49677H31.5814Z" fill="#4087EA"/>
<path d="M5.04251 7.23127C5.97101 7.23127 6.7237 6.47858 6.7237 5.55009C6.7237 4.6216 5.97101 3.8689 5.04251 3.8689C4.11402 3.8689 3.36133 4.6216 3.36133 5.55009C3.36133 6.47858 4.11402 7.23127 5.04251 7.23127Z" fill="#4087EA"/>
</svg>
