<svg width="507" height="507" viewBox="0 0 507 507" fill="none" xmlns="http://www.w3.org/2000/svg">
<path d="M329.695 329.021H44.962C31.1472 329.021 18.9928 319.897 15.1364 306.631L15.1364 306.631C14.1017 303.072 16.7715 299.516 20.478 299.516H354.179C357.886 299.516 360.556 303.072 359.521 306.631V306.631C355.665 319.897 343.51 329.021 329.695 329.021Z" fill="#EFF6FF"/>
<path d="M295.907 71.0391H78.7508C52.5758 71.0391 31.3568 92.2581 31.3568 118.433V299.312H343.301V118.433C343.301 92.2581 322.082 71.0391 295.907 71.0391Z" fill="#EFEFEF"/>
<path d="M329.775 285.787L329.775 84.5645L44.8824 84.5645L44.8824 285.787L329.775 285.787Z" fill="#FDFDFD"/>
<path d="M221.575 266.564L187.329 185.62L153.082 266.564C152.086 268.92 149.368 270.025 147.01 269.025C144.654 268.028 143.551 265.309 144.549 262.953L183.062 171.924C183.787 170.21 185.468 169.096 187.329 169.096C189.19 169.096 190.871 170.21 191.596 171.924L230.108 262.953C231.106 265.309 230.003 268.028 227.647 269.025C225.305 270.018 222.577 268.932 221.575 266.564Z" fill="#80DFFF"/>
<path d="M215.41 245.53H159.247C156.688 245.53 154.614 243.456 154.614 240.897C154.614 238.338 156.688 236.264 159.247 236.264H215.41C217.969 236.264 220.043 238.338 220.043 240.897C220.043 243.456 217.969 245.53 215.41 245.53Z" fill="#80DFFF"/>
<path d="M204.499 220.453H170.158C167.6 220.453 165.525 218.378 165.525 215.819C165.525 207.728 177.033 212.648 204.499 211.186C207.057 211.186 209.132 213.261 209.132 215.819C209.132 218.378 207.057 220.453 204.499 220.453Z" fill="#80DFFF"/>
<path d="M187.328 183.986C197.85 183.986 206.379 175.457 206.379 164.935C206.379 154.414 197.85 145.885 187.328 145.885C176.807 145.885 168.278 154.414 168.278 164.935C168.278 175.457 176.807 183.986 187.328 183.986Z" fill="#80DFFF"/>
<path d="M187.328 173.87C192.263 173.87 196.264 169.87 196.264 164.935C196.264 160 192.263 156 187.328 156C182.394 156 178.393 160 178.393 164.935C178.393 169.87 182.394 173.87 187.328 173.87Z" fill="#00BFFF"/>
<path d="M208.959 191.197C207.149 189.389 207.149 186.454 208.959 184.646C220.886 172.718 220.886 153.312 208.959 141.384C197.004 129.429 177.655 129.427 165.698 141.384C153.771 153.312 153.771 172.718 165.698 184.646C167.508 186.454 167.508 189.389 165.698 191.197C163.89 193.007 160.954 193.007 159.146 191.197C143.606 175.658 143.606 150.372 159.146 134.832C174.718 119.256 199.935 119.252 215.511 134.832C231.051 150.372 231.051 175.658 215.511 191.197C213.703 193.007 210.767 193.007 208.959 191.197Z" fill="#00BFFF"/>
<path d="M224.677 206.915C222.868 205.107 222.868 202.173 224.677 200.364C234.654 190.387 240.148 177.122 240.148 163.014C240.148 148.905 234.654 135.642 224.677 125.665C191.221 92.2105 134.509 116.462 134.509 163.014C134.509 177.122 140.003 190.387 149.98 200.364C151.789 202.173 151.789 205.107 149.98 206.915C148.172 208.725 145.236 208.725 143.428 206.915C131.7 195.189 125.242 179.598 125.242 163.014C125.242 107.87 192.349 80.2298 231.229 119.113C242.957 130.839 249.415 146.431 249.415 163.014C249.415 179.598 242.957 195.189 231.229 206.915C229.422 208.725 226.485 208.725 224.677 206.915Z" fill="#00BFFF"/>
<path d="M78.6785 127.222H48.8146C30.0906 127.222 14.9117 112.043 14.9117 93.3189V93.3188C14.9117 74.5948 30.0906 59.416 48.8146 59.416H78.6785C97.4025 59.416 112.581 74.5948 112.581 93.3188V93.3189C112.581 112.043 97.4025 127.222 78.6785 127.222Z" fill="#FF442B"/>
<path d="M43.6241 101.614H33.1975V83.2237C33.1975 80.5986 29.2286 80.5752 29.2286 83.2237V103.015C29.2286 104.437 30.3739 105.582 31.7964 105.582H43.6241C44.7017 105.582 45.6259 104.753 45.6259 103.614C45.6259 102.512 44.7391 101.614 43.6241 101.614Z" fill="#FDFDFD"/>
<path d="M48.4189 83.2237V103.78C48.4189 104.909 49.298 105.749 50.386 105.749C51.4796 105.749 52.3878 104.904 52.3878 103.78V83.2237C52.3878 81.8753 51.3406 81.2133 50.322 81.2473C49.3576 81.2796 48.4189 81.9357 48.4189 83.2237Z" fill="#FDFDFD"/>
<path d="M74.1072 82.5502L66.7135 100.99L59.3143 82.541C58.6622 81.0024 56.8644 80.8884 56.014 81.7828C55.4639 82.353 55.3551 83.2546 55.6166 83.9696L63.8473 103.927L63.8546 103.942C64.5341 105.436 65.5853 105.75 66.3454 105.75H67.0798C67.8399 105.75 68.8893 105.436 69.5798 103.927L77.8141 83.9531C78.0616 83.2807 77.9725 82.3646 77.413 81.7846C76.5211 80.8467 74.7519 81.0295 74.1072 82.5502Z" fill="#FDFDFD"/>
<path d="M96.3634 101.813H85.0046V95.3537H95.1638C96.204 95.3537 97.0649 94.5737 97.0649 93.4856C97.0649 92.4265 96.2343 91.5845 95.1638 91.5845H85.0046V85.1579H96.3634C97.4054 85.1579 98.2645 84.3778 98.2645 83.2897C98.2645 82.2227 97.4218 81.3887 96.3634 81.3887H83.0028C81.891 81.3887 81.0358 82.2851 81.0358 83.3905V103.614C81.0358 104.72 81.8952 105.583 83.0028 105.583H96.3634C97.4095 105.583 98.2645 104.795 98.2645 103.714C98.2645 102.657 97.4345 101.813 96.3634 101.813Z" fill="#FDFDFD"/>
<path d="M102.134 74.0466C103.796 74.0466 105.143 72.6996 105.143 71.038C105.143 69.3763 103.796 68.0293 102.134 68.0293C100.473 68.0293 99.1255 69.3763 99.1255 71.038C99.1255 72.6996 100.473 74.0466 102.134 74.0466Z" fill="#FDFDFD"/>
<path d="M338.949 117.397H275.11C259.523 117.397 246.888 104.761 246.888 89.1742V53.4666C246.888 37.8798 259.523 25.2441 275.11 25.2441H338.949C354.536 25.2441 367.171 37.8798 367.171 53.4666V89.1742C367.171 104.761 354.536 117.397 338.949 117.397Z" fill="#AAEAFF"/>
<path d="M261.133 111.787C265.544 118.408 263.742 128.271 261.133 132.33C276.752 126.657 285.296 117.46 286.761 111.787C278.218 111.787 269.674 111.787 261.133 111.787Z" fill="#AAEAFF"/>
<path d="M338.132 75.2545C323.409 75.3337 314.226 77.985 301.872 81.7414C298.765 76.9229 295.657 72.0757 292.548 67.2285C301.145 57.5653 307.376 50.346 313.603 37.0059C321.759 49.7373 329.945 62.4961 338.132 75.2545Z" fill="#FEB630"/>
<path d="M313.614 37.0039C321.772 49.7382 329.941 62.4894 338.138 75.2463C323.405 75.3386 314.223 77.9872 301.876 81.7363L299.98 78.8024C312.327 75.0538 321.509 72.4047 336.242 72.3124C328.681 60.5388 321.137 48.7545 313.597 37.0147L313.614 37.0039Z" fill="#FC942C"/>
<path d="M300.544 85.5898L302.037 87.9005L311.185 102.167C311.824 103.155 311.539 104.478 310.534 105.127L306.605 107.643C305.601 108.292 304.277 108.008 303.628 107.003L294.48 92.7366L292.987 90.4259L300.544 85.5898Z" fill="#FEB630"/>
<path d="M318.5 33.9634L342.948 72.0646C343.8 73.3922 343.409 75.1836 342.057 76.0512C340.728 76.9038 338.937 76.5128 338.085 75.1852L313.636 37.0841C312.768 35.731 313.175 33.9639 314.504 33.1114C315.856 32.2437 317.632 32.6104 318.5 33.9634Z" fill="#004055"/>
<path d="M336.386 49.385C338.374 52.4835 337.468 56.637 334.338 58.6455L327.094 47.357C330.224 45.3485 334.378 46.2557 336.386 49.385Z" fill="#FEB630"/>
<path d="M292.424 67.0249L301.984 81.9232C302.669 82.9913 302.331 84.4478 301.263 85.1328L291.916 91.1308C290.825 91.831 289.383 91.5161 288.698 90.4481L279.138 75.5498C278.438 74.4586 278.753 73.0173 279.844 72.3171L289.191 66.3191C290.259 65.6341 291.724 65.9337 292.424 67.0249Z" fill="#004055"/>
<path d="M280.006 76.9004L287.815 89.0706C284.446 91.2324 279.991 90.2398 277.845 86.8954C275.684 83.5268 276.637 79.0621 280.006 76.9004Z" fill="#FEB630"/>
<path d="M286.539 87.1106L287.81 89.0779C284.449 91.2264 279.982 90.2375 277.844 86.8928C277.639 86.5762 277.457 86.2213 277.313 85.8887C279.616 88.4653 283.539 89.0496 286.539 87.1106Z" fill="#FC942C"/>
<path d="M258.643 250.465C258.643 250.465 284.288 348.463 316.983 348.394C318.334 348.391 319.66 348.192 320.967 348.031C343.725 345.335 358.695 332.498 367.951 320.405C377.106 308.453 380.667 297.245 380.667 297.245L371.673 223.602C371.673 223.602 335.88 226.718 312.097 279.355L284.832 235.856L258.643 250.465Z" fill="#009FD5"/>
<path d="M320.967 348.031C343.725 345.335 358.695 332.497 367.951 320.404C368.755 310.605 366.582 300.625 363.605 291.188C362.296 287.043 350.566 252.737 345.455 254.588C342.598 255.634 341.571 272.737 341.149 275.896C340.103 283.764 339.479 291.691 339.278 299.639C338.936 313.181 339.479 327.849 331.611 338.876C328.855 342.719 325.173 345.858 320.967 348.031Z" fill="#007FAA"/>
<path d="M392.555 481.757C395.674 467.578 396.773 467.708 398.191 481.757H462.876C463.105 442.53 463.031 404.926 461.952 401.601C459.634 394.461 343.994 411.734 343.994 411.734L335.136 481.757H392.555Z" fill="#686868"/>
<path d="M468.799 411.329C468.818 412.923 467.487 414.367 465.067 415.68C462.667 416.974 459.216 418.136 454.978 419.131C422.714 426.704 335.986 425.553 335.812 413.429C335.812 413.429 342.658 261.35 346.821 243.496C349.878 230.443 361.374 221.253 405.503 219.716C418.707 219.247 457.153 223.11 463.661 232.562C480.302 256.73 468.793 410.581 468.799 411.329Z" fill="#009FD5"/>
<path d="M468.799 411.328C468.818 412.922 467.487 414.366 465.067 415.679C464.299 413.785 463.867 411.722 463.717 409.734C463.342 404.539 464.542 399.344 464.598 394.13C464.674 388.917 463.286 383.215 459.085 380.121C446.309 370.78 432.456 390.71 421.182 386.085C411.505 382.09 413.943 364.667 404.116 361.029C433.156 335.387 440.662 302.918 438.324 266.563C438.042 262.456 435.904 255.873 440.912 253.942C445.169 252.31 451.189 255.123 455.146 256.529C460.805 258.558 466.425 261.3 471.05 265.269C475.72 318.269 468.799 411.328 468.799 411.328Z" fill="#007FAA"/>
<path d="M382.403 240.94C409.231 246.725 426.393 220.701 426.393 220.701C398.149 201.937 411.979 167.017 411.979 167.017C411.979 167.017 410.743 166.826 408.803 166.826C402.264 166.826 387.777 169.032 385.837 188.326C384.86 198.144 385.599 220.381 385.599 220.381C385.599 220.381 356.637 235.384 382.403 240.94Z" fill="#F9B29C"/>
<path d="M409.588 163.143C409.588 163.143 404.284 208.184 368.795 206.996C338.433 205.979 344.3 132.133 344.3 132.133L403.593 111.061C403.593 111.061 426.262 143.472 409.588 163.143Z" fill="#F9B29C"/>
<path d="M329.36 127.744C329.743 130.4 330.87 132.915 332.5 135.028C340.91 145.933 357.51 142.251 369.1 140.34C375.015 139.354 380.952 138.086 386.928 137.644C389.584 137.442 394.855 136.819 396.304 139.837C396.485 140.219 396.163 143.982 395.881 151.386C395.761 154.143 398.035 156.256 400.63 156.256C401.173 156.256 401.737 156.175 402.3 155.954C402.3 155.954 405.419 140.279 410.711 143.7C416.023 147.141 409.322 163.157 409.322 163.157C409.322 163.157 404.377 214.305 415.081 206.136C429.125 195.411 459.321 153.407 433.045 116.879C431.472 114.692 428.9 112.975 428.639 110.299C428.437 108.126 429.705 106.053 429.705 103.88C429.725 100.279 426.385 97.5821 423.126 96.0327C416.385 92.7932 408.558 91.948 401.294 93.6384C397.169 94.5841 393.266 96.3144 389.181 97.4011C385.096 98.5076 380.609 98.9102 376.726 97.2603C373.99 96.0931 371.756 94.0005 369.201 92.4914C364.874 89.9561 359.562 89.1716 354.693 90.3586C351.675 91.083 348.435 93.1152 348.335 96.2341C348.234 99.071 350.87 101.606 350.367 104.403C350.045 106.275 348.395 107.623 346.645 108.327C344.894 109.011 342.983 109.192 341.172 109.695C333.586 111.768 328.234 119.957 329.36 127.744Z" fill="#030303"/>
<path d="M375.259 162.05C374.269 160.046 374.208 157.623 375.098 155.572C376.625 152.052 380.388 151.017 383.69 155.195C385.045 156.914 386.096 158.83 386.816 160.894C386.986 161.383 386.726 161.918 386.237 162.088C385.754 162.255 385.215 162 385.043 161.51C384.395 159.645 383.443 157.911 382.217 156.356C379.904 153.423 377.838 153.961 376.82 156.319C376.146 157.87 376.19 159.702 376.941 161.218C377.17 161.682 376.981 162.244 376.516 162.475C376.05 162.704 375.487 162.512 375.259 162.05Z" fill="#030303"/>
<path d="M361.457 173.653C360.979 173.451 360.756 172.9 360.957 172.424C363.19 167.138 363.406 160.992 361.551 155.561C361.382 155.07 361.644 154.537 362.133 154.371C362.622 154.204 363.157 154.464 363.324 154.953C365.327 160.814 365.095 167.447 362.686 173.153C362.487 173.624 361.943 173.854 361.457 173.653Z" fill="#030303"/>
<path d="M348.959 163.783C348.467 161.439 348.915 158.93 350.188 156.9C351.775 154.364 354.378 153.766 356.43 156.505C357.736 158.248 358.518 160.406 358.633 162.584C358.661 163.1 358.265 163.541 357.747 163.569C357.254 163.666 356.789 163.199 356.762 162.682C356.664 160.873 356.014 159.078 354.93 157.629C353.905 156.259 352.9 156.102 351.778 157.897C350.76 159.519 350.401 161.523 350.795 163.399C351.05 164.619 349.218 165.004 348.959 163.783Z" fill="#030303"/>
<path d="M368.712 188.523C368.276 188.241 368.153 187.66 368.434 187.226C368.716 186.788 369.3 186.675 369.73 186.948C372.442 188.703 376.09 188.271 378.303 185.845C378.653 185.462 379.245 185.435 379.628 185.785C380.01 186.133 380.038 186.726 379.688 187.109C376.863 190.207 372.203 190.784 368.712 188.523Z" fill="#030303"/>
<path d="M284.834 235.862L258.634 250.471C258.634 250.471 236.035 224.328 252.032 205.63C268.03 186.95 280.69 223.596 280.69 223.596C280.69 223.596 283.184 215.401 288.379 217.463C293.555 219.545 284.834 235.862 284.834 235.862Z" fill="#F9B29C"/>
<path d="M445.488 224.131C445.488 224.131 473.663 223.904 484.196 265.845C493.8 304.086 494.263 322.916 487.621 342.493C483.651 354.195 410.938 387.276 410.938 387.276L397.585 364.832L444.837 322.946C444.837 322.946 429.703 229.802 445.488 224.131Z" fill="#009FD5"/>
<path d="M397.585 364.831C397.585 364.831 384.441 360.62 384.841 365.817C385.241 371.014 391.904 371.147 391.904 371.147C391.904 371.147 365.119 377.544 378.844 391.802C392.57 406.061 410.938 387.275 410.938 387.275" fill="#F9B29C"/>
</svg>
