<svg width="44" height="48" viewBox="0 0 44 48" fill="none" xmlns="http://www.w3.org/2000/svg">
<path d="M8.49986 12.0727C8.44774 12.0732 8.39593 12.0642 8.34678 12.0462C8.2215 12.0045 8.11715 11.9131 8.0564 11.792C7.99566 11.6708 7.98343 11.5296 8.02238 11.3992C8.29282 10.4197 8.86306 9.55821 9.64691 8.94495C10.4308 8.3317 11.3856 8 12.3671 8C13.3487 8 14.3035 8.3317 15.0873 8.94495C15.8712 9.55821 16.4414 10.4197 16.7119 11.3992C16.7433 11.5276 16.7262 11.6637 16.664 11.7794C16.6019 11.8951 16.4994 11.9817 16.3776 12.0214C16.2558 12.0612 16.124 12.051 16.0093 11.9929C15.8945 11.9349 15.8055 11.8335 15.7606 11.7094C15.5551 10.9389 15.112 10.2596 14.4991 9.77546C13.8862 9.29136 13.1373 9.02924 12.3671 9.02924C11.597 9.02924 10.8481 9.29136 10.2352 9.77546C9.62225 10.2596 9.17913 10.9389 8.9737 11.7094C8.94153 11.814 8.87842 11.9054 8.79336 11.9706C8.7083 12.0358 8.6056 12.0716 8.49986 12.0727Z" fill="#4087EA"/>
<path d="M16.7273 19.0527H8V18.4223C8.00286 17.5102 8.40072 16.6361 9.10667 15.9911C9.81261 15.3461 10.7693 14.9826 11.7676 14.98H12.9597C13.958 14.9826 14.9147 15.3461 15.6206 15.9911C16.3266 16.6361 16.7244 17.5102 16.7273 18.4223V19.0527Z" fill="#4087EA"/>
<path d="M35.324 12.317V27.3763C35.324 35.0966 29.7933 40 21.6638 40C13.5342 40 8 35.0966 8 27.3763V21.5195H16.5913V27.0921C16.5913 30.6392 18.5852 32.9273 21.6745 32.9273C24.7638 32.9273 26.7541 30.5997 26.7541 27.0921V12.317C26.7541 11.1721 27.2067 10.074 28.0123 9.26443C28.8179 8.45483 29.9105 8 31.0498 8C32.1891 8 33.2817 8.45483 34.0873 9.26443C34.8929 10.074 35.3455 11.1721 35.3455 12.317H35.324Z" fill="#4087EA"/>
<path d="M12.3627 13.8175C13.1661 13.8175 13.8173 13.1663 13.8173 12.363C13.8173 11.5597 13.1661 10.9084 12.3627 10.9084C11.5594 10.9084 10.9082 11.5597 10.9082 12.363C10.9082 13.1663 11.5594 13.8175 12.3627 13.8175Z" fill="#4087EA"/>
</svg>
