<svg width="491" height="714" viewBox="0 0 491 714" fill="none" xmlns="http://www.w3.org/2000/svg">
<path d="M272.762 469.19C332.695 524.177 418.072 512.109 479.077 447.763C540.081 383.416 527.848 282.74 457.102 241.13C386.355 199.521 308.344 201 250.787 262.557C193.23 324.114 212.829 414.202 272.762 469.19Z" fill="#EFF3F0"/>
<path d="M735.02 379.598C775.254 412.239 775.283 465.805 748.889 511.669C722.494 557.533 677.694 599.749 646.441 638.415C615.187 677.081 557.421 687.015 514.61 652.283C471.799 617.552 465.127 555.467 500.741 520.212C536.355 484.957 565.09 431.797 603.189 393.466C641.289 355.136 694.786 346.957 735.02 379.598Z" fill="#EFF3F0"/>
<path d="M196.299 263.197C228.381 289.224 271.945 283.335 296.775 252.617C321.604 221.899 317.598 171.128 286.214 151.956C254.831 132.785 208.609 125.487 185.739 162.536C162.868 199.585 164.217 237.17 196.299 263.197Z" fill="#D51A00"/>
<path d="M294.743 497.974C304.919 506.229 318.739 504.357 326.618 494.61C334.497 484.862 333.23 468.755 323.275 462.675C313.321 456.595 298.658 454.283 291.4 466.039C284.142 477.795 284.568 489.719 294.743 497.974Z" fill="#D51A00"/>
<path d="M157.775 167.519C164.458 172.941 173.534 171.711 178.708 165.31C183.882 158.909 183.05 148.331 176.513 144.338C169.976 140.345 160.347 138.827 155.58 146.547C150.814 154.267 151.093 162.098 157.775 167.519Z" fill="#D51A00"/>
<path d="M340.239 467.618C336.381 469.064 334.96 473.205 336.457 477.446C337.954 481.688 342.774 483.451 346.278 481.207C349.782 478.964 351.511 475.4 350.06 471.379C348.61 467.358 344.097 466.171 340.239 467.618Z" fill="#D51A00"/>
<path d="M314.567 264.079C321.249 269.5 330.325 268.271 335.499 261.87C340.673 255.468 339.841 244.89 333.304 240.897C326.767 236.904 317.138 235.386 312.371 243.107C307.605 250.827 307.884 258.658 314.567 264.079Z" fill="#00BFFF"/>
<path d="M344.445 265.539C347.482 268.004 351.607 267.445 353.959 264.535C356.311 261.625 355.933 256.817 352.962 255.002C349.99 253.187 345.613 252.497 343.447 256.007C341.28 259.516 341.407 263.075 344.445 265.539Z" fill="#00BFFF"/>
<path d="M455.367 557.364C466.411 566.324 486.557 555.116 498.946 542.967C511.336 530.817 509.593 509.135 494.243 498.953C478.894 488.771 461.131 490.087 450.293 503.495C439.455 516.904 444.322 548.404 455.367 557.364Z" fill="#00BFFF"/>
<path d="M259.022 409.927C283.464 432.352 318.283 427.431 343.162 401.188C368.041 374.946 363.052 333.888 334.2 316.919C305.348 299.949 273.533 300.553 250.06 325.657C226.587 350.762 234.58 387.502 259.022 409.927Z" fill="#F0C933"/>
<path d="M336.2 425.841C339.238 428.628 343.566 428.016 346.658 424.754C349.75 421.493 349.13 416.389 345.544 414.28C341.958 412.171 338.003 412.246 335.086 415.366C332.168 418.486 333.162 423.053 336.2 425.841Z" fill="#F0C933"/>
<path d="M347.709 407.3C349.228 408.694 351.392 408.388 352.938 406.757C354.484 405.126 354.174 402.574 352.381 401.52C350.588 400.465 348.611 400.503 347.152 402.063C345.693 403.623 346.19 405.906 347.709 407.3Z" fill="#F0C933"/>
<path d="M437.917 319.386C447.17 327.874 460.35 326.011 469.768 316.078C479.185 306.144 477.297 290.602 466.375 284.178C455.453 277.755 443.41 277.983 434.525 287.486C425.639 296.989 428.665 310.897 437.917 319.386Z" fill="#453264"/>
<path d="M184.16 297.661C187.198 300.448 191.526 299.837 194.618 296.575C197.71 293.313 197.09 288.209 193.504 286.1C189.918 283.991 185.963 284.066 183.046 287.186C180.128 290.307 181.122 294.873 184.16 297.661Z" fill="#453264"/>
<path d="M432.672 330.288C430.582 333.845 432.079 337.959 435.906 340.311C439.734 342.663 444.588 340.994 445.902 337.041C447.215 333.089 446.32 329.229 442.667 327.019C439.013 324.808 434.761 326.731 432.672 330.288Z" fill="#453264"/>
<path d="M119.574 589.126C155.773 618.493 213.555 611.7 250.492 575.461C287.429 539.222 282.302 474.622 236.614 444.328C190.926 414.033 138.016 418.007 105.696 457.992C73.3768 497.977 83.3755 559.758 119.574 589.126Z" fill="#0F90D1"/>
<path d="M646.988 254.966C676.339 278.778 676.356 317.86 657.097 351.323C637.837 384.787 605.149 415.591 582.345 443.804C559.541 472.016 517.396 479.268 486.165 453.931C454.934 428.594 450.071 383.299 476.056 357.574C502.042 331.85 523.009 293.062 550.808 265.094C578.607 237.126 617.637 231.155 646.988 254.966Z" fill="#0F90D1"/>
<path d="M499.592 247.552C512.09 259.018 529.893 256.502 542.614 243.084C555.335 229.666 552.784 208.672 538.032 199.996C523.279 191.319 507.012 191.627 495.01 204.464C483.008 217.3 487.095 236.085 499.592 247.552Z" fill="#C4C8D4"/>
<path d="M66.0474 474.889C100.295 506.31 149.082 499.414 183.941 462.645C218.801 425.875 211.811 368.346 171.384 344.569C130.958 320.792 86.3801 321.637 53.4903 356.813C20.6004 391.988 31.7999 443.467 66.0474 474.889Z" fill="#C4C8D4"/>
<path d="M505.803 43.2124C535.154 67.024 539.679 110.165 515.912 139.569C492.144 168.974 460.766 200.771 441.16 232.05C421.554 263.329 371.444 269.542 344.98 242.177C318.517 214.812 308.366 178.612 334.871 145.82C361.376 113.029 383.578 85.5615 409.623 53.3399C435.667 21.1184 476.452 19.4008 505.803 43.2124Z" fill="#009FD5"/>
</svg>
