<svg width="193" height="37" viewBox="0 0 193 37" fill="none" xmlns="http://www.w3.org/2000/svg">
<path d="M47.0995 16.1396H38.9772C38.8062 16.1408 38.6424 16.217 38.5215 16.3517C38.4005 16.4865 38.3321 16.6689 38.3311 16.8594V20.1272C38.3311 20.3181 38.3991 20.5012 38.5203 20.6361C38.6415 20.7711 38.8058 20.847 38.9772 20.847H47.0995C47.2709 20.847 47.4353 20.7711 47.5564 20.6361C47.6776 20.5012 47.7457 20.3181 47.7457 20.1272V16.8594C47.7446 16.6689 47.6762 16.4865 47.5553 16.3517C47.4343 16.217 47.2706 16.1408 47.0995 16.1396Z" fill="#00BFFF"/>
<path d="M64.7077 16.4081L61.9791 15.2403C59.9434 14.3551 59.1735 13.7941 59.1735 12.5515C59.1735 11.1052 60.4566 10.2907 62.1673 10.2907C63.878 10.2907 65.2251 11.018 66.397 12.4891C66.4985 12.61 66.644 12.6882 66.8032 12.7075C66.9625 12.7269 67.1233 12.6859 67.2523 12.593L69.643 10.7936C69.7651 10.7033 69.849 10.5728 69.8789 10.4266C69.9089 10.2804 69.8828 10.1286 69.8055 9.9998C68.2616 7.58526 65.61 6.05176 62.1502 6.05176C57.604 6.05176 54.1869 8.66162 54.1869 12.6595C54.1869 15.7723 56.3252 17.7837 60.0075 19.3754L62.5736 20.5099C64.8702 21.5322 65.6314 22.0309 65.6314 23.419C65.6314 25.0107 64.3484 25.9956 62.21 25.9956C59.798 25.9956 58.16 24.8943 56.693 23.0865C56.5915 22.9599 56.4433 22.8766 56.2797 22.8541C56.1162 22.8316 55.95 22.8718 55.8163 22.966L53.3914 24.7406C53.2583 24.8313 53.1668 24.9688 53.1365 25.1241C53.1061 25.2793 53.1393 25.4399 53.2289 25.5717C54.1902 27.0326 55.52 28.2302 57.092 29.0507C58.664 29.8712 60.4259 30.2873 62.21 30.2595C67.0085 30.2595 70.6096 27.5333 70.6096 23.2569C70.6352 20.086 68.7406 18.1411 64.7077 16.4081Z" fill="#00BFFF"/>
<path d="M83.1754 12.1052C81.9627 12.0897 80.7592 12.3139 79.6357 12.7646C78.5123 13.2152 77.4917 13.8832 76.6341 14.7292C75.7765 15.5751 75.0994 16.5819 74.6425 17.6902C74.1857 18.7985 73.9585 19.9857 73.9742 21.182C73.8654 26.2031 78.1566 30.3784 83.5936 30.2588C85.9957 30.2624 88.3287 29.4658 90.2143 27.9978C90.3341 27.9055 90.4153 27.7728 90.4423 27.6252C90.4693 27.4776 90.4402 27.3253 90.3607 27.1974L89.0014 24.9984C88.9591 24.9279 88.9027 24.8666 88.8357 24.8182C88.7686 24.7699 88.6924 24.7354 88.6115 24.7169C88.5306 24.6983 88.4467 24.6962 88.3649 24.7105C88.2831 24.7249 88.2052 24.7555 88.1357 24.8003C86.8456 25.689 85.3134 26.1722 83.74 26.1866C81.5401 26.1866 79.8881 25.2789 79.1101 23.6286C79.0642 23.5358 79.0428 23.433 79.048 23.3299C79.0532 23.2267 79.0849 23.1266 79.1401 23.0388C79.1952 22.951 79.2721 22.8784 79.3634 22.8279C79.4547 22.7774 79.5575 22.7505 79.6622 22.7498H90.6409C90.7809 22.7496 90.9167 22.7025 91.026 22.6163C91.1354 22.5302 91.212 22.41 91.2432 22.2753C91.385 21.5757 91.4564 20.864 91.4565 20.1506C91.4565 15.6534 88.052 12.1052 83.1754 12.1052ZM86.1031 19.4409H79.6538C79.5537 19.4418 79.4548 19.4184 79.3659 19.3728C79.2771 19.3271 79.201 19.2605 79.1444 19.179C79.0878 19.0975 79.0524 19.0034 79.0413 18.9052C79.0302 18.807 79.0438 18.7076 79.0809 18.6158C79.3822 17.83 79.9182 17.153 80.6179 16.6742C81.3176 16.1954 82.1481 15.9373 82.9997 15.934C84.8567 15.934 86.3833 17.0067 86.7304 18.7354C86.7466 18.8228 86.7428 18.9126 86.7194 18.9984C86.696 19.0842 86.6535 19.1637 86.595 19.2313C86.5366 19.2989 86.4636 19.3527 86.3814 19.389C86.2992 19.4252 86.2098 19.443 86.1198 19.4409H86.1031Z" fill="#00BFFF"/>
<path d="M109.65 23.7748C109.525 23.6823 109.368 23.641 109.213 23.6594C109.058 23.6778 108.916 23.7545 108.817 23.8736C107.772 25.163 106.577 25.8963 104.962 25.8963C102.273 25.8963 100.362 23.8984 100.362 21.1301C100.362 18.4319 102.273 16.3969 104.962 16.3969C106.602 16.3969 107.801 17.1549 108.817 18.4566C108.915 18.5773 109.057 18.6554 109.212 18.6747C109.368 18.6939 109.524 18.6526 109.65 18.5596L112.056 16.7141C112.176 16.623 112.259 16.4908 112.286 16.3431C112.314 16.1954 112.285 16.0428 112.206 15.9149C110.644 13.5339 108.105 12.1045 104.879 12.1045C99.6715 12.1045 95.4921 16.0674 95.4921 21.1466C95.4213 26.1599 99.7381 30.3617 104.879 30.2587C106.334 30.2944 107.774 29.9575 109.06 29.2805C110.345 28.6035 111.431 27.6095 112.214 26.3947C112.292 26.2672 112.32 26.1155 112.293 25.9688C112.265 25.8221 112.184 25.6906 112.064 25.5997L109.65 23.7748Z" fill="#00BFFF"/>
<path d="M131.849 12.7766H128.314C128.233 12.7761 128.153 12.7911 128.078 12.8208C128.004 12.8505 127.936 12.8943 127.879 12.9497C127.821 13.0051 127.776 13.071 127.745 13.1436C127.714 13.2162 127.698 13.294 127.698 13.3726V22.6986C127.698 23.5492 127.351 24.365 126.734 24.9665C126.117 25.568 125.28 25.9059 124.408 25.9059C123.535 25.9059 122.698 25.568 122.081 24.9665C121.464 24.365 121.118 23.5492 121.118 22.6986V13.3726C121.118 13.294 121.102 13.2162 121.071 13.1436C121.04 13.071 120.994 13.0051 120.937 12.9497C120.88 12.8943 120.812 12.8505 120.737 12.8208C120.663 12.7911 120.583 12.7761 120.502 12.7766H116.95C116.787 12.7766 116.632 12.8394 116.517 12.9512C116.403 13.0629 116.338 13.2146 116.338 13.3726V22.3255C116.338 27.0858 119.77 30.2607 124.445 30.2607C129.021 30.2607 132.478 27.0858 132.478 22.3255V13.3726C132.478 13.293 132.461 13.2141 132.429 13.1407C132.398 13.0673 132.351 13.0009 132.293 12.9453C132.234 12.8898 132.165 12.8462 132.089 12.8172C132.012 12.7882 131.931 12.7744 131.849 12.7766Z" fill="#00BFFF"/>
<path d="M147.449 12.1946C147.094 12.1297 146.734 12.0998 146.373 12.1051C144.984 12.0911 143.632 12.568 142.546 13.4555C142.455 13.5268 142.347 13.5706 142.233 13.5817C142.12 13.5928 142.005 13.5709 141.903 13.5184C141.801 13.4659 141.716 13.385 141.657 13.2849C141.598 13.1849 141.567 13.0698 141.569 12.9528C141.569 12.7868 141.505 12.6275 141.39 12.51C141.275 12.3926 141.12 12.3266 140.958 12.3266H137.795C137.715 12.3266 137.636 12.3428 137.562 12.3743C137.488 12.4058 137.42 12.4519 137.363 12.51C137.307 12.5682 137.262 12.6372 137.231 12.7132C137.2 12.7892 137.185 12.8706 137.185 12.9528V29.6351C137.186 29.8008 137.25 29.9594 137.365 30.0766C137.479 30.1938 137.634 30.2602 137.795 30.2613H141.361C141.441 30.2613 141.521 30.2451 141.595 30.2136C141.669 30.1822 141.736 30.136 141.793 30.0779C141.85 30.0197 141.895 29.9507 141.926 29.8747C141.956 29.7987 141.972 29.7173 141.972 29.6351V21.3025C141.972 18.2267 143.809 16.6165 146.672 16.6165H147.333C147.495 16.6165 147.65 16.5505 147.765 16.433C147.879 16.3156 147.944 16.1563 147.944 15.9902V12.825C147.948 12.6768 147.901 12.5317 147.81 12.4161C147.72 12.3005 147.592 12.2219 147.449 12.1946Z" fill="#00BFFF"/>
<path d="M161.842 12.1052C160.631 12.0902 159.429 12.3148 158.308 12.7657C157.186 13.2165 156.167 13.8845 155.311 14.7304C154.455 15.5763 153.778 16.5828 153.322 17.6908C152.866 18.7988 152.638 19.9859 152.653 21.182C152.549 26.2031 156.83 30.3784 162.284 30.2588C164.68 30.2609 167.007 29.4643 168.887 27.9978C169.008 27.906 169.089 27.7733 169.116 27.6254C169.143 27.4775 169.114 27.325 169.033 27.1974L167.676 24.9984C167.634 24.9281 167.578 24.867 167.512 24.8186C167.445 24.7701 167.37 24.7355 167.289 24.7166C167.209 24.6977 167.126 24.695 167.044 24.7087C166.963 24.7224 166.885 24.7521 166.816 24.7962C165.528 25.689 163.995 26.1739 162.422 26.1866C160.225 26.1866 158.584 25.2789 157.799 23.6286C157.754 23.5351 157.733 23.4318 157.74 23.3284C157.746 23.225 157.778 23.1249 157.834 23.0372C157.89 22.9495 157.967 22.8772 158.059 22.827C158.151 22.7767 158.254 22.7502 158.358 22.7498H169.313C169.456 22.75 169.594 22.7018 169.705 22.6132C169.816 22.5245 169.893 22.4009 169.923 22.2629C170.06 21.5669 170.132 20.8597 170.136 20.1505C170.119 15.6534 166.703 12.1052 161.842 12.1052ZM164.765 19.4409H158.321C158.221 19.4415 158.122 19.4179 158.033 19.3723C157.945 19.3266 157.869 19.2602 157.812 19.1788C157.755 19.0975 157.719 19.0037 157.707 18.9055C157.696 18.8074 157.708 18.7079 157.745 18.6157C158.046 17.8297 158.582 17.1525 159.282 16.6737C159.981 16.1949 160.811 15.937 161.662 15.9339C163.512 15.9339 165.032 17.0025 165.387 18.7313C165.403 18.8184 165.398 18.9078 165.375 18.9931C165.351 19.0784 165.309 19.1577 165.252 19.2253C165.194 19.2929 165.122 19.3472 165.041 19.3845C164.96 19.4217 164.871 19.441 164.782 19.4409H164.765Z" fill="#00BFFF"/>
<path d="M189.364 6.05176C189.043 6.05286 188.735 6.1793 188.508 6.40338C188.281 6.62746 188.154 6.93092 188.154 7.24727V12.6625C188.154 12.7762 188.122 12.8876 188.061 12.9842C188 13.0808 187.913 13.1586 187.81 13.209C187.706 13.2593 187.59 13.28 187.475 13.2688C187.36 13.2577 187.251 13.215 187.159 13.1457C185.876 12.3014 184.356 11.8759 182.813 11.9294C177.848 11.9294 174.171 15.8283 174.171 21.0936C174.171 26.3589 177.848 30.2578 182.813 30.2578C184.514 30.3058 186.178 29.7714 187.523 28.7457C187.633 28.6563 187.771 28.6077 187.913 28.6083C187.995 28.6077 188.076 28.6232 188.152 28.6538C188.227 28.6843 188.296 28.7294 188.354 28.7864C188.412 28.8434 188.458 28.9111 188.489 28.9856C188.52 29.0602 188.535 29.1401 188.535 29.2206C188.536 29.3827 188.602 29.5378 188.718 29.6524C188.835 29.767 188.992 29.8319 189.157 29.833H192.378C192.543 29.833 192.701 29.7684 192.818 29.6536C192.934 29.5388 193 29.383 193 29.2206V7.24727C193 6.93092 192.873 6.62746 192.646 6.40338C192.419 6.1793 192.111 6.05286 191.79 6.05176H189.364ZM183.723 25.9298C181.099 25.9298 179.118 24.0178 179.118 21.0728C179.118 18.1985 181.133 16.2532 183.723 16.2532C186.173 16.2532 188.226 17.9861 188.226 21.1061C188.226 24.2261 186.173 25.9298 183.723 25.9298Z" fill="#00BFFF"/>
<path d="M0.577748 4.7073C0.517502 4.70785 0.457626 4.69748 0.400809 4.67668C0.25601 4.62844 0.135401 4.52283 0.065193 4.3828C-0.00501523 4.24276 -0.0191486 4.07962 0.0258646 3.92882C0.33845 2.79671 0.997541 1.801 1.90352 1.09219C2.80951 0.383381 3.91313 0 5.04759 0C6.18205 0 7.28567 0.383381 8.19165 1.09219C9.09764 1.801 9.75673 2.79671 10.0693 3.92882C10.1057 4.07726 10.0859 4.2345 10.014 4.36826C9.94216 4.50202 9.82369 4.60213 9.68294 4.64804C9.54219 4.69394 9.38985 4.68215 9.25722 4.61508C9.12458 4.54802 9.02172 4.43078 8.96976 4.28744C8.73232 3.39684 8.22016 2.61163 7.51174 2.0521C6.80333 1.49257 5.93773 1.18961 5.04759 1.18961C4.15745 1.18961 3.29186 1.49257 2.58344 2.0521C1.87502 2.61163 1.36286 3.39684 1.12542 4.28744C1.08823 4.4083 1.01529 4.51393 0.916977 4.5893C0.818659 4.66467 0.699961 4.70596 0.577748 4.7073Z" fill="#020202"/>
<path d="M10.0871 12.7767H0V12.048C0.00330478 10.9938 0.463163 9.9835 1.2791 9.238C2.09505 8.4925 3.20075 8.07236 4.35466 8.06934H5.73245C6.88636 8.07236 7.99207 8.4925 8.80801 9.238C9.62395 9.9835 10.0838 10.9938 10.0871 12.048V12.7767Z" fill="#00BFFF"/>
<path d="M31.5814 4.98969V22.3954C31.5814 31.3186 25.189 36.9861 15.7928 36.9861C6.39656 36.9861 0 31.3186 0 22.3954V15.626H9.92997V22.0669C9.92997 26.1668 12.2346 28.8113 15.8052 28.8113C19.3759 28.8113 21.6763 26.121 21.6763 22.0669V4.98969C21.6763 3.66634 22.1994 2.39719 23.1305 1.46144C24.0616 0.525694 25.3245 0 26.6413 0C27.9581 0 29.2209 0.525694 30.1521 1.46144C31.0832 2.39719 31.6063 3.66634 31.6063 4.98969H31.5814Z" fill="#00BFFF"/>
<path d="M5.04349 6.72467C5.97198 6.72467 6.72467 5.97199 6.72467 5.0435C6.72467 4.115 5.97198 3.3623 5.04349 3.3623C4.115 3.3623 3.3623 4.115 3.3623 5.0435C3.3623 5.97199 4.115 6.72467 5.04349 6.72467Z" fill="#00BFFF"/>
</svg>
