<svg width="509" height="493" viewBox="0 0 509 493" fill="none" xmlns="http://www.w3.org/2000/svg">
<path d="M379.552 393.878H129.175L148.943 374.799H359.785L379.552 393.878Z" fill="white" stroke="#263238" stroke-linecap="round" stroke-linejoin="round"/>
<path d="M351.732 382.162C351.732 386.058 306.392 389.266 250.428 389.266C194.464 389.266 149.124 386.084 149.124 382.162C149.124 378.24 194.464 375.045 250.428 375.045C306.392 375.045 351.732 378.227 351.732 382.162Z" fill="#00BFFF"/>
<path opacity="0.5" d="M351.732 382.162C351.732 386.058 306.392 389.266 250.428 389.266C194.464 389.266 149.124 386.084 149.124 382.162C149.124 378.24 194.464 375.045 250.428 375.045C306.392 375.045 351.732 378.227 351.732 382.162Z" fill="white"/>
<path d="M379.552 393.879H129.175V411.555H379.552V393.879Z" fill="#263238" stroke="#263238" stroke-linecap="round" stroke-linejoin="round"/>
<path d="M397.267 430.621H111.46L129.175 411.555H379.552L397.267 430.621Z" fill="white" stroke="#263238" stroke-linecap="round" stroke-linejoin="round"/>
<path d="M397.215 430.619H111.512V449.218H397.215V430.619Z" fill="#263238" stroke="#263238" stroke-linecap="round" stroke-linejoin="round"/>
<path d="M251.597 205.308V86.4316H296.833V36.416" stroke="#263238" stroke-miterlimit="10"/>
<path d="M269.274 85.8731V36.416" stroke="#263238" stroke-miterlimit="10"/>
<path d="M254.974 224.258H463.245V194.646H503.052" stroke="#263238" stroke-miterlimit="10"/>
<path d="M244.766 223.234H46.7167V191.596H3.84436" stroke="#263238" stroke-miterlimit="10"/>
<path d="M211.076 4.76562V49.69H185.555V78.2629H217.206V174.229" stroke="#263238" stroke-miterlimit="10"/>
<path d="M350.94 137.476V73.1614H368.292V45.6016H382.591" stroke="#263238" stroke-miterlimit="10"/>
<path d="M140.643 131.357V82.3547L126.344 68.0553V32.3262" stroke="#263238" stroke-miterlimit="10"/>
<path d="M389.734 159.945H425.463V136.463H448.945V123.189H469.361" stroke="#263238" stroke-miterlimit="10"/>
<path d="M104.901 168.112H67.133V138.5H14.0524" stroke="#263238" stroke-miterlimit="10"/>
<path d="M139.617 328.381V354.928H122.266V384.54H72.2374" stroke="#263238" stroke-miterlimit="10"/>
<path d="M330.523 332.473V360.033H370.331V348.811H381.565V372.28H416.281" stroke="#263238" stroke-miterlimit="10"/>
<path d="M299.743 36.4183C299.74 36.9932 299.567 37.5543 299.246 38.0311C298.925 38.5078 298.47 38.8786 297.938 39.0968C297.406 39.315 296.822 39.3708 296.258 39.2571C295.695 39.1434 295.177 38.8653 294.772 38.4579C294.366 38.0505 294.09 37.5321 293.979 36.9681C293.868 36.4042 293.926 35.8199 294.147 35.289C294.368 34.7582 294.74 34.3046 295.219 33.9855C295.697 33.6664 296.259 33.4961 296.834 33.4961C297.217 33.4961 297.596 33.5718 297.95 33.7188C298.304 33.8658 298.625 34.0813 298.895 34.3528C299.166 34.6243 299.38 34.9465 299.525 35.301C299.67 35.6555 299.744 36.0352 299.743 36.4183Z" fill="#263238" stroke="#263238" stroke-linecap="round" stroke-linejoin="round"/>
<path d="M272.286 36.4183C272.284 36.9932 272.111 37.5543 271.79 38.0311C271.469 38.5078 271.013 38.8786 270.481 39.0968C269.95 39.315 269.365 39.3708 268.802 39.2571C268.238 39.1434 267.721 38.8653 267.315 38.4579C266.91 38.0505 266.634 37.5321 266.523 36.9681C266.412 36.4042 266.47 35.8199 266.691 35.289C266.911 34.7582 267.284 34.3046 267.762 33.9855C268.24 33.6664 268.802 33.4961 269.377 33.4961C269.76 33.4961 270.14 33.5718 270.493 33.7188C270.847 33.8658 271.169 34.0813 271.439 34.3528C271.709 34.6243 271.923 34.9465 272.069 35.301C272.214 35.6555 272.288 36.0352 272.286 36.4183Z" fill="#263238" stroke="#263238" stroke-linecap="round" stroke-linejoin="round"/>
<path d="M214.011 3.92226C214.011 4.50077 213.839 5.06627 213.518 5.5471C213.196 6.02794 212.739 6.40247 212.204 6.62326C211.669 6.84405 211.081 6.90116 210.514 6.78735C209.947 6.67354 209.426 6.39393 209.018 5.98395C208.61 5.57397 208.332 5.05206 208.221 4.48435C208.11 3.91664 208.17 3.32868 208.393 2.79494C208.616 2.2612 208.992 1.80572 209.475 1.48619C209.957 1.16666 210.523 0.997458 211.102 1.00003C211.485 1.00003 211.864 1.07571 212.218 1.22272C212.572 1.36973 212.893 1.58519 213.163 1.85671C213.434 2.12824 213.648 2.45048 213.793 2.80495C213.939 3.15941 214.013 3.53912 214.011 3.92226Z" fill="#263238" stroke="#263238" stroke-linecap="round" stroke-linejoin="round"/>
<path d="M129.28 30.8597C129.277 31.4346 129.104 31.9957 128.783 32.4725C128.462 32.9492 128.006 33.32 127.475 33.5382C126.943 33.7564 126.358 33.8122 125.795 33.6985C125.231 33.5848 124.714 33.3067 124.309 32.8993C123.903 32.4919 123.627 31.9735 123.516 31.4095C123.405 30.8456 123.463 30.2613 123.684 29.7304C123.904 29.1996 124.277 28.746 124.755 28.4269C125.233 28.1078 125.795 27.9375 126.37 27.9375C126.753 27.9375 127.133 28.0132 127.487 28.1602C127.84 28.3072 128.162 28.5227 128.432 28.7942C128.702 29.0657 128.916 29.388 129.062 29.7424C129.207 30.0969 129.281 30.4766 129.28 30.8597Z" fill="#263238" stroke="#263238" stroke-linecap="round" stroke-linejoin="round"/>
<path d="M16.9619 138.501C16.9644 139.08 16.7949 139.647 16.4748 140.129C16.1547 140.612 15.6984 140.989 15.1639 141.211C14.6294 141.434 14.0408 141.493 13.4727 141.381C12.9047 141.268 12.3828 140.99 11.9733 140.58C11.5639 140.171 11.2853 139.649 11.173 139.081C11.0606 138.513 11.1196 137.924 11.3424 137.39C11.5651 136.855 11.9417 136.399 12.4243 136.079C12.9068 135.759 13.4736 135.589 14.0526 135.592C14.8242 135.592 15.5642 135.898 16.1098 136.444C16.6553 136.99 16.9619 137.729 16.9619 138.501Z" fill="#263238" stroke="#263238" stroke-linecap="round" stroke-linejoin="round"/>
<path d="M6.84446 191.504C6.84446 192.082 6.67307 192.647 6.35197 193.128C6.03087 193.608 5.57449 193.983 5.04052 194.204C4.50655 194.425 3.91899 194.483 3.35213 194.37C2.78528 194.258 2.26458 193.979 1.8559 193.571C1.44722 193.162 1.16891 192.641 1.05615 192.074C0.943397 191.507 1.00126 190.92 1.22244 190.386C1.44362 189.852 1.81817 189.396 2.29873 189.075C2.77928 188.753 3.34427 188.582 3.92223 188.582C4.69725 188.582 5.44053 188.89 5.98855 189.438C6.53658 189.986 6.84446 190.729 6.84446 191.504Z" fill="#263238" stroke="#263238" stroke-linecap="round" stroke-linejoin="round"/>
<path d="M75.4065 383.981C75.4065 384.559 75.2347 385.125 74.9131 385.606C74.5914 386.087 74.1342 386.461 73.5995 386.682C73.0648 386.903 72.4766 386.96 71.9093 386.846C71.3421 386.732 70.8215 386.453 70.4133 386.043C70.0052 385.633 69.7279 385.111 69.6166 384.543C69.5053 383.975 69.565 383.387 69.7882 382.854C70.0114 382.32 70.3879 381.864 70.8702 381.545C71.3525 381.225 71.9187 381.056 72.4972 381.059C72.8804 381.059 73.2597 381.134 73.6136 381.281C73.9674 381.428 74.2887 381.644 74.559 381.915C74.8293 382.187 75.0433 382.509 75.1887 382.864C75.3342 383.218 75.4082 383.598 75.4065 383.981Z" fill="#263238" stroke="#263238" stroke-linecap="round" stroke-linejoin="round"/>
<path d="M420.671 371.706C420.673 372.285 420.504 372.851 420.184 373.333C419.865 373.815 419.409 374.192 418.876 374.415C418.342 374.638 417.754 374.698 417.186 374.587C416.619 374.475 416.097 374.198 415.687 373.79C415.277 373.382 414.997 372.861 414.883 372.294C414.769 371.727 414.827 371.139 415.047 370.604C415.268 370.069 415.643 369.612 416.123 369.29C416.604 368.969 417.17 368.797 417.748 368.797C418.131 368.795 418.511 368.869 418.866 369.015C419.22 369.16 419.542 369.374 419.814 369.644C420.085 369.915 420.301 370.236 420.448 370.59C420.595 370.944 420.671 371.323 420.671 371.706Z" fill="#263238" stroke="#263238" stroke-linecap="round" stroke-linejoin="round"/>
<path d="M507.441 194.075C507.441 194.651 507.271 195.213 506.951 195.692C506.631 196.17 506.177 196.543 505.645 196.763C505.114 196.983 504.529 197.041 503.965 196.929C503.4 196.816 502.882 196.539 502.475 196.132C502.068 195.726 501.791 195.207 501.679 194.643C501.567 194.078 501.624 193.494 501.844 192.962C502.065 192.43 502.437 191.976 502.916 191.656C503.394 191.337 503.957 191.166 504.532 191.166C505.304 191.166 506.044 191.473 506.589 192.018C507.135 192.564 507.441 193.304 507.441 194.075Z" fill="#263238" stroke="#263238" stroke-linecap="round" stroke-linejoin="round"/>
<path d="M473.647 122.564C473.647 123.139 473.477 123.701 473.157 124.18C472.837 124.658 472.383 125.031 471.851 125.251C471.32 125.472 470.735 125.529 470.17 125.417C469.606 125.305 469.088 125.028 468.681 124.621C468.274 124.214 467.997 123.695 467.885 123.131C467.772 122.567 467.83 121.982 468.05 121.45C468.27 120.919 468.643 120.464 469.122 120.145C469.6 119.825 470.163 119.654 470.738 119.654C471.51 119.654 472.25 119.961 472.795 120.506C473.341 121.052 473.647 121.792 473.647 122.564Z" fill="#263238" stroke="#263238" stroke-linecap="round" stroke-linejoin="round"/>
<path d="M387.383 45.5206C387.383 46.096 387.213 46.6584 386.893 47.1369C386.573 47.6153 386.119 47.9882 385.587 48.2083C385.056 48.4285 384.471 48.4862 383.906 48.3739C383.342 48.2617 382.824 47.9846 382.417 47.5777C382.01 47.1708 381.733 46.6525 381.621 46.0881C381.508 45.5238 381.566 44.9388 381.786 44.4072C382.006 43.8756 382.379 43.4213 382.858 43.1016C383.336 42.7819 383.899 42.6113 384.474 42.6113C385.246 42.6113 385.985 42.9178 386.531 43.4634C387.077 44.009 387.383 44.749 387.383 45.5206Z" fill="#263238" stroke="#263238" stroke-linecap="round" stroke-linejoin="round"/>
<path d="M289.703 354.109V328.783H213.491V354.109C213.468 362.389 210.608 370.411 205.387 376.838L202.049 380.968H301.119L297.794 376.838C292.574 370.412 289.718 362.388 289.703 354.109Z" fill="white"/>
<path d="M208.816 371.852H294.379C291.317 366.44 289.706 360.329 289.703 354.111V328.785H213.491V354.111C213.488 360.329 211.877 366.44 208.816 371.852Z" fill="#00BFFF"/>
<path opacity="0.3" d="M208.816 371.852H294.379C291.317 366.44 289.706 360.329 289.703 354.111V328.785H213.491V354.111C213.488 360.329 211.877 366.44 208.816 371.852Z" fill="white"/>
<path d="M208.816 345.149H294.379C291.317 339.737 289.706 333.626 289.703 327.408V302.082H213.491V327.408C213.488 333.626 211.878 339.737 208.816 345.149Z" fill="#263238"/>
<path d="M289.703 354.109V328.783H213.491V354.109C213.468 362.389 210.608 370.411 205.387 376.838L202.049 380.968H301.119L297.794 376.838C292.574 370.412 289.718 362.388 289.703 354.109V354.109Z" stroke="#263238" stroke-linecap="round" stroke-linejoin="round"/>
<path d="M393.721 111.875H109.473C103.391 111.875 98.4596 116.806 98.4596 122.889V325.743C98.4596 331.826 103.391 336.757 109.473 336.757H393.721C399.804 336.757 404.735 331.826 404.735 325.743V122.889C404.735 116.806 399.804 111.875 393.721 111.875Z" fill="#263238" stroke="#263238" stroke-linecap="round" stroke-linejoin="round"/>
<path d="M98.4596 301.809H404.735V325.745C404.735 328.666 403.575 331.467 401.509 333.533C399.444 335.598 396.642 336.758 393.721 336.758H109.473C106.552 336.758 103.751 335.598 101.685 333.533C99.6199 331.467 98.4596 328.666 98.4596 325.745V301.809Z" fill="white" stroke="#263238" stroke-linecap="round" stroke-linejoin="round"/>
<path d="M389.318 125.877H113.863V284.755H389.318V125.877Z" fill="white" stroke="#263238" stroke-linecap="round" stroke-linejoin="round"/>
<path d="M257.247 324.886C257.27 323.764 256.959 322.66 256.352 321.716C255.746 320.771 254.872 320.029 253.841 319.584C252.811 319.138 251.672 319.009 250.568 319.214C249.465 319.418 248.447 319.947 247.646 320.732C246.844 321.518 246.294 322.524 246.066 323.623C245.839 324.722 245.943 325.864 246.367 326.903C246.791 327.942 247.515 328.831 248.447 329.458C249.378 330.084 250.475 330.418 251.597 330.418C253.08 330.432 254.507 329.858 255.566 328.82C256.625 327.783 257.23 326.368 257.247 324.886Z" fill="#263238" stroke="#263238" stroke-linecap="round" stroke-linejoin="round"/>
<path d="M301.145 381.006H202.062V385.526H301.145V381.006Z" fill="white" stroke="#263238" stroke-linecap="round" stroke-linejoin="round"/>
<path d="M252.013 117.629C238.168 130.617 202.66 143.604 161.346 171.255C161.346 171.255 163.943 264.766 252.013 315.821V117.629Z" fill="#00BFFF" stroke="#263238" stroke-linecap="round" stroke-linejoin="round"/>
<path d="M252.013 117.629C265.871 130.617 301.366 143.604 342.693 171.255C342.693 171.255 340.095 264.766 252.013 315.821V117.629Z" fill="#263238" stroke="#263238" stroke-linecap="round" stroke-linejoin="round"/>
<path d="M252.013 125.59C235.259 137.201 206.309 148.253 167.996 173.891C167.996 173.891 170.398 260.519 252.013 307.872C333.64 260.519 336.043 173.891 336.043 173.891C297.73 148.253 268.871 137.201 252.013 125.59Z" fill="#263238" stroke="#263238" stroke-linecap="round" stroke-linejoin="round"/>
<path d="M336.043 173.891C297.73 148.266 268.871 137.201 252.013 125.59V307.872C333.641 260.519 336.043 173.891 336.043 173.891Z" fill="#00BFFF" stroke="#263238" stroke-linecap="round" stroke-linejoin="round"/>
<path d="M405.683 219.752H97.5114V239.701H405.683V219.752Z" fill="#263238" stroke="#263238" stroke-linecap="round" stroke-linejoin="round"/>
<path d="M103.577 222.921C103.584 223.331 103.47 223.734 103.248 224.078C103.026 224.423 102.706 224.694 102.329 224.856C101.953 225.018 101.536 225.065 101.133 224.99C100.73 224.915 100.359 224.721 100.066 224.434C99.7731 224.147 99.5725 223.779 99.4896 223.377C99.4068 222.976 99.4453 222.558 99.6004 222.179C99.7555 221.799 100.02 221.474 100.36 221.246C100.701 221.017 101.102 220.895 101.512 220.895C101.781 220.891 102.047 220.941 102.297 221.041C102.547 221.141 102.774 221.29 102.966 221.478C103.158 221.666 103.31 221.891 103.415 222.138C103.52 222.386 103.575 222.652 103.577 222.921Z" fill="white"/>
<path d="M100.33 224.038C100.556 224.276 100.848 224.441 101.168 224.512C101.488 224.582 101.822 224.556 102.128 224.436C102.433 224.317 102.696 224.108 102.882 223.838C103.068 223.569 103.17 223.249 103.174 222.921C103.17 222.531 103.022 222.157 102.759 221.869C101.901 222.536 101.089 223.261 100.33 224.038Z" fill="#263238"/>
<path d="M111.681 222.921C111.691 223.334 111.578 223.741 111.356 224.089C111.134 224.438 110.814 224.712 110.435 224.877C110.056 225.043 109.637 225.091 109.23 225.017C108.824 224.943 108.449 224.749 108.153 224.461C107.857 224.172 107.654 223.802 107.57 223.398C107.485 222.993 107.523 222.573 107.679 222.19C107.834 221.807 108.101 221.48 108.443 221.249C108.786 221.018 109.19 220.895 109.603 220.895C109.873 220.891 110.14 220.941 110.39 221.041C110.641 221.141 110.869 221.289 111.062 221.477C111.255 221.665 111.409 221.89 111.515 222.137C111.621 222.385 111.678 222.651 111.681 222.921Z" fill="white"/>
<path d="M108.421 224.038C108.647 224.276 108.939 224.441 109.259 224.512C109.579 224.582 109.913 224.556 110.219 224.436C110.524 224.317 110.787 224.108 110.973 223.838C111.16 223.569 111.261 223.249 111.265 222.921C111.261 222.531 111.113 222.157 110.85 221.869C109.994 222.539 109.183 223.264 108.421 224.038Z" fill="#263238"/>
<path d="M119.772 222.92C119.731 223.441 119.495 223.927 119.111 224.282C118.727 224.637 118.223 224.834 117.701 224.834C117.178 224.834 116.674 224.637 116.291 224.282C115.907 223.927 115.67 223.441 115.629 222.92C115.67 222.399 115.907 221.912 116.291 221.558C116.674 221.203 117.178 221.006 117.701 221.006C118.223 221.006 118.727 221.203 119.111 221.558C119.495 221.912 119.731 222.399 119.772 222.92Z" fill="white"/>
<path d="M116.512 224.038C116.667 224.198 116.853 224.326 117.058 224.413C117.264 224.5 117.484 224.545 117.707 224.545C117.922 224.546 118.135 224.506 118.335 224.425C118.534 224.344 118.715 224.225 118.868 224.075C119.021 223.924 119.143 223.744 119.227 223.546C119.311 223.349 119.355 223.136 119.357 222.921C119.357 222.53 119.209 222.154 118.941 221.869C118.086 222.539 117.275 223.264 116.512 224.038Z" fill="#263238"/>
<path d="M127.864 222.921C127.871 223.331 127.757 223.734 127.535 224.078C127.313 224.423 126.993 224.694 126.616 224.856C126.24 225.018 125.823 225.065 125.42 224.99C125.017 224.915 124.645 224.721 124.353 224.434C124.06 224.147 123.859 223.779 123.777 223.377C123.694 222.976 123.732 222.558 123.887 222.179C124.042 221.799 124.307 221.474 124.647 221.246C124.988 221.017 125.389 220.895 125.799 220.895C126.067 220.891 126.334 220.941 126.584 221.041C126.833 221.141 127.061 221.29 127.253 221.478C127.445 221.666 127.597 221.891 127.702 222.138C127.807 222.386 127.862 222.652 127.864 222.921Z" fill="white"/>
<path d="M124.604 224.038C124.831 224.274 125.124 224.437 125.444 224.507C125.765 224.577 126.099 224.55 126.404 224.431C126.71 224.312 126.973 224.105 127.161 223.836C127.349 223.567 127.453 223.249 127.461 222.921C127.456 222.531 127.308 222.157 127.045 221.869C126.183 222.536 125.367 223.261 124.604 224.038Z" fill="#263238"/>
<path d="M135.955 222.921C135.963 223.331 135.848 223.734 135.626 224.078C135.404 224.423 135.084 224.694 134.707 224.856C134.331 225.018 133.914 225.065 133.511 224.99C133.108 224.915 132.737 224.721 132.444 224.434C132.151 224.147 131.951 223.779 131.868 223.377C131.785 222.976 131.823 222.558 131.978 222.179C132.134 221.799 132.398 221.474 132.739 221.246C133.079 221.017 133.48 220.895 133.89 220.895C134.159 220.891 134.425 220.941 134.675 221.041C134.925 221.141 135.152 221.29 135.344 221.478C135.536 221.666 135.689 221.891 135.793 222.138C135.898 222.386 135.953 222.652 135.955 222.921Z" fill="white"/>
<path d="M132.656 224.038C132.811 224.198 132.997 224.325 133.202 224.412C133.407 224.499 133.628 224.544 133.851 224.545C134.067 224.548 134.281 224.509 134.482 224.429C134.683 224.349 134.866 224.23 135.02 224.079C135.175 223.928 135.298 223.748 135.382 223.549C135.467 223.351 135.511 223.137 135.513 222.921C135.509 222.531 135.361 222.157 135.098 221.869C134.238 222.539 133.423 223.264 132.656 224.038Z" fill="#263238"/>
<path d="M144.046 222.921C144.054 223.331 143.939 223.734 143.717 224.078C143.495 224.423 143.175 224.694 142.799 224.856C142.422 225.018 142.006 225.065 141.603 224.99C141.2 224.915 140.828 224.721 140.535 224.434C140.243 224.147 140.042 223.779 139.959 223.377C139.876 222.976 139.915 222.558 140.07 222.179C140.225 221.799 140.49 221.474 140.83 221.246C141.17 221.017 141.571 220.895 141.981 220.895C142.25 220.891 142.517 220.941 142.766 221.041C143.016 221.141 143.243 221.29 143.435 221.478C143.627 221.666 143.78 221.891 143.885 222.138C143.99 222.386 144.045 222.652 144.046 222.921Z" fill="white"/>
<path d="M140.799 224.038C141.026 224.276 141.317 224.441 141.638 224.512C141.958 224.582 142.292 224.556 142.597 224.436C142.903 224.317 143.165 224.108 143.352 223.838C143.538 223.569 143.64 223.249 143.644 222.921C143.639 222.531 143.491 222.157 143.228 221.869C142.37 222.536 141.559 223.261 140.799 224.038Z" fill="#263238"/>
<path d="M152.138 222.921C152.148 223.334 152.035 223.741 151.813 224.089C151.591 224.438 151.27 224.712 150.892 224.877C150.513 225.043 150.094 225.091 149.687 225.017C149.281 224.943 148.905 224.749 148.61 224.461C148.314 224.172 148.111 223.802 148.026 223.398C147.942 222.993 147.98 222.573 148.135 222.19C148.291 221.807 148.557 221.48 148.9 221.249C149.243 221.018 149.646 220.895 150.06 220.895C150.329 220.891 150.597 220.941 150.847 221.041C151.097 221.141 151.325 221.289 151.518 221.477C151.711 221.665 151.865 221.89 151.972 222.137C152.078 222.385 152.134 222.651 152.138 222.921Z" fill="white"/>
<path d="M148.891 224.038C149.117 224.276 149.408 224.441 149.729 224.512C150.049 224.582 150.383 224.556 150.688 224.436C150.994 224.317 151.256 224.108 151.443 223.838C151.629 223.569 151.731 223.249 151.735 222.921C151.73 222.531 151.582 222.157 151.319 221.869C150.464 222.539 149.653 223.264 148.891 224.038Z" fill="#263238"/>
<path d="M160.242 222.921C160.249 223.331 160.135 223.734 159.913 224.078C159.691 224.423 159.371 224.694 158.994 224.856C158.618 225.018 158.201 225.065 157.798 224.99C157.395 224.915 157.024 224.721 156.731 224.434C156.438 224.147 156.238 223.779 156.155 223.377C156.072 222.976 156.11 222.558 156.265 222.179C156.42 221.799 156.685 221.474 157.025 221.246C157.366 221.017 157.767 220.895 158.177 220.895C158.446 220.891 158.712 220.941 158.962 221.041C159.212 221.141 159.439 221.29 159.631 221.478C159.823 221.666 159.975 221.891 160.08 222.138C160.185 222.386 160.24 222.652 160.242 222.921Z" fill="white"/>
<path d="M156.982 224.038C157.137 224.198 157.323 224.326 157.528 224.413C157.733 224.5 157.954 224.545 158.177 224.545C158.392 224.546 158.605 224.506 158.804 224.425C159.003 224.344 159.185 224.225 159.338 224.075C159.491 223.924 159.613 223.744 159.697 223.546C159.781 223.349 159.825 223.136 159.826 222.921C159.827 222.53 159.678 222.154 159.411 221.869C158.556 222.539 157.744 223.264 156.982 224.038Z" fill="#263238"/>
<path d="M168.333 222.921C168.341 223.331 168.227 223.734 168.004 224.078C167.782 224.423 167.462 224.694 167.086 224.856C166.709 225.018 166.293 225.065 165.89 224.99C165.487 224.915 165.115 224.721 164.822 224.434C164.53 224.147 164.329 223.779 164.246 223.377C164.163 222.976 164.202 222.558 164.357 222.179C164.512 221.799 164.777 221.474 165.117 221.246C165.457 221.017 165.858 220.895 166.268 220.895C166.537 220.891 166.804 220.941 167.054 221.041C167.303 221.141 167.53 221.29 167.722 221.478C167.914 221.666 168.067 221.891 168.172 222.138C168.277 222.386 168.332 222.652 168.333 222.921Z" fill="white"/>
<path d="M165.125 224.038C165.353 224.274 165.646 224.437 165.966 224.507C166.286 224.577 166.62 224.55 166.926 224.431C167.231 224.312 167.494 224.105 167.682 223.836C167.87 223.567 167.975 223.249 167.982 222.921C167.978 222.531 167.83 222.157 167.567 221.869C166.707 222.539 165.892 223.264 165.125 224.038Z" fill="#263238"/>
<path d="M176.424 222.921C176.432 223.331 176.318 223.734 176.095 224.078C175.873 224.423 175.553 224.694 175.177 224.856C174.8 225.018 174.384 225.065 173.981 224.99C173.578 224.915 173.206 224.721 172.913 224.434C172.621 224.147 172.42 223.779 172.337 223.377C172.254 222.976 172.293 222.558 172.448 222.179C172.603 221.799 172.868 221.474 173.208 221.246C173.548 221.017 173.949 220.895 174.359 220.895C174.628 220.891 174.895 220.941 175.145 221.041C175.394 221.141 175.621 221.29 175.813 221.478C176.005 221.666 176.158 221.891 176.263 222.138C176.368 222.386 176.423 222.652 176.424 222.921Z" fill="white"/>
<path d="M173.165 224.038C173.32 224.198 173.506 224.325 173.711 224.412C173.916 224.499 174.137 224.544 174.359 224.545C174.575 224.548 174.79 224.509 174.991 224.429C175.191 224.349 175.374 224.23 175.529 224.079C175.683 223.928 175.807 223.748 175.891 223.549C175.976 223.351 176.02 223.137 176.022 222.921C176.018 222.531 175.87 222.157 175.606 221.869C174.747 222.539 173.931 223.264 173.165 224.038Z" fill="#263238"/>
<path d="M184.516 222.921C184.524 223.331 184.409 223.734 184.187 224.078C183.965 224.423 183.645 224.694 183.268 224.856C182.892 225.018 182.475 225.065 182.072 224.99C181.669 224.915 181.298 224.721 181.005 224.434C180.712 224.147 180.512 223.779 180.429 223.377C180.346 222.976 180.384 222.558 180.54 222.179C180.695 221.799 180.959 221.474 181.3 221.246C181.64 221.017 182.041 220.895 182.451 220.895C182.72 220.891 182.987 220.941 183.236 221.041C183.486 221.141 183.713 221.29 183.905 221.478C184.097 221.666 184.25 221.891 184.354 222.138C184.459 222.386 184.514 222.652 184.516 222.921Z" fill="white"/>
<path d="M181.269 224.038C181.495 224.276 181.787 224.441 182.107 224.512C182.427 224.582 182.762 224.556 183.067 224.436C183.372 224.317 183.635 224.108 183.821 223.838C184.008 223.569 184.109 223.249 184.113 222.921C184.109 222.531 183.961 222.157 183.698 221.869C182.842 222.539 182.031 223.264 181.269 224.038Z" fill="#263238"/>
<path d="M192.62 222.921C192.631 223.334 192.517 223.742 192.295 224.09C192.072 224.439 191.751 224.714 191.371 224.879C190.992 225.043 190.572 225.091 190.165 225.016C189.758 224.941 189.383 224.746 189.088 224.456C188.792 224.166 188.59 223.795 188.507 223.39C188.424 222.984 188.464 222.563 188.622 222.181C188.779 221.798 189.047 221.472 189.392 221.242C189.736 221.013 190.141 220.892 190.555 220.895C190.824 220.891 191.091 220.941 191.341 221.041C191.59 221.141 191.817 221.29 192.009 221.478C192.201 221.666 192.354 221.891 192.459 222.138C192.564 222.386 192.619 222.652 192.62 222.921Z" fill="white"/>
<path d="M189.36 224.038C189.586 224.276 189.878 224.441 190.198 224.512C190.518 224.582 190.853 224.556 191.158 224.436C191.463 224.317 191.726 224.108 191.912 223.838C192.099 223.569 192.2 223.249 192.204 222.921C192.205 222.53 192.056 222.154 191.789 221.869C190.933 222.539 190.122 223.264 189.36 224.038Z" fill="#263238"/>
<path d="M200.711 222.921C200.719 223.331 200.604 223.734 200.382 224.078C200.16 224.423 199.84 224.694 199.464 224.856C199.087 225.018 198.671 225.065 198.268 224.99C197.865 224.915 197.493 224.721 197.2 224.434C196.908 224.147 196.707 223.779 196.624 223.377C196.541 222.976 196.58 222.558 196.735 222.179C196.89 221.799 197.155 221.474 197.495 221.246C197.835 221.017 198.236 220.895 198.646 220.895C198.915 220.891 199.182 220.941 199.432 221.041C199.681 221.141 199.908 221.29 200.1 221.478C200.292 221.666 200.445 221.891 200.55 222.138C200.655 222.386 200.71 222.652 200.711 222.921Z" fill="white"/>
<path d="M197.452 224.038C197.679 224.274 197.972 224.437 198.292 224.507C198.613 224.577 198.947 224.55 199.252 224.431C199.558 224.312 199.821 224.105 200.009 223.836C200.197 223.567 200.301 223.249 200.309 222.921C200.304 222.531 200.156 222.157 199.893 221.869C199.031 222.536 198.215 223.261 197.452 224.038Z" fill="#263238"/>
<path d="M208.803 222.921C208.811 223.331 208.696 223.734 208.474 224.078C208.252 224.423 207.932 224.694 207.555 224.856C207.179 225.018 206.762 225.065 206.359 224.99C205.956 224.915 205.585 224.721 205.292 224.434C204.999 224.147 204.799 223.779 204.716 223.377C204.633 222.976 204.671 222.558 204.826 222.179C204.982 221.799 205.246 221.474 205.587 221.246C205.927 221.017 206.328 220.895 206.738 220.895C207.007 220.891 207.274 220.941 207.523 221.041C207.773 221.141 208 221.29 208.192 221.478C208.384 221.666 208.537 221.891 208.641 222.138C208.746 222.386 208.801 222.652 208.803 222.921Z" fill="white"/>
<path d="M205.543 224.038C205.699 224.198 205.884 224.325 206.09 224.412C206.295 224.499 206.515 224.544 206.738 224.545C206.954 224.548 207.169 224.509 207.369 224.429C207.57 224.349 207.753 224.23 207.907 224.079C208.062 223.928 208.185 223.748 208.27 223.549C208.354 223.351 208.399 223.137 208.4 222.921C208.396 222.531 208.248 222.157 207.985 221.869C207.126 222.539 206.31 223.264 205.543 224.038Z" fill="#263238"/>
<path d="M103.576 235.789C103.587 236.199 103.475 236.603 103.254 236.95C103.033 237.296 102.715 237.569 102.338 237.733C101.962 237.897 101.545 237.946 101.141 237.872C100.737 237.798 100.365 237.606 100.071 237.319C99.7766 237.033 99.5747 236.665 99.4907 236.263C99.4067 235.861 99.4444 235.443 99.5991 235.063C99.7538 234.682 100.018 234.357 100.359 234.127C100.7 233.898 101.101 233.776 101.511 233.776C101.779 233.772 102.045 233.821 102.294 233.921C102.542 234.02 102.769 234.167 102.961 234.354C103.153 234.541 103.306 234.764 103.411 235.01C103.517 235.256 103.573 235.521 103.576 235.789Z" fill="white"/>
<path d="M100.33 236.921C100.482 237.081 100.665 237.209 100.868 237.296C101.072 237.383 101.291 237.428 101.512 237.427C101.728 237.429 101.943 237.388 102.144 237.307C102.345 237.226 102.527 237.105 102.682 236.953C102.836 236.802 102.959 236.621 103.044 236.421C103.128 236.222 103.172 236.008 103.174 235.791C103.167 235.406 103.019 235.036 102.759 234.752C101.901 235.419 101.089 236.143 100.33 236.921Z" fill="#263238"/>
<path d="M111.681 235.789C111.694 236.202 111.583 236.61 111.363 236.96C111.143 237.31 110.823 237.587 110.445 237.754C110.066 237.921 109.646 237.972 109.239 237.899C108.832 237.827 108.456 237.634 108.158 237.346C107.861 237.058 107.657 236.688 107.571 236.283C107.486 235.879 107.523 235.458 107.678 235.074C107.833 234.691 108.099 234.362 108.442 234.131C108.785 233.899 109.19 233.776 109.603 233.776C110.145 233.769 110.668 233.976 111.057 234.354C111.447 234.731 111.671 235.247 111.681 235.789Z" fill="white"/>
<path d="M108.421 236.921C108.573 237.081 108.756 237.209 108.96 237.296C109.163 237.383 109.382 237.428 109.603 237.427C109.819 237.429 110.034 237.388 110.235 237.307C110.436 237.226 110.619 237.105 110.773 236.953C110.927 236.802 111.05 236.621 111.135 236.421C111.219 236.222 111.264 236.008 111.265 235.791C111.258 235.406 111.11 235.036 110.85 234.752C109.994 235.422 109.183 236.147 108.421 236.921Z" fill="#263238"/>
<path d="M119.772 235.789C119.785 236.203 119.674 236.611 119.453 236.962C119.232 237.312 118.912 237.589 118.532 237.755C118.153 237.922 117.733 237.972 117.325 237.898C116.918 237.825 116.541 237.631 116.245 237.342C115.948 237.052 115.745 236.681 115.66 236.275C115.576 235.87 115.615 235.448 115.773 235.065C115.93 234.682 116.198 234.354 116.543 234.124C116.887 233.895 117.293 233.773 117.707 233.776C117.975 233.772 118.241 233.821 118.49 233.921C118.738 234.02 118.965 234.167 119.157 234.354C119.348 234.541 119.501 234.764 119.607 235.01C119.713 235.256 119.769 235.521 119.772 235.789Z" fill="white"/>
<path d="M116.512 236.921C116.739 237.159 117.032 237.324 117.354 237.395C117.675 237.465 118.01 237.438 118.316 237.317C118.622 237.195 118.885 236.985 119.07 236.713C119.255 236.441 119.355 236.12 119.357 235.791C119.355 235.404 119.207 235.033 118.941 234.752C118.086 235.422 117.275 236.147 116.512 236.921Z" fill="#263238"/>
<path d="M127.863 235.789C127.874 236.199 127.761 236.603 127.541 236.95C127.32 237.296 127.002 237.569 126.625 237.733C126.249 237.897 125.832 237.946 125.428 237.872C125.024 237.798 124.652 237.606 124.358 237.319C124.063 237.033 123.862 236.665 123.778 236.263C123.694 235.861 123.731 235.443 123.886 235.063C124.041 234.682 124.305 234.357 124.646 234.127C124.986 233.898 125.388 233.776 125.798 233.776C126.066 233.772 126.332 233.821 126.581 233.921C126.829 234.02 127.056 234.167 127.248 234.354C127.44 234.541 127.593 234.764 127.698 235.01C127.804 235.256 127.86 235.521 127.863 235.789Z" fill="white"/>
<path d="M124.604 236.921C124.832 237.157 125.126 237.321 125.447 237.39C125.769 237.46 126.104 237.432 126.41 237.311C126.716 237.19 126.979 236.981 127.166 236.711C127.353 236.44 127.456 236.12 127.461 235.791C127.453 235.406 127.305 235.036 127.045 234.752C126.183 235.419 125.367 236.143 124.604 236.921Z" fill="#263238"/>
<path d="M135.955 235.789C135.965 236.199 135.853 236.603 135.633 236.95C135.412 237.296 135.093 237.569 134.717 237.733C134.341 237.897 133.924 237.946 133.52 237.872C133.116 237.798 132.743 237.606 132.449 237.319C132.155 237.033 131.953 236.665 131.869 236.263C131.785 235.861 131.823 235.443 131.978 235.063C132.132 234.682 132.397 234.357 132.737 234.127C133.078 233.898 133.479 233.776 133.89 233.776C134.158 233.772 134.424 233.821 134.672 233.921C134.921 234.02 135.148 234.167 135.339 234.354C135.531 234.541 135.684 234.764 135.79 235.01C135.895 235.256 135.952 235.521 135.955 235.789Z" fill="white"/>
<path d="M132.656 236.921C132.811 237.081 132.997 237.208 133.202 237.295C133.407 237.382 133.628 237.427 133.851 237.427C134.067 237.429 134.282 237.388 134.483 237.307C134.684 237.226 134.867 237.105 135.021 236.953C135.175 236.802 135.298 236.621 135.383 236.421C135.467 236.222 135.511 236.008 135.513 235.791C135.506 235.406 135.358 235.036 135.098 234.752C134.238 235.422 133.423 236.147 132.656 236.921Z" fill="#263238"/>
<path d="M144.047 235.789C144.057 236.199 143.945 236.603 143.724 236.95C143.504 237.296 143.185 237.569 142.808 237.733C142.432 237.897 142.015 237.946 141.611 237.872C141.207 237.798 140.835 237.606 140.541 237.319C140.247 237.033 140.045 236.665 139.961 236.263C139.877 235.861 139.915 235.443 140.069 235.063C140.224 234.682 140.488 234.357 140.829 234.127C141.17 233.898 141.571 233.776 141.981 233.776C142.249 233.772 142.515 233.821 142.764 233.921C143.013 234.02 143.239 234.167 143.431 234.354C143.623 234.541 143.776 234.764 143.881 235.01C143.987 235.256 144.043 235.521 144.047 235.789Z" fill="white"/>
<path d="M140.799 236.921C140.952 237.081 141.135 237.209 141.338 237.296C141.541 237.383 141.76 237.428 141.981 237.427C142.198 237.429 142.413 237.388 142.614 237.307C142.814 237.226 142.997 237.105 143.151 236.953C143.306 236.802 143.429 236.621 143.513 236.421C143.598 236.222 143.642 236.008 143.644 235.791C143.636 235.406 143.488 235.036 143.228 234.752C142.37 235.419 141.559 236.143 140.799 236.921Z" fill="#263238"/>
<path d="M152.137 235.789C152.15 236.202 152.039 236.61 151.819 236.96C151.599 237.31 151.279 237.587 150.901 237.754C150.522 237.921 150.102 237.972 149.695 237.899C149.288 237.827 148.912 237.634 148.614 237.346C148.317 237.058 148.113 236.688 148.027 236.283C147.942 235.879 147.979 235.458 148.134 235.074C148.289 234.691 148.555 234.362 148.898 234.131C149.241 233.899 149.646 233.776 150.059 233.776C150.601 233.769 151.124 233.976 151.513 234.354C151.903 234.731 152.127 235.247 152.137 235.789Z" fill="white"/>
<path d="M148.891 236.921C149.043 237.081 149.226 237.209 149.429 237.296C149.632 237.383 149.851 237.428 150.072 237.427C150.289 237.429 150.504 237.388 150.705 237.307C150.905 237.226 151.088 237.105 151.243 236.953C151.397 236.802 151.52 236.621 151.604 236.421C151.689 236.222 151.733 236.008 151.735 235.791C151.727 235.406 151.579 235.036 151.319 234.752C150.464 235.422 149.653 236.147 148.891 236.921Z" fill="#263238"/>
<path d="M160.242 235.789C160.252 236.199 160.14 236.603 159.919 236.95C159.699 237.296 159.38 237.569 159.004 237.733C158.627 237.897 158.211 237.946 157.807 237.872C157.403 237.798 157.03 237.606 156.736 237.319C156.442 237.033 156.24 236.665 156.156 236.263C156.072 235.861 156.11 235.443 156.265 235.063C156.419 234.682 156.684 234.357 157.024 234.127C157.365 233.898 157.766 233.776 158.177 233.776C158.445 233.772 158.71 233.821 158.959 233.921C159.208 234.02 159.435 234.167 159.626 234.354C159.818 234.541 159.971 234.764 160.077 235.01C160.182 235.256 160.239 235.521 160.242 235.789Z" fill="white"/>
<path d="M156.982 236.921C157.209 237.159 157.502 237.324 157.823 237.395C158.145 237.465 158.48 237.438 158.786 237.317C159.092 237.195 159.354 236.985 159.54 236.713C159.725 236.441 159.825 236.12 159.826 235.791C159.825 235.404 159.676 235.033 159.411 234.752C158.556 235.422 157.744 236.147 156.982 236.921Z" fill="#263238"/>
<path d="M168.334 235.789C168.344 236.199 168.232 236.603 168.011 236.95C167.791 237.296 167.472 237.569 167.095 237.733C166.719 237.897 166.302 237.946 165.898 237.872C165.494 237.798 165.122 237.606 164.828 237.319C164.534 237.033 164.332 236.665 164.248 236.263C164.164 235.861 164.202 235.443 164.356 235.063C164.511 234.682 164.775 234.357 165.116 234.127C165.457 233.898 165.858 233.776 166.268 233.776C166.536 233.772 166.802 233.821 167.051 233.921C167.3 234.02 167.526 234.167 167.718 234.354C167.91 234.541 168.063 234.764 168.168 235.01C168.274 235.256 168.33 235.521 168.334 235.789Z" fill="white"/>
<path d="M165.125 236.921C165.354 237.157 165.647 237.321 165.969 237.39C166.291 237.46 166.626 237.432 166.931 237.311C167.237 237.19 167.501 236.981 167.688 236.711C167.875 236.44 167.977 236.12 167.982 235.791C167.975 235.406 167.827 235.036 167.567 234.752C166.707 235.422 165.892 236.147 165.125 236.921Z" fill="#263238"/>
<path d="M176.424 235.789C176.435 236.199 176.323 236.603 176.102 236.95C175.881 237.296 175.563 237.569 175.186 237.733C174.81 237.897 174.393 237.946 173.989 237.872C173.585 237.798 173.213 237.606 172.919 237.319C172.625 237.033 172.423 236.665 172.339 236.263C172.255 235.861 172.292 235.443 172.447 235.063C172.602 234.682 172.866 234.357 173.207 234.127C173.548 233.898 173.949 233.776 174.359 233.776C174.627 233.772 174.893 233.821 175.142 233.921C175.39 234.02 175.617 234.167 175.809 234.354C176.001 234.541 176.154 234.764 176.259 235.01C176.365 235.256 176.421 235.521 176.424 235.789Z" fill="white"/>
<path d="M173.165 236.921C173.32 237.081 173.506 237.208 173.711 237.295C173.916 237.382 174.137 237.427 174.359 237.427C174.576 237.429 174.791 237.388 174.992 237.307C175.192 237.226 175.375 237.105 175.53 236.953C175.684 236.802 175.807 236.621 175.891 236.421C175.976 236.222 176.02 236.008 176.022 235.791C176.014 235.406 175.867 235.036 175.606 234.752C174.747 235.422 173.931 236.147 173.165 236.921Z" fill="#263238"/>
<path d="M184.516 235.789C184.526 236.199 184.414 236.603 184.194 236.95C183.973 237.296 183.654 237.569 183.278 237.733C182.902 237.897 182.485 237.946 182.081 237.872C181.677 237.798 181.304 237.606 181.01 237.319C180.716 237.033 180.514 236.665 180.43 236.263C180.346 235.861 180.384 235.443 180.539 235.063C180.693 234.682 180.958 234.357 181.298 234.127C181.639 233.898 182.04 233.776 182.451 233.776C182.719 233.772 182.985 233.821 183.233 233.921C183.482 234.02 183.709 234.167 183.9 234.354C184.092 234.541 184.245 234.764 184.351 235.01C184.457 235.256 184.513 235.521 184.516 235.789Z" fill="white"/>
<path d="M181.269 236.921C181.421 237.081 181.604 237.209 181.808 237.296C182.011 237.383 182.23 237.428 182.451 237.427C182.667 237.429 182.882 237.388 183.083 237.307C183.284 237.226 183.467 237.105 183.621 236.953C183.775 236.802 183.898 236.621 183.983 236.421C184.067 236.222 184.112 236.008 184.113 235.791C184.106 235.406 183.958 235.036 183.698 234.752C182.842 235.422 182.031 236.147 181.269 236.921Z" fill="#263238"/>
<path d="M192.62 235.789C192.633 236.203 192.522 236.611 192.301 236.962C192.08 237.312 191.76 237.589 191.381 237.755C191.001 237.922 190.581 237.972 190.173 237.898C189.766 237.825 189.389 237.631 189.093 237.342C188.796 237.052 188.593 236.681 188.509 236.275C188.424 235.87 188.464 235.448 188.621 235.065C188.778 234.682 189.046 234.354 189.391 234.124C189.735 233.895 190.141 233.773 190.555 233.776C190.823 233.772 191.089 233.821 191.338 233.921C191.586 234.02 191.813 234.167 192.005 234.354C192.197 234.541 192.35 234.764 192.455 235.01C192.561 235.256 192.617 235.521 192.62 235.789Z" fill="white"/>
<path d="M189.36 236.921C189.587 237.159 189.88 237.324 190.201 237.395C190.523 237.465 190.858 237.438 191.164 237.317C191.47 237.195 191.732 236.985 191.918 236.713C192.103 236.441 192.203 236.12 192.204 235.791C192.203 235.404 192.054 235.033 191.789 234.752C190.933 235.422 190.122 236.147 189.36 236.921Z" fill="#263238"/>
<path d="M200.712 235.789C200.722 236.199 200.61 236.603 200.389 236.95C200.169 237.296 199.85 237.569 199.473 237.733C199.097 237.897 198.68 237.946 198.276 237.872C197.873 237.798 197.5 237.606 197.206 237.319C196.912 237.033 196.71 236.665 196.626 236.263C196.542 235.861 196.58 235.443 196.734 235.063C196.889 234.682 197.153 234.357 197.494 234.127C197.835 233.898 198.236 233.776 198.647 233.776C198.914 233.772 199.18 233.821 199.429 233.921C199.678 234.02 199.904 234.167 200.096 234.354C200.288 234.541 200.441 234.764 200.546 235.01C200.652 235.256 200.708 235.521 200.712 235.789Z" fill="white"/>
<path d="M197.452 236.921C197.68 237.157 197.974 237.321 198.296 237.39C198.617 237.46 198.952 237.432 199.258 237.311C199.564 237.19 199.827 236.981 200.014 236.711C200.201 236.44 200.304 236.12 200.309 235.791C200.301 235.406 200.154 235.036 199.893 234.752C199.031 235.419 198.215 236.143 197.452 236.921Z" fill="#263238"/>
<path d="M208.803 235.789C208.813 236.199 208.701 236.603 208.481 236.95C208.26 237.296 207.941 237.569 207.565 237.733C207.189 237.897 206.772 237.946 206.368 237.872C205.964 237.798 205.591 237.606 205.297 237.319C205.003 237.033 204.801 236.665 204.717 236.263C204.633 235.861 204.671 235.443 204.826 235.063C204.98 234.682 205.245 234.357 205.585 234.127C205.926 233.898 206.327 233.776 206.738 233.776C207.006 233.772 207.272 233.821 207.52 233.921C207.769 234.02 207.996 234.167 208.187 234.354C208.379 234.541 208.532 234.764 208.638 235.01C208.744 235.256 208.8 235.521 208.803 235.789Z" fill="white"/>
<path d="M205.543 236.921C205.699 237.081 205.884 237.208 206.09 237.295C206.295 237.382 206.515 237.427 206.738 237.427C206.955 237.429 207.169 237.388 207.37 237.307C207.571 237.226 207.754 237.105 207.908 236.953C208.063 236.802 208.185 236.621 208.27 236.421C208.354 236.222 208.399 236.008 208.4 235.791C208.393 235.406 208.245 235.036 207.985 234.752C207.126 235.422 206.31 236.147 205.543 236.921Z" fill="#263238"/>
<path d="M298.482 222.921C298.49 223.331 298.376 223.734 298.154 224.078C297.931 224.423 297.612 224.694 297.235 224.856C296.858 225.018 296.442 225.065 296.039 224.99C295.636 224.915 295.264 224.721 294.972 224.434C294.679 224.147 294.478 223.779 294.395 223.377C294.313 222.976 294.351 222.558 294.506 222.179C294.661 221.799 294.926 221.474 295.266 221.246C295.607 221.017 296.007 220.895 296.417 220.895C296.686 220.891 296.953 220.941 297.203 221.041C297.452 221.141 297.68 221.29 297.872 221.478C298.063 221.666 298.216 221.891 298.321 222.138C298.426 222.386 298.481 222.652 298.482 222.921Z" fill="white"/>
<path d="M295.236 224.038C295.462 224.276 295.754 224.441 296.074 224.512C296.394 224.582 296.728 224.556 297.034 224.436C297.339 224.317 297.602 224.108 297.788 223.838C297.974 223.569 298.076 223.249 298.08 222.921C298.076 222.531 297.928 222.157 297.664 221.869C296.809 222.539 295.998 223.264 295.236 224.038Z" fill="#263238"/>
<path d="M306.587 222.921C306.597 223.334 306.484 223.742 306.261 224.09C306.039 224.439 305.717 224.714 305.338 224.879C304.958 225.043 304.538 225.091 304.131 225.016C303.725 224.941 303.349 224.746 303.054 224.456C302.759 224.166 302.557 223.795 302.474 223.39C302.391 222.984 302.431 222.563 302.588 222.181C302.746 221.798 303.014 221.472 303.359 221.242C303.703 221.013 304.108 220.892 304.522 220.895C304.791 220.891 305.058 220.941 305.307 221.041C305.557 221.141 305.784 221.29 305.976 221.478C306.168 221.666 306.321 221.891 306.425 222.138C306.53 222.386 306.585 222.652 306.587 222.921Z" fill="white"/>
<path d="M303.327 224.038C303.553 224.276 303.845 224.441 304.165 224.512C304.486 224.582 304.82 224.556 305.125 224.436C305.43 224.317 305.693 224.108 305.88 223.838C306.066 223.569 306.168 223.249 306.172 222.921C306.172 222.53 306.024 222.154 305.756 221.869C304.901 222.539 304.089 223.264 303.327 224.038Z" fill="#263238"/>
<path d="M314.678 222.921C314.686 223.331 314.572 223.734 314.349 224.078C314.127 224.423 313.808 224.694 313.431 224.856C313.054 225.018 312.638 225.065 312.235 224.99C311.832 224.915 311.46 224.721 311.168 224.434C310.875 224.147 310.674 223.779 310.591 223.377C310.508 222.976 310.547 222.558 310.702 222.179C310.857 221.799 311.122 221.474 311.462 221.246C311.803 221.017 312.203 220.895 312.613 220.895C312.882 220.891 313.149 220.941 313.399 221.041C313.648 221.141 313.875 221.29 314.067 221.478C314.259 221.666 314.412 221.891 314.517 222.138C314.622 222.386 314.677 222.652 314.678 222.921Z" fill="white"/>
<path d="M311.418 224.038C311.646 224.274 311.939 224.437 312.259 224.507C312.579 224.577 312.913 224.55 313.219 224.431C313.524 224.312 313.788 224.105 313.976 223.836C314.164 223.567 314.268 223.249 314.276 222.921C314.271 222.531 314.123 222.157 313.86 221.869C312.998 222.536 312.182 223.261 311.418 224.038Z" fill="#263238"/>
<path d="M322.77 222.921C322.777 223.331 322.663 223.734 322.441 224.078C322.218 224.423 321.899 224.694 321.522 224.856C321.146 225.018 320.729 225.065 320.326 224.99C319.923 224.915 319.551 224.721 319.259 224.434C318.966 224.147 318.765 223.779 318.682 223.377C318.6 222.976 318.638 222.558 318.793 222.179C318.948 221.799 319.213 221.474 319.553 221.246C319.894 221.017 320.294 220.895 320.705 220.895C320.973 220.891 321.24 220.941 321.49 221.041C321.739 221.141 321.967 221.29 322.159 221.478C322.351 221.666 322.503 221.891 322.608 222.138C322.713 222.386 322.768 222.652 322.77 222.921Z" fill="white"/>
<path d="M319.51 224.038C319.665 224.198 319.851 224.325 320.056 224.412C320.261 224.499 320.482 224.544 320.705 224.545C320.921 224.548 321.135 224.509 321.336 224.429C321.537 224.349 321.719 224.23 321.874 224.079C322.029 223.928 322.152 223.748 322.236 223.549C322.321 223.351 322.365 223.137 322.367 222.921C322.363 222.531 322.215 222.157 321.951 221.869C321.092 222.539 320.277 223.264 319.51 224.038Z" fill="#263238"/>
<path d="M330.861 222.921C330.869 223.331 330.754 223.734 330.532 224.078C330.31 224.423 329.99 224.694 329.614 224.856C329.237 225.018 328.821 225.065 328.418 224.99C328.014 224.915 327.643 224.721 327.35 224.434C327.057 224.147 326.857 223.779 326.774 223.377C326.691 222.976 326.73 222.558 326.885 222.179C327.04 221.799 327.304 221.474 327.645 221.246C327.985 221.017 328.386 220.895 328.796 220.895C329.065 220.891 329.332 220.941 329.581 221.041C329.831 221.141 330.058 221.29 330.25 221.478C330.442 221.666 330.595 221.891 330.7 222.138C330.804 222.386 330.859 222.652 330.861 222.921Z" fill="white"/>
<path d="M327.614 224.038C327.84 224.276 328.132 224.441 328.452 224.512C328.773 224.582 329.107 224.556 329.412 224.436C329.717 224.317 329.98 224.108 330.166 223.838C330.353 223.569 330.455 223.249 330.459 222.921C330.454 222.531 330.306 222.157 330.043 221.869C329.185 222.536 328.373 223.261 327.614 224.038Z" fill="#263238"/>
<path d="M338.965 222.921C338.976 223.334 338.863 223.741 338.641 224.089C338.419 224.438 338.098 224.712 337.719 224.877C337.341 225.043 336.921 225.091 336.515 225.017C336.108 224.943 335.733 224.749 335.437 224.461C335.141 224.172 334.938 223.802 334.854 223.398C334.769 222.993 334.807 222.573 334.963 222.19C335.119 221.807 335.385 221.48 335.728 221.249C336.07 221.018 336.474 220.895 336.887 220.895C337.157 220.891 337.424 220.941 337.675 221.041C337.925 221.141 338.153 221.289 338.346 221.477C338.539 221.665 338.693 221.89 338.799 222.137C338.906 222.385 338.962 222.651 338.965 222.921Z" fill="white"/>
<path d="M335.705 224.038C335.931 224.276 336.223 224.441 336.543 224.512C336.864 224.582 337.198 224.556 337.503 224.436C337.808 224.317 338.071 224.108 338.257 223.838C338.444 223.569 338.546 223.249 338.55 222.921C338.545 222.531 338.397 222.157 338.134 221.869C337.279 222.539 336.467 223.264 335.705 224.038Z" fill="#263238"/>
<path d="M347.056 222.921C347.067 223.334 346.953 223.742 346.731 224.09C346.508 224.439 346.187 224.714 345.807 224.879C345.428 225.043 345.008 225.091 344.601 225.016C344.194 224.941 343.819 224.746 343.524 224.456C343.228 224.166 343.026 223.795 342.943 223.39C342.86 222.984 342.9 222.563 343.058 222.181C343.215 221.798 343.484 221.472 343.828 221.242C344.173 221.013 344.578 220.892 344.991 220.895C345.26 220.891 345.527 220.941 345.777 221.041C346.026 221.141 346.253 221.29 346.445 221.478C346.637 221.666 346.79 221.891 346.895 222.138C347 222.386 347.055 222.652 347.056 222.921Z" fill="white"/>
<path d="M343.797 224.038C344.023 224.276 344.315 224.441 344.635 224.512C344.955 224.582 345.289 224.556 345.595 224.436C345.9 224.317 346.163 224.108 346.349 223.838C346.535 223.569 346.637 223.249 346.641 222.921C346.642 222.53 346.493 222.154 346.226 221.869C345.37 222.539 344.559 223.264 343.797 224.038Z" fill="#263238"/>
<path d="M355.148 222.921C355.156 223.331 355.041 223.734 354.819 224.078C354.597 224.423 354.277 224.694 353.901 224.856C353.524 225.018 353.108 225.065 352.704 224.99C352.301 224.915 351.93 224.721 351.637 224.434C351.344 224.147 351.144 223.779 351.061 223.377C350.978 222.976 351.017 222.558 351.172 222.179C351.327 221.799 351.591 221.474 351.932 221.246C352.272 221.017 352.673 220.895 353.083 220.895C353.352 220.891 353.619 220.941 353.868 221.041C354.118 221.141 354.345 221.29 354.537 221.478C354.729 221.666 354.882 221.891 354.987 222.138C355.091 222.386 355.146 222.652 355.148 222.921Z" fill="white"/>
<path d="M351.888 224.038C352.116 224.274 352.408 224.437 352.729 224.507C353.049 224.577 353.383 224.55 353.688 224.431C353.994 224.312 354.257 224.105 354.445 223.836C354.633 223.567 354.738 223.249 354.745 222.921C354.741 222.531 354.593 222.157 354.33 221.869C353.467 222.536 352.652 223.261 351.888 224.038Z" fill="#263238"/>
<path d="M363.239 222.921C363.247 223.331 363.132 223.734 362.91 224.078C362.688 224.423 362.368 224.694 361.992 224.856C361.615 225.018 361.199 225.065 360.796 224.99C360.392 224.915 360.021 224.721 359.728 224.434C359.435 224.147 359.235 223.779 359.152 223.377C359.069 222.976 359.108 222.558 359.263 222.179C359.418 221.799 359.682 221.474 360.023 221.246C360.363 221.017 360.764 220.895 361.174 220.895C361.443 220.891 361.71 220.941 361.959 221.041C362.209 221.141 362.436 221.29 362.628 221.478C362.82 221.666 362.973 221.891 363.078 222.138C363.183 222.386 363.237 222.652 363.239 222.921Z" fill="white"/>
<path d="M359.94 224.038C360.096 224.198 360.281 224.325 360.487 224.412C360.692 224.499 360.912 224.544 361.135 224.545C361.351 224.548 361.566 224.509 361.766 224.429C361.967 224.349 362.15 224.23 362.304 224.079C362.459 223.928 362.582 223.748 362.667 223.549C362.751 223.351 362.796 223.137 362.798 222.921C362.793 222.531 362.645 222.157 362.382 221.869C361.523 222.539 360.707 223.264 359.94 224.038Z" fill="#263238"/>
<path d="M371.331 222.921C371.338 223.331 371.224 223.734 371.002 224.078C370.78 224.423 370.46 224.694 370.083 224.856C369.707 225.018 369.29 225.065 368.887 224.99C368.484 224.915 368.112 224.721 367.82 224.434C367.527 224.147 367.326 223.779 367.243 223.377C367.161 222.976 367.199 222.558 367.354 222.179C367.509 221.799 367.774 221.474 368.114 221.246C368.455 221.017 368.855 220.895 369.266 220.895C369.534 220.891 369.801 220.941 370.051 221.041C370.3 221.141 370.528 221.29 370.72 221.478C370.912 221.666 371.064 221.891 371.169 222.138C371.274 222.386 371.329 222.652 371.331 222.921Z" fill="white"/>
<path d="M368.084 224.038C368.31 224.276 368.602 224.441 368.922 224.512C369.242 224.582 369.576 224.556 369.882 224.436C370.187 224.317 370.45 224.108 370.636 223.838C370.822 223.569 370.924 223.249 370.928 222.921C370.924 222.531 370.776 222.157 370.512 221.869C369.654 222.536 368.843 223.261 368.084 224.038Z" fill="#263238"/>
<path d="M379.422 222.921C379.432 223.334 379.319 223.741 379.097 224.089C378.875 224.438 378.555 224.712 378.176 224.877C377.797 225.043 377.378 225.091 376.971 225.017C376.565 224.943 376.19 224.749 375.894 224.461C375.598 224.172 375.395 223.802 375.31 223.398C375.226 222.993 375.264 222.573 375.42 222.19C375.575 221.807 375.842 221.48 376.184 221.249C376.527 221.018 376.931 220.895 377.344 220.895C377.613 220.891 377.881 220.941 378.131 221.041C378.382 221.141 378.61 221.289 378.803 221.477C378.996 221.665 379.15 221.89 379.256 222.137C379.362 222.385 379.419 222.651 379.422 222.921Z" fill="white"/>
<path d="M376.175 224.038C376.401 224.276 376.693 224.441 377.013 224.512C377.333 224.582 377.667 224.556 377.973 224.436C378.278 224.317 378.541 224.108 378.727 223.838C378.913 223.569 379.015 223.249 379.019 222.921C379.015 222.531 378.867 222.157 378.604 221.869C377.748 222.539 376.937 223.264 376.175 224.038Z" fill="#263238"/>
<path d="M387.526 222.921C387.534 223.331 387.419 223.734 387.197 224.078C386.975 224.423 386.655 224.694 386.279 224.856C385.902 225.018 385.486 225.065 385.083 224.99C384.679 224.915 384.308 224.721 384.015 224.434C383.722 224.147 383.522 223.779 383.439 223.377C383.356 222.976 383.395 222.558 383.55 222.179C383.705 221.799 383.969 221.474 384.31 221.246C384.65 221.017 385.051 220.895 385.461 220.895C385.73 220.891 385.997 220.941 386.246 221.041C386.496 221.141 386.723 221.29 386.915 221.478C387.107 221.666 387.26 221.891 387.365 222.138C387.469 222.386 387.524 222.652 387.526 222.921Z" fill="white"/>
<path d="M384.266 224.038C384.421 224.198 384.607 224.326 384.812 224.413C385.018 224.5 385.238 224.545 385.461 224.545C385.676 224.546 385.889 224.506 386.088 224.425C386.288 224.344 386.469 224.225 386.622 224.075C386.775 223.924 386.897 223.744 386.981 223.546C387.065 223.349 387.109 223.136 387.111 222.921C387.111 222.53 386.963 222.154 386.695 221.869C385.84 222.539 385.029 223.264 384.266 224.038Z" fill="#263238"/>
<path d="M395.618 222.921C395.625 223.331 395.511 223.734 395.289 224.078C395.067 224.423 394.747 224.694 394.37 224.856C393.994 225.018 393.577 225.065 393.174 224.99C392.771 224.915 392.399 224.721 392.107 224.434C391.814 224.147 391.613 223.779 391.531 223.377C391.448 222.976 391.486 222.558 391.641 222.179C391.796 221.799 392.061 221.474 392.401 221.246C392.742 221.017 393.143 220.895 393.553 220.895C393.821 220.891 394.088 220.941 394.338 221.041C394.587 221.141 394.815 221.29 395.007 221.478C395.199 221.666 395.351 221.891 395.456 222.138C395.561 222.386 395.616 222.652 395.618 222.921Z" fill="white"/>
<path d="M392.409 224.038C392.637 224.274 392.93 224.437 393.25 224.507C393.571 224.577 393.905 224.55 394.21 224.431C394.515 224.312 394.779 224.105 394.967 223.836C395.155 223.567 395.259 223.249 395.267 222.921C395.262 222.531 395.114 222.157 394.851 221.869C393.992 222.539 393.176 223.264 392.409 224.038Z" fill="#263238"/>
<path d="M403.709 222.921C403.716 223.331 403.602 223.734 403.38 224.078C403.158 224.423 402.838 224.694 402.461 224.856C402.085 225.018 401.668 225.065 401.265 224.99C400.862 224.915 400.49 224.721 400.198 224.434C399.905 224.147 399.704 223.779 399.622 223.377C399.539 222.976 399.577 222.558 399.732 222.179C399.887 221.799 400.152 221.474 400.492 221.246C400.833 221.017 401.234 220.895 401.644 220.895C401.912 220.891 402.179 220.941 402.429 221.041C402.678 221.141 402.906 221.29 403.098 221.478C403.29 221.666 403.442 221.891 403.547 222.138C403.652 222.386 403.707 222.652 403.709 222.921Z" fill="white"/>
<path d="M400.449 224.038C400.604 224.198 400.79 224.325 400.995 224.412C401.201 224.499 401.421 224.544 401.644 224.545C401.86 224.548 402.074 224.509 402.275 224.429C402.476 224.349 402.659 224.23 402.813 224.079C402.968 223.928 403.091 223.748 403.176 223.549C403.26 223.351 403.305 223.137 403.306 222.921C403.302 222.531 403.154 222.157 402.891 221.869C402.031 222.539 401.216 223.264 400.449 224.038Z" fill="#263238"/>
<path d="M298.483 235.789C298.493 236.199 298.381 236.603 298.16 236.95C297.94 237.296 297.621 237.569 297.245 237.733C296.868 237.897 296.452 237.946 296.048 237.872C295.644 237.798 295.271 237.606 294.977 237.319C294.683 237.033 294.481 236.665 294.397 236.263C294.313 235.861 294.351 235.443 294.505 235.063C294.66 234.682 294.925 234.357 295.265 234.127C295.606 233.898 296.007 233.776 296.418 233.776C296.685 233.772 296.951 233.821 297.2 233.921C297.449 234.02 297.675 234.167 297.867 234.354C298.059 234.541 298.212 234.764 298.318 235.01C298.423 235.256 298.479 235.521 298.483 235.789Z" fill="white"/>
<path d="M295.236 236.921C295.388 237.081 295.571 237.209 295.774 237.296C295.978 237.383 296.196 237.428 296.418 237.427C296.634 237.429 296.849 237.388 297.05 237.307C297.251 237.226 297.433 237.105 297.588 236.953C297.742 236.802 297.865 236.621 297.949 236.421C298.034 236.222 298.078 236.008 298.08 235.791C298.072 235.406 297.925 235.036 297.664 234.752C296.809 235.422 295.998 236.147 295.236 236.921Z" fill="#263238"/>
<path d="M306.587 235.789C306.6 236.203 306.489 236.611 306.268 236.962C306.047 237.312 305.726 237.589 305.347 237.755C304.968 237.922 304.548 237.972 304.14 237.898C303.732 237.825 303.356 237.631 303.059 237.342C302.763 237.052 302.559 236.681 302.475 236.275C302.391 235.87 302.43 235.448 302.587 235.065C302.745 234.682 303.013 234.354 303.357 234.124C303.702 233.895 304.108 233.773 304.522 233.776C304.79 233.772 305.056 233.821 305.304 233.921C305.553 234.02 305.78 234.167 305.971 234.354C306.163 234.541 306.316 234.764 306.422 235.01C306.528 235.256 306.584 235.521 306.587 235.789Z" fill="white"/>
<path d="M303.327 236.921C303.554 237.159 303.847 237.324 304.169 237.395C304.49 237.465 304.825 237.438 305.131 237.317C305.437 237.195 305.699 236.985 305.885 236.713C306.07 236.441 306.17 236.12 306.172 235.791C306.17 235.404 306.022 235.033 305.756 234.752C304.901 235.422 304.089 236.147 303.327 236.921Z" fill="#263238"/>
<path d="M314.678 235.789C314.688 236.199 314.576 236.603 314.356 236.95C314.135 237.296 313.816 237.569 313.44 237.733C313.064 237.897 312.647 237.946 312.243 237.872C311.839 237.798 311.466 237.606 311.172 237.319C310.878 237.033 310.676 236.665 310.592 236.263C310.508 235.861 310.546 235.443 310.701 235.063C310.855 234.682 311.12 234.357 311.461 234.127C311.801 233.898 312.202 233.776 312.613 233.776C312.881 233.772 313.147 233.821 313.395 233.921C313.644 234.02 313.871 234.167 314.063 234.354C314.254 234.541 314.407 234.764 314.513 235.01C314.619 235.256 314.675 235.521 314.678 235.789Z" fill="white"/>
<path d="M311.418 236.921C311.647 237.157 311.941 237.321 312.262 237.39C312.584 237.46 312.919 237.432 313.225 237.311C313.531 237.19 313.794 236.981 313.981 236.711C314.168 236.44 314.27 236.12 314.276 235.791C314.268 235.406 314.12 235.036 313.86 234.752C312.998 235.419 312.182 236.143 311.418 236.921Z" fill="#263238"/>
<path d="M322.77 235.789C322.78 236.199 322.668 236.603 322.447 236.95C322.227 237.296 321.908 237.569 321.532 237.733C321.155 237.897 320.739 237.946 320.335 237.872C319.931 237.798 319.558 237.606 319.264 237.319C318.97 237.033 318.768 236.665 318.684 236.263C318.6 235.861 318.638 235.443 318.792 235.063C318.947 234.682 319.212 234.357 319.552 234.127C319.893 233.898 320.294 233.776 320.705 233.776C320.972 233.772 321.238 233.821 321.487 233.921C321.736 234.02 321.962 234.167 322.154 234.354C322.346 234.541 322.499 234.764 322.605 235.01C322.71 235.256 322.766 235.521 322.77 235.789Z" fill="white"/>
<path d="M319.51 236.921C319.665 237.081 319.851 237.208 320.056 237.295C320.261 237.382 320.482 237.427 320.705 237.427C320.921 237.429 321.136 237.388 321.337 237.307C321.538 237.226 321.72 237.105 321.875 236.953C322.029 236.802 322.152 236.621 322.237 236.421C322.321 236.222 322.365 236.008 322.367 235.791C322.36 235.406 322.212 235.036 321.951 234.752C321.092 235.422 320.277 236.147 319.51 236.921Z" fill="#263238"/>
<path d="M330.861 235.789C330.871 236.199 330.759 236.603 330.538 236.95C330.318 237.296 329.999 237.569 329.623 237.733C329.246 237.897 328.83 237.946 328.426 237.872C328.022 237.798 327.649 237.606 327.355 237.319C327.061 237.033 326.859 236.665 326.775 236.263C326.691 235.861 326.729 235.443 326.883 235.063C327.038 234.682 327.303 234.357 327.643 234.127C327.984 233.898 328.385 233.776 328.796 233.776C329.063 233.772 329.329 233.821 329.578 233.921C329.827 234.02 330.053 234.167 330.245 234.354C330.437 234.541 330.59 234.764 330.696 235.01C330.801 235.256 330.857 235.521 330.861 235.789Z" fill="white"/>
<path d="M327.614 236.921C327.766 237.081 327.95 237.209 328.153 237.296C328.356 237.383 328.575 237.428 328.796 237.427C329.013 237.429 329.228 237.388 329.428 237.307C329.629 237.226 329.812 237.105 329.966 236.953C330.121 236.802 330.244 236.621 330.328 236.421C330.412 236.222 330.457 236.008 330.459 235.791C330.451 235.406 330.303 235.036 330.043 234.752C329.185 235.419 328.373 236.143 327.614 236.921Z" fill="#263238"/>
<path d="M338.966 235.789C338.979 236.202 338.868 236.61 338.647 236.96C338.427 237.31 338.107 237.587 337.729 237.754C337.35 237.921 336.931 237.972 336.523 237.899C336.116 237.827 335.74 237.634 335.443 237.346C335.146 237.058 334.941 236.688 334.856 236.283C334.77 235.879 334.807 235.458 334.962 235.074C335.117 234.691 335.384 234.362 335.727 234.131C336.07 233.899 336.474 233.776 336.888 233.776C337.43 233.769 337.952 233.976 338.342 234.354C338.731 234.731 338.955 235.247 338.966 235.789Z" fill="white"/>
<path d="M335.705 236.921C335.857 237.081 336.041 237.209 336.244 237.296C336.447 237.383 336.666 237.428 336.887 237.427C337.104 237.429 337.319 237.388 337.519 237.307C337.72 237.226 337.903 237.105 338.057 236.953C338.212 236.802 338.335 236.621 338.419 236.421C338.503 236.222 338.548 236.008 338.55 235.791C338.542 235.406 338.394 235.036 338.134 234.752C337.279 235.422 336.467 236.147 335.705 236.921Z" fill="#263238"/>
<path d="M347.057 235.789C347.069 236.203 346.958 236.611 346.737 236.962C346.517 237.312 346.196 237.589 345.817 237.755C345.438 237.922 345.017 237.972 344.61 237.898C344.202 237.825 343.826 237.631 343.529 237.342C343.232 237.052 343.029 236.681 342.945 236.275C342.861 235.87 342.9 235.448 343.057 235.065C343.214 234.682 343.482 234.354 343.827 234.124C344.172 233.895 344.577 233.773 344.991 233.776C345.259 233.772 345.525 233.821 345.774 233.921C346.023 234.02 346.249 234.167 346.441 234.354C346.633 234.541 346.786 234.764 346.891 235.01C346.997 235.256 347.053 235.521 347.057 235.789Z" fill="white"/>
<path d="M343.797 236.921C344.024 237.159 344.317 237.324 344.638 237.395C344.96 237.465 345.295 237.438 345.601 237.317C345.907 237.195 346.169 236.985 346.354 236.713C346.54 236.441 346.64 236.12 346.641 235.791C346.64 235.404 346.491 235.033 346.226 234.752C345.37 235.422 344.559 236.147 343.797 236.921Z" fill="#263238"/>
<path d="M355.148 235.789C355.158 236.199 355.046 236.603 354.825 236.95C354.605 237.296 354.286 237.569 353.91 237.733C353.533 237.897 353.116 237.946 352.713 237.872C352.309 237.798 351.936 237.606 351.642 237.319C351.348 237.033 351.146 236.665 351.062 236.263C350.978 235.861 351.016 235.443 351.17 235.063C351.325 234.682 351.59 234.357 351.93 234.127C352.271 233.898 352.672 233.776 353.083 233.776C353.35 233.772 353.616 233.821 353.865 233.921C354.114 234.02 354.34 234.167 354.532 234.354C354.724 234.541 354.877 234.764 354.983 235.01C355.088 235.256 355.144 235.521 355.148 235.789Z" fill="white"/>
<path d="M351.888 236.921C352.117 237.157 352.41 237.321 352.732 237.39C353.053 237.46 353.388 237.432 353.694 237.311C354 237.19 354.263 236.981 354.45 236.711C354.637 236.44 354.74 236.12 354.745 235.791C354.738 235.406 354.59 235.036 354.33 234.752C353.467 235.419 352.652 236.143 351.888 236.921Z" fill="#263238"/>
<path d="M363.239 235.789C363.25 236.199 363.137 236.603 362.917 236.95C362.696 237.296 362.377 237.569 362.001 237.733C361.625 237.897 361.208 237.946 360.804 237.872C360.4 237.798 360.027 237.606 359.733 237.319C359.439 237.033 359.237 236.665 359.154 236.263C359.07 235.861 359.107 235.443 359.262 235.063C359.417 234.682 359.681 234.357 360.022 234.127C360.362 233.898 360.764 233.776 361.174 233.776C361.442 233.772 361.708 233.821 361.957 233.921C362.205 234.02 362.432 234.167 362.624 234.354C362.815 234.541 362.969 234.764 363.074 235.01C363.18 235.256 363.236 235.521 363.239 235.789Z" fill="white"/>
<path d="M359.94 236.921C360.096 237.081 360.281 237.208 360.487 237.295C360.692 237.382 360.912 237.427 361.135 237.427C361.352 237.429 361.567 237.388 361.767 237.307C361.968 237.226 362.151 237.105 362.305 236.953C362.46 236.802 362.583 236.621 362.667 236.421C362.751 236.222 362.796 236.008 362.798 235.791C362.79 235.406 362.642 235.036 362.382 234.752C361.523 235.422 360.707 236.147 359.94 236.921Z" fill="#263238"/>
<path d="M371.33 235.789C371.341 236.199 371.228 236.603 371.008 236.95C370.787 237.296 370.468 237.569 370.092 237.733C369.716 237.897 369.299 237.946 368.895 237.872C368.491 237.798 368.118 237.606 367.824 237.319C367.53 237.033 367.329 236.665 367.245 236.263C367.161 235.861 367.198 235.443 367.353 235.063C367.508 234.682 367.772 234.357 368.113 234.127C368.453 233.898 368.855 233.776 369.265 233.776C369.533 233.772 369.799 233.821 370.048 233.921C370.296 234.02 370.523 234.167 370.715 234.354C370.907 234.541 371.06 234.764 371.165 235.01C371.271 235.256 371.327 235.521 371.33 235.789Z" fill="white"/>
<path d="M368.084 236.921C368.236 237.081 368.419 237.209 368.622 237.296C368.826 237.383 369.045 237.428 369.266 237.427C369.482 237.429 369.697 237.388 369.898 237.307C370.099 237.226 370.281 237.105 370.436 236.953C370.59 236.802 370.713 236.621 370.798 236.421C370.882 236.222 370.926 236.008 370.928 235.791C370.92 235.406 370.773 235.036 370.512 234.752C369.654 235.419 368.843 236.143 368.084 236.921Z" fill="#263238"/>
<path d="M379.422 235.789C379.435 236.202 379.324 236.61 379.103 236.96C378.883 237.31 378.563 237.587 378.185 237.754C377.806 237.921 377.387 237.972 376.979 237.899C376.572 237.827 376.196 237.634 375.899 237.346C375.602 237.058 375.397 236.688 375.312 236.283C375.226 235.879 375.263 235.458 375.418 235.074C375.574 234.691 375.84 234.362 376.183 234.131C376.526 233.899 376.93 233.776 377.344 233.776C377.886 233.769 378.408 233.976 378.798 234.354C379.187 234.731 379.411 235.247 379.422 235.789Z" fill="white"/>
<path d="M376.175 236.921C376.327 237.081 376.51 237.209 376.714 237.296C376.917 237.383 377.136 237.428 377.357 237.427C377.573 237.429 377.788 237.388 377.989 237.307C378.19 237.226 378.373 237.105 378.527 236.953C378.681 236.802 378.804 236.621 378.889 236.421C378.973 236.222 379.017 236.008 379.019 235.791C379.012 235.406 378.864 235.036 378.604 234.752C377.748 235.422 376.937 236.147 376.175 236.921Z" fill="#263238"/>
<path d="M387.526 235.789C387.537 236.199 387.424 236.603 387.204 236.95C386.983 237.296 386.664 237.569 386.288 237.733C385.912 237.897 385.495 237.946 385.091 237.872C384.687 237.798 384.314 237.606 384.02 237.319C383.726 237.033 383.524 236.665 383.44 236.263C383.356 235.861 383.394 235.443 383.549 235.063C383.704 234.682 383.968 234.357 384.309 234.127C384.649 233.898 385.051 233.776 385.461 233.776C385.729 233.772 385.995 233.821 386.243 233.921C386.492 234.02 386.719 234.167 386.911 234.354C387.102 234.541 387.256 234.764 387.361 235.01C387.467 235.256 387.523 235.521 387.526 235.789Z" fill="white"/>
<path d="M384.266 236.921C384.493 237.159 384.786 237.324 385.108 237.395C385.429 237.465 385.764 237.438 386.07 237.317C386.376 237.195 386.639 236.985 386.824 236.713C387.009 236.441 387.109 236.12 387.111 235.791C387.109 235.404 386.961 235.033 386.695 234.752C385.84 235.422 385.029 236.147 384.266 236.921Z" fill="#263238"/>
<path d="M395.618 235.789C395.628 236.199 395.516 236.603 395.295 236.95C395.075 237.296 394.756 237.569 394.38 237.733C394.003 237.897 393.587 237.946 393.183 237.872C392.779 237.798 392.406 237.606 392.112 237.319C391.818 237.033 391.616 236.665 391.532 236.263C391.448 235.861 391.486 235.443 391.64 235.063C391.795 234.682 392.06 234.357 392.4 234.127C392.741 233.898 393.142 233.776 393.553 233.776C393.821 233.772 394.086 233.821 394.335 233.921C394.584 234.02 394.811 234.167 395.002 234.354C395.194 234.541 395.347 234.764 395.453 235.01C395.558 235.256 395.614 235.521 395.618 235.789Z" fill="white"/>
<path d="M392.409 236.921C392.638 237.157 392.932 237.321 393.253 237.39C393.575 237.46 393.91 237.432 394.216 237.311C394.522 237.19 394.785 236.981 394.972 236.711C395.159 236.44 395.262 236.12 395.267 235.791C395.259 235.406 395.111 235.036 394.851 234.752C393.992 235.422 393.176 236.147 392.409 236.921Z" fill="#263238"/>
<path d="M403.709 235.789C403.719 236.199 403.607 236.603 403.386 236.95C403.166 237.296 402.847 237.569 402.471 237.733C402.094 237.897 401.678 237.946 401.274 237.872C400.87 237.798 400.497 237.606 400.203 237.319C399.909 237.033 399.707 236.665 399.623 236.263C399.539 235.861 399.577 235.443 399.731 235.063C399.886 234.682 400.151 234.357 400.491 234.127C400.832 233.898 401.233 233.776 401.644 233.776C401.912 233.772 402.177 233.821 402.426 233.921C402.675 234.02 402.902 234.167 403.093 234.354C403.285 234.541 403.438 234.764 403.544 235.01C403.649 235.256 403.705 235.521 403.709 235.789Z" fill="white"/>
<path d="M400.449 236.921C400.604 237.081 400.79 237.208 400.995 237.295C401.201 237.382 401.421 237.427 401.644 237.427C401.86 237.429 402.075 237.388 402.276 237.307C402.477 237.226 402.66 237.105 402.814 236.953C402.968 236.802 403.091 236.621 403.176 236.421C403.26 236.222 403.305 236.008 403.306 235.791C403.299 235.406 403.151 235.036 402.891 234.752C402.031 235.422 401.216 236.147 400.449 236.921Z" fill="#263238"/>
<path d="M432.022 492.428C466.093 492.428 493.714 486.323 493.714 478.791C493.714 471.26 466.093 465.154 432.022 465.154C397.951 465.154 370.331 471.26 370.331 478.791C370.331 486.323 397.951 492.428 432.022 492.428Z" fill="#00BFFF"/>
<path opacity="0.5" d="M432.022 492.428C466.093 492.428 493.714 486.323 493.714 478.791C493.714 471.26 466.093 465.154 432.022 465.154C397.951 465.154 370.331 471.26 370.331 478.791C370.331 486.323 397.951 492.428 432.022 492.428Z" fill="white"/>
<path d="M399.761 464.843C399.761 464.843 384.799 473.259 384.799 477.311C384.799 481.363 394.033 478.87 400.072 476.013C406.112 473.155 410.904 471.025 410.904 465.415C410.904 459.804 399.761 464.843 399.761 464.843Z" fill="#00BFFF" stroke="#263238" stroke-miterlimit="10"/>
<path d="M471.388 464.843C471.388 464.843 486.349 473.259 486.349 477.311C486.349 481.363 477.115 478.87 471.076 476.013C465.037 473.155 460.244 471.025 460.244 465.415C460.244 459.804 471.388 464.843 471.388 464.843Z" fill="#00BFFF" stroke="#263238" stroke-miterlimit="10"/>
<path d="M405.813 327.082L399.436 466.453C400.318 467.178 401.338 467.718 402.434 468.04C403.53 468.361 404.679 468.457 405.813 468.323C407.792 468.03 409.6 467.034 410.904 465.518L432.555 351.759H437.01L459.946 467.648C461.316 468.406 462.838 468.85 464.401 468.946C466.622 468.946 470.128 466.141 470.128 466.141L462.803 327.173L405.813 327.082Z" fill="#263238" stroke="#263238" stroke-miterlimit="10"/>
<path d="M428.1 242.623L399.124 254.455L406.761 321.783H462.153L472.349 251.962L440.828 242L428.1 242.623Z" fill="#00BFFF" stroke="#263238" stroke-miterlimit="10"/>
<path d="M431.282 252.271L434.775 257.882L429.048 306.196L436.048 316.482L442.1 305.261L437.321 257.258L441.464 250.726L435.412 248.076L431.282 252.271Z" fill="#263238" stroke="#263238" stroke-miterlimit="10"/>
<path d="M435.412 248.078L430.762 256.04L422.476 245L427.113 239.48L435.412 248.078Z" fill="#00BFFF" stroke="#263238" stroke-miterlimit="10"/>
<path d="M435.412 248.077L441.048 256.844L447.841 244.35L443.867 239.311L435.412 248.077Z" fill="#00BFFF" stroke="#263238" stroke-miterlimit="10"/>
<path d="M424.165 266.922H404.644V273.572L414.411 277.312L424.165 273.156V266.922Z" fill="#00BFFF" stroke="#263238" stroke-miterlimit="10"/>
<path d="M463.218 266.922H443.698V273.572L453.452 277.312L463.218 273.156V266.922Z" fill="#00BFFF" stroke="#263238" stroke-miterlimit="10"/>
<path d="M462.803 320.537H405.813V327.083H462.803V320.537Z" fill="#263238" stroke="#263238" stroke-miterlimit="10"/>
<path d="M404.852 325.836L394.981 329.888C394.819 332.709 395.033 335.539 395.618 338.304C396.579 342.045 397.851 350.149 398.8 351.707C399.748 353.266 404.54 356.383 405.176 355.448C405.813 354.513 408.995 327.083 408.995 327.083L404.852 325.836Z" fill="#263238" stroke="#263238" stroke-miterlimit="10"/>
<path d="M427.113 228.116V239.48L435.412 248.078L443.867 239.311V227.947L427.113 228.116Z" fill="white" stroke="#263238" stroke-miterlimit="10"/>
<path d="M421.321 217.569C421.321 217.569 419.827 214.153 418.827 216.27C417.827 218.387 418.996 221.621 420.489 222.92C421.588 223.716 422.949 224.065 424.295 223.894L423.463 219.024L421.321 217.569Z" fill="white" stroke="#263238" stroke-miterlimit="10"/>
<path d="M448.335 217.569C448.335 217.569 449.828 214.153 450.829 216.27C451.829 218.387 450.66 221.621 449.166 222.92C448.063 223.717 446.698 224.065 445.348 223.894L446.179 219.024L448.335 217.569Z" fill="white" stroke="#263238" stroke-miterlimit="10"/>
<path d="M424.139 195.01C424.139 195.01 417.164 197.932 417.164 202.802C417.164 207.673 418.164 213.193 419.827 215.31C421.489 217.427 422.801 218.881 422.801 218.881L423.139 211.894L427.944 203.621C427.944 203.621 435.905 208.647 439.88 208.647C442.101 208.667 444.321 208.506 446.516 208.166L448.01 216.44L450.166 210.439V204.919C450.166 204.919 454.14 201.179 453.309 198.75C452.478 196.322 439.022 188.685 430.762 190.633C422.502 192.581 424.139 195.01 424.139 195.01Z" fill="#263238" stroke="#263238" stroke-miterlimit="10"/>
<path d="M420.814 211.399C420.814 211.399 422.801 223.569 424.463 226.816C426.649 230.419 429.329 233.697 432.425 236.557C433.58 237.362 437.892 236.712 439.555 236.712C441.217 236.712 446.049 226.972 446.841 225.192C447.633 223.413 448.14 208.153 448.14 208.153L446.685 205.399C446.685 205.399 439.555 207.191 433.918 204.919C430.858 203.823 428.122 201.979 425.957 199.555C425.957 199.555 425.463 205.074 423.463 208.321C421.463 211.568 420.814 211.399 420.814 211.399Z" fill="white" stroke="#263238" stroke-miterlimit="10"/>
<path d="M433.581 212.699C431.575 211.652 429.35 211.095 427.087 211.076C425.145 210.999 423.213 211.386 421.45 212.206C421.45 212.206 421.45 217.726 423.281 219.843C425.113 221.96 430.412 221.297 431.905 219.518C433.399 217.739 433.581 212.699 433.581 212.699Z" fill="#263238" stroke="#263238" stroke-miterlimit="10"/>
<path d="M435.906 212.699C437.911 211.652 440.137 211.095 442.4 211.076C444.342 210.999 446.274 211.386 448.036 212.206C448.036 212.206 448.036 217.726 446.205 219.843C444.374 221.96 439.075 221.297 437.594 219.518C436.114 217.739 435.906 212.699 435.906 212.699Z" fill="#263238" stroke="#263238" stroke-miterlimit="10"/>
<path d="M433.581 212.697H435.905" stroke="#263238" stroke-miterlimit="10"/>
<path d="M399.436 315.548L409.943 315.236L417.905 322.406C417.892 323.322 417.556 324.205 416.956 324.899C415.995 325.834 413.45 325.211 413.45 325.211C413.45 325.211 411.541 329.886 408.034 329.886C404.527 329.886 395.046 323.393 395.046 323.393L399.436 315.548Z" fill="white" stroke="#263238" stroke-miterlimit="10"/>
<path d="M399.124 254.455L363.785 300.899L394.981 323.342L399.436 315.549L389.89 297.159L402.943 285.314L399.124 254.455Z" fill="#00BFFF" stroke="#263238" stroke-miterlimit="10"/>
<path d="M396.89 310.252L391.487 319.915" stroke="#263238" stroke-linecap="round" stroke-linejoin="round"/>
<path d="M389.89 297.158L385.747 286.561" stroke="#263238" stroke-linecap="round" stroke-linejoin="round"/>
<path d="M472.349 315.548L461.842 315.236L453.88 322.406C453.897 323.324 454.237 324.207 454.841 324.899C455.79 325.834 458.335 325.211 458.335 325.211C458.335 325.211 460.244 329.886 463.751 329.886C467.258 329.886 476.804 323.393 476.804 323.393L472.349 315.548Z" fill="white" stroke="#263238" stroke-miterlimit="10"/>
<path d="M472.349 251.961L508 300.898L476.804 323.341L472.349 315.549L481.895 297.158L466.933 285.002L472.349 251.961Z" fill="#00BFFF" stroke="#263238" stroke-miterlimit="10"/>
<path d="M474.894 310.252L480.297 319.915" stroke="#263238" stroke-linecap="round" stroke-linejoin="round"/>
<path d="M481.895 297.158L486.038 286.561" stroke="#263238" stroke-linecap="round" stroke-linejoin="round"/>
<path d="M70.9649 492.428C105.036 492.428 132.656 486.323 132.656 478.791C132.656 471.26 105.036 465.154 70.9649 465.154C36.8936 465.154 9.27344 471.26 9.27344 478.791C9.27344 486.323 36.8936 492.428 70.9649 492.428Z" fill="#00BFFF"/>
<path opacity="0.5" d="M70.9649 492.428C105.036 492.428 132.656 486.323 132.656 478.791C132.656 471.26 105.036 465.154 70.9649 465.154C36.8936 465.154 9.27344 471.26 9.27344 478.791C9.27344 486.323 36.8936 492.428 70.9649 492.428Z" fill="white"/>
<path d="M38.9111 464.843C38.9111 464.843 23.9493 473.259 23.9493 477.311C23.9493 481.363 33.1836 478.87 39.2358 476.013C45.2881 473.155 50.0546 471.025 50.0546 465.415C50.0546 459.804 38.9111 464.843 38.9111 464.843Z" fill="#00BFFF" stroke="#263238" stroke-miterlimit="10"/>
<path d="M110.577 464.843C110.577 464.843 125.539 473.259 125.539 477.311C125.539 481.363 116.318 478.87 110.265 476.013C104.213 473.155 99.4337 471.025 99.4337 465.415C99.4337 459.804 110.577 464.843 110.577 464.843Z" fill="#00BFFF" stroke="#263238" stroke-miterlimit="10"/>
<path d="M44.9636 327.082L38.5996 466.453C39.4788 467.179 40.496 467.719 41.5899 468.04C42.6838 468.362 43.8315 468.458 44.9636 468.323C46.9426 468.03 48.7499 467.034 50.0547 465.518L71.7052 351.759H76.16L99.0832 467.7C100.453 468.458 101.975 468.902 103.538 468.998C105.772 468.998 109.266 466.193 109.266 466.193L101.941 327.225L44.9636 327.082Z" fill="#263238" stroke="#263238" stroke-miterlimit="10"/>
<path d="M67.25 242.623L38.2745 254.455L45.9113 321.783H101.317L111.499 251.962L79.978 242L67.25 242.623Z" fill="#00BFFF" stroke="#263238" stroke-miterlimit="10"/>
<path d="M101.953 320.537H44.9635V327.083H101.953V320.537Z" fill="#263238" stroke="#263238" stroke-miterlimit="10"/>
<path d="M44.0021 325.836L34.1315 329.888C33.9696 332.709 34.1836 335.539 34.7678 338.304C35.7289 342.045 37.0017 350.149 37.9628 351.707C38.9239 353.266 43.6904 356.383 44.3268 355.448C44.9632 354.513 48.1452 327.083 48.1452 327.083L44.0021 325.836Z" fill="#263238" stroke="#263238" stroke-miterlimit="10"/>
<path d="M66.2764 228.116V239.48L74.5625 248.078L83.0175 239.311V227.947L66.2764 228.116Z" fill="white" stroke="#263238" stroke-miterlimit="10"/>
<path d="M60.4708 217.569C60.4708 217.569 58.9773 214.153 57.9772 216.27C56.9772 218.387 58.1461 221.621 59.6396 222.92C60.7427 223.717 62.1077 224.065 63.458 223.894L62.6268 219.024L60.4708 217.569Z" fill="white" stroke="#263238" stroke-miterlimit="10"/>
<path d="M87.4853 217.569C87.4853 217.569 88.9789 214.153 89.9789 216.27C90.979 218.387 89.8101 221.621 88.3165 222.92C87.218 223.716 85.8573 224.065 84.5111 223.894L85.3293 219.024L87.4853 217.569Z" fill="white" stroke="#263238" stroke-miterlimit="10"/>
<path d="M63.2888 195.01C63.2888 195.01 56.3274 197.932 56.3274 202.802C56.3274 207.673 57.3145 213.193 58.9249 215.31C60.5354 217.427 61.9121 218.881 61.9121 218.881L62.2368 211.894L67.0422 203.621C67.0422 203.621 75.0037 208.647 78.9779 208.647C81.1995 208.667 83.419 208.506 85.6146 208.166L87.1082 216.44L89.2641 210.439V204.919C89.2641 204.919 93.2384 201.179 92.4072 198.75C91.5759 196.322 78.1207 188.685 69.8605 190.633C61.6004 192.581 63.2888 195.01 63.2888 195.01Z" fill="#263238" stroke="#263238" stroke-miterlimit="10"/>
<path d="M59.9253 211.399C59.9253 211.399 61.9254 223.569 63.5748 226.816C65.7873 230.426 68.4933 233.709 71.6142 236.57C72.7701 237.375 77.082 236.725 78.7444 236.725C80.4069 236.725 85.2383 226.985 86.0435 225.205C86.8487 223.426 87.3423 208.166 87.3423 208.166L85.9006 205.399C85.9006 205.399 78.7704 207.191 73.1338 204.919C70.0741 203.823 67.3372 201.979 65.1723 199.555C65.1723 199.555 64.6788 205.074 62.6917 208.321C60.7045 211.568 59.9253 211.399 59.9253 211.399Z" fill="white" stroke="#263238" stroke-miterlimit="10"/>
<path d="M72.7311 212.699C70.7256 211.652 68.4999 211.095 66.2372 211.076C64.2952 210.999 62.3629 211.386 60.6006 212.206C60.6006 212.206 60.6006 217.726 62.4189 219.843C64.2371 221.96 69.5491 221.297 71.0427 219.518C72.5363 217.739 72.7311 212.699 72.7311 212.699Z" fill="#263238" stroke="#263238" stroke-miterlimit="10"/>
<path d="M75.056 212.699C77.0615 211.652 79.2872 211.095 81.5499 211.076C83.4919 210.999 85.4242 211.386 87.1865 212.206C87.1865 212.206 87.1865 217.726 85.3553 219.843C83.524 221.96 78.238 221.297 76.7444 219.518C75.2508 217.739 75.056 212.699 75.056 212.699Z" fill="#263238" stroke="#263238" stroke-miterlimit="10"/>
<path d="M72.731 212.697H75.0558" stroke="#263238" stroke-miterlimit="10"/>
<path d="M70.432 252.271L73.9257 257.882L68.1981 306.196L75.2115 316.482L81.2507 305.261L76.4843 257.258L80.6143 250.726L74.5621 248.076L70.432 252.271Z" fill="#263238" stroke="#263238" stroke-miterlimit="10"/>
<path d="M74.5623 248.078L69.9127 256.04L61.6266 245L66.2762 239.48L74.5623 248.078Z" fill="#00BFFF" stroke="#263238" stroke-miterlimit="10"/>
<path d="M74.5621 248.077L80.1988 256.844L86.9913 244.35L83.0171 239.311L74.5621 248.077Z" fill="#00BFFF" stroke="#263238" stroke-miterlimit="10"/>
<path d="M38.2748 254.455L2.9353 300.899L34.1317 323.342L38.5995 315.549L29.0405 297.159L42.0931 285.314L38.2748 254.455Z" fill="#00BFFF" stroke="#263238" stroke-miterlimit="10"/>
<path d="M38.5994 315.548L49.0934 315.236L57.0548 322.406C57.0421 323.322 56.7064 324.205 56.1067 324.899C55.1456 325.834 52.6001 325.211 52.6001 325.211C52.6001 325.211 50.6909 329.886 47.1842 329.886C43.6775 329.886 34.1965 323.393 34.1965 323.393L38.5994 315.548Z" fill="white" stroke="#263238" stroke-miterlimit="10"/>
<path d="M36.0538 310.252L30.6379 319.915" stroke="#263238" stroke-linecap="round" stroke-linejoin="round"/>
<path d="M29.0406 297.158L24.9105 286.561" stroke="#263238" stroke-linecap="round" stroke-linejoin="round"/>
<path d="M111.499 251.961L147.151 300.898L115.954 323.341L111.499 315.549L121.045 297.158L106.083 285.002L111.499 251.961Z" fill="#00BFFF" stroke="#263238" stroke-miterlimit="10"/>
<path d="M111.499 315.548L100.992 315.236L93.0306 322.406C93.047 323.324 93.3874 324.207 93.9917 324.899C94.9398 325.834 97.4854 325.211 97.4854 325.211C97.4854 325.211 99.3946 329.886 102.901 329.886C106.408 329.886 115.889 323.393 115.889 323.393L111.499 315.548Z" fill="white" stroke="#263238" stroke-miterlimit="10"/>
<path d="M114.045 310.252L119.461 319.915" stroke="#263238" stroke-linecap="round" stroke-linejoin="round"/>
<path d="M121.045 297.158L125.188 286.561" stroke="#263238" stroke-linecap="round" stroke-linejoin="round"/>
<path d="M63.3148 266.922H43.7943V273.572L53.561 277.312L63.3148 273.156V266.922Z" fill="#00BFFF" stroke="#263238" stroke-miterlimit="10"/>
<path d="M102.369 266.922H82.8484V273.572L92.6151 277.312L102.369 273.156V266.922Z" fill="#00BFFF" stroke="#263238" stroke-miterlimit="10"/>
</svg>
